<?xml version="1.0" encoding="UTF-8" standalone="no"?>
<!-- Created with Inkscape (http://www.inkscape.org/) -->

<svg
   width="11.901549mm"
   height="12.699997mm"
   viewBox="0 0 11.901549 12.699997"
   version="1.1"
   id="svg5"
   xml:space="preserve"
   xmlns:xlink="http://www.w3.org/1999/xlink"
   xmlns="http://www.w3.org/2000/svg"
   xmlns:svg="http://www.w3.org/2000/svg"><defs
     id="defs2"><linearGradient
       id="linearGradient64309"><stop
         style="stop-color:#000000;stop-opacity:1;"
         offset="0"
         id="stop64305" /><stop
         style="stop-color:#2f2f2f;stop-opacity:1;"
         offset="1"
         id="stop64307" /></linearGradient><linearGradient
       id="linearGradient64301"><stop
         style="stop-color:#000000;stop-opacity:1;"
         offset="0"
         id="stop64297" /><stop
         style="stop-color:#2f2f2f;stop-opacity:1;"
         offset="1"
         id="stop64299" /></linearGradient><linearGradient
       id="linearGradient63493"><stop
         style="stop-color:#969696;stop-opacity:1;"
         offset="0"
         id="stop63489" /><stop
         style="stop-color:#c8c8c8;stop-opacity:1;"
         offset="1"
         id="stop63491" /></linearGradient><linearGradient
       id="linearGradient62413"><stop
         style="stop-color:#000000;stop-opacity:1;"
         offset="0"
         id="stop62409" /><stop
         style="stop-color:#2f2f2f;stop-opacity:1;"
         offset="1"
         id="stop62411" /></linearGradient><linearGradient
       id="linearGradient62202"><stop
         style="stop-color:#000000;stop-opacity:1;"
         offset="0"
         id="stop62198" /><stop
         style="stop-color:#2f2f2f;stop-opacity:1;"
         offset="1"
         id="stop62200" /></linearGradient><linearGradient
       id="linearGradient62193"><stop
         style="stop-color:#969696;stop-opacity:1;"
         offset="0"
         id="stop62189" /><stop
         style="stop-color:#c8c8c8;stop-opacity:1;"
         offset="1"
         id="stop62191" /></linearGradient><linearGradient
       id="linearGradient62180"><stop
         style="stop-color:#969696;stop-opacity:1;"
         offset="0"
         id="stop62176" /><stop
         style="stop-color:#c8c8c8;stop-opacity:1;"
         offset="1"
         id="stop62178" /></linearGradient><linearGradient
       id="linearGradient62160"><stop
         style="stop-color:#464646;stop-opacity:1;"
         offset="0"
         id="stop62156" /><stop
         style="stop-color:#464646;stop-opacity:0;"
         offset="1"
         id="stop62158" /></linearGradient><linearGradient
       id="linearGradient61359"><stop
         style="stop-color:#000000;stop-opacity:1;"
         offset="0"
         id="stop61355" /><stop
         style="stop-color:#2f2f2f;stop-opacity:1;"
         offset="1"
         id="stop61357" /></linearGradient><linearGradient
       id="linearGradient60576"><stop
         style="stop-color:#fc0000;stop-opacity:1;"
         offset="0"
         id="stop60572" /><stop
         style="stop-color:#fc6a00;stop-opacity:1;"
         offset="1"
         id="stop60574" /></linearGradient><linearGradient
       id="linearGradient59671"><stop
         style="stop-color:#f50000;stop-opacity:1;"
         offset="0"
         id="stop59667" /><stop
         style="stop-color:#fc6a00;stop-opacity:1;"
         offset="1"
         id="stop59669" /></linearGradient><linearGradient
       id="linearGradient55583"><stop
         style="stop-color:#f4a77e;stop-opacity:1;"
         offset="0"
         id="stop55579" /><stop
         style="stop-color:#f46f40;stop-opacity:1;"
         offset="1"
         id="stop55581" /></linearGradient><linearGradient
       id="linearGradient55368"><stop
         style="stop-color:#f4a77e;stop-opacity:1;"
         offset="0"
         id="stop55364" /><stop
         style="stop-color:#f46f40;stop-opacity:1;"
         offset="1"
         id="stop55366" /></linearGradient><linearGradient
       id="linearGradient51582"><stop
         style="stop-color:#f91c00;stop-opacity:1;"
         offset="0"
         id="stop51578" /><stop
         style="stop-color:#f99d00;stop-opacity:1;"
         offset="1"
         id="stop51580" /></linearGradient><linearGradient
       id="linearGradient50523"><stop
         style="stop-color:#fc0000;stop-opacity:1;"
         offset="0"
         id="stop50519" /><stop
         style="stop-color:#fc6a00;stop-opacity:1;"
         offset="1"
         id="stop50521" /></linearGradient><linearGradient
       id="linearGradient49756"><stop
         style="stop-color:#f50000;stop-opacity:1;"
         offset="0"
         id="stop49752" /><stop
         style="stop-color:#ff4f00;stop-opacity:1;"
         offset="1"
         id="stop49754" /></linearGradient><linearGradient
       id="linearGradient45860"><stop
         style="stop-color:#000000;stop-opacity:1;"
         offset="0"
         id="stop45856" /><stop
         style="stop-color:#2f2f2f;stop-opacity:1;"
         offset="1"
         id="stop45858" /></linearGradient><linearGradient
       id="linearGradient45844"><stop
         style="stop-color:#000000;stop-opacity:1;"
         offset="0"
         id="stop45842" /></linearGradient><linearGradient
       xlink:href="#linearGradient45860"
       id="linearGradient45862"
       x1="-20.356085"
       y1="118.07265"
       x2="-18.109657"
       y2="118.07265"
       gradientUnits="userSpaceOnUse" /><linearGradient
       xlink:href="#linearGradient49756"
       id="linearGradient49758"
       x1="-19.885185"
       y1="115.24645"
       x2="-18.733461"
       y2="115.24645"
       gradientUnits="userSpaceOnUse" /><linearGradient
       xlink:href="#linearGradient50523"
       id="linearGradient50525"
       x1="-20.133801"
       y1="115.66431"
       x2="-19.019243"
       y2="115.66431"
       gradientUnits="userSpaceOnUse" /><linearGradient
       xlink:href="#linearGradient51582"
       id="linearGradient51584"
       x1="-19.830269"
       y1="115.62946"
       x2="-20.123875"
       y2="115.80085"
       gradientUnits="userSpaceOnUse" /><linearGradient
       xlink:href="#linearGradient55368"
       id="linearGradient55370"
       x1="-20.901991"
       y1="119.44694"
       x2="-18.223547"
       y2="119.32657"
       gradientUnits="userSpaceOnUse" /><linearGradient
       xlink:href="#linearGradient55583"
       id="linearGradient55585"
       x1="-20.809834"
       y1="118.21287"
       x2="-19.831745"
       y2="118.21287"
       gradientUnits="userSpaceOnUse" /><linearGradient
       xlink:href="#linearGradient59671"
       id="linearGradient59673"
       x1="-20.669508"
       y1="118.84241"
       x2="-20.337376"
       y2="119.35281"
       gradientUnits="userSpaceOnUse" /><linearGradient
       xlink:href="#linearGradient60576"
       id="linearGradient60578"
       x1="-21.513857"
       y1="117.79252"
       x2="-21.940426"
       y2="117.04384"
       gradientUnits="userSpaceOnUse" /><linearGradient
       xlink:href="#linearGradient61359"
       id="linearGradient61361"
       x1="-21.154638"
       y1="120.56013"
       x2="-18.249729"
       y2="120.25814"
       gradientUnits="userSpaceOnUse" /><linearGradient
       xlink:href="#linearGradient62160"
       id="linearGradient62162"
       x1="-24.169222"
       y1="72.176544"
       x2="-23.318855"
       y2="72.176544"
       gradientUnits="userSpaceOnUse" /><linearGradient
       xlink:href="#linearGradient62180"
       id="linearGradient62182"
       x1="-29.677851"
       y1="74.077843"
       x2="-28.6052"
       y2="74.077843"
       gradientUnits="userSpaceOnUse" /><linearGradient
       xlink:href="#linearGradient62193"
       id="linearGradient62195"
       x1="-29.394188"
       y1="73.859879"
       x2="-28.88147"
       y2="74.660721"
       gradientUnits="userSpaceOnUse" /><radialGradient
       xlink:href="#linearGradient62202"
       id="radialGradient62403"
       cx="-32.528366"
       cy="73.305809"
       fx="-32.528366"
       fy="73.305809"
       r="0.14487828"
       gradientUnits="userSpaceOnUse" /><radialGradient
       xlink:href="#linearGradient62202"
       id="radialGradient62407"
       gradientUnits="userSpaceOnUse"
       cx="-32.528366"
       cy="73.305809"
       fx="-32.528366"
       fy="73.305809"
       r="0.14487828"
       gradientTransform="translate(-0.94753265,-1.2689667)" /><linearGradient
       xlink:href="#linearGradient62413"
       id="linearGradient62415"
       x1="-23.459694"
       y1="119.69993"
       x2="-23.140306"
       y2="119.5779"
       gradientUnits="userSpaceOnUse" /><linearGradient
       xlink:href="#linearGradient63493"
       id="linearGradient63495"
       x1="-29.137346"
       y1="73.232597"
       x2="-28.349934"
       y2="72.746292"
       gradientUnits="userSpaceOnUse" /><linearGradient
       xlink:href="#linearGradient64301"
       id="linearGradient64303"
       x1="-20.042828"
       y1="123.0577"
       x2="-19.606159"
       y2="122.46354"
       gradientUnits="userSpaceOnUse" /><linearGradient
       xlink:href="#linearGradient64309"
       id="linearGradient64311"
       x1="-18.66539"
       y1="123.14192"
       x2="-18.019032"
       y2="123.14192"
       gradientUnits="userSpaceOnUse" /></defs><g
     id="layer1"
     transform="translate(27.281657,-112.56012)"><g
       id="g1"><path
         style="fill:url(#linearGradient51584);fill-opacity:1;stroke-width:0.485436"
         d="m -20.123876,115.80082 0.293608,-0.17136 -0.223922,0.0299 -0.07961,0.0991 z"
         id="path45589" /><path
         id="path45591"
         style="fill:url(#linearGradient64303);fill-opacity:1;stroke-width:0.485436"
         d="m -19.41368,122.32024 c -0.01303,0.0147 -0.02561,0.0286 -0.03792,0.0407 -0.0123,0.0128 -0.02453,0.0224 -0.03603,0.0323 -0.01156,0.009 -0.02247,0.0189 -0.03319,0.0266 -0.01064,0.007 -0.02044,0.0147 -0.03035,0.02 -0.0099,0.005 -0.01935,0.011 -0.02844,0.0147 -0.0092,0.004 -0.01835,0.007 -0.02655,0.009 -0.0083,0.001 -0.01633,0.004 -0.02371,0.005 -0.0075,10e-4 -0.01413,10e-4 -0.02086,0.004 -0.0066,3.2e-4 -0.01321,-4.4e-4 -0.01895,-7.4e-4 -0.0059,-5.2e-4 -0.01119,-7.4e-4 -0.01615,-0.001 -0.0049,-7.3e-4 -0.0092,-10e-4 -0.01321,-0.004 -0.0042,-0.001 -0.0081,-0.004 -0.01137,-0.005 -0.0066,-0.004 -0.01174,-0.007 -0.01523,-0.009 -0.0033,-10e-4 -0.0057,-0.004 -0.0057,-0.004 0,0 -0.190268,0.2706 -0.268317,0.384 -0.115367,0.1677 0.01859,0.21184 0.188676,0.22468 0.09427,0.007 0.223666,-0.15155 0.334685,-0.26736 0.07489,-0.0782 0.212538,-0.16934 0.151694,-0.32047 -0.0134,-0.0334 -0.04645,-0.0849 -0.08913,-0.14879 z" /><path
         id="path45593"
         style="fill:url(#linearGradient64311);fill-opacity:1;stroke-width:0.485436"
         d="m -18.076835,122.80947 c -0.0049,0.007 -0.01027,0.0128 -0.01523,0.02 -0.0049,0.005 -0.0094,0.0129 -0.01431,0.0184 -0.0049,0.005 -0.01027,0.011 -0.01523,0.0147 -0.0049,0.005 -0.0094,0.009 -0.01431,0.0147 -0.0049,0.004 -0.01027,0.009 -0.01523,0.0128 -0.0049,0.004 -0.0094,0.007 -0.01431,0.011 -0.0048,0.004 -0.01027,0.007 -0.01523,0.009 -0.0048,0.004 -0.0095,0.005 -0.01431,0.007 -0.0048,0.001 -0.0095,0.005 -0.01431,0.007 -0.0048,0.001 -0.0086,0.004 -0.01321,0.005 -0.0092,0.004 -0.01868,0.005 -0.0275,0.007 -0.0088,0.001 -0.01725,0.001 -0.0256,0.004 -0.0083,4.4e-4 -0.01688,5.5e-4 -0.02466,0 -0.0077,-5.3e-4 -0.01468,-0.001 -0.0218,-0.004 -0.0072,-0.001 -0.01357,-0.004 -0.01991,-0.005 -0.0064,-0.001 -0.01247,-0.004 -0.01798,-0.005 -0.0055,-10e-4 -0.01064,-0.004 -0.01523,-0.007 -0.0092,-0.004 -0.01688,-0.009 -0.02182,-0.011 -0.0049,-0.004 -0.0075,-0.005 -0.0075,-0.005 0,0 -0.215862,0.28402 -0.254094,0.38493 -0.0482,0.12714 0.176353,0.18291 0.176353,0.18291 0.08249,0.0286 0.212388,-0.12585 0.325205,-0.2484 0.08197,-0.0892 0.186893,-0.16678 0.112834,-0.34228 -0.01027,-0.0242 -0.0211,-0.0473 -0.03319,-0.0701 z" /><path
         style="fill:url(#linearGradient55585);fill-opacity:1;stroke-width:0.485436"
         d="m -20.360689,117.36681 c 0,0 -0.204971,0.71949 -0.2727,0.89504 -0.04857,0.12585 -0.176445,0.36404 -0.176445,0.36404 l 0.280653,0.43304 0.697436,-1.27536 -0.430737,-0.19385 z"
         id="path45597" /><path
         id="path45595"
         style="fill:url(#linearGradient55370);fill-opacity:1;stroke-width:0.485436"
         d="m -19.335769,115.05189 c -0.164671,0.003 -0.497489,0.0423 -0.522449,0.31213 -0.01108,0.29942 -0.118378,0.8787 0.203089,1.01337 0.01282,0.005 0.07391,0.0206 0.15968,0.0413 -0.157281,0.0512 -0.215779,0.0634 -0.397909,0.0941 -0.251532,0.0672 -0.36464,0.0963 -0.462504,0.64854 l -1.37666,0.005 0.253732,0.43408 c 0.343912,0.10952 1.075511,0.22211 1.422135,0.17932 0.160134,0.55409 0.06926,0.95316 0.267684,1.60249 -0.466558,0.53128 -1.144318,1.22793 -1.04128,1.63556 0.06238,0.26564 0.368094,0.63058 0.513147,0.80873 0.350119,0.43028 0.58601,0.62167 0.58601,0.62167 0,0 0.0024,0.001 0.0057,0.004 0.0033,0.001 0.0082,0.005 0.01499,0.009 0.0033,0.001 0.0072,0.004 0.01137,0.005 0.0042,0.001 0.0085,0.001 0.01344,0.004 0.0049,7.3e-4 0.01014,0.001 0.01602,0.001 0.0059,5e-4 0.01247,7.8e-4 0.01912,5.2e-4 0.0066,-2.9e-4 0.01321,-6.2e-4 0.02067,-0.004 0.0075,-10e-4 0.01547,-0.004 0.02377,-0.005 0.0083,-0.001 0.01723,-0.005 0.02636,-0.009 0.0092,-0.004 0.01853,-0.009 0.02842,-0.015 0.0099,-0.005 0.01977,-0.013 0.03049,-0.0202 0.01064,-0.007 0.02156,-0.0162 0.03307,-0.0263 0.01156,-0.009 0.02386,-0.0203 0.03617,-0.0326 0.0123,-0.0128 0.02462,-0.0256 0.03772,-0.0403 -0.107165,-0.16072 -0.278368,-0.40783 -0.379822,-0.69918 -0.120505,-0.34603 -0.300757,-0.54777 -0.300757,-0.54777 l 0.753959,-0.72347 c 0,0 -0.359728,0.67254 -0.270267,1.11518 0.05442,0.26932 0.328516,0.53147 0.574641,0.80098 0.382942,0.41936 0.632003,0.63614 0.632003,0.63614 0,0 0.0029,0.001 0.0078,0.005 0.0049,0.004 0.01254,0.007 0.0217,0.0109 0.0046,0.001 0.0095,0.004 0.01499,0.007 0.0055,10e-4 0.01167,0.004 0.01809,0.005 0.0064,0.001 0.01309,0.004 0.02015,0.005 0.0072,0.001 0.01403,0.001 0.0217,0.004 0.0077,5.7e-4 0.01647,4.6e-4 0.0248,0 0.0083,-4.1e-4 0.01642,-0.001 0.02532,-0.004 0.0088,-10e-4 0.01824,-0.004 0.02739,-0.007 0.0046,-0.001 0.0088,-0.004 0.01344,-0.005 0.0048,-10e-4 0.0097,-0.004 0.01447,-0.007 0.0048,-0.001 0.009,-0.005 0.01395,-0.007 0.0048,-0.004 0.01054,-0.005 0.0155,-0.009 0.0048,-0.004 0.0096,-0.007 0.01447,-0.0109 0.0049,-0.004 0.01003,-0.007 0.01499,-0.0129 0.0049,-0.004 0.0096,-0.009 0.01447,-0.0145 0.0049,-0.005 0.01003,-0.009 0.01499,-0.015 0.0049,-0.005 0.0096,-0.0107 0.01447,-0.0181 0.0049,-0.005 0.01003,-0.013 0.01499,-0.0202 -0.09168,-0.1732 -0.234567,-0.32404 -0.38964,-0.71313 -0.148337,-0.37218 -0.414962,-0.62942 -0.414962,-0.62942 0,0 0.177025,-0.26414 0.253214,-0.40359 0.142025,-0.2599 0.319579,-0.51379 0.378272,-0.80409 0.07783,-0.38493 -0.05493,-0.71292 -0.04961,-1.17667 0.01046,-0.38571 0.148336,-1.03913 0.164848,-1.57561 0.02174,-0.70353 -0.06538,-0.74998 -0.277502,-0.8537 -0.103378,-0.048 -0.194067,-0.0848 -0.273369,-0.11472 -1.98e-4,-8e-5 -3.18e-4,-4.4e-4 -5.16e-4,-5.2e-4 -0.05571,-0.0335 -0.110576,-0.0751 -0.140043,-0.12609 -0.0438,-0.0758 -0.04466,-0.20316 -0.02687,-0.26096 0.328235,-1.06358 -0.392224,-1.09606 -0.392224,-1.09606 0,0 -0.03606,-0.003 -0.09095,-0.002 z" /><g
         id="g45617"
         transform="matrix(1.8279185,0.15782326,-0.15782326,1.8279185,41.845011,-9.9042975)"
         style="fill:#3b3a3a;fill-opacity:1"><g
           id="g45601"
           transform="matrix(0.88696078,-0.03914625,0.03914625,0.88696078,-10.774132,9.2539626)"
           style="fill:url(#linearGradient62162);fill-opacity:1" /><g
           id="g62174"
           style="fill:url(#linearGradient62182);fill-opacity:1" /><circle
           style="fill:url(#radialGradient62407);fill-opacity:1;stroke-width:0.230456"
           id="circle62405"
           cx="-33.475899"
           cy="72.036842"
           r="0.14487828"
           transform="rotate(-2.9688105)" /><path
           style="fill:url(#linearGradient63495);fill-opacity:1;stroke-width:0.234903"
           d="m -29.227636,73.24384 0.973111,-0.720447 -0.422076,-0.542965 c -0.01838,-0.02365 0.04844,-0.07543 0.07946,-0.04112 0.03102,0.03431 0.791253,1.037152 0.890902,1.16554 0.0161,0.02075 -0.03733,0.07821 -0.06607,0.04294 -0.06563,-0.08055 -0.413192,-0.523613 -0.413192,-0.523613 l -0.983093,0.730125 z"
           id="path45611" /><path
           id="path45613"
           style="fill:url(#linearGradient62195);fill-opacity:1;stroke-width:0.264583"
           d="m -29.218616,73.239497 c -0.0033,6.09e-4 -0.0063,0.0022 -0.0089,0.0044 -0.02233,0.01903 -0.309501,0.225143 -0.406793,0.29493 -7.08e-4,4.76e-4 -0.0014,0.0011 -0.0021,0.0016 -0.0019,0.0014 -0.004,0.0028 -0.0061,0.0045 -0.01367,0.01296 -0.02977,0.02822 -0.03185,0.03019 -0.04125,0.04357 -0.08654,0.10826 -0.06951,0.134634 0.0168,0.02601 0.08951,0.0074 0.142982,-0.01715 0.01913,-0.01042 0.02906,-0.01584 0.03942,-0.02148 0.0018,-0.0012 0.0034,-0.0026 0.005,-0.0038 l 0.0013,-9.63e-4 c 3.2e-4,-2.46e-4 4.8e-4,-3.79e-4 7.94e-4,-6.34e-4 l 0.0011,-6.58e-4 c 3.07e-4,-2.64e-4 4.68e-4,-6.42e-4 7.69e-4,-9.14e-4 l 0.07027,-0.05384 c 0,0 0.0022,0.452283 0.04186,0.530701 0.03962,0.07842 0.617394,0.775589 0.617394,0.775589 l 0.104562,-0.05285 c 0,0 -0.0051,-0.0062 -0.0063,-0.0077 l 0.03222,-0.01974 0.04997,0.06467 c 0.02502,-0.04451 0.03813,-0.08301 0.02369,-0.135474 -0.03069,-0.03839 -0.07921,-0.09889 -0.07921,-0.09889 l -0.50011,-0.625421 c -0.04489,-0.05615 -0.110072,-0.425062 -0.126937,-0.523921 2.66e-4,-0.0047 7.38e-4,-0.01109 7.38e-4,-0.01109 l 0.184967,-0.143188 c 0.04021,-0.03114 -0.03986,-0.13069 -0.07908,-0.1235 z" /><circle
           style="fill:url(#radialGradient62403);fill-opacity:1;stroke-width:0.230456"
           id="circle45607"
           cx="-32.528366"
           cy="73.305809"
           r="0.14487828"
           transform="rotate(-2.9688105)" /><path
           style="fill:#c8c8c8;fill-opacity:1;stroke-width:0.144209"
           d="m -28.752638,74.762469 0.110109,0.138514 0.02369,-0.135474 -0.06255,-0.07811 z"
           id="path62263" /></g><path
         style="fill:url(#linearGradient59673);fill-opacity:1;stroke-width:0.485436"
         d="m -20.90199,118.76144 0.132815,-0.0886 c 0,0 0.189738,0.2722 0.4318,0.67997 0.02461,0.0415 -0.07933,0.14127 -0.12755,0.068 -0.132889,-0.2016 -0.437065,-0.65947 -0.437065,-0.65947 z"
         id="path45619" /><path
         style="fill:#f48053;fill-opacity:1;stroke-width:0.542853"
         d="m -20.927486,118.71548 c 0,0 -0.03596,0.0646 -0.01798,0.13118 0.01816,0.0666 0.175711,0.28253 0.229764,0.31389 0.06457,0.0374 0.07071,0.0147 0.131035,-0.0258 0.04453,-0.0327 0.06775,-0.20373 0.02772,-0.2579 -0.04591,-0.0622 -0.370569,-0.16128 -0.370569,-0.16128 z"
         id="path45621" /><path
         style="fill:url(#linearGradient60578);fill-opacity:1;stroke-width:0.485436"
         d="m -21.513856,117.79252 0.130614,-0.0868 c 0,0 -0.219116,-0.36292 -0.409493,-0.64672 -0.03048,-0.0455 -0.181105,0.0198 -0.140925,0.0853 0.148906,0.24199 0.41981,0.6483 0.41981,0.6483 z"
         id="path45623" /><path
         style="fill:#f48b5f;fill-opacity:1;stroke-width:0.485436"
         d="m -21.885141,117.21383 c 0,0 -0.02247,0.0879 -0.01174,0.14898 0.01083,0.0611 0.174886,0.29761 0.174886,0.29761 0,0 0.05386,0.0664 0.124155,0.0503 0.07027,-0.0165 0.109367,-0.23256 0.08588,-0.29251 -0.05048,-0.12898 -0.373105,-0.20433 -0.373105,-0.20433 z"
         id="path45625" /><path
         style="fill:#222222;fill-opacity:1;stroke-width:0.485436"
         d="m -19.541209,115.21335 c 0,0 0.139128,-0.25679 0.287813,-0.20132 0.148685,0.0554 0.14586,0.18433 0.14586,0.18433 0,0 -0.166537,-0.24066 -0.43368,0.0165 z"
         id="path45633" /><path
         style="fill:#222222;fill-opacity:1;stroke-width:0.485436"
         d="m -19.376448,115.26946 c 0,0 0.139126,-0.25681 0.28781,-0.20133 0.148686,0.0554 0.14586,0.18434 0.14586,0.18434 0,0 -0.166537,-0.24069 -0.433678,0.0165 z"
         id="path45635" /><path
         style="fill:#222222;fill-opacity:1;stroke-width:0.485436"
         d="m -19.715863,115.19984 c 0,0 0.139127,-0.25678 0.287813,-0.20132 0.148685,0.0554 0.14586,0.18433 0.14586,0.18433 0,0 -0.166538,-0.24065 -0.43368,0.0165 z"
         id="path45637" /><path
         style="fill:#6b2d02;fill-opacity:1;stroke-width:0.485436"
         d="m -19.204697,115.23513 c 0,0 0.250881,-0.14953 0.350286,-0.0259 0.09941,0.12367 0.03108,0.23302 0.03108,0.23302 0,0 -0.02004,-0.292 -0.381371,-0.20718 z"
         id="path45639" /><path
         style="fill:#222222;fill-opacity:1;stroke-width:0.485436"
         d="m -19.852373,115.34492 c 0,0 0.04087,-0.30486 0.199498,-0.30547 0.158704,-6.5e-4 0.201568,0.12091 0.201568,0.12091 0,0 -0.301699,-0.0226 -0.401066,0.18454 z"
         id="path45641" /><path
         id="path45643"
         style="fill:url(#linearGradient61361);fill-opacity:1;stroke:none;stroke-width:0.485436"
         d="m -19.806024,119.32657 c 0,0 0.01828,0.0477 0.0052,0.0579 -0.05447,0.0423 -0.19977,0.15663 -0.243396,0.20464 -0.08706,0.0958 -0.307006,0.34357 -0.361218,0.39326 -0.09225,0.0846 -0.258082,0.39983 -0.248047,0.44183 0.02776,0.21176 0.532091,0.56839 0.638204,0.60255 l 0.0021,-5.2e-4 c 0.03974,0.001 0.140543,-0.12651 0.26355,-0.25889 0.03149,-0.034 0.139374,-0.0896 0.194303,-0.16485 0.07059,-0.0968 0.153634,-0.18767 0.211357,-0.24753 -0.117901,0.16816 -0.256177,0.62231 -0.240812,0.64905 0,0 0.718347,0.47064 0.767912,0.43512 0.02464,-0.0184 0.166374,-0.35376 0.262516,-0.47542 0.06172,-0.0782 0.19637,-0.36691 0.19637,-0.36691 0,0 0.08588,-0.22586 0.0925,-0.25735 0.0864,-0.32005 0.01934,-0.68231 -0.02222,-0.98753 l -0.843876,0.23151 z" /><path
         id="path45647"
         style="fill:url(#linearGradient45862);fill-opacity:1;stroke:none;stroke-width:0.485436"
         d="m -19.647894,116.46318 c -0.333891,0.0514 -0.506437,0.11028 -0.575676,0.24649 -0.114756,0.22576 -0.132292,0.45527 -0.132292,0.45527 l 1.103292,0.0357 c 0,0 0.153932,0.35274 -0.06563,0.52968 -0.05315,0.0427 -0.150014,0.0398 -0.248563,0.0403 -0.205946,9.9e-4 -0.452791,-9.9e-4 -0.457854,-10e-4 h -0.0031 l -0.45682,0.005 c 0,0 0.283787,0.0837 0.473356,0.13849 l 0.0646,0.55862 c 0,0 -0.02344,0.53698 0,0.67128 0.02343,0.1343 0.182418,0.23616 0.182418,0.23616 0,0 0.02924,0.15266 0.190169,0.15761 0.160923,0.005 0.416188,0.24011 0.908988,0.10232 0.492798,-0.13779 0.381372,-0.36225 0.381372,-0.36225 0,0 -0.01788,-0.0937 0.02015,-0.19689 0.02749,-0.0747 0.04217,-0.1234 0.03669,-0.21239 -0.01541,-0.24876 0.05642,-0.82934 0.0801,-1.12654 0.08302,-1.01844 0.08354,-0.97081 -0.612366,-1.25264 0,0 -0.403007,0.50835 -0.888834,-0.0248 z" /><path
         style="fill:url(#linearGradient49758);fill-opacity:1;stroke-width:0.0381963"
         d="m -19.885185,115.5307 c 0,0 0.02644,-0.27127 0.06132,-0.37586 0.119349,-0.20604 0.310492,-0.28253 0.563881,-0.29154 0.147823,0.004 0.274303,0.0299 0.404122,0.18274 0.129807,0.15284 0.122321,0.32112 0.122321,0.32112 l -0.0059,0.2253 c -0.114431,0.0545 -0.212655,0.0369 -0.283996,0.0226 -0.11256,7.4e-4 -0.650325,-0.13796 -0.650325,-0.13796 z"
         id="path45651" /><path
         style="fill:url(#linearGradient50525);fill-opacity:1;stroke-width:0.0381963"
         d="m -19.887216,115.53077 c 0,0 -0.112414,0.0844 -0.166978,0.12862 -0.0211,0.0165 -0.108799,0.0644 -0.06968,0.14146 -0.0052,-0.0314 -0.0072,-0.13449 0.219254,-0.12201 0.03921,0.004 0.168373,0.0694 0.296165,0.12604 0.0211,0.009 0.142172,0.0734 0.208615,0.0607 0.206908,-0.0396 0.330757,-0.17541 0.380597,-0.24977 -0.130045,-0.033 -0.356102,-0.0906 -0.514941,-0.131 -0.164978,-0.042 -0.252048,-0.028 -0.35303,0.0461 z"
         id="path45653" /><path
         style="fill:url(#linearGradient62415);fill-opacity:1;stroke-width:0.485436"
         d="m -23.306365,119.79714 c -0.01358,-0.13981 -0.06144,-0.15687 -0.153328,-0.2361 0.13098,-0.0783 0.319373,-0.19446 0.319373,-0.19446 0.07476,-0.0459 0.226002,0.17577 0.142282,0.23158 z"
         id="path45655" /></g></g></svg>
