<svg xmlns="http://www.w3.org/2000/svg" width="600" height="400"><path d="M255.8,210.7L191.9,151L191.7,211.2Z" fill="rgb(253,134,101)" shape-rendering="crispEdges"/><path d="M255.8,210.7L283.8,139.8L191.9,151Z" fill="rgb(252,135,102)" shape-rendering="crispEdges"/><path d="M191.7,211.2L235,288.7L255.8,210.7Z" fill="rgb(248,112,82)" shape-rendering="crispEdges"/><path d="M255.8,210.7L346.2,203.5L283.8,139.8Z" fill="rgb(252,114,81)" shape-rendering="crispEdges"/><path d="M131.2,295L184.9,299.6L191.7,211.2Z" fill="rgb(243,119,92)" shape-rendering="crispEdges"/><path d="M191.7,211.2L184.9,299.6L235,288.7Z" fill="rgb(242,110,82)" shape-rendering="crispEdges"/><path d="M347,249L346.2,203.5L255.8,210.7Z" fill="rgb(247,93,64)" shape-rendering="crispEdges"/><path d="M275.8,50.1L214.2,49.4L283.8,139.8Z" fill="rgb(255,166,138)" shape-rendering="crispEdges"/><path d="M283.8,139.8L214.2,49.4L191.9,151Z" fill="rgb(253,160,130)" shape-rendering="crispEdges"/><path d="M95.9,122.7L92.5,205.2L191.9,151Z" fill="rgb(254,169,141)" shape-rendering="crispEdges"/><path d="M191.9,151L92.5,205.2L191.7,211.2Z" fill="rgb(254,150,118)" shape-rendering="crispEdges"/><path d="M214.2,49.4L95.9,122.7L191.9,151Z" fill="rgb(253,179,152)" shape-rendering="crispEdges"/><path d="M235,288.7L347,249L255.8,210.7Z" fill="rgb(246,91,64)" shape-rendering="crispEdges"/><path d="M332.2,56.2L275.8,50.1L283.8,139.8Z" fill="rgb(255,156,126)" shape-rendering="crispEdges"/><path d="M393.7,128.9L355.5,126L346.2,203.5Z" fill="rgb(248,109,79)" shape-rendering="crispEdges"/><path d="M346.2,203.5L355.5,126L283.8,139.8Z" fill="rgb(250,117,85)" shape-rendering="crispEdges"/><path d="M92.5,205.2L131.2,295L191.7,211.2Z" fill="rgb(252,138,109)" shape-rendering="crispEdges"/><path d="M196.1,350.5L279.5,326.7L235,288.7Z" fill="rgb(220,88,65)" shape-rendering="crispEdges"/><path d="M235,288.7L279.5,326.7L347,249Z" fill="rgb(232,79,56)" shape-rendering="crispEdges"/><path d="M196.1,350.5L235,288.7L184.9,299.6Z" fill="rgb(225,99,75)" shape-rendering="crispEdges"/><path d="M355.5,126L332.2,56.2L283.8,139.8Z" fill="rgb(253,139,108)" shape-rendering="crispEdges"/><path d="M111.5,335.2L196.1,350.5L184.9,299.6Z" fill="rgb(221,109,85)" shape-rendering="crispEdges"/><path d="M25.8,31.7L50.4,140.1L95.9,122.7Z" fill="rgb(254,209,190)" shape-rendering="crispEdges"/><path d="M95.9,122.7L50.4,140.1L92.5,205.2Z" fill="rgb(255,182,157)" shape-rendering="crispEdges"/><path d="M92.5,205.2L13.4,259.7L131.2,295Z" fill="rgb(254,147,122)" shape-rendering="crispEdges"/><path d="M435.6,174.1L393.7,128.9L346.2,203.5Z" fill="rgb(243,96,69)" shape-rendering="crispEdges"/><path d="M355.5,126L389.2,76.4L332.2,56.2Z" fill="rgb(253,139,111)" shape-rendering="crispEdges"/><path d="M134.6,-35.6L124.6,23L176.2,-50.6Z" fill="rgb(255,217,202)" shape-rendering="crispEdges"/><path d="M214.2,49.4L124.6,23L95.9,122.7Z" fill="rgb(253,201,180)" shape-rendering="crispEdges"/><path d="M250.8,-12.8L214.2,49.4L275.8,50.1Z" fill="rgb(255,184,161)" shape-rendering="crispEdges"/><path d="M50.4,140.1L36.5,194.7L92.5,205.2Z" fill="rgb(255,177,151)" shape-rendering="crispEdges"/><path d="M13.4,259.7L111.5,335.2L131.2,295Z" fill="rgb(238,135,112)" shape-rendering="crispEdges"/><path d="M131.2,295L111.5,335.2L184.9,299.6Z" fill="rgb(229,118,94)" shape-rendering="crispEdges"/><path d="M342.8,-2.1L250.8,-12.8L275.8,50.1Z" fill="rgb(255,178,154)" shape-rendering="crispEdges"/><path d="M393.7,128.9L389.2,76.4L355.5,126Z" fill="rgb(249,124,96)" shape-rendering="crispEdges"/><path d="M332.2,56.2L342.8,-2.1L275.8,50.1Z" fill="rgb(255,166,141)" shape-rendering="crispEdges"/><path d="M271.5,417.7L341.9,345L279.5,326.7Z" fill="rgb(199,64,46)" shape-rendering="crispEdges"/><path d="M279.5,326.7L341.9,345L347,249Z" fill="rgb(223,63,46)" shape-rendering="crispEdges"/><path d="M440.6,253.8L435.6,174.1L346.2,203.5Z" fill="rgb(236,74,52)" shape-rendering="crispEdges"/><path d="M440.6,253.8L346.2,203.5L347,249Z" fill="rgb(240,67,48)" shape-rendering="crispEdges"/><path d="M393.7,128.9L488.3,60.4L389.2,76.4Z" fill="rgb(240,126,100)" shape-rendering="crispEdges"/><path d="M389.2,76.4L342.8,-2.1L332.2,56.2Z" fill="rgb(255,155,130)" shape-rendering="crispEdges"/><path d="M-32.7,256.8L13.4,259.7L36.5,194.7Z" fill="rgb(255,164,141)" shape-rendering="crispEdges"/><path d="M36.5,194.7L13.4,259.7L92.5,205.2Z" fill="rgb(255,164,139)" shape-rendering="crispEdges"/><path d="M395.6,353.6L440.6,253.8L347,249Z" fill="rgb(221,44,37)" shape-rendering="crispEdges"/><path d="M176.2,-50.6L124.6,23L214.2,49.4Z" fill="rgb(255,209,191)" shape-rendering="crispEdges"/><path d="M124.6,23L25.8,31.7L95.9,122.7Z" fill="rgb(254,219,203)" shape-rendering="crispEdges"/><path d="M176.2,-50.6L214.2,49.4L250.8,-12.8Z" fill="rgb(255,199,179)" shape-rendering="crispEdges"/><path d="M206.2,-109.2L176.2,-50.6L250.8,-12.8Z" fill="rgb(255,200,180)" shape-rendering="crispEdges"/><path d="M440.6,253.8L460.2,225.2L435.6,174.1Z" fill="rgb(226,63,46)" shape-rendering="crispEdges"/><path d="M435.6,174.1L495.6,148L393.7,128.9Z" fill="rgb(231,96,71)" shape-rendering="crispEdges"/><path d="M196.1,350.5L271.5,417.7L279.5,326.7Z" fill="rgb(199,78,58)" shape-rendering="crispEdges"/><path d="M341.9,345L395.6,353.6L347,249Z" fill="rgb(216,47,38)" shape-rendering="crispEdges"/><path d="M162.9,422.9L271.5,417.7L196.1,350.5Z" fill="rgb(178,82,65)" shape-rendering="crispEdges"/><path d="M13.4,259.7L52.9,351.9L111.5,335.2Z" fill="rgb(232,136,116)" shape-rendering="crispEdges"/><path d="M111.5,335.2L134.5,406.6L196.1,350.5Z" fill="rgb(203,107,86)" shape-rendering="crispEdges"/><path d="M52.9,351.9L134.5,406.6L111.5,335.2Z" fill="rgb(206,119,100)" shape-rendering="crispEdges"/><path d="M311.3,432.7L395.6,353.6L341.9,345Z" fill="rgb(186,44,35)" shape-rendering="crispEdges"/><path d="M440.6,253.8L486.7,264.3L460.2,225.2Z" fill="rgb(218,44,36)" shape-rendering="crispEdges"/><path d="M46.2,-42L25.8,31.7L124.6,23Z" fill="rgb(255,235,226)" shape-rendering="crispEdges"/><path d="M-65.3,178.1L-32.7,256.8L36.5,194.7Z" fill="rgb(255,174,151)" shape-rendering="crispEdges"/><path d="M134.5,406.6L162.9,422.9L196.1,350.5Z" fill="rgb(182,96,78)" shape-rendering="crispEdges"/><path d="M290.4,482L311.3,432.7L271.5,417.7Z" fill="rgb(175,58,44)" shape-rendering="crispEdges"/><path d="M271.5,417.7L311.3,432.7L341.9,345Z" fill="rgb(175,54,41)" shape-rendering="crispEdges"/><path d="M-42.8,124.4L36.5,194.7L50.4,140.1Z" fill="rgb(255,193,171)" shape-rendering="crispEdges"/><path d="M13.4,259.7L-33.9,322.2L52.9,351.9Z" fill="rgb(236,144,125)" shape-rendering="crispEdges"/><path d="M-40.3,70.2L-42.8,124.4L50.4,140.1Z" fill="rgb(255,211,194)" shape-rendering="crispEdges"/><path d="M460.2,225.2L495.6,148L435.6,174.1Z" fill="rgb(224,79,57)" shape-rendering="crispEdges"/><path d="M389.2,76.4L408.7,-40.7L342.8,-2.1Z" fill="rgb(255,156,134)" shape-rendering="crispEdges"/><path d="M474.6,345.6L486.7,264.3L440.6,253.8Z" fill="rgb(203,28,30)" shape-rendering="crispEdges"/><path d="M559.6,251.3L548.3,144.3L495.6,148Z" fill="rgb(204,73,53)" shape-rendering="crispEdges"/><path d="M134.6,-35.6L46.2,-42L124.6,23Z" fill="rgb(255,228,216)" shape-rendering="crispEdges"/><path d="M25.8,31.7L-40.3,70.2L50.4,140.1Z" fill="rgb(255,221,207)" shape-rendering="crispEdges"/><path d="M120.8,-90.1L46.2,-42L134.6,-35.6Z" fill="rgb(255,228,216)" shape-rendering="crispEdges"/><path d="M52.9,351.9L51.1,409.2L134.5,406.6Z" fill="rgb(190,117,104)" shape-rendering="crispEdges"/><path d="M134.5,406.6L84.6,486.1L162.9,422.9Z" fill="rgb(180,103,88)" shape-rendering="crispEdges"/><path d="M-11.3,430.4L51.1,409.2L52.9,351.9Z" fill="rgb(186,122,112)" shape-rendering="crispEdges"/><path d="M-30.2,-52.2L-40.3,70.2L25.8,31.7Z" fill="rgb(255,242,235)" shape-rendering="crispEdges"/><path d="M-101.7,181.6L-65.3,178.1L-98.9,116.3Z" fill="rgb(255,193,172)" shape-rendering="crispEdges"/><path d="M-42.8,124.4L-65.3,178.1L36.5,194.7Z" fill="rgb(255,190,169)" shape-rendering="crispEdges"/><path d="M475.1,-9.6L408.7,-40.7L389.2,76.4Z" fill="rgb(247,149,129)" shape-rendering="crispEdges"/><path d="M250.3,-121.4L206.2,-109.2L250.8,-12.8Z" fill="rgb(255,193,172)" shape-rendering="crispEdges"/><path d="M176.2,-50.6L120.8,-90.1L134.6,-35.6Z" fill="rgb(255,217,202)" shape-rendering="crispEdges"/><path d="M206.2,-109.2L120.8,-90.1L176.2,-50.6Z" fill="rgb(255,211,194)" shape-rendering="crispEdges"/><path d="M250.3,-121.4L250.8,-12.8L364.2,-99.8Z" fill="rgb(255,180,158)" shape-rendering="crispEdges"/><path d="M495.6,148L488.3,60.4L393.7,128.9Z" fill="rgb(229,111,86)" shape-rendering="crispEdges"/><path d="M-137.1,269.6L-33.9,322.2L-32.7,256.8Z" fill="rgb(248,151,132)" shape-rendering="crispEdges"/><path d="M-32.7,256.8L-33.9,322.2L13.4,259.7Z" fill="rgb(249,152,132)" shape-rendering="crispEdges"/><path d="M417.9,432.8L474.6,345.6L395.6,353.6Z" fill="rgb(171,20,25)" shape-rendering="crispEdges"/><path d="M395.6,353.6L474.6,345.6L440.6,253.8Z" fill="rgb(199,26,29)" shape-rendering="crispEdges"/><path d="M84.6,486.1L211.8,483.3L162.9,422.9Z" fill="rgb(178,97,81)" shape-rendering="crispEdges"/><path d="M162.9,422.9L211.8,483.3L271.5,417.7Z" fill="rgb(176,80,63)" shape-rendering="crispEdges"/><path d="M364.2,-99.8L250.8,-12.8L342.8,-2.1Z" fill="rgb(255,173,150)" shape-rendering="crispEdges"/><path d="M-118,-127.2L47.2,-78.1L120.8,-90.1Z" fill="rgb(255,243,237)" shape-rendering="crispEdges"/><path d="M211.8,483.3L290.4,482L271.5,417.7Z" fill="rgb(175,68,52)" shape-rendering="crispEdges"/><path d="M311.3,432.7L417.9,432.8L395.6,353.6Z" fill="rgb(168,30,29)" shape-rendering="crispEdges"/><path d="M-42.2,-72.6L47.2,-78.1L-118,-127.2Z" fill="rgb(255,245,240)" shape-rendering="crispEdges"/><path d="M120.8,-90.1L47.2,-78.1L46.2,-42Z" fill="rgb(255,235,226)" shape-rendering="crispEdges"/><path d="M46.2,-42L-30.2,-52.2L25.8,31.7Z" fill="rgb(255,243,237)" shape-rendering="crispEdges"/><path d="M419.9,-79.5L364.2,-99.8L408.7,-40.7Z" fill="rgb(254,156,135)" shape-rendering="crispEdges"/><path d="M408.7,-40.7L364.2,-99.8L342.8,-2.1Z" fill="rgb(255,160,139)" shape-rendering="crispEdges"/><path d="M488.3,60.4L475.1,-9.6L389.2,76.4Z" fill="rgb(238,138,117)" shape-rendering="crispEdges"/><path d="M400.8,483.4L417.9,432.8L311.3,432.7Z" fill="rgb(168,29,28)" shape-rendering="crispEdges"/><path d="M-65.3,178.1L-101.7,181.6L-32.7,256.8Z" fill="rgb(255,176,152)" shape-rendering="crispEdges"/><path d="M-98.9,116.3L-65.3,178.1L-42.8,124.4Z" fill="rgb(255,200,181)" shape-rendering="crispEdges"/><path d="M475.1,-9.6L419.9,-79.5L408.7,-40.7Z" fill="rgb(245,149,131)" shape-rendering="crispEdges"/><path d="M559.6,251.3L495.6,148L460.2,225.2Z" fill="rgb(212,63,45)" shape-rendering="crispEdges"/><path d="M495.6,148L548.3,144.3L488.3,60.4Z" fill="rgb(215,104,80)" shape-rendering="crispEdges"/><path d="M488.3,60.4L548.6,49.6L475.1,-9.6Z" fill="rgb(224,134,116)" shape-rendering="crispEdges"/><path d="M559.6,251.3L460.2,225.2L486.7,264.3Z" fill="rgb(208,42,34)" shape-rendering="crispEdges"/><path d="M-100.2,29.6L-98.9,116.3L-40.3,70.2Z" fill="rgb(255,226,214)" shape-rendering="crispEdges"/><path d="M-40.3,70.2L-98.9,116.3L-42.8,124.4Z" fill="rgb(255,214,198)" shape-rendering="crispEdges"/><path d="M35.7,479.8L84.6,486.1L51.1,409.2Z" fill="rgb(183,118,107)" shape-rendering="crispEdges"/><path d="M51.1,409.2L84.6,486.1L134.5,406.6Z" fill="rgb(182,112,99)" shape-rendering="crispEdges"/><path d="M211.8,483.3L343,502.1L290.4,482Z" fill="rgb(175,61,47)" shape-rendering="crispEdges"/><path d="M-33.9,322.2L-11.3,430.4L52.9,351.9Z" fill="rgb(208,134,120)" shape-rendering="crispEdges"/><path d="M-93.2,377.7L-11.3,430.4L-33.9,322.2Z" fill="rgb(202,132,120)" shape-rendering="crispEdges"/><path d="M84.6,486.1L343,502.1L211.8,483.3Z" fill="rgb(176,80,64)" shape-rendering="crispEdges"/><path d="M290.4,482L343,502.1L311.3,432.7Z" fill="rgb(173,51,39)" shape-rendering="crispEdges"/><path d="M535.7,375.6L559.6,251.3L486.7,264.3Z" fill="rgb(184,21,25)" shape-rendering="crispEdges"/><path d="M535.7,375.6L486.7,264.3L474.6,345.6Z" fill="rgb(180,18,24)" shape-rendering="crispEdges"/><path d="M47.2,-78.1L-30.2,-52.2L46.2,-42Z" fill="rgb(255,242,236)" shape-rendering="crispEdges"/><path d="M343,502.1L400.8,483.4L311.3,432.7Z" fill="rgb(170,39,33)" shape-rendering="crispEdges"/><path d="M417.9,432.8L492.9,407.9L474.6,345.6Z" fill="rgb(151,10,21)" shape-rendering="crispEdges"/><path d="M548.3,144.3L548.6,49.6L488.3,60.4Z" fill="rgb(213,115,94)" shape-rendering="crispEdges"/><path d="M475.1,-9.6L484.2,-99L419.9,-79.5Z" fill="rgb(239,146,128)" shape-rendering="crispEdges"/><path d="M631.3,101.4L548.6,49.6L548.3,144.3Z" fill="rgb(189,102,84)" shape-rendering="crispEdges"/><path d="M501.8,504.9L492.9,407.9L417.9,432.8Z" fill="rgb(146,9,20)" shape-rendering="crispEdges"/><path d="M-11.3,430.4L35.7,479.8L51.1,409.2Z" fill="rgb(184,122,112)" shape-rendering="crispEdges"/><path d="M-94,-15.8L-100.2,29.6L-40.3,70.2Z" fill="rgb(255,239,232)" shape-rendering="crispEdges"/><path d="M-98.9,116.3L-137.1,269.6L-101.7,181.6Z" fill="rgb(255,182,159)" shape-rendering="crispEdges"/><path d="M559.6,251.3L587,176.8L548.3,144.3Z" fill="rgb(190,65,48)" shape-rendering="crispEdges"/><path d="M47.2,-78.1L-42.2,-72.6L-30.2,-52.2Z" fill="rgb(255,245,240)" shape-rendering="crispEdges"/><path d="M-30.2,-52.2L-94,-15.8L-40.3,70.2Z" fill="rgb(255,245,240)" shape-rendering="crispEdges"/><path d="M-118,-127.2L120.8,-90.1L206.2,-109.2Z" fill="rgb(255,235,226)" shape-rendering="crispEdges"/><path d="M581.2,397.9L535.7,375.6L492.9,407.9Z" fill="rgb(132,6,17)" shape-rendering="crispEdges"/><path d="M492.9,407.9L535.7,375.6L474.6,345.6Z" fill="rgb(154,11,20)" shape-rendering="crispEdges"/><path d="M559.6,251.3L622.6,204.1L587,176.8Z" fill="rgb(178,52,40)" shape-rendering="crispEdges"/><path d="M-100.2,29.6L-137.1,269.6L-98.9,116.3Z" fill="rgb(255,200,181)" shape-rendering="crispEdges"/><path d="M-101.7,181.6L-137.1,269.6L-32.7,256.8Z" fill="rgb(255,165,142)" shape-rendering="crispEdges"/><path d="M-137.1,269.6L-93.2,377.7L-33.9,322.2Z" fill="rgb(232,143,126)" shape-rendering="crispEdges"/><path d="M-11.3,430.4L-43.8,477.6L35.7,479.8Z" fill="rgb(185,126,117)" shape-rendering="crispEdges"/><path d="M-42.2,-72.6L-94,-15.8L-30.2,-52.2Z" fill="rgb(255,245,240)" shape-rendering="crispEdges"/><path d="M-100.2,29.6L-118,-127.2L-137.1,269.6Z" fill="rgb(255,232,221)" shape-rendering="crispEdges"/><path d="M617.5,-11.2L540.3,-21.1L548.6,49.6Z" fill="rgb(200,130,118)" shape-rendering="crispEdges"/><path d="M548.6,49.6L540.3,-21.1L475.1,-9.6Z" fill="rgb(221,138,122)" shape-rendering="crispEdges"/><path d="M540.3,-21.1L484.2,-99L475.1,-9.6Z" fill="rgb(228,142,125)" shape-rendering="crispEdges"/><path d="M419.9,-79.5L484.2,-99L364.2,-99.8Z" fill="rgb(248,151,132)" shape-rendering="crispEdges"/><path d="M364.2,-99.8L484.2,-99L250.3,-121.4Z" fill="rgb(255,162,140)" shape-rendering="crispEdges"/><path d="M-93.2,377.7L-43.8,477.6L-11.3,430.4Z" fill="rgb(185,126,117)" shape-rendering="crispEdges"/><path d="M35.7,479.8L-93.5,509.3L84.6,486.1Z" fill="rgb(185,124,115)" shape-rendering="crispEdges"/><path d="M642.5,257.7L622.6,204.1L559.6,251.3Z" fill="rgb(170,37,32)" shape-rendering="crispEdges"/><path d="M587,176.8L631.3,101.4L548.3,144.3Z" fill="rgb(181,83,65)" shape-rendering="crispEdges"/><path d="M622.6,204.1L631.3,101.4L587,176.8Z" fill="rgb(176,73,57)" shape-rendering="crispEdges"/><path d="M540.3,-21.1L576.7,-86.3L484.2,-99Z" fill="rgb(217,138,122)" shape-rendering="crispEdges"/><path d="M589.7,484.1L581.2,397.9L492.9,407.9Z" fill="rgb(121,3,16)" shape-rendering="crispEdges"/><path d="M535.7,375.6L645.8,328.3L559.6,251.3Z" fill="rgb(153,11,21)" shape-rendering="crispEdges"/><path d="M645.8,328.3L642.5,257.7L559.6,251.3Z" fill="rgb(159,19,24)" shape-rendering="crispEdges"/><path d="M622.6,204.1L707.2,145.5L631.3,101.4Z" fill="rgb(176,77,60)" shape-rendering="crispEdges"/><path d="M400.8,483.4L501.8,504.9L417.9,432.8Z" fill="rgb(154,13,22)" shape-rendering="crispEdges"/><path d="M343,502.1L501.8,504.9L400.8,483.4Z" fill="rgb(159,20,25)" shape-rendering="crispEdges"/><path d="M-137.1,269.6L-134.2,417.5L-93.2,377.7Z" fill="rgb(217,138,123)" shape-rendering="crispEdges"/><path d="M-93.2,377.7L-134.2,417.5L-43.8,477.6Z" fill="rgb(185,126,117)" shape-rendering="crispEdges"/><path d="M699.6,0.4L634.8,33.9L736.3,46.4Z" fill="rgb(184,120,110)" shape-rendering="crispEdges"/><path d="M631.3,101.4L634.8,33.9L548.6,49.6Z" fill="rgb(181,112,98)" shape-rendering="crispEdges"/><path d="M634.8,33.9L617.5,-11.2L548.6,49.6Z" fill="rgb(184,121,110)" shape-rendering="crispEdges"/><path d="M609.9,-74.1L576.7,-86.3L540.3,-21.1Z" fill="rgb(197,130,119)" shape-rendering="crispEdges"/><path d="M613.8,438.7L645.8,328.3L581.2,397.9Z" fill="rgb(110,1,14)" shape-rendering="crispEdges"/><path d="M581.2,397.9L645.8,328.3L535.7,375.6Z" fill="rgb(128,4,17)" shape-rendering="crispEdges"/><path d="M734.1,192.6L707.2,145.5L622.6,204.1Z" fill="rgb(175,64,49)" shape-rendering="crispEdges"/><path d="M-134.2,417.5L-93.5,509.3L-43.8,477.6Z" fill="rgb(185,126,117)" shape-rendering="crispEdges"/><path d="M-43.8,477.6L-93.5,509.3L35.7,479.8Z" fill="rgb(185,126,117)" shape-rendering="crispEdges"/><path d="M84.6,486.1L-93.5,509.3L343,502.1Z" fill="rgb(180,107,93)" shape-rendering="crispEdges"/><path d="M343,502.1L620.8,515.4L501.8,504.9Z" fill="rgb(142,8,19)" shape-rendering="crispEdges"/><path d="M250.3,-121.4L-118,-127.2L206.2,-109.2Z" fill="rgb(255,225,212)" shape-rendering="crispEdges"/><path d="M-42.2,-72.6L-118,-127.2L-94,-15.8Z" fill="rgb(255,245,240)" shape-rendering="crispEdges"/><path d="M-94,-15.8L-118,-127.2L-100.2,29.6Z" fill="rgb(255,245,240)" shape-rendering="crispEdges"/><path d="M710.5,-74.9L609.9,-74.1L617.5,-11.2Z" fill="rgb(185,126,117)" shape-rendering="crispEdges"/><path d="M617.5,-11.2L609.9,-74.1L540.3,-21.1Z" fill="rgb(190,128,118)" shape-rendering="crispEdges"/><path d="M589.7,484.1L613.8,438.7L581.2,397.9Z" fill="rgb(105,0,13)" shape-rendering="crispEdges"/><path d="M501.8,504.9L589.7,484.1L492.9,407.9Z" fill="rgb(132,5,17)" shape-rendering="crispEdges"/><path d="M711.1,293.3L642.5,257.7L645.8,328.3Z" fill="rgb(154,13,22)" shape-rendering="crispEdges"/><path d="M734.1,192.6L622.6,204.1L642.5,257.7Z" fill="rgb(172,47,37)" shape-rendering="crispEdges"/><path d="M634.8,33.9L699.6,0.4L617.5,-11.2Z" fill="rgb(185,124,115)" shape-rendering="crispEdges"/><path d="M716.1,343L645.8,328.3L715.4,438.2Z" fill="rgb(121,3,16)" shape-rendering="crispEdges"/><path d="M716.1,343L711.1,293.3L645.8,328.3Z" fill="rgb(144,8,20)" shape-rendering="crispEdges"/><path d="M736.3,46.4L634.8,33.9L631.3,101.4Z" fill="rgb(182,112,99)" shape-rendering="crispEdges"/><path d="M711.1,293.3L734.1,192.6L642.5,257.7Z" fill="rgb(169,31,29)" shape-rendering="crispEdges"/><path d="M707.2,145.5L736.3,46.4L631.3,101.4Z" fill="rgb(178,99,83)" shape-rendering="crispEdges"/><path d="M715.4,438.2L645.8,328.3L613.8,438.7Z" fill="rgb(103,0,13)" shape-rendering="crispEdges"/><path d="M711.1,293.3L716.1,343L734.1,192.6Z" fill="rgb(159,20,25)" shape-rendering="crispEdges"/><path d="M501.8,504.9L620.8,515.4L589.7,484.1Z" fill="rgb(115,2,15)" shape-rendering="crispEdges"/><path d="M589.7,484.1L620.8,515.4L613.8,438.7Z" fill="rgb(103,0,13)" shape-rendering="crispEdges"/><path d="M726.9,525.8L620.8,515.4L343,502.1Z" fill="rgb(118,2,16)" shape-rendering="crispEdges"/><path d="M734.1,192.6L736.3,46.4L707.2,145.5Z" fill="rgb(177,86,70)" shape-rendering="crispEdges"/><path d="M736.3,46.4L710.5,-74.9L699.6,0.4Z" fill="rgb(185,126,117)" shape-rendering="crispEdges"/><path d="M699.6,0.4L710.5,-74.9L617.5,-11.2Z" fill="rgb(185,126,117)" shape-rendering="crispEdges"/><path d="M609.9,-74.1L710.5,-74.9L576.7,-86.3Z" fill="rgb(185,126,117)" shape-rendering="crispEdges"/><path d="M576.7,-86.3L710.5,-74.9L484.2,-99Z" fill="rgb(190,127,118)" shape-rendering="crispEdges"/><path d="M620.8,515.4L715.4,438.2L613.8,438.7Z" fill="rgb(103,0,13)" shape-rendering="crispEdges"/><path d="M716.1,343L726.9,525.8L734.1,192.6Z" fill="rgb(131,5,17)" shape-rendering="crispEdges"/><path d="M-93.5,509.3L726.9,525.8L343,502.1Z" fill="rgb(172,48,38)" shape-rendering="crispEdges"/><path d="M620.8,515.4L726.9,525.8L715.4,438.2Z" fill="rgb(103,0,13)" shape-rendering="crispEdges"/><path d="M715.4,438.2L726.9,525.8L716.1,343Z" fill="rgb(103,0,13)" shape-rendering="crispEdges"/></svg>