<svg xmlns="http://www.w3.org/2000/svg" width="600" height="200"><path d="M291,99L273,99L295,135Z" fill="rgb(255,255,255)" stroke="rgb(255,255,255)" stroke-width="0"/><path d="M273,99L266,141L295,135Z" fill="rgb(255,255,255)" stroke="rgb(255,255,255)" stroke-width="0"/><path d="M266,141L292,174L295,135Z" fill="rgb(255,255,255)" stroke="rgb(255,255,255)" stroke-width="0"/><path d="M234,137L257,161L266,141Z" fill="rgb(255,255,255)" stroke="rgb(255,255,255)" stroke-width="0"/><path d="M273,99L234,137L266,141Z" fill="rgb(255,255,255)" stroke="rgb(255,255,255)" stroke-width="0"/><path d="M295,135L334,110L291,99Z" fill="rgb(255,255,255)" stroke="rgb(255,255,255)" stroke-width="0"/><path d="M332,146L334,110L295,135Z" fill="rgb(255,255,255)" stroke="rgb(255,255,255)" stroke-width="0"/><path d="M273,99L229,96L234,137Z" fill="rgb(255,255,255)" stroke="rgb(255,255,255)" stroke-width="0"/><path d="M291,99L261,68L273,99Z" fill="rgb(255,255,255)" stroke="rgb(255,255,255)" stroke-width="0"/><path d="M312,66L261,68L291,99Z" fill="rgb(255,255,255)" stroke="rgb(255,255,255)" stroke-width="0"/><path d="M257,161L292,174L266,141Z" fill="rgb(255,255,255)" stroke="rgb(255,255,255)" stroke-width="0"/><path d="M292,174L332,146L295,135Z" fill="rgb(255,255,255)" stroke="rgb(255,255,255)" stroke-width="0"/><path d="M261,68L229,96L273,99Z" fill="rgb(255,255,255)" stroke="rgb(255,255,255)" stroke-width="0"/><path d="M334,110L312,66L291,99Z" fill="rgb(255,255,255)" stroke="rgb(255,255,255)" stroke-width="0"/><path d="M373,130L365,98L334,110Z" fill="rgb(255,255,255)" stroke="rgb(255,255,255)" stroke-width="0"/><path d="M292,174L339,157L332,146Z" fill="rgb(255,255,255)" stroke="rgb(255,255,255)" stroke-width="0"/><path d="M334,110L333,63L312,66Z" fill="rgb(255,255,255)" stroke="rgb(255,255,255)" stroke-width="0"/><path d="M312,66L297,31L261,68Z" fill="rgb(255,255,255)" stroke="rgb(255,255,255)" stroke-width="0"/><path d="M365,98L333,63L334,110Z" fill="rgb(255,255,255)" stroke="rgb(255,255,255)" stroke-width="0"/><path d="M234,137L229,173L257,161Z" fill="rgb(255,255,255)" stroke="rgb(255,255,255)" stroke-width="0"/><path d="M257,161L271,213L292,174Z" fill="rgb(255,255,255)" stroke="rgb(255,255,255)" stroke-width="0"/><path d="M206,131L229,173L234,137Z" fill="rgb(255,255,255)" stroke="rgb(255,255,255)" stroke-width="0"/><path d="M229,96L206,131L234,137Z" fill="rgb(255,255,255)" stroke="rgb(255,255,255)" stroke-width="0"/><path d="M229,96L187,95L206,131Z" fill="rgb(255,255,255)" stroke="rgb(255,255,255)" stroke-width="0"/><path d="M261,68L217,72L229,96Z" fill="rgb(255,255,255)" stroke="rgb(255,255,255)" stroke-width="0"/><path d="M373,130L334,110L332,146Z" fill="rgb(255,255,255)" stroke="rgb(255,255,255)" stroke-width="0"/><path d="M325,36L297,31L312,66Z" fill="rgb(255,255,255)" stroke="rgb(255,255,255)" stroke-width="0"/><path d="M261,68L228,30L217,72Z" fill="rgb(255,255,255)" stroke="rgb(255,255,255)" stroke-width="0"/><path d="M229,173L231,192L257,161Z" fill="rgb(255,255,255)" stroke="rgb(255,255,255)" stroke-width="0"/><path d="M184,195L231,192L229,173Z" fill="rgb(255,255,255)" stroke="rgb(255,255,255)" stroke-width="0"/><path d="M339,157L373,130L332,146Z" fill="rgb(255,255,255)" stroke="rgb(255,255,255)" stroke-width="0"/><path d="M360,52L325,36L333,63Z" fill="rgb(255,255,255)" stroke="rgb(255,255,255)" stroke-width="0"/><path d="M333,63L325,36L312,66Z" fill="rgb(255,255,255)" stroke="rgb(255,255,255)" stroke-width="0"/><path d="M271,213L294,211L292,174Z" fill="rgb(255,255,255)" stroke="rgb(255,255,255)" stroke-width="0"/><path d="M292,174L330,210L339,157Z" fill="rgb(255,255,255)" stroke="rgb(255,255,255)" stroke-width="0"/><path d="M339,157L368,177L373,130Z" fill="rgb(255,255,255)" stroke="rgb(255,255,255)" stroke-width="0"/><path d="M267,6L274,24L298,-13Z" fill="rgb(255,255,255)" stroke="rgb(255,255,255)" stroke-width="0"/><path d="M297,31L274,24L261,68Z" fill="rgb(255,255,255)" stroke="rgb(255,255,255)" stroke-width="0"/><path d="M231,192L271,213L257,161Z" fill="rgb(255,255,255)" stroke="rgb(255,255,255)" stroke-width="0"/><path d="M217,72L187,95L229,96Z" fill="rgb(255,255,255)" stroke="rgb(255,255,255)" stroke-width="0"/><path d="M206,131L191,158L229,173Z" fill="rgb(255,255,255)" stroke="rgb(255,255,255)" stroke-width="0"/><path d="M191,56L187,95L217,72Z" fill="rgb(255,255,255)" stroke="rgb(255,255,255)" stroke-width="0"/><path d="M172,143L191,158L206,131Z" fill="rgb(255,255,255)" stroke="rgb(255,255,255)" stroke-width="0"/><path d="M365,98L360,52L333,63Z" fill="rgb(255,255,255)" stroke="rgb(255,255,255)" stroke-width="0"/><path d="M372,31L360,52L411,57Z" fill="rgb(255,255,255)" stroke="rgb(255,255,255)" stroke-width="0"/><path d="M274,24L228,30L261,68Z" fill="rgb(255,255,255)" stroke="rgb(255,255,255)" stroke-width="0"/><path d="M293,249L330,210L294,211Z" fill="rgb(255,255,255)" stroke="rgb(255,255,255)" stroke-width="0"/><path d="M294,211L330,210L292,174Z" fill="rgb(255,255,255)" stroke="rgb(255,255,255)" stroke-width="0"/><path d="M330,210L368,177L339,157Z" fill="rgb(255,255,255)" stroke="rgb(255,255,255)" stroke-width="0"/><path d="M228,30L191,56L217,72Z" fill="rgb(255,255,255)" stroke="rgb(255,255,255)" stroke-width="0"/><path d="M187,95L172,143L206,131Z" fill="rgb(255,255,255)" stroke="rgb(255,255,255)" stroke-width="0"/><path d="M219,236L261,232L231,192Z" fill="rgb(255,255,255)" stroke="rgb(255,255,255)" stroke-width="0"/><path d="M154,91L172,143L187,95Z" fill="rgb(255,255,255)" stroke="rgb(255,255,255)" stroke-width="0"/><path d="M274,24L267,6L228,30Z" fill="rgb(255,255,255)" stroke="rgb(255,255,255)" stroke-width="0"/><path d="M298,-13L274,24L297,31Z" fill="rgb(255,255,255)" stroke="rgb(255,255,255)" stroke-width="0"/><path d="M298,-13L297,31L325,36Z" fill="rgb(255,255,255)" stroke="rgb(255,255,255)" stroke-width="0"/><path d="M231,192L261,232L271,213Z" fill="rgb(255,255,255)" stroke="rgb(255,255,255)" stroke-width="0"/><path d="M271,213L293,249L294,211Z" fill="rgb(255,255,255)" stroke="rgb(255,255,255)" stroke-width="0"/><path d="M184,195L229,173L191,158Z" fill="rgb(255,255,255)" stroke="rgb(255,255,255)" stroke-width="0"/><path d="M373,130L402,130L365,98Z" fill="rgb(255,255,255)" stroke="rgb(255,255,255)" stroke-width="0"/><path d="M394,170L402,130L373,130Z" fill="rgb(255,255,255)" stroke="rgb(255,255,255)" stroke-width="0"/><path d="M191,56L166,60L187,95Z" fill="rgb(255,255,255)" stroke="rgb(255,255,255)" stroke-width="0"/><path d="M228,30L194,34L191,56Z" fill="rgb(255,255,255)" stroke="rgb(255,255,255)" stroke-width="0"/><path d="M195,-1L194,34L228,30Z" fill="rgb(255,255,255)" stroke="rgb(255,255,255)" stroke-width="0"/><path d="M368,177L394,170L373,130Z" fill="rgb(255,255,255)" stroke="rgb(255,255,255)" stroke-width="0"/><path d="M377,198L394,170L368,177Z" fill="rgb(255,255,255)" stroke="rgb(255,255,255)" stroke-width="0"/><path d="M378,235L377,198L330,210Z" fill="rgb(255,255,255)" stroke="rgb(255,255,255)" stroke-width="0"/><path d="M330,210L377,198L368,177Z" fill="rgb(255,255,255)" stroke="rgb(255,255,255)" stroke-width="0"/><path d="M150,170L184,195L191,158Z" fill="rgb(255,255,255)" stroke="rgb(255,255,255)" stroke-width="0"/><path d="M360,52L372,31L325,36Z" fill="rgb(255,255,255)" stroke="rgb(255,255,255)" stroke-width="0"/><path d="M411,57L360,52L365,98Z" fill="rgb(255,255,255)" stroke="rgb(255,255,255)" stroke-width="0"/><path d="M194,34L166,60L191,56Z" fill="rgb(255,255,255)" stroke="rgb(255,255,255)" stroke-width="0"/><path d="M166,60L154,91L187,95Z" fill="rgb(255,255,255)" stroke="rgb(255,255,255)" stroke-width="0"/><path d="M172,143L150,170L191,158Z" fill="rgb(255,255,255)" stroke="rgb(255,255,255)" stroke-width="0"/><path d="M261,232L293,249L271,213Z" fill="rgb(255,255,255)" stroke="rgb(255,255,255)" stroke-width="0"/><path d="M219,236L293,249L261,232Z" fill="rgb(255,255,255)" stroke="rgb(255,255,255)" stroke-width="0"/><path d="M267,6L224,-8L228,30Z" fill="rgb(255,255,255)" stroke="rgb(255,255,255)" stroke-width="0"/><path d="M347,-9L298,-13L325,36Z" fill="rgb(255,255,255)" stroke="rgb(255,255,255)" stroke-width="0"/><path d="M184,195L219,236L231,192Z" fill="rgb(255,255,255)" stroke="rgb(255,255,255)" stroke-width="0"/><path d="M402,130L414,96L365,98Z" fill="rgb(255,255,255)" stroke="rgb(255,255,255)" stroke-width="0"/><path d="M426,122L414,96L402,130Z" fill="rgb(255,255,255)" stroke="rgb(255,255,255)" stroke-width="0"/><path d="M235,-35L224,-8L267,6Z" fill="rgb(255,255,255)" stroke="rgb(255,255,255)" stroke-width="0"/><path d="M194,34L168,22L166,60Z" fill="rgb(255,255,255)" stroke="rgb(255,255,255)" stroke-width="0"/><path d="M433,171L426,122L402,130Z" fill="rgb(255,255,255)" stroke="rgb(255,255,255)" stroke-width="0"/><path d="M377,198L400,192L394,170Z" fill="rgb(255,255,255)" stroke="rgb(255,255,255)" stroke-width="0"/><path d="M378,235L400,192L377,198Z" fill="rgb(255,255,255)" stroke="rgb(255,255,255)" stroke-width="0"/><path d="M131,169L150,170L123,131Z" fill="rgb(255,255,255)" stroke="rgb(255,255,255)" stroke-width="0"/><path d="M184,195L200,248L219,236Z" fill="rgb(255,255,255)" stroke="rgb(255,255,255)" stroke-width="0"/><path d="M414,96L411,57L365,98Z" fill="rgb(255,255,255)" stroke="rgb(255,255,255)" stroke-width="0"/><path d="M357,-10L347,-9L372,31Z" fill="rgb(255,255,255)" stroke="rgb(255,255,255)" stroke-width="0"/><path d="M372,31L347,-9L325,36Z" fill="rgb(255,255,255)" stroke="rgb(255,255,255)" stroke-width="0"/><path d="M293,249L340,249L330,210Z" fill="rgb(255,255,255)" stroke="rgb(255,255,255)" stroke-width="0"/><path d="M433,171L402,130L394,170Z" fill="rgb(255,255,255)" stroke="rgb(255,255,255)" stroke-width="0"/><path d="M414,96L438,56L411,57Z" fill="rgb(255,255,255)" stroke="rgb(255,255,255)" stroke-width="0"/><path d="M224,-8L195,-1L228,30Z" fill="rgb(255,255,255)" stroke="rgb(255,255,255)" stroke-width="0"/><path d="M347,-9L342,-30L298,-13Z" fill="rgb(255,255,255)" stroke="rgb(255,255,255)" stroke-width="0"/><path d="M405,-18L357,-10L372,31Z" fill="rgb(255,255,255)" stroke="rgb(255,255,255)" stroke-width="0"/><path d="M166,60L137,67L154,91Z" fill="rgb(255,255,255)" stroke="rgb(255,255,255)" stroke-width="0"/><path d="M195,-1L168,22L194,34Z" fill="rgb(255,255,255)" stroke="rgb(255,255,255)" stroke-width="0"/><path d="M340,249L378,235L330,210Z" fill="rgb(255,255,255)" stroke="rgb(255,255,255)" stroke-width="0"/><path d="M219,236L200,248L293,249Z" fill="rgb(255,255,255)" stroke="rgb(255,255,255)" stroke-width="0"/><path d="M159,212L200,248L184,195Z" fill="rgb(255,255,255)" stroke="rgb(255,255,255)" stroke-width="0"/><path d="M123,131L150,170L172,143Z" fill="rgb(255,255,255)" stroke="rgb(255,255,255)" stroke-width="0"/><path d="M168,22L137,67L166,60Z" fill="rgb(255,255,255)" stroke="rgb(255,255,255)" stroke-width="0"/><path d="M150,170L159,212L184,195Z" fill="rgb(255,255,255)" stroke="rgb(255,255,255)" stroke-width="0"/><path d="M150,170L136,216L159,212Z" fill="rgb(255,255,255)" stroke="rgb(255,255,255)" stroke-width="0"/><path d="M123,131L172,143L154,91Z" fill="rgb(255,255,255)" stroke="rgb(255,255,255)" stroke-width="0"/><path d="M116,96L123,131L154,91Z" fill="rgb(255,255,255)" stroke="rgb(255,255,255)" stroke-width="0"/><path d="M411,57L411,24L372,31Z" fill="rgb(255,255,255)" stroke="rgb(255,255,255)" stroke-width="0"/><path d="M438,56L411,24L411,57Z" fill="rgb(255,255,255)" stroke="rgb(255,255,255)" stroke-width="0"/><path d="M357,-10L342,-30L347,-9Z" fill="rgb(255,255,255)" stroke="rgb(255,255,255)" stroke-width="0"/><path d="M256,-47L235,-35L267,6Z" fill="rgb(255,255,255)" stroke="rgb(255,255,255)" stroke-width="0"/><path d="M375,-51L342,-30L357,-10Z" fill="rgb(255,255,255)" stroke="rgb(255,255,255)" stroke-width="0"/><path d="M438,204L433,171L400,192Z" fill="rgb(255,255,255)" stroke="rgb(255,255,255)" stroke-width="0"/><path d="M400,192L433,171L394,170Z" fill="rgb(255,255,255)" stroke="rgb(255,255,255)" stroke-width="0"/><path d="M168,22L121,17L137,67Z" fill="rgb(255,255,255)" stroke="rgb(255,255,255)" stroke-width="0"/><path d="M195,-1L171,3L168,22Z" fill="rgb(255,255,255)" stroke="rgb(255,255,255)" stroke-width="0"/><path d="M165,-42L171,3L195,-1Z" fill="rgb(255,255,255)" stroke="rgb(255,255,255)" stroke-width="0"/><path d="M224,-8L201,-48L195,-1Z" fill="rgb(255,255,255)" stroke="rgb(255,255,255)" stroke-width="0"/><path d="M256,-47L267,6L298,-13Z" fill="rgb(255,255,255)" stroke="rgb(255,255,255)" stroke-width="0"/><path d="M342,-30L306,-44L298,-13Z" fill="rgb(255,255,255)" stroke="rgb(255,255,255)" stroke-width="0"/><path d="M464,97L444,91L426,122Z" fill="rgb(255,255,255)" stroke="rgb(255,255,255)" stroke-width="0"/><path d="M426,122L444,91L414,96Z" fill="rgb(255,255,255)" stroke="rgb(255,255,255)" stroke-width="0"/><path d="M306,-44L256,-47L298,-13Z" fill="rgb(255,255,255)" stroke="rgb(255,255,255)" stroke-width="0"/><path d="M137,67L116,96L154,91Z" fill="rgb(255,255,255)" stroke="rgb(255,255,255)" stroke-width="0"/><path d="M91,62L116,96L137,67Z" fill="rgb(255,255,255)" stroke="rgb(255,255,255)" stroke-width="0"/><path d="M444,91L438,56L414,96Z" fill="rgb(255,255,255)" stroke="rgb(255,255,255)" stroke-width="0"/><path d="M159,212L157,234L200,248Z" fill="rgb(255,255,255)" stroke="rgb(255,255,255)" stroke-width="0"/><path d="M136,216L157,234L159,212Z" fill="rgb(255,255,255)" stroke="rgb(255,255,255)" stroke-width="0"/><path d="M136,216L131,169L79,205Z" fill="rgb(255,255,255)" stroke="rgb(255,255,255)" stroke-width="0"/><path d="M121,244L136,216L100,237Z" fill="rgb(255,255,255)" stroke="rgb(255,255,255)" stroke-width="0"/><path d="M131,169L136,216L150,170Z" fill="rgb(255,255,255)" stroke="rgb(255,255,255)" stroke-width="0"/><path d="M433,236L438,204L400,192Z" fill="rgb(255,255,255)" stroke="rgb(255,255,255)" stroke-width="0"/><path d="M466,141L464,97L426,122Z" fill="rgb(255,255,255)" stroke="rgb(255,255,255)" stroke-width="0"/><path d="M378,235L408,250L400,192Z" fill="rgb(255,255,255)" stroke="rgb(255,255,255)" stroke-width="0"/><path d="M340,249L408,250L378,235Z" fill="rgb(255,255,255)" stroke="rgb(255,255,255)" stroke-width="0"/><path d="M293,249L408,250L340,249Z" fill="rgb(255,255,255)" stroke="rgb(255,255,255)" stroke-width="0"/><path d="M444,91L476,59L438,56Z" fill="rgb(255,255,255)" stroke="rgb(255,255,255)" stroke-width="0"/><path d="M466,141L426,122L433,171Z" fill="rgb(255,255,255)" stroke="rgb(255,255,255)" stroke-width="0"/><path d="M411,24L405,-18L372,31Z" fill="rgb(255,255,255)" stroke="rgb(255,255,255)" stroke-width="0"/><path d="M342,-30L375,-51L306,-44Z" fill="rgb(255,255,255)" stroke="rgb(255,255,255)" stroke-width="0"/><path d="M427,-7L405,-18L411,24Z" fill="rgb(255,255,255)" stroke="rgb(255,255,255)" stroke-width="0"/><path d="M427,-7L411,24L451,25Z" fill="rgb(255,255,255)" stroke="rgb(255,255,255)" stroke-width="0"/><path d="M235,-35L201,-48L224,-8Z" fill="rgb(255,255,255)" stroke="rgb(255,255,255)" stroke-width="0"/><path d="M133,-1L121,17L168,22Z" fill="rgb(255,255,255)" stroke="rgb(255,255,255)" stroke-width="0"/><path d="M256,-47L201,-48L235,-35Z" fill="rgb(255,255,255)" stroke="rgb(255,255,255)" stroke-width="0"/><path d="M476,166L466,141L433,171Z" fill="rgb(255,255,255)" stroke="rgb(255,255,255)" stroke-width="0"/><path d="M133,-1L168,22L171,3Z" fill="rgb(255,255,255)" stroke="rgb(255,255,255)" stroke-width="0"/><path d="M165,-42L133,-1L171,3Z" fill="rgb(255,255,255)" stroke="rgb(255,255,255)" stroke-width="0"/><path d="M438,204L476,166L433,171Z" fill="rgb(255,255,255)" stroke="rgb(255,255,255)" stroke-width="0"/><path d="M408,250L433,236L400,192Z" fill="rgb(255,255,255)" stroke="rgb(255,255,255)" stroke-width="0"/><path d="M451,25L411,24L438,56Z" fill="rgb(255,255,255)" stroke="rgb(255,255,255)" stroke-width="0"/><path d="M476,59L451,25L438,56Z" fill="rgb(255,255,255)" stroke="rgb(255,255,255)" stroke-width="0"/><path d="M409,-51L375,-51L405,-18Z" fill="rgb(255,255,255)" stroke="rgb(255,255,255)" stroke-width="0"/><path d="M405,-18L375,-51L357,-10Z" fill="rgb(255,255,255)" stroke="rgb(255,255,255)" stroke-width="0"/><path d="M306,-44L375,-51L256,-47Z" fill="rgb(255,255,255)" stroke="rgb(255,255,255)" stroke-width="0"/><path d="M256,-47L375,-51L201,-48Z" fill="rgb(255,255,255)" stroke="rgb(255,255,255)" stroke-width="0"/><path d="M201,-48L165,-42L195,-1Z" fill="rgb(255,255,255)" stroke="rgb(255,255,255)" stroke-width="0"/><path d="M116,96L77,129L123,131Z" fill="rgb(255,255,255)" stroke="rgb(255,255,255)" stroke-width="0"/><path d="M121,17L91,62L137,67Z" fill="rgb(255,255,255)" stroke="rgb(255,255,255)" stroke-width="0"/><path d="M466,141L498,98L464,97Z" fill="rgb(255,255,255)" stroke="rgb(255,255,255)" stroke-width="0"/><path d="M465,213L476,166L438,204Z" fill="rgb(255,255,255)" stroke="rgb(255,255,255)" stroke-width="0"/><path d="M464,97L476,59L444,91Z" fill="rgb(255,255,255)" stroke="rgb(255,255,255)" stroke-width="0"/><path d="M498,98L476,59L464,97Z" fill="rgb(255,255,255)" stroke="rgb(255,255,255)" stroke-width="0"/><path d="M136,216L121,244L157,234Z" fill="rgb(255,255,255)" stroke="rgb(255,255,255)" stroke-width="0"/><path d="M157,234L121,244L200,248Z" fill="rgb(255,255,255)" stroke="rgb(255,255,255)" stroke-width="0"/><path d="M82,165L131,169L123,131Z" fill="rgb(255,255,255)" stroke="rgb(255,255,255)" stroke-width="0"/><path d="M91,62L78,96L116,96Z" fill="rgb(255,255,255)" stroke="rgb(255,255,255)" stroke-width="0"/><path d="M78,96L77,129L116,96Z" fill="rgb(255,255,255)" stroke="rgb(255,255,255)" stroke-width="0"/><path d="M77,129L82,165L123,131Z" fill="rgb(255,255,255)" stroke="rgb(255,255,255)" stroke-width="0"/><path d="M433,236L465,213L438,204Z" fill="rgb(255,255,255)" stroke="rgb(255,255,255)" stroke-width="0"/><path d="M434,-38L409,-51L405,-18Z" fill="rgb(255,255,255)" stroke="rgb(255,255,255)" stroke-width="0"/><path d="M434,-38L405,-18L427,-7Z" fill="rgb(255,255,255)" stroke="rgb(255,255,255)" stroke-width="0"/><path d="M434,-38L427,-7L470,-16Z" fill="rgb(255,255,255)" stroke="rgb(255,255,255)" stroke-width="0"/><path d="M121,17L83,34L91,62Z" fill="rgb(255,255,255)" stroke="rgb(255,255,255)" stroke-width="0"/><path d="M42,61L48,94L78,96Z" fill="rgb(255,255,255)" stroke="rgb(255,255,255)" stroke-width="0"/><path d="M85,-8L83,34L121,17Z" fill="rgb(255,255,255)" stroke="rgb(255,255,255)" stroke-width="0"/><path d="M85,-8L121,17L133,-1Z" fill="rgb(255,255,255)" stroke="rgb(255,255,255)" stroke-width="0"/><path d="M517,128L466,141L476,166Z" fill="rgb(255,255,255)" stroke="rgb(255,255,255)" stroke-width="0"/><path d="M517,128L498,98L466,141Z" fill="rgb(255,255,255)" stroke="rgb(255,255,255)" stroke-width="0"/><path d="M79,205L100,237L136,216Z" fill="rgb(255,255,255)" stroke="rgb(255,255,255)" stroke-width="0"/><path d="M484,31L451,25L476,59Z" fill="rgb(255,255,255)" stroke="rgb(255,255,255)" stroke-width="0"/><path d="M470,-16L427,-7L451,25Z" fill="rgb(255,255,255)" stroke="rgb(255,255,255)" stroke-width="0"/><path d="M517,57L484,31L476,59Z" fill="rgb(255,255,255)" stroke="rgb(255,255,255)" stroke-width="0"/><path d="M82,165L79,205L131,169Z" fill="rgb(255,255,255)" stroke="rgb(255,255,255)" stroke-width="0"/><path d="M77,129L62,128L82,165Z" fill="rgb(255,255,255)" stroke="rgb(255,255,255)" stroke-width="0"/><path d="M78,96L62,128L77,129Z" fill="rgb(255,255,255)" stroke="rgb(255,255,255)" stroke-width="0"/><path d="M48,94L62,128L78,96Z" fill="rgb(255,255,255)" stroke="rgb(255,255,255)" stroke-width="0"/><path d="M62,178L79,205L82,165Z" fill="rgb(255,255,255)" stroke="rgb(255,255,255)" stroke-width="0"/><path d="M165,-42L116,-30L133,-1Z" fill="rgb(255,255,255)" stroke="rgb(255,255,255)" stroke-width="0"/><path d="M465,213L497,179L476,166Z" fill="rgb(255,255,255)" stroke="rgb(255,255,255)" stroke-width="0"/><path d="M465,213L517,213L497,179Z" fill="rgb(255,255,255)" stroke="rgb(255,255,255)" stroke-width="0"/><path d="M433,236L467,244L465,213Z" fill="rgb(255,255,255)" stroke="rgb(255,255,255)" stroke-width="0"/><path d="M408,250L467,244L433,236Z" fill="rgb(255,255,255)" stroke="rgb(255,255,255)" stroke-width="0"/><path d="M62,128L62,178L82,165Z" fill="rgb(255,255,255)" stroke="rgb(255,255,255)" stroke-width="0"/><path d="M484,31L470,-16L451,25Z" fill="rgb(255,255,255)" stroke="rgb(255,255,255)" stroke-width="0"/><path d="M116,-30L85,-8L133,-1Z" fill="rgb(255,255,255)" stroke="rgb(255,255,255)" stroke-width="0"/><path d="M42,61L78,96L91,62Z" fill="rgb(255,255,255)" stroke="rgb(255,255,255)" stroke-width="0"/><path d="M497,179L517,128L476,166Z" fill="rgb(255,255,255)" stroke="rgb(255,255,255)" stroke-width="0"/><path d="M498,98L517,57L476,59Z" fill="rgb(255,255,255)" stroke="rgb(255,255,255)" stroke-width="0"/><path d="M499,-13L478,-31L470,-16Z" fill="rgb(255,255,255)" stroke="rgb(255,255,255)" stroke-width="0"/><path d="M42,61L91,62L83,34Z" fill="rgb(255,255,255)" stroke="rgb(255,255,255)" stroke-width="0"/><path d="M62,128L25,142L62,178Z" fill="rgb(255,255,255)" stroke="rgb(255,255,255)" stroke-width="0"/><path d="M79,205L64,212L100,237Z" fill="rgb(255,255,255)" stroke="rgb(255,255,255)" stroke-width="0"/><path d="M62,178L64,212L79,205Z" fill="rgb(255,255,255)" stroke="rgb(255,255,255)" stroke-width="0"/><path d="M61,244L64,212L26,243Z" fill="rgb(255,255,255)" stroke="rgb(255,255,255)" stroke-width="0"/><path d="M553,106L517,57L498,98Z" fill="rgb(255,255,255)" stroke="rgb(255,255,255)" stroke-width="0"/><path d="M499,-13L470,-16L484,31Z" fill="rgb(255,255,255)" stroke="rgb(255,255,255)" stroke-width="0"/><path d="M470,-16L478,-31L434,-38Z" fill="rgb(255,255,255)" stroke="rgb(255,255,255)" stroke-width="0"/><path d="M434,-38L510,-43L409,-51Z" fill="rgb(255,255,255)" stroke="rgb(255,255,255)" stroke-width="0"/><path d="M30,175L64,212L62,178Z" fill="rgb(255,255,255)" stroke="rgb(255,255,255)" stroke-width="0"/><path d="M44,21L42,61L83,34Z" fill="rgb(255,255,255)" stroke="rgb(255,255,255)" stroke-width="0"/><path d="M85,-8L58,2L83,34Z" fill="rgb(255,255,255)" stroke="rgb(255,255,255)" stroke-width="0"/><path d="M116,-30L99,-48L85,-8Z" fill="rgb(255,255,255)" stroke="rgb(255,255,255)" stroke-width="0"/><path d="M165,-42L99,-48L116,-30Z" fill="rgb(255,255,255)" stroke="rgb(255,255,255)" stroke-width="0"/><path d="M201,-48L99,-48L165,-42Z" fill="rgb(255,255,255)" stroke="rgb(255,255,255)" stroke-width="0"/><path d="M375,-51L99,-48L201,-48Z" fill="rgb(255,255,255)" stroke="rgb(255,255,255)" stroke-width="0"/><path d="M467,244L505,236L465,213Z" fill="rgb(255,255,255)" stroke="rgb(255,255,255)" stroke-width="0"/><path d="M549,170L550,137L517,128Z" fill="rgb(255,255,255)" stroke="rgb(255,255,255)" stroke-width="0"/><path d="M67,-32L58,2L85,-8Z" fill="rgb(255,255,255)" stroke="rgb(255,255,255)" stroke-width="0"/><path d="M505,236L517,213L465,213Z" fill="rgb(255,255,255)" stroke="rgb(255,255,255)" stroke-width="0"/><path d="M519,21L499,-13L484,31Z" fill="rgb(255,255,255)" stroke="rgb(255,255,255)" stroke-width="0"/><path d="M64,212L61,244L100,237Z" fill="rgb(255,255,255)" stroke="rgb(255,255,255)" stroke-width="0"/><path d="M100,237L61,244L121,244Z" fill="rgb(255,255,255)" stroke="rgb(255,255,255)" stroke-width="0"/><path d="M121,244L61,244L200,248Z" fill="rgb(255,255,255)" stroke="rgb(255,255,255)" stroke-width="0"/><path d="M25,142L62,128L48,94Z" fill="rgb(255,255,255)" stroke="rgb(255,255,255)" stroke-width="0"/><path d="M553,106L498,98L517,128Z" fill="rgb(255,255,255)" stroke="rgb(255,255,255)" stroke-width="0"/><path d="M544,21L519,21L517,57Z" fill="rgb(255,255,255)" stroke="rgb(255,255,255)" stroke-width="0"/><path d="M517,57L519,21L484,31Z" fill="rgb(255,255,255)" stroke="rgb(255,255,255)" stroke-width="0"/><path d="M58,2L44,21L83,34Z" fill="rgb(255,255,255)" stroke="rgb(255,255,255)" stroke-width="0"/><path d="M19,87L25,142L48,94Z" fill="rgb(255,255,255)" stroke="rgb(255,255,255)" stroke-width="0"/><path d="M22,69L48,94L42,61Z" fill="rgb(255,255,255)" stroke="rgb(255,255,255)" stroke-width="0"/><path d="M25,142L30,175L62,178Z" fill="rgb(255,255,255)" stroke="rgb(255,255,255)" stroke-width="0"/><path d="M99,-48L67,-32L85,-8Z" fill="rgb(255,255,255)" stroke="rgb(255,255,255)" stroke-width="0"/><path d="M58,2L21,1L44,21Z" fill="rgb(255,255,255)" stroke="rgb(255,255,255)" stroke-width="0"/><path d="M23,38L42,61L44,21Z" fill="rgb(255,255,255)" stroke="rgb(255,255,255)" stroke-width="0"/><path d="M23,38L22,69L42,61Z" fill="rgb(255,255,255)" stroke="rgb(255,255,255)" stroke-width="0"/><path d="M22,69L19,87L48,94Z" fill="rgb(255,255,255)" stroke="rgb(255,255,255)" stroke-width="0"/><path d="M549,170L517,128L497,179Z" fill="rgb(255,255,255)" stroke="rgb(255,255,255)" stroke-width="0"/><path d="M22,69L-14,90L19,87Z" fill="rgb(255,255,255)" stroke="rgb(255,255,255)" stroke-width="0"/><path d="M21,1L23,38L44,21Z" fill="rgb(255,255,255)" stroke="rgb(255,255,255)" stroke-width="0"/><path d="M550,137L553,106L517,128Z" fill="rgb(255,255,255)" stroke="rgb(255,255,255)" stroke-width="0"/><path d="M550,137L582,122L553,106Z" fill="rgb(255,255,255)" stroke="rgb(255,255,255)" stroke-width="0"/><path d="M548,192L549,170L497,179Z" fill="rgb(255,255,255)" stroke="rgb(255,255,255)" stroke-width="0"/><path d="M548,192L497,179L517,213Z" fill="rgb(255,255,255)" stroke="rgb(255,255,255)" stroke-width="0"/><path d="M549,170L572,178L550,137Z" fill="rgb(255,255,255)" stroke="rgb(255,255,255)" stroke-width="0"/><path d="M542,250L548,192L517,213Z" fill="rgb(255,255,255)" stroke="rgb(255,255,255)" stroke-width="0"/><path d="M553,106L553,60L517,57Z" fill="rgb(255,255,255)" stroke="rgb(255,255,255)" stroke-width="0"/><path d="M540,1L510,-43L499,-13Z" fill="rgb(255,255,255)" stroke="rgb(255,255,255)" stroke-width="0"/><path d="M540,1L499,-13L519,21Z" fill="rgb(255,255,255)" stroke="rgb(255,255,255)" stroke-width="0"/><path d="M499,-13L510,-43L478,-31Z" fill="rgb(255,255,255)" stroke="rgb(255,255,255)" stroke-width="0"/><path d="M478,-31L510,-43L434,-38Z" fill="rgb(255,255,255)" stroke="rgb(255,255,255)" stroke-width="0"/><path d="M553,60L544,21L517,57Z" fill="rgb(255,255,255)" stroke="rgb(255,255,255)" stroke-width="0"/><path d="M551,-40L540,1L581,-11Z" fill="rgb(255,255,255)" stroke="rgb(255,255,255)" stroke-width="0"/><path d="M544,21L540,1L519,21Z" fill="rgb(255,255,255)" stroke="rgb(255,255,255)" stroke-width="0"/><path d="M-24,203L16,217L30,175Z" fill="rgb(255,255,255)" stroke="rgb(255,255,255)" stroke-width="0"/><path d="M30,175L16,217L64,212Z" fill="rgb(255,255,255)" stroke="rgb(255,255,255)" stroke-width="0"/><path d="M-28,159L30,175L25,142Z" fill="rgb(255,255,255)" stroke="rgb(255,255,255)" stroke-width="0"/><path d="M61,244L26,243L200,248Z" fill="rgb(255,255,255)" stroke="rgb(255,255,255)" stroke-width="0"/><path d="M16,217L26,243L64,212Z" fill="rgb(255,255,255)" stroke="rgb(255,255,255)" stroke-width="0"/><path d="M29,-47L21,1L58,2Z" fill="rgb(255,255,255)" stroke="rgb(255,255,255)" stroke-width="0"/><path d="M23,38L-3,53L22,69Z" fill="rgb(255,255,255)" stroke="rgb(255,255,255)" stroke-width="0"/><path d="M505,236L542,250L517,213Z" fill="rgb(255,255,255)" stroke="rgb(255,255,255)" stroke-width="0"/><path d="M467,244L542,250L505,236Z" fill="rgb(255,255,255)" stroke="rgb(255,255,255)" stroke-width="0"/><path d="M408,250L542,250L467,244Z" fill="rgb(255,255,255)" stroke="rgb(255,255,255)" stroke-width="0"/><path d="M19,87L-14,90L25,142Z" fill="rgb(255,255,255)" stroke="rgb(255,255,255)" stroke-width="0"/><path d="M-19,36L-3,53L23,38Z" fill="rgb(255,255,255)" stroke="rgb(255,255,255)" stroke-width="0"/><path d="M548,192L572,178L549,170Z" fill="rgb(255,255,255)" stroke="rgb(255,255,255)" stroke-width="0"/><path d="M553,106L587,90L553,60Z" fill="rgb(255,255,255)" stroke="rgb(255,255,255)" stroke-width="0"/><path d="M579,198L572,178L548,192Z" fill="rgb(255,255,255)" stroke="rgb(255,255,255)" stroke-width="0"/><path d="M-3,53L-14,90L22,69Z" fill="rgb(255,255,255)" stroke="rgb(255,255,255)" stroke-width="0"/><path d="M572,178L582,122L550,137Z" fill="rgb(255,255,255)" stroke="rgb(255,255,255)" stroke-width="0"/><path d="M553,60L590,30L544,21Z" fill="rgb(255,255,255)" stroke="rgb(255,255,255)" stroke-width="0"/><path d="M21,1L-19,36L23,38Z" fill="rgb(255,255,255)" stroke="rgb(255,255,255)" stroke-width="0"/><path d="M67,-32L29,-47L58,2Z" fill="rgb(255,255,255)" stroke="rgb(255,255,255)" stroke-width="0"/><path d="M99,-48L29,-47L67,-32Z" fill="rgb(255,255,255)" stroke="rgb(255,255,255)" stroke-width="0"/><path d="M582,122L587,90L553,106Z" fill="rgb(255,255,255)" stroke="rgb(255,255,255)" stroke-width="0"/><path d="M582,122L605,102L587,90Z" fill="rgb(255,255,255)" stroke="rgb(255,255,255)" stroke-width="0"/><path d="M619,131L605,102L582,122Z" fill="rgb(255,255,255)" stroke="rgb(255,255,255)" stroke-width="0"/><path d="M571,245L579,198L548,192Z" fill="rgb(255,255,255)" stroke="rgb(255,255,255)" stroke-width="0"/><path d="M587,90L588,77L553,60Z" fill="rgb(255,255,255)" stroke="rgb(255,255,255)" stroke-width="0"/><path d="M614,73L588,77L587,90Z" fill="rgb(255,255,255)" stroke="rgb(255,255,255)" stroke-width="0"/><path d="M16,217L-8,234L26,243Z" fill="rgb(255,255,255)" stroke="rgb(255,255,255)" stroke-width="0"/><path d="M-14,90L-26,146L25,142Z" fill="rgb(255,255,255)" stroke="rgb(255,255,255)" stroke-width="0"/><path d="M-14,90L-44,132L-26,146Z" fill="rgb(255,255,255)" stroke="rgb(255,255,255)" stroke-width="0"/><path d="M-3,53L-56,67L-14,90Z" fill="rgb(255,255,255)" stroke="rgb(255,255,255)" stroke-width="0"/><path d="M-16,-6L-19,36L21,1Z" fill="rgb(255,255,255)" stroke="rgb(255,255,255)" stroke-width="0"/><path d="M540,1L551,-40L510,-43Z" fill="rgb(255,255,255)" stroke="rgb(255,255,255)" stroke-width="0"/><path d="M510,-43L640,-45L409,-51Z" fill="rgb(255,255,255)" stroke="rgb(255,255,255)" stroke-width="0"/><path d="M581,-11L540,1L544,21Z" fill="rgb(255,255,255)" stroke="rgb(255,255,255)" stroke-width="0"/><path d="M-24,203L-8,234L16,217Z" fill="rgb(255,255,255)" stroke="rgb(255,255,255)" stroke-width="0"/><path d="M-26,146L-28,159L25,142Z" fill="rgb(255,255,255)" stroke="rgb(255,255,255)" stroke-width="0"/><path d="M-44,132L-28,159L-26,146Z" fill="rgb(255,255,255)" stroke="rgb(255,255,255)" stroke-width="0"/><path d="M542,250L571,245L548,192Z" fill="rgb(255,255,255)" stroke="rgb(255,255,255)" stroke-width="0"/><path d="M-28,159L-24,203L30,175Z" fill="rgb(255,255,255)" stroke="rgb(255,255,255)" stroke-width="0"/><path d="M588,77L590,30L553,60Z" fill="rgb(255,255,255)" stroke="rgb(255,255,255)" stroke-width="0"/><path d="M29,-47L-16,-6L21,1Z" fill="rgb(255,255,255)" stroke="rgb(255,255,255)" stroke-width="0"/><path d="M-46,104L-44,132L-14,90Z" fill="rgb(255,255,255)" stroke="rgb(255,255,255)" stroke-width="0"/><path d="M588,77L614,73L590,30Z" fill="rgb(255,255,255)" stroke="rgb(255,255,255)" stroke-width="0"/><path d="M619,131L582,122L624,163Z" fill="rgb(255,255,255)" stroke="rgb(255,255,255)" stroke-width="0"/><path d="M582,122L572,178L624,163Z" fill="rgb(255,255,255)" stroke="rgb(255,255,255)" stroke-width="0"/><path d="M590,30L581,-11L544,21Z" fill="rgb(255,255,255)" stroke="rgb(255,255,255)" stroke-width="0"/><path d="M-61,213L-44,238L-24,203Z" fill="rgb(255,255,255)" stroke="rgb(255,255,255)" stroke-width="0"/><path d="M-46,104L-14,90L-56,67Z" fill="rgb(255,255,255)" stroke="rgb(255,255,255)" stroke-width="0"/><path d="M-56,67L-3,53L-19,36Z" fill="rgb(255,255,255)" stroke="rgb(255,255,255)" stroke-width="0"/><path d="M590,30L610,-15L581,-11Z" fill="rgb(255,255,255)" stroke="rgb(255,255,255)" stroke-width="0"/><path d="M605,102L614,73L587,90Z" fill="rgb(255,255,255)" stroke="rgb(255,255,255)" stroke-width="0"/><path d="M650,92L614,73L605,102Z" fill="rgb(255,255,255)" stroke="rgb(255,255,255)" stroke-width="0"/><path d="M611,198L572,178L579,198Z" fill="rgb(255,255,255)" stroke="rgb(255,255,255)" stroke-width="0"/><path d="M616,227L611,198L579,198Z" fill="rgb(255,255,255)" stroke="rgb(255,255,255)" stroke-width="0"/><path d="M614,73L612,33L590,30Z" fill="rgb(255,255,255)" stroke="rgb(255,255,255)" stroke-width="0"/><path d="M644,31L612,33L614,73Z" fill="rgb(255,255,255)" stroke="rgb(255,255,255)" stroke-width="0"/><path d="M-45,-7L-49,35L-19,36Z" fill="rgb(255,255,255)" stroke="rgb(255,255,255)" stroke-width="0"/><path d="M-49,35L-56,67L-19,36Z" fill="rgb(255,255,255)" stroke="rgb(255,255,255)" stroke-width="0"/><path d="M-46,104L-61,176L-44,132Z" fill="rgb(255,255,255)" stroke="rgb(255,255,255)" stroke-width="0"/><path d="M581,-11L591,-29L551,-40Z" fill="rgb(255,255,255)" stroke="rgb(255,255,255)" stroke-width="0"/><path d="M610,-15L591,-29L581,-11Z" fill="rgb(255,255,255)" stroke="rgb(255,255,255)" stroke-width="0"/><path d="M619,131L650,92L605,102Z" fill="rgb(255,255,255)" stroke="rgb(255,255,255)" stroke-width="0"/><path d="M611,198L624,163L572,178Z" fill="rgb(255,255,255)" stroke="rgb(255,255,255)" stroke-width="0"/><path d="M-16,-6L-45,-7L-19,36Z" fill="rgb(255,255,255)" stroke="rgb(255,255,255)" stroke-width="0"/><path d="M29,-47L-28,-35L-16,-6Z" fill="rgb(255,255,255)" stroke="rgb(255,255,255)" stroke-width="0"/><path d="M-61,176L-24,203L-28,159Z" fill="rgb(255,255,255)" stroke="rgb(255,255,255)" stroke-width="0"/><path d="M-24,203L-44,238L-8,234Z" fill="rgb(255,255,255)" stroke="rgb(255,255,255)" stroke-width="0"/><path d="M-8,234L-44,238L26,243Z" fill="rgb(255,255,255)" stroke="rgb(255,255,255)" stroke-width="0"/><path d="M-61,176L-28,159L-44,132Z" fill="rgb(255,255,255)" stroke="rgb(255,255,255)" stroke-width="0"/><path d="M-56,67L-61,176L-46,104Z" fill="rgb(255,255,255)" stroke="rgb(255,255,255)" stroke-width="0"/><path d="M-28,-35L-45,-7L-16,-6Z" fill="rgb(255,255,255)" stroke="rgb(255,255,255)" stroke-width="0"/><path d="M-49,35L-62,-41L-56,67Z" fill="rgb(255,255,255)" stroke="rgb(255,255,255)" stroke-width="0"/><path d="M639,194L640,158L624,163Z" fill="rgb(255,255,255)" stroke="rgb(255,255,255)" stroke-width="0"/><path d="M571,245L616,227L579,198Z" fill="rgb(255,255,255)" stroke="rgb(255,255,255)" stroke-width="0"/><path d="M644,31L610,-15L612,33Z" fill="rgb(255,255,255)" stroke="rgb(255,255,255)" stroke-width="0"/><path d="M612,33L610,-15L590,30Z" fill="rgb(255,255,255)" stroke="rgb(255,255,255)" stroke-width="0"/><path d="M-61,176L-61,213L-24,203Z" fill="rgb(255,255,255)" stroke="rgb(255,255,255)" stroke-width="0"/><path d="M624,163L640,158L619,131Z" fill="rgb(255,255,255)" stroke="rgb(255,255,255)" stroke-width="0"/><path d="M639,194L624,163L611,198Z" fill="rgb(255,255,255)" stroke="rgb(255,255,255)" stroke-width="0"/><path d="M616,227L639,194L611,198Z" fill="rgb(255,255,255)" stroke="rgb(255,255,255)" stroke-width="0"/><path d="M656,132L619,131L640,158Z" fill="rgb(255,255,255)" stroke="rgb(255,255,255)" stroke-width="0"/><path d="M656,132L650,92L619,131Z" fill="rgb(255,255,255)" stroke="rgb(255,255,255)" stroke-width="0"/><path d="M661,68L644,31L614,73Z" fill="rgb(255,255,255)" stroke="rgb(255,255,255)" stroke-width="0"/><path d="M610,-15L624,-31L591,-29Z" fill="rgb(255,255,255)" stroke="rgb(255,255,255)" stroke-width="0"/><path d="M591,-29L640,-45L551,-40Z" fill="rgb(255,255,255)" stroke="rgb(255,255,255)" stroke-width="0"/><path d="M654,-8L624,-31L610,-15Z" fill="rgb(255,255,255)" stroke="rgb(255,255,255)" stroke-width="0"/><path d="M639,194L656,132L640,158Z" fill="rgb(255,255,255)" stroke="rgb(255,255,255)" stroke-width="0"/><path d="M650,92L661,68L614,73Z" fill="rgb(255,255,255)" stroke="rgb(255,255,255)" stroke-width="0"/><path d="M-28,-35L-62,-41L-45,-7Z" fill="rgb(255,255,255)" stroke="rgb(255,255,255)" stroke-width="0"/><path d="M-45,-7L-62,-41L-49,35Z" fill="rgb(255,255,255)" stroke="rgb(255,255,255)" stroke-width="0"/><path d="M-56,67L-62,-41L-61,176Z" fill="rgb(255,255,255)" stroke="rgb(255,255,255)" stroke-width="0"/><path d="M-61,176L-62,-41L-61,213Z" fill="rgb(255,255,255)" stroke="rgb(255,255,255)" stroke-width="0"/><path d="M29,-47L-62,-41L-28,-35Z" fill="rgb(255,255,255)" stroke="rgb(255,255,255)" stroke-width="0"/><path d="M644,31L654,-8L610,-15Z" fill="rgb(255,255,255)" stroke="rgb(255,255,255)" stroke-width="0"/><path d="M656,132L661,68L650,92Z" fill="rgb(255,255,255)" stroke="rgb(255,255,255)" stroke-width="0"/><path d="M542,250L645,245L571,245Z" fill="rgb(255,255,255)" stroke="rgb(255,255,255)" stroke-width="0"/><path d="M571,245L645,245L616,227Z" fill="rgb(255,255,255)" stroke="rgb(255,255,255)" stroke-width="0"/><path d="M616,227L645,245L639,194Z" fill="rgb(255,255,255)" stroke="rgb(255,255,255)" stroke-width="0"/><path d="M639,194L645,245L656,132Z" fill="rgb(255,255,255)" stroke="rgb(255,255,255)" stroke-width="0"/><path d="M661,68L654,-8L644,31Z" fill="rgb(255,255,255)" stroke="rgb(255,255,255)" stroke-width="0"/><path d="M624,-31L640,-45L591,-29Z" fill="rgb(255,255,255)" stroke="rgb(255,255,255)" stroke-width="0"/><path d="M551,-40L640,-45L510,-43Z" fill="rgb(255,255,255)" stroke="rgb(255,255,255)" stroke-width="0"/><path d="M654,-8L640,-45L624,-31Z" fill="rgb(255,255,255)" stroke="rgb(255,255,255)" stroke-width="0"/></svg>