<?xml version="1.0" encoding="UTF-8" standalone="no"?>
<!-- Created with Inkscape (http://www.inkscape.org/) -->

<svg
   width="48.174377mm"
   height="48.215034mm"
   viewBox="0 0 48.174376 48.215034"
   version="1.1"
   id="svg1"
   xml:space="preserve"
   xmlns="http://www.w3.org/2000/svg"
   xmlns:svg="http://www.w3.org/2000/svg"><defs
     id="defs1" /><g
     id="layer1"
     transform="translate(50.203289,-382.57731)"><path
       d="m -5.5311647,382.58136 v 5.1e-4 l -6.9923383,0.006 -6.990271,0.006 c -0.155373,1e-5 -0.310574,0.0104 -0.464571,0.031 l -0.248047,0.0331 -0.248047,0.0331 c -0.03591,0.005 -0.07174,0.0101 -0.107487,0.016 l -0.279569,0.0465 -0.28112,0.047 c -0.09782,0.0167 -0.194889,0.0376 -0.290938,0.0625 l -0.31471,0.078 -0.312125,0.0801 c -0.08901,0.0225 -0.177102,0.0486 -0.264067,0.078 l -0.265617,0.0899 -0.265617,0.0899 c -0.0704,0.0238 -0.140027,0.0498 -0.208772,0.078 l -0.205156,0.0842 -0.206706,0.0858 c -0.06138,0.025 -0.122037,0.0517 -0.181901,0.0801 l -0.242362,0.11731 -0.241846,0.11523 c -0.08045,0.0385 -0.1594,0.08 -0.236678,0.12454 l -0.24598,0.14108 -0.248047,0.14211 c -0.07183,0.0417 -0.142158,0.0861 -0.210839,0.13281 l -0.14056,0.094 -0.138493,0.0935 c -0.05251,0.0358 -0.104031,0.073 -0.154513,0.11162 l -0.210839,0.15968 -0.212907,0.16019 c -0.05883,0.045 -0.116224,0.0919 -0.172083,0.14056 l 0.150379,0.13333 -0.152446,-0.13333 -0.0015,0.002 -0.168465,0.14469 -0.165882,0.1447 0.33228,-0.29301 -0.0098,-0.0103 c -0.0632,-0.055 -0.128353,-0.10778 -0.195337,-0.15813 l -0.267684,-0.19896 -0.265617,-0.19947 c -0.09605,-0.0721 -0.195744,-0.13918 -0.298689,-0.20102 l -0.24598,-0.14624 -0.24443,-0.14676 c -0.0808,-0.049 -0.16355,-0.0947 -0.248047,-0.13695 l -0.326078,-0.16174 -0.326078,-0.16227 c -0.0925,-0.0458 -0.186993,-0.0876 -0.283187,-0.12505 l -0.277502,-0.10904 -0.277503,-0.10956 c -0.07132,-0.0279 -0.143532,-0.0534 -0.216524,-0.0765 l -0.238228,-0.076 -0.240296,-0.076 c -0.08821,-0.0283 -0.177506,-0.0532 -0.267684,-0.0744 l -0.257865,-0.0605 -0.257866,-0.0589 c -0.06914,-0.0164 -0.138762,-0.0307 -0.208772,-0.0429 l -0.275436,-0.0465 -0.275435,-0.047 c -0.04928,-0.008 -0.09873,-0.0155 -0.148311,-0.0217 l -0.267684,-0.0331 -0.265617,-0.0331 c -0.143816,-0.0181 -0.288616,-0.0272 -0.433566,-0.0274 l -6.980452,-0.006 -6.98252,-0.004 c -1.933758,-9.8e-4 -3.501943,1.56628 -3.502111,3.50004 v 1.85777 1.85725 c 1.68e-4,1.93295 1.567093,3.49988 3.500044,3.50005 h 6.92981 6.781498 l 0.08785,0.006 0.04651,0.004 0.05478,0.0119 0.07235,0.0134 0.0646,0.0196 0.08578,0.0253 0.0078,0.004 0.02946,0.98237 0.04082,1.42213 0.03927,1.42369 0.04082,1.46089 0.03927,1.43971 0.0057,0.44493 0.0062,0.46871 c 4.56e-4,0.0119 9.73e-4,0.0238 0.0015,0.0356 l 0.320394,13.15217 0.320394,13.07414 c 1.46e-4,1.93983 1.577805,3.50961 3.517615,3.50004 l 2.107365,-0.0119 h 2.121317 c 1.871826,-4.9e-4 3.412016,-1.47352 3.495911,-3.34347 l 0.01395,-0.29714 v -5.1e-4 -5.2e-4 -5.2e-4 -5.1e-4 l 0.01344,-0.29869 c 9.25e-4,-0.0234 0.0016,-0.0468 0.0021,-0.0703 l 0.310576,-12.85917 0.312642,-12.86174 c 1.8e-5,-0.006 1.8e-5,-0.0127 0,-0.0191 l 0.0057,-0.3576 0.0057,-0.34365 0.04134,-1.43557 0.03876,-1.45315 v -5.1e-4 -0.002 -0.002 -0.002 -5.2e-4 -0.002 -0.002 -5.2e-4 -0.002 -10e-4 l 0.04703,-1.91203 0.04703,-1.91203 c 2.2e-5,-0.007 2.2e-5,-0.0145 0,-0.0217 l 0.0036,-0.21084 0.01964,-0.006 0.06666,-0.0238 0.05064,-0.0114 0.06046,-0.016 0.05064,-0.008 6.787182,-0.006 7.0822554,-0.004 c 1.9321443,-0.001 3.4978097,-1.5679 3.4979777,-3.50004 v -1.85777 -1.85725 c -1.683e-4,-1.93376 -1.5683531,-3.50102 -3.5021118,-3.50004 z m 0.00155,3.50107 v 1.85674 1.85673 l -7.0822543,0.005 -7.082772,0.005 -0.234094,0.0398 -0.235128,0.0403 -0.188102,0.0465 -0.188103,0.0465 -0.202055,0.0682 -0.202054,0.0677 -0.192753,0.0822 -0.192754,0.0822 -0.156062,0.0837 -0.156063,0.0842 -0.173116,0.10852 -0.173116,0.10904 -0.185002,0.14108 -0.185518,0.14159 -0.268718,0.26613 -0.268717,0.26614 -0.112138,0.14314 -0.112138,0.14366 v 0.14315 0.14366 l -0.01344,0.73277 -0.01344,0.73225 -0.04651,1.91203 -0.04651,1.91203 -0.04031,1.45262 -0.03979,1.45211 -0.0067,0.35915 -0.0067,0.35812 -0.311092,12.8602 -0.310575,12.85968 -0.01344,0.2992 -0.01344,0.29766 h -2.130102 l -2.116667,0.0109 v -0.007 l -0.320911,-13.15268 -0.32091,-13.15217 -0.0067,-0.46922 -0.0067,-0.46819 -0.03979,-1.46141 -0.04031,-1.46141 -0.03979,-1.42524 -0.03979,-1.42471 -0.03359,-1.14877 -0.03307,-1.14929 v -0.0935 -0.093 l -0.07648,-0.0997 -0.07596,-0.0992 -0.160197,-0.18139 -0.159681,-0.18138 -0.165364,-0.14831 -0.165365,-0.1478 -0.201538,-0.15089 -0.202055,-0.1509 -0.183451,-0.11058 -0.183451,-0.11059 -0.165365,-0.0827 -0.165364,-0.0827 -0.21084,-0.0832 -0.211357,-0.0837 -0.22841,-0.0677 -0.227893,-0.0682 -0.239262,-0.0465 -0.240295,-0.0465 -0.234611,-0.0202 -0.235645,-0.0202 h -6.929809 -6.930327 v -1.85725 -1.85673 l 6.981486,0.005 6.981486,0.005 0.266134,0.0336 0.266134,0.0331 0.275435,0.047 0.275435,0.0465 0.257866,0.06 0.257348,0.0599 0.238746,0.0765 0.238745,0.076 0.280086,0.11007 0.280086,0.10904 0.326079,0.16226 0.326078,0.16227 0.248047,0.14934 0.248047,0.14883 0.266133,0.19947 0.266134,0.19895 0.166915,0.1447 0.166915,0.14521 0.987536,0.8692 0.987537,0.86971 0.0677,-0.0599 0.06821,-0.06 0.907955,-0.80098 0.907955,-0.80099 0.167431,-0.14469 0.167432,-0.1447 0.211357,-0.16019 0.211356,-0.15968 0.139527,-0.0946 0.139526,-0.094 0.246496,-0.1416 0.247014,-0.14211 0.243913,-0.11678 0.243396,-0.11679 0.206189,-0.0847 0.206189,-0.0847 0.266133,-0.0899 0.266134,-0.0904 0.31626,-0.0801 0.315743,-0.0806 0.281119,-0.0465 0.280603,-0.047 0.248047,-0.0331 0.248047,-0.0336 6.990788,-0.006 z"
       style="stroke-linecap:round;stroke-linejoin:round;paint-order:markers stroke fill"
       id="path9" /></g></svg>
