<?xml version="1.0" encoding="UTF-8" standalone="no"?>
<!-- Created with Inkscape (http://www.inkscape.org/) -->

<svg
   width="6.3691201mm"
   height="6.37673mm"
   viewBox="0 0 6.36912 6.3767299"
   version="1.1"
   id="svg1"
   xml:space="preserve"
   xmlns="http://www.w3.org/2000/svg"
   xmlns:svg="http://www.w3.org/2000/svg"><defs
     id="defs1" /><g
     id="layer1"
     transform="translate(-138.08603,-112.38022)"><path
       style="fill:#020202;stroke:none"
       d="m 138.16508,112.39208 c -0.0785,0.0151 -0.0813,0.0853 -0.0813,0.15002 v 0.43688 c 0,0.0626 -0.007,0.13617 0.066,0.16129 0.0523,0.018 0.12295,0.006 0.1778,0.006 h 0.37592 1.25984 c 0.22129,0 0.43908,-0.0188 0.62992,0.11542 0.0415,0.0292 0.0892,0.0646 0.11667,0.1081 0.0145,0.0229 0.009,0.0505 0.0125,0.0762 0.0109,0.0834 0.008,0.17492 0.008,0.25908 0,0.2625 0.0199,0.52476 0.0203,0.7874 0.002,1.01767 0.0746,2.03551 0.0762,3.05308 4.4e-4,0.27784 0.0199,0.55553 0.0203,0.83312 1.2e-4,0.0747 0.005,0.14914 0.005,0.22352 0,0.0401 -0.006,0.0872 0.0185,0.12184 0.0405,0.0568 0.12424,0.0407 0.18465,0.0407 h 0.36068 c 0.0594,0 0.12406,0.007 0.18288,-0.002 0.12267,-0.0181 0.0965,-0.20745 0.0965,-0.29819 0,-0.1948 0.0104,-0.38963 0.0152,-0.5842 0.003,-0.12324 -0.003,-0.24789 0.006,-0.37084 0.0285,-0.41636 0.0199,-0.83742 0.0301,-1.25476 0.0143,-0.58392 0.0387,-1.16854 0.0456,-1.7526 0.003,-0.27263 0.0203,-0.5454 0.0203,-0.81788 0,-0.073 0.005,-0.14583 0.005,-0.21844 10e-6,-0.0315 -0.008,-0.075 0.0118,-0.1016 0.15655,-0.20893 0.40877,-0.21844 0.64355,-0.21844 h 1.30048 0.49276 c 0.0625,0 0.14417,0.011 0.1778,-0.0559 0.0225,-0.0448 0.0102,-0.11362 0.0102,-0.16255 v -0.37084 c 0,-0.0571 0.008,-0.12309 -0.0508,-0.15536 -0.0369,-0.0202 -0.0865,-0.0123 -0.12699,-0.0123 h -0.26416 -0.97536 c -0.39249,0 -0.81754,-0.052 -1.18872,0.0996 -0.15972,0.0652 -0.28734,0.16665 -0.41656,0.27849 -0.0376,0.0326 -0.0749,0.0657 -0.11176,0.0991 -0.0123,0.0112 -0.0327,0.0357 -0.0508,0.0357 -0.0229,0 -0.0503,-0.0357 -0.066,-0.0497 -0.0555,-0.0495 -0.11179,-0.0982 -0.16764,-0.14737 -0.14492,-0.12752 -0.316,-0.22124 -0.50292,-0.27062 -0.20545,-0.0543 -0.41441,-0.0451 -0.62484,-0.0451 h -0.83312 -0.6096 c -0.0953,0 -0.20611,-0.0156 -0.29972,0.002 m 6.09092,0.19574 v 0.26416 c 0,0.0208 0.01,0.077 -0.008,0.0913 -0.0273,0.0217 -0.11994,0.005 -0.15441,0.005 h -0.42672 -0.98552 c -0.17322,0 -0.36321,-0.0218 -0.5334,0.0124 -0.19304,0.0388 -0.41255,0.15882 -0.51505,0.333 -0.0228,0.0387 -0.0133,0.094 -0.0133,0.13716 -1e-5,0.0875 -0.003,0.17639 -0.005,0.26416 -0.008,0.33822 -0.0107,0.67788 -0.0255,1.016 -0.0306,0.69854 -0.0335,1.39887 -0.0507,2.09804 -0.0143,0.58517 -0.0456,1.17232 -0.0456,1.75768 H 141.051 c -2.5e-4,-0.36978 -0.0141,-0.7431 -0.0303,-1.11252 -0.0182,-0.41625 -0.0123,-0.83352 -0.0305,-1.24968 -0.0183,-0.41758 -0.0204,-0.83704 -0.0306,-1.25476 -0.004,-0.15226 6.2e-4,-0.30534 -0.01,-0.4572 -0.0177,-0.2579 -0.0208,-0.52389 -0.0208,-0.78232 0,-0.0974 -8e-5,-0.19771 -0.009,-0.29464 -0.003,-0.0352 0.005,-0.0731 -0.008,-0.10668 -0.0258,-0.064 -0.0936,-0.12226 -0.14487,-0.16612 -0.25492,-0.21808 -0.56586,-0.19456 -0.87884,-0.19456 h -1.60528 v -0.36068 c 0.50354,0 1.01107,-0.0171 1.51384,0.005 0.23047,0.0101 0.45906,-0.0197 0.6858,0.034 0.21995,0.0521 0.38274,0.19561 0.54864,0.33919 0.0477,0.0413 0.0955,0.0829 0.14224,0.12523 0.027,0.0245 0.0574,0.0537 0.0965,0.0537 0.0415,0 0.0726,-0.0326 0.1016,-0.0578 0.0579,-0.0504 0.11478,-0.10201 0.17272,-0.1524 0.17545,-0.1526 0.34425,-0.26921 0.57404,-0.32205 0.24286,-0.0558 0.51417,-0.0248 0.762,-0.0248 z"
       id="path1" /></g></svg>
