<svg version="1.1" id="Layer_1" xmlns="http://www.w3.org/2000/svg" xmlns:xlink="http://www.w3.org/1999/xlink" x="0px" y="0px"
	 width="100%" viewBox="0 0 1000 891" enable-background="new 0 0 1000 891" xml:space="preserve"
	    style="color:currentColor;" >
<path fill="#00000000" opacity="1.000000" stroke="none" 
	d="
M1.000001,348.000000 
	C1.000000,232.420944 1.000000,116.841881 1.000000,1.000000 
	C72.358032,1.000000 143.716385,1.000000 215.861771,1.258979 
	C218.123932,1.678545 219.599060,1.979599 221.074203,1.979724 
	C341.726288,1.989919 462.378387,1.976684 583.494385,1.974764 
	C664.532715,1.989462 745.107117,2.003361 825.681519,1.996042 
	C867.466553,1.992247 909.251648,1.950900 951.501343,1.950955 
	C968.310730,1.983595 984.655334,1.991797 1001.000000,2.000000 
	C1001.000000,298.579285 1001.000000,595.158569 1001.000000,892.000000 
	C816.308533,892.000000 631.616882,892.000000 446.576202,891.684204 
	C451.262573,886.276062 456.361084,881.244263 461.319763,876.078247 
	C470.423950,866.593384 480.482483,857.807800 488.322754,847.364014 
	C522.605957,801.696411 538.913391,749.409302 542.945190,692.945251 
	C544.534607,670.685608 545.028870,648.331177 547.179443,626.132080 
	C550.401184,592.875122 562.804382,563.359131 586.130737,538.931580 
	C600.222900,524.174133 617.191162,513.377319 635.184326,504.130127 
	C661.515930,490.597626 688.111938,477.585510 712.084351,459.916046 
	C746.878235,434.270233 776.136169,403.767090 796.173645,365.093079 
	C799.853149,357.991302 802.994751,350.610809 806.384644,343.358978 
	C711.864319,385.922150 613.115967,409.222137 509.744629,420.347137 
	C521.669189,414.672791 532.808228,410.505798 542.770203,404.413757 
	C569.862305,387.846069 596.846313,371.041901 623.168274,353.286499 
	C681.442017,313.978271 743.838501,284.554901 813.321289,271.537994 
	C846.948730,265.238220 880.753662,263.566498 914.717957,268.855804 
	C916.168518,269.081696 917.660950,269.038055 919.133911,269.119995 
	C919.273865,268.679138 919.413757,268.238312 919.553711,267.797485 
	C910.937256,261.905060 902.559326,255.622406 893.663574,250.187088 
	C852.918335,225.291733 808.292542,213.629227 760.824402,212.479050 
	C728.149902,211.687332 695.861145,215.122406 664.947815,226.131836 
	C648.086243,232.136871 632.001709,240.306885 615.501831,247.348465 
	C593.292419,256.826660 570.355896,259.354950 547.283875,251.661407 
	C533.474731,247.056625 519.781128,241.462509 506.999054,234.535233 
	C460.638062,209.409775 411.099945,198.642990 358.685303,199.072449 
	C310.069702,199.470779 262.077423,206.264557 214.015335,212.438354 
	C176.341385,217.277756 138.653000,221.889923 100.590416,222.193588 
	C99.403519,222.203064 98.218170,222.407410 96.359406,222.585266 
	C107.583832,233.679214 120.354362,242.269424 127.958595,255.877274 
	C127.041626,256.551331 126.431862,257.109711 125.728874,257.500366 
	C101.803589,270.794830 79.495628,286.501221 57.910645,303.248657 
	C38.844337,318.041931 19.963009,333.073608 1.000001,348.000000 
M920.320740,269.589325 
	C920.320740,269.589325 920.220276,269.462036 920.320740,269.589325 
z"/>
<path fill="#FFFFFF" opacity="1.000000" stroke="none" 
	d="
M1.000001,348.468658 
	C19.963009,333.073608 38.844337,318.041931 57.910645,303.248657 
	C79.495628,286.501221 101.803589,270.794830 125.728874,257.500366 
	C126.431862,257.109711 127.041626,256.551331 127.958595,255.877274 
	C120.354362,242.269424 107.583832,233.679214 96.359406,222.585266 
	C98.218170,222.407410 99.403519,222.203064 100.590416,222.193588 
	C138.653000,221.889923 176.341385,217.277756 214.015335,212.438354 
	C262.077423,206.264557 310.069702,199.470779 358.685303,199.072449 
	C411.099945,198.642990 460.638062,209.409775 506.999054,234.535233 
	C519.781128,241.462509 533.474731,247.056625 547.283875,251.661407 
	C570.355896,259.354950 593.292419,256.826660 615.501831,247.348465 
	C632.001709,240.306885 648.086243,232.136871 664.947815,226.131836 
	C695.861145,215.122406 728.149902,211.687332 760.824402,212.479050 
	C808.292542,213.629227 852.918335,225.291733 893.663574,250.187088 
	C902.559326,255.622406 910.937256,261.905060 919.553711,267.797485 
	C919.413757,268.238312 919.273865,268.679138 919.133911,269.119995 
	C917.660950,269.038055 916.168518,269.081696 914.717957,268.855804 
	C880.753662,263.566498 846.948730,265.238220 813.321289,271.537994 
	C743.838501,284.554901 681.442017,313.978271 623.168274,353.286499 
	C596.846313,371.041901 569.862305,387.846069 542.770203,404.413757 
	C532.808228,410.505798 521.669189,414.672791 509.744629,420.347137 
	C613.115967,409.222137 711.864319,385.922150 806.384644,343.358978 
	C802.994751,350.610809 799.853149,357.991302 796.173645,365.093079 
	C776.136169,403.767090 746.878235,434.270233 712.084351,459.916046 
	C688.111938,477.585510 661.515930,490.597626 635.184326,504.130127 
	C617.191162,513.377319 600.222900,524.174133 586.130737,538.931580 
	C562.804382,563.359131 550.401184,592.875122 547.179443,626.132080 
	C545.028870,648.331177 544.534607,670.685608 542.945190,692.945251 
	C538.913391,749.409302 522.605957,801.696411 488.322754,847.364014 
	C480.482483,857.807800 470.423950,866.593384 461.319763,876.078247 
	C456.361084,881.244263 451.262573,886.276062 446.113556,891.684204 
	C297.732269,892.000000 149.464554,892.000000 1.000000,892.000000 
	C1.000000,710.979126 1.000000,529.958252 1.000001,348.468658 
z"/>
<path fill="#FFFFFF" opacity="1.000000" stroke="none" 
	d="
M920.270508,269.525696 
	C920.220276,269.462036 920.320740,269.589325 920.270508,269.525696 
z"/>
</svg>