<svg version="1.1" id="Layer_1" xmlns="http://www.w3.org/2000/svg" xmlns:xlink="http://www.w3.org/1999/xlink" x="0px" y="0px"
	 width="100%" viewBox="0 0 500 500" enable-background="new 0 0 500 500" xml:space="preserve">
<path fill="#00000000" opacity="1.000000" stroke="none" 
	d="
M337.000000,501.000000 
	C224.666687,501.000000 112.833389,501.000000 1.000060,501.000000 
	C1.000040,334.333405 1.000040,167.666794 1.000020,1.000149 
	C167.666565,1.000100 334.333130,1.000100 500.999756,1.000050 
	C500.999847,167.666519 500.999847,334.333038 500.999939,500.999786 
	C446.500000,501.000000 392.000000,501.000000 337.000000,501.000000 
M290.026886,392.027496 
	C288.916107,392.311676 287.796295,392.873108 286.695892,392.837372 
	C275.263153,392.466034 263.820740,392.206848 252.406082,391.507446 
	C236.505966,390.533173 220.614304,389.355530 204.747467,387.944763 
	C200.087509,387.530457 195.432556,386.328735 190.940430,384.949921 
	C185.762314,383.360596 180.660751,381.686157 175.475327,384.335297 
	C171.444565,386.394531 169.102280,391.502930 170.030045,395.225616 
	C171.355255,400.543060 177.257599,406.306732 182.252289,406.238068 
	C190.868179,406.119659 199.481369,404.994995 208.086594,405.092651 
	C222.535675,405.256622 236.986435,405.877136 251.420395,406.618713 
	C269.633057,407.554413 287.822723,408.950470 306.038208,409.810883 
	C310.343048,410.014252 313.257721,410.788544 314.787384,415.294586 
	C316.648376,420.776703 322.075012,420.949890 329.110321,419.779938 
	C334.120331,418.946747 334.502167,414.473572 334.643036,410.399780 
	C334.699005,408.780518 334.552307,406.877655 333.754700,405.550507 
	C328.744812,397.214386 328.383331,387.570343 325.854889,378.544006 
	C324.396332,373.336975 325.417603,371.930695 330.448334,370.146271 
	C335.245239,368.444763 339.902710,366.240601 344.409943,363.857361 
	C351.155182,360.290680 357.488770,355.875305 364.410767,352.730682 
	C373.307861,348.688812 380.042816,342.177979 386.724579,335.463104 
	C389.768463,332.404175 389.608551,328.986877 387.447937,325.480255 
	C385.214935,321.856201 382.113617,322.376373 378.667145,323.353027 
	C374.696808,324.478180 370.655273,325.538391 366.572540,326.040863 
	C358.678162,327.012573 350.676147,327.199493 342.823608,328.398468 
	C332.876465,329.917328 329.672791,327.466431 328.769104,317.443237 
	C327.803680,306.734802 326.582062,296.031586 324.957825,285.404724 
	C322.702911,270.651672 320.212250,255.924545 317.366058,241.274994 
	C314.873688,228.446594 311.740417,215.743011 308.913147,202.979218 
	C307.900879,198.409302 309.408600,196.606644 313.998199,197.266281 
	C316.265259,197.592117 318.439880,198.568085 320.653137,199.260056 
	C327.295380,201.336716 333.892944,203.572769 340.592102,205.445480 
	C345.291260,206.759109 350.329620,204.712112 350.745697,200.874832 
	C351.149078,197.154373 350.893280,192.740051 349.190887,189.559814 
	C346.646637,184.807053 342.795471,180.674118 339.118042,176.624588 
	C331.779846,168.543869 326.075043,159.958618 326.900757,148.313690 
	C327.131714,145.056595 326.090424,141.725540 325.847778,138.412659 
	C325.696564,136.348236 325.774078,134.230682 326.052155,132.178055 
	C326.889679,125.995850 328.394836,119.858238 328.687256,113.658318 
	C329.176178,103.291321 324.444824,95.058220 316.302399,88.907425 
	C313.789551,87.009224 313.472565,85.320900 315.366760,83.228859 
	C318.365448,79.916992 321.583771,76.804329 324.701172,73.599586 
	C329.315460,68.855988 334.315826,64.416359 338.398956,59.252075 
	C341.265961,55.625946 344.267883,53.622131 348.818329,53.779449 
	C352.688660,53.913261 356.160187,52.672760 356.621429,48.475544 
	C357.051941,44.557472 355.722809,40.146175 351.520050,39.208599 
	C343.225677,37.358261 339.244568,31.545195 335.440399,24.858488 
	C331.679047,18.247095 326.293854,12.852637 318.107941,13.186377 
	C310.720795,13.487549 303.291290,14.736845 296.083954,16.432705 
	C293.398163,17.064655 290.366425,19.683922 289.102020,22.204447 
	C286.151276,28.086565 283.633453,34.313538 281.940247,40.667309 
	C279.695648,49.090256 277.726013,51.355785 269.262054,52.597084 
	C260.104004,53.940178 250.973343,55.471359 241.834183,56.941795 
	C226.187393,59.459274 215.268021,68.957458 206.241364,81.178749 
	C198.057831,92.258545 190.837372,104.202164 181.614243,114.327484 
	C166.017166,131.450287 151.497437,149.326065 138.845169,168.659012 
	C131.019974,180.616089 129.627319,193.653793 138.858688,205.405258 
	C145.458038,213.806183 153.068314,221.806412 161.553589,228.235214 
	C172.754517,236.721542 185.265778,243.475067 197.182526,251.022797 
	C199.458862,252.464539 201.590347,254.134933 205.057114,256.602814 
	C199.770187,258.747375 195.866379,259.978668 192.297150,261.848602 
	C183.633698,266.387451 175.409531,271.871948 166.483643,275.775665 
	C155.287979,280.672058 143.445358,284.067261 132.107620,288.666656 
	C119.454964,293.799530 115.115204,299.483948 118.398453,308.895081 
	C122.664917,321.124512 129.097244,332.140900 137.372391,341.884949 
	C143.931046,349.607788 152.694229,354.702820 162.849411,356.458832 
	C169.477097,357.604889 173.612915,353.007599 171.328461,346.948029 
	C167.494339,336.777863 164.986649,326.407013 163.737747,315.618134 
	C163.302124,311.854828 164.054901,309.311615 167.408386,307.960999 
	C173.548065,305.488220 179.646393,302.648834 186.038925,301.121521 
	C200.377213,297.695831 214.909424,295.091095 229.315826,291.938110 
	C239.154938,289.784729 249.138214,288.154205 257.924377,282.504791 
	C267.751984,276.185760 271.543945,267.554321 268.984955,256.056396 
	C268.639435,254.503906 269.056152,252.781769 269.119904,251.138184 
	C270.814087,251.616547 272.778381,251.714218 274.130920,252.674011 
	C275.663635,253.761719 277.244080,255.444702 277.760223,257.179382 
	C279.365936,262.575745 280.947205,268.057037 281.681854,273.618469 
	C283.142548,284.676819 286.703094,294.875183 292.398315,304.417694 
	C300.816742,318.523010 307.897797,333.027649 306.799957,350.197418 
	C306.593719,353.423065 307.783569,356.721802 308.155701,360.006470 
	C308.393097,362.101715 308.931610,364.454437 308.269104,366.311371 
	C304.707489,376.294159 300.077606,385.647064 290.026886,392.027496 
z"/>
<path fill="#000000ff" opacity="1.000000" stroke="none" 
	d="
M290.385620,391.858246 
	C300.077606,385.647064 304.707489,376.294159 308.269104,366.311371 
	C308.931610,364.454437 308.393097,362.101715 308.155701,360.006470 
	C307.783569,356.721802 306.593719,353.423065 306.799957,350.197418 
	C307.897797,333.027649 300.816742,318.523010 292.398315,304.417694 
	C286.703094,294.875183 283.142548,284.676819 281.681854,273.618469 
	C280.947205,268.057037 279.365936,262.575745 277.760223,257.179382 
	C277.244080,255.444702 275.663635,253.761719 274.130920,252.674011 
	C272.778381,251.714218 270.814087,251.616547 269.119904,251.138184 
	C269.056152,252.781769 268.639435,254.503906 268.984955,256.056396 
	C271.543945,267.554321 267.751984,276.185760 257.924377,282.504791 
	C249.138214,288.154205 239.154938,289.784729 229.315826,291.938110 
	C214.909424,295.091095 200.377213,297.695831 186.038925,301.121521 
	C179.646393,302.648834 173.548065,305.488220 167.408386,307.960999 
	C164.054901,309.311615 163.302124,311.854828 163.737747,315.618134 
	C164.986649,326.407013 167.494339,336.777863 171.328461,346.948029 
	C173.612915,353.007599 169.477097,357.604889 162.849411,356.458832 
	C152.694229,354.702820 143.931046,349.607788 137.372391,341.884949 
	C129.097244,332.140900 122.664917,321.124512 118.398453,308.895081 
	C115.115204,299.483948 119.454964,293.799530 132.107620,288.666656 
	C143.445358,284.067261 155.287979,280.672058 166.483643,275.775665 
	C175.409531,271.871948 183.633698,266.387451 192.297150,261.848602 
	C195.866379,259.978668 199.770187,258.747375 205.057114,256.602814 
	C201.590347,254.134933 199.458862,252.464539 197.182526,251.022797 
	C185.265778,243.475067 172.754517,236.721542 161.553589,228.235214 
	C153.068314,221.806412 145.458038,213.806183 138.858688,205.405258 
	C129.627319,193.653793 131.019974,180.616089 138.845169,168.659012 
	C151.497437,149.326065 166.017166,131.450287 181.614243,114.327484 
	C190.837372,104.202164 198.057831,92.258545 206.241364,81.178749 
	C215.268021,68.957458 226.187393,59.459274 241.834183,56.941795 
	C250.973343,55.471359 260.104004,53.940178 269.262054,52.597084 
	C277.726013,51.355785 279.695648,49.090256 281.940247,40.667309 
	C283.633453,34.313538 286.151276,28.086565 289.102020,22.204447 
	C290.366425,19.683922 293.398163,17.064655 296.083954,16.432705 
	C303.291290,14.736845 310.720795,13.487549 318.107941,13.186377 
	C326.293854,12.852637 331.679047,18.247095 335.440399,24.858488 
	C339.244568,31.545195 343.225677,37.358261 351.520050,39.208599 
	C355.722809,40.146175 357.051941,44.557472 356.621429,48.475544 
	C356.160187,52.672760 352.688660,53.913261 348.818329,53.779449 
	C344.267883,53.622131 341.265961,55.625946 338.398956,59.252075 
	C334.315826,64.416359 329.315460,68.855988 324.701172,73.599586 
	C321.583771,76.804329 318.365448,79.916992 315.366760,83.228859 
	C313.472565,85.320900 313.789551,87.009224 316.302399,88.907425 
	C324.444824,95.058220 329.176178,103.291321 328.687256,113.658318 
	C328.394836,119.858238 326.889679,125.995850 326.052155,132.178055 
	C325.774078,134.230682 325.696564,136.348236 325.847778,138.412659 
	C326.090424,141.725540 327.131714,145.056595 326.900757,148.313690 
	C326.075043,159.958618 331.779846,168.543869 339.118042,176.624588 
	C342.795471,180.674118 346.646637,184.807053 349.190887,189.559814 
	C350.893280,192.740051 351.149078,197.154373 350.745697,200.874832 
	C350.329620,204.712112 345.291260,206.759109 340.592102,205.445480 
	C333.892944,203.572769 327.295380,201.336716 320.653137,199.260056 
	C318.439880,198.568085 316.265259,197.592117 313.998199,197.266281 
	C309.408600,196.606644 307.900879,198.409302 308.913147,202.979218 
	C311.740417,215.743011 314.873688,228.446594 317.366058,241.274994 
	C320.212250,255.924545 322.702911,270.651672 324.957825,285.404724 
	C326.582062,296.031586 327.803680,306.734802 328.769104,317.443237 
	C329.672791,327.466431 332.876465,329.917328 342.823608,328.398468 
	C350.676147,327.199493 358.678162,327.012573 366.572540,326.040863 
	C370.655273,325.538391 374.696808,324.478180 378.667145,323.353027 
	C382.113617,322.376373 385.214935,321.856201 387.447937,325.480255 
	C389.608551,328.986877 389.768463,332.404175 386.724579,335.463104 
	C380.042816,342.177979 373.307861,348.688812 364.410767,352.730682 
	C357.488770,355.875305 351.155182,360.290680 344.409943,363.857361 
	C339.902710,366.240601 335.245239,368.444763 330.448334,370.146271 
	C325.417603,371.930695 324.396332,373.336975 325.854889,378.544006 
	C328.383331,387.570343 328.744812,397.214386 333.754700,405.550507 
	C334.552307,406.877655 334.699005,408.780518 334.643036,410.399780 
	C334.502167,414.473572 334.120331,418.946747 329.110321,419.779938 
	C322.075012,420.949890 316.648376,420.776703 314.787384,415.294586 
	C313.257721,410.788544 310.343048,410.014252 306.038208,409.810883 
	C287.822723,408.950470 269.633057,407.554413 251.420395,406.618713 
	C236.986435,405.877136 222.535675,405.256622 208.086594,405.092651 
	C199.481369,404.994995 190.868179,406.119659 182.252289,406.238068 
	C177.257599,406.306732 171.355255,400.543060 170.030045,395.225616 
	C169.102280,391.502930 171.444565,386.394531 175.475327,384.335297 
	C180.660751,381.686157 185.762314,383.360596 190.940430,384.949921 
	C195.432556,386.328735 200.087509,387.530457 204.747467,387.944763 
	C220.614304,389.355530 236.505966,390.533173 252.406082,391.507446 
	C263.820740,392.206848 275.263153,392.466034 286.695892,392.837372 
	C287.796295,392.873108 288.916107,392.311676 290.385620,391.858246 
M263.662720,159.225098 
	C261.017090,162.773438 263.028503,164.103058 266.147888,165.902481 
	C270.924164,168.657684 276.582642,171.317535 279.456421,175.625641 
	C284.747040,183.556900 292.243958,184.449585 300.188721,184.919495 
	C304.011810,185.145630 305.080353,182.457199 302.752319,179.312424 
	C301.475616,177.587875 299.831421,176.139099 298.395386,174.528137 
	C292.040527,167.399170 291.978058,158.017761 289.587982,149.496323 
	C288.058777,144.044235 286.668091,142.848129 281.756165,145.898788 
	C275.605743,149.718658 269.975403,154.375931 263.662720,159.225098 
M280.214233,202.269318 
	C283.719421,205.624420 287.224579,208.979507 291.405914,212.981812 
	C293.434235,206.729248 295.398071,201.405365 296.742767,195.929459 
	C297.019806,194.801270 295.311584,192.527374 293.963440,191.772003 
	C288.083221,188.477417 281.683136,187.989670 275.277130,189.865112 
	C271.152252,191.072708 270.557373,194.492065 273.768646,197.310013 
	C275.622711,198.936981 277.717041,200.290222 280.214233,202.269318 
z"/>
<path fill="#00000000" opacity="1.000000" stroke="none" 
	d="
M263.891663,158.948425 
	C269.975403,154.375931 275.605743,149.718658 281.756165,145.898788 
	C286.668091,142.848129 288.058777,144.044235 289.587982,149.496323 
	C291.978058,158.017761 292.040527,167.399170 298.395386,174.528137 
	C299.831421,176.139099 301.475616,177.587875 302.752319,179.312424 
	C305.080353,182.457199 304.011810,185.145630 300.188721,184.919495 
	C292.243958,184.449585 284.747040,183.556900 279.456421,175.625641 
	C276.582642,171.317535 270.924164,168.657684 266.147888,165.902481 
	C263.028503,164.103058 261.017090,162.773438 263.891663,158.948425 
z"/>
<path fill="#00000000" opacity="1.000000" stroke="none" 
	d="
M279.958740,202.017990 
	C277.717041,200.290222 275.622711,198.936981 273.768646,197.310013 
	C270.557373,194.492065 271.152252,191.072708 275.277130,189.865112 
	C281.683136,187.989670 288.083221,188.477417 293.963440,191.772003 
	C295.311584,192.527374 297.019806,194.801270 296.742767,195.929459 
	C295.398071,201.405365 293.434235,206.729248 291.405914,212.981812 
	C287.224579,208.979507 283.719421,205.624420 279.958740,202.017990 
z"/>
</svg>