<?xml version="1.0" encoding="UTF-8" standalone="no"?>
<!-- Created with Inkscape (http://www.inkscape.org/) -->

<svg
   width="51.933781mm"
   height="48.214622mm"
   viewBox="0 0 51.933779 48.214622"
   version="1.1"
   id="svg1"
   xml:space="preserve"
   xmlns="http://www.w3.org/2000/svg"
   xmlns:svg="http://www.w3.org/2000/svg"><defs
     id="defs1" /><g
     id="layer1"
     transform="translate(-1.7206003,-382.57829)"><path
       d="m 7.0778848,382.57826 c -2.9166966,9.1e-4 -5.3578643,2.44018 -5.3572957,5.35729 -5.686e-4,2.91717 2.4397765,5.35696 5.3572957,5.3573 h 3.3517332 l -1.9962604,22.73246 c -1.859629,1.56687 -2.9976403,3.88708 -2.9977498,6.38669 -3.08e-5,4.57926 3.7895071,8.36651 8.3689982,8.36538 2.509268,-7.6e-4 4.840273,-1.14045 6.40426,-3.00395 h 18.658293 c 1.565553,1.87429 3.906675,3.02109 6.425964,3.01945 4.575678,-0.002 8.35911,-3.78556 8.361247,-8.36124 v -0.002 c 0.0012,-4.57796 -3.783286,-8.3648 -8.361247,-8.36693 h -0.0021 c -2.505333,-3.9e-4 -4.83566,1.13385 -6.400643,2.99206 l -18.824174,0.002 c -0.284316,-0.33286 -0.552122,-0.64743 -0.8847,-0.93172 l 2.001945,-22.8322 h 4.71289 c 2.918453,7.7e-4 5.357674,-2.4396 5.357296,-5.3573 3.78e-4,-2.91764 -2.439667,-5.35748 -5.357296,-5.35729 h -7.4998 -7.029545 -4.2870771 z m 11.2261882,3.49901 h 7.592818 c 1.026109,-7e-5 1.857901,0.83171 1.857768,1.85776 1.33e-4,1.02597 -0.831659,1.85804 -1.857768,1.85777 h -7.916829 -0.0031 l -2.460832,28.06547 h 0.0031 c 1.261057,0.47557 2.26835,1.45293 2.781742,2.69906 l 22.499402,-0.003 c 0.756006,-1.81213 2.527171,-2.99223 4.490682,-2.99206 2.686843,10e-4 4.864111,2.18004 4.863269,4.86688 -0.0012,2.68543 -2.177838,4.86212 -4.863269,4.86327 -1.975257,0.001 -3.755226,-1.19188 -4.504634,-3.01945 H 18.297355 c -0.752334,1.81862 -2.526208,3.00487 -4.494299,3.0055 -2.687852,5.6e-4 -4.866926,-2.17852 -4.8663699,-4.86637 -1.185e-4,-1.90184 1.1079189,-3.6294 2.8365189,-4.42247 l 2.477885,-28.19983 0.324012,-3.71192 -0.327112,3.71554 H 7.0789183 c -1.026175,2.7e-4 -1.8579677,-0.8318 -1.8577677,-1.85777 -2e-4,-1.02605 0.8315927,-1.85784 1.8577677,-1.85777 h 7.4961837 z"
       style="stroke-linecap:round;paint-order:markers stroke fill"
       id="path13" /></g></svg>
