<?xml version="1.0" encoding="UTF-8" standalone="no"?>
<!-- Created with Inkscape (http://www.inkscape.org/) -->

<svg
   width="6.9376097mm"
   height="6.3779702mm"
   viewBox="0 0 6.9376095 6.3779702"
   version="1.1"
   id="svg1"
   style="color:currentColor"
   xml:space="preserve"
   xmlns="http://www.w3.org/2000/svg"
   xmlns:svg="http://www.w3.org/2000/svg"><defs
     id="defs1" /><g
     id="layer1"
     transform="translate(-155.21283,-110.94119)"><path
       fill="currentColor"
       d="m 156.55906,111.70059 c -0.0253,0.0856 -0.0176,0.19039 -0.0263,0.2794 -0.0187,0.19288 -0.0324,0.38623 -0.0508,0.57912 -0.0707,0.73951 -0.12573,1.48045 -0.19639,2.21996 -0.0221,0.2318 -0.0385,0.46416 -0.061,0.69596 -0.008,0.0852 -2.8e-4,0.18691 -0.0234,0.26916 -0.007,0.0267 -0.0375,0.0387 -0.0588,0.0526 -0.0416,0.0272 -0.0796,0.0582 -0.11683,0.0911 -0.0916,0.0811 -0.16388,0.19873 -0.20477,0.31351 -0.12237,0.34352 -0.0123,0.74812 0.29112,0.96154 0.29412,0.20683 0.68857,0.2058 0.98044,-0.005 0.0614,-0.0444 0.11607,-0.0985 0.1619,-0.15877 0.0254,-0.0334 0.0526,-0.10597 0.0881,-0.12686 0.0184,-0.0109 0.0495,-0.005 0.07,-0.005 h 2.12344 0.6858 c 0.1076,0 0.2291,-0.016 0.33526,7.5e-4 0.0349,0.005 0.0506,0.0541 0.0678,0.0805 0.0448,0.0685 0.0984,0.1286 0.16081,0.18137 0.17048,0.1441 0.38529,0.19887 0.60452,0.18927 0.40242,-0.0176 0.74711,-0.38978 0.75685,-0.7872 0.0131,-0.53313 -0.46941,-0.9634 -1.00069,-0.85008 -0.15675,0.0334 -0.3032,0.11152 -0.41655,0.22524 -0.0412,0.0413 -0.0787,0.0876 -0.10961,0.13716 -0.0136,0.0219 -0.0255,0.0573 -0.053,0.0644 -0.0783,0.0202 -0.17834,0.007 -0.25901,0.007 h -0.51816 -1.66116 -0.57912 -0.14732 c -0.0195,0 -0.0477,0.005 -0.064,-0.008 -0.0309,-0.0249 -0.0516,-0.0811 -0.0753,-0.11377 -0.0461,-0.0635 -0.10283,-0.11868 -0.16548,-0.16574 -0.0298,-0.0224 -0.12247,-0.0584 -0.13323,-0.0939 -0.008,-0.026 0.004,-0.0642 0.006,-0.0909 0.005,-0.0763 0.0126,-0.1525 0.0199,-0.2286 0.0224,-0.23148 0.0451,-0.46399 0.0614,-0.69596 0.0507,-0.72326 0.12031,-1.4474 0.18928,-2.16916 0.0269,-0.28136 0.0632,-0.56602 0.0753,-0.84836 h 0.84836 c 0.13566,0 0.29714,0.0231 0.42164,-0.0423 0.32892,-0.17268 0.22649,-0.69786 -0.1524,-0.71445 -0.22426,-0.01 -0.45113,-2e-4 -0.67564,-2e-4 h -1.35636 -0.60452 c -0.11163,0 -0.23374,-0.015 -0.34036,0.0239 -0.29924,0.10901 -0.32677,0.54739 -0.0406,0.69055 0.12075,0.0604 0.26553,0.0425 0.39624,0.0425 h 0.74676 m -0.9906,-0.55728 c 0.08,-0.0115 0.16814,-0.002 0.24892,-0.002 h 0.49784 1.53416 0.50292 c 0.0896,0 0.17754,0.0103 0.22102,0.1016 0.0434,0.0912 8.4e-4,0.20625 -0.094,0.24419 -0.0537,0.0215 -0.11624,0.0149 -0.17272,0.0149 h -0.889 c -0.0865,0 -0.25208,-0.035 -0.28718,0.0711 -0.0137,0.0415 -0.009,0.0891 -0.014,0.13208 -0.0134,0.11309 -0.0191,0.22704 -0.0299,0.34036 -0.0331,0.34689 -0.0583,0.69452 -0.0914,1.0414 -0.0571,0.59731 -0.10041,1.19594 -0.15748,1.79324 -0.0184,0.1929 -0.0324,0.38624 -0.0508,0.57912 -0.0109,0.11369 -0.0351,0.23642 -0.0294,0.35052 0.004,0.0801 0.0945,0.0992 0.15219,0.13138 0.0919,0.0513 0.16716,0.1255 0.22325,0.21406 0.0312,0.0492 0.0477,0.12562 0.10695,0.14826 0.0865,0.0331 0.21793,0.009 0.30988,0.009 h 0.6858 1.63068 0.52324 c 0.0847,0 0.18087,0.0126 0.26416,-0.003 0.0678,-0.0128 0.0842,-0.0701 0.11333,-0.12385 0.026,-0.0479 0.0595,-0.0918 0.0964,-0.13188 0.13386,-0.14538 0.34402,-0.21072 0.53703,-0.18671 0.0755,0.009 0.1459,0.0341 0.21336,0.0684 0.45345,0.23051 0.4302,0.89986 -0.0152,1.12255 -0.2513,0.12563 -0.55593,0.0588 -0.74656,-0.14087 -0.0367,-0.0385 -0.0682,-0.0849 -0.0927,-0.13208 -0.0205,-0.0395 -0.0326,-0.0821 -0.0751,-0.10444 -0.0665,-0.0349 -0.18544,-0.0124 -0.25908,-0.0124 h -2.1844 -0.67056 c -0.0982,0 -0.22528,-0.0214 -0.32004,0.005 -0.0753,0.0208 -0.0993,0.13078 -0.14165,0.18833 -0.076,0.10329 -0.18311,0.1849 -0.30539,0.22519 -0.31315,0.10318 -0.66139,-0.0498 -0.7881,-0.35727 -0.0901,-0.21871 -0.0472,-0.49269 0.11774,-0.66548 0.0385,-0.0403 0.0797,-0.0764 0.1268,-0.10641 0.0639,-0.0407 0.12533,-0.0583 0.13571,-0.14251 0.037,-0.29984 0.0498,-0.6035 0.0785,-0.90424 0.0681,-0.71239 0.11903,-1.4264 0.18796,-2.13868 0.0296,-0.30605 0.0584,-0.61283 0.0809,-0.91948 0.006,-0.0852 0.0592,-0.25791 -0.0112,-0.32404 -0.0319,-0.03 -0.0707,-0.0265 -0.11123,-0.0265 h -0.21336 -0.57912 c -0.0929,0 -0.20507,0.0169 -0.29464,-0.0113 -0.18176,-0.0571 -0.14425,-0.32197 0.0356,-0.34788 z"
       id="path4" /></g></svg>
