<?xml version="1.0" encoding="UTF-8" standalone="no"?>
<!-- Created with Inkscape (http://www.inkscape.org/) -->

<svg
   width="56.150837mm"
   height="16.183201mm"
   viewBox="0 0 56.150835 16.183201"
   version="1.1"
   id="svg6934"
   xml:space="preserve"
   sodipodi:docname="LOGO.svg"
   inkscape:version="1.4 (e7c3feb100, 2024-10-09)"
   xmlns:inkscape="http://www.inkscape.org/namespaces/inkscape"
   xmlns:sodipodi="http://sodipodi.sourceforge.net/DTD/sodipodi-0.dtd"
   xmlns="http://www.w3.org/2000/svg"
   xmlns:svg="http://www.w3.org/2000/svg"><sodipodi:namedview
     id="namedview1"
     pagecolor="#ffffff"
     bordercolor="#000000"
     borderopacity="0.25"
     inkscape:showpageshadow="2"
     inkscape:pageopacity="0.0"
     inkscape:pagecheckerboard="0"
     inkscape:deskcolor="#d1d1d1"
     inkscape:document-units="mm"
     inkscape:zoom="4.1866213"
     inkscape:cx="71.059687"
     inkscape:cy="6.6879705"
     inkscape:window-width="1920"
     inkscape:window-height="1008"
     inkscape:window-x="0"
     inkscape:window-y="0"
     inkscape:window-maximized="1"
     inkscape:current-layer="g3" /><defs
     id="defs6931"><rect
       x="2222.7268"
       y="1932.3853"
       width="159.84122"
       height="88.419479"
       id="rect27873-2-2-3-3" /></defs><g
     id="layer1"
     transform="translate(-522.5541,137.04026)"><g
       id="g3"
       style="fill:#ff0000;fill-opacity:1"><path
         style="fill:#ff0000;fill-opacity:1;stroke:none;stroke-width:0.05;stroke-dasharray:none"
         d="m 523.11279,-137.04019 c -0.3038,2.0783 -0.4068,4.2143 -0.5587,6.3085 0.7496,-0.5955 1.4659,-1.2098 2.3095,-1.6759 -0.1469,-0.2562 -0.3803,-0.4125 -0.5859,-0.6132 1.8286,0 3.7084,-0.5659 5.5319,-0.3835 0.5307,0.053 1.0553,0.1935 1.5396,0.4172 0.5542,0.2561 1.0487,0.595 1.6827,0.579 0.6415,-0.016 1.1798,-0.4561 1.7849,-0.6133 1.5199,-0.395 3.22,-0.1549 4.4487,0.8658 -1.6023,-0.2958 -3.4333,0.3089 -4.7961,1.1202 -0.9162,0.5454 -1.6817,1.2234 -2.691,1.6049 v 0.01 c 1.9009,-0.2078 3.6625,-0.6195 5.4024,-1.4238 -0.4051,1.0559 -1.2232,1.8681 -2.1868,2.451 -0.77,0.4658 -1.537,0.6516 -2.0775,1.4458 -0.6898,1.0136 -0.3803,2.0733 -0.611,3.1883 -0.1565,0.7567 -0.4448,1.5127 -0.9241,2.1255 -0.2247,0.2872 -0.5157,0.5044 -0.7543,0.7767 h 8.6656 c 0.3536,-5.4285 1.1213,-11.2321 1.4171,-16.18 z"
         id="path27837-9-3-75-67" /><path
         style="font-style:italic;font-weight:800;font-size:16px;line-height:1.25;font-family:Poppins;-inkscape-font-specification:'Poppins Ultra-Bold Italic';letter-spacing:-0.712947px;word-spacing:0px;white-space:pre;stroke-width:0.349483"
         d="m 2223.4306,1941.4331 q 0.288,-1.664 1.216,-2.96 0.928,-1.312 2.336,-2.032 1.408,-0.736 3.072,-0.736 1.392,0 2.432,0.512 1.04,0.512 1.616,1.456 0.576,0.944 0.624,2.224 h -3.376 q -0.192,-0.624 -0.672,-0.96 -0.48,-0.336 -1.184,-0.336 -1.088,0 -1.872,0.768 -0.784,0.768 -1.008,2.064 -0.064,0.336 -0.064,0.72 0,0.992 0.512,1.568 0.528,0.56 1.44,0.56 0.704,0 1.296,-0.336 0.608,-0.336 1.008,-0.96 h 3.392 q -0.768,1.936 -2.416,3.072 -1.648,1.12 -3.76,1.12 -1.456,0 -2.528,-0.56 -1.056,-0.56 -1.616,-1.584 -0.56,-1.024 -0.56,-2.368 0,-0.624 0.112,-1.232 z m 17.735,-5.616 q 1.776,0 2.704,0.8 0.928,0.784 0.928,2.096 0,0.4 -0.064,0.72 -0.192,1.152 -0.976,2.032 -0.784,0.864 -2.08,1.232 l 1.76,4.4 h -3.488 l -1.504,-4.16 h -0.336 l -0.736,4.16 h -3.152 l 2,-11.28 z m -2.672,4.976 h 1.552 q 1.248,0 1.472,-1.184 0.032,-0.192 0.032,-0.272 0,-0.432 -0.288,-0.672 -0.272,-0.24 -0.816,-0.24 h -1.552 z m 13.063,4.464 h -4 l -0.928,1.84 h -3.296 l 6.096,-11.28 h 3.616 l 2.112,11.28 h -3.312 z m -0.368,-2.384 -0.56,-3.664 -1.856,3.664 z m 16.3591,-7.056 -1.984,11.28 h -3.152 l 0.8,-4.528 h -3.808 l -0.8,4.528 h -3.152 l 2,-11.28 h 3.136 l -0.752,4.256 h 3.824 l 0.752,-4.256 z"
         id="text27863-1-1-3-5"
         transform="matrix(0.75706863,0,0,0.75706863,-1137.9843,-1598.3458)"
         aria-label="CRAH" /></g></g></svg>
