<?xml version="1.0" encoding="UTF-8" standalone="no"?>
<!-- Created with Inkscape (http://www.inkscape.org/) -->

<svg
   width="4.5403204mm"
   height="4.5429201mm"
   viewBox="0 0 4.5403203 4.5429201"
   version="1.1"
   id="svg1"
   xml:space="preserve"
   xmlns="http://www.w3.org/2000/svg"
   xmlns:svg="http://www.w3.org/2000/svg"><defs
     id="defs1" /><g
     id="layer1"
     transform="translate(-165.37891,-112.38022)"><path
       style="fill:#030303;stroke:none"
       d="m 167.53485,112.38886 c -0.1507,0.0198 -0.29829,0.0291 -0.44704,0.0663 -0.4299,0.10748 -0.82929,0.3443 -1.1269,0.67323 -0.63927,0.70656 -0.77329,1.77175 -0.31933,2.61112 0.13192,0.24393 0.30768,0.46146 0.51659,0.64371 0.26466,0.23087 0.58235,0.38693 0.91948,0.47891 0.27339,0.0746 0.56804,0.0894 0.84836,0.0545 1.0941,-0.13612 1.94309,-1.07001 1.99116,-2.16771 0.0471,-1.07453 -0.71414,-2.06733 -1.76256,-2.30455 -0.19477,-0.0441 -0.41991,-0.0817 -0.61976,-0.0555 m 0.0254,0.19742 c 0.18845,-0.0222 0.40169,0.0145 0.5842,0.0601 0.90041,0.2251 1.53428,1.02928 1.5746,1.95008 0.0456,1.04238 -0.77882,2.01089 -1.81844,2.1226 -0.29853,0.0321 -0.59605,0.009 -0.88392,-0.0806 -0.1969,-0.0612 -0.39086,-0.15512 -0.5588,-0.27491 -0.16949,-0.12089 -0.32179,-0.26157 -0.44996,-0.426 -0.48351,-0.62033 -0.56303,-1.4599 -0.23741,-2.16916 0.10632,-0.23157 0.26444,-0.45274 0.45369,-0.62398 0.27008,-0.24437 0.58973,-0.42017 0.94488,-0.50437 0.12991,-0.0308 0.25959,-0.0383 0.39116,-0.0538 m 0.061,0.63062 c -0.1368,0.0179 -0.26705,0.0225 -0.40132,0.0625 -0.36469,0.10866 -0.67168,0.36932 -0.85187,0.70246 -0.0762,0.14083 -0.12743,0.29883 -0.15026,0.4572 -0.0412,0.28611 -0.001,0.57466 0.11978,0.8382 0.25556,0.55664 0.87326,0.88957 1.47671,0.81643 0.7116,-0.0863 1.28411,-0.7121 1.27499,-1.43619 -0.008,-0.63215 -0.42775,-1.20881 -1.04131,-1.3839 -0.12945,-0.0369 -0.29174,-0.0743 -0.42672,-0.0567 m -0.0813,0.2025 c 0.14177,-0.0167 0.29478,0.004 0.4318,0.0398 0.14213,0.0375 0.27666,0.10211 0.39624,0.18737 0.59219,0.42221 0.69098,1.29527 0.20854,1.83896 -0.0875,0.0986 -0.19037,0.18473 -0.30506,0.25034 -0.14826,0.0848 -0.31231,0.142 -0.4826,0.1603 -0.20826,0.0224 -0.41996,-0.005 -0.61468,-0.0827 -0.57653,-0.23062 -0.89486,-0.88485 -0.73146,-1.48108 0.0383,-0.13959 0.10025,-0.27321 0.1843,-0.39116 0.0902,-0.12657 0.20249,-0.23888 0.3338,-0.32291 0.1779,-0.11384 0.37058,-0.17426 0.57912,-0.19888 m 0.0406,0.82882 c -0.0579,0.009 -0.11314,0.0295 -0.16256,0.0609 -0.0443,0.0282 -0.0843,0.0666 -0.11461,0.10955 -0.20694,0.29329 0.0474,0.70881 0.40417,0.65309 0.0583,-0.009 0.11285,-0.0293 0.16256,-0.0609 0.0443,-0.0282 0.0843,-0.0667 0.11461,-0.10954 0.20697,-0.29334 -0.0474,-0.70881 -0.40417,-0.65309 m 0.0254,0.19741 c 0.10283,-0.0148 0.20297,0.0372 0.24149,0.13564 0.0482,0.12316 -0.0319,0.27387 -0.16529,0.29311 -0.10283,0.0148 -0.20297,-0.0372 -0.24148,-0.13563 -0.0482,-0.12316 0.0318,-0.27388 0.16528,-0.29312 z"
       id="path3" /></g></svg>
