<svg
   width="4.5402198mm"
   height="4.54322mm"
   viewBox="0 0 4.5402197 4.54322"
   style="color:currentColor"
   xml:space="preserve"
   xmlns="http://www.w3.org/2000/svg"
   xmlns:svg="http://www.w3.org/2000/svg"><defs
     id="defs1" /><g
     id="layer1"
     transform="translate(-147.46466,-113.29698)"><path

               fill="currentColor"
       d="m 149.62049,113.30003 c -0.1507,0.0198 -0.29829,0.0291 -0.44704,0.0663 -0.4299,0.10748 -0.82929,0.3443 -1.1269,0.67323 -0.63927,0.70656 -0.77328,1.77175 -0.31933,2.61112 0.13193,0.24393 0.30768,0.46146 0.51659,0.64371 0.26466,0.23087 0.58235,0.38694 0.91948,0.47891 0.27339,0.0746 0.56804,0.0894 0.84836,0.0545 1.0941,-0.13613 1.94309,-1.07001 1.99116,-2.16771 0.0471,-1.07453 -0.71414,-2.06733 -1.76256,-2.30454 -0.19476,-0.0441 -0.4199,-0.0817 -0.61976,-0.0555 m 0.0254,0.19741 c 0.18845,-0.0222 0.40169,0.0145 0.5842,0.0602 0.90041,0.2251 1.53428,1.02928 1.5746,1.95008 0.0456,1.04238 -0.77882,2.01089 -1.81844,2.1226 -0.29853,0.0321 -0.59605,0.009 -0.88392,-0.0806 -0.19689,-0.0612 -0.39086,-0.15512 -0.5588,-0.27491 -0.16949,-0.12089 -0.32179,-0.26156 -0.44996,-0.426 -0.48351,-0.62032 -0.56303,-1.4599 -0.23741,-2.16916 0.10632,-0.23157 0.26445,-0.45274 0.45369,-0.62398 0.27008,-0.24437 0.58973,-0.42017 0.94488,-0.50437 0.12991,-0.0308 0.25959,-0.0383 0.39116,-0.0538 m 0.061,0.63063 c -0.1368,0.0179 -0.26705,0.0224 -0.40132,0.0625 -0.36469,0.10866 -0.67168,0.36932 -0.85187,0.70246 -0.0762,0.14083 -0.12743,0.29884 -0.15026,0.4572 -0.0412,0.28611 -0.001,0.57466 0.11978,0.8382 0.25556,0.55664 0.87326,0.88957 1.47671,0.81643 0.7116,-0.0863 1.28411,-0.7121 1.27499,-1.43619 -0.008,-0.63214 -0.42775,-1.20881 -1.04131,-1.3839 -0.12945,-0.0369 -0.29174,-0.0743 -0.42672,-0.0567 m -0.0813,0.20249 c 0.14177,-0.0167 0.29479,0.004 0.4318,0.0398 0.14213,0.0375 0.27666,0.10211 0.39624,0.18737 0.59219,0.42221 0.69098,1.29527 0.20854,1.83896 -0.0875,0.0986 -0.19036,0.18474 -0.30506,0.25034 -0.14826,0.0848 -0.31231,0.142 -0.4826,0.1603 -0.20826,0.0224 -0.41996,-0.005 -0.61468,-0.0827 -0.57653,-0.23062 -0.89486,-0.88485 -0.73146,-1.48108 0.0383,-0.13959 0.10025,-0.27321 0.1843,-0.39116 0.0902,-0.12657 0.20249,-0.23888 0.3338,-0.32291 0.1779,-0.11384 0.37058,-0.17426 0.57912,-0.19888 m 0.1016,0.31206 c -0.13621,0.003 -0.0965,0.20653 -0.0965,0.29609 0,0.0357 -0.006,0.0781 0.008,0.11176 0.0156,0.0381 0.0532,0.0616 0.0941,0.0607 0.039,-8.9e-4 0.0742,-0.0244 0.089,-0.0607 0.0138,-0.0337 0.008,-0.0761 0.008,-0.11176 0,-0.0906 0.0399,-0.29916 -0.1016,-0.29609 m 0.57912,0.24264 c -0.0795,0.009 -0.15471,0.1218 -0.20828,0.17537 -0.023,0.023 -0.051,0.0456 -0.0642,0.0762 -0.0309,0.0717 0.031,0.14376 0.10481,0.13663 0.0771,-0.007 0.15666,-0.12565 0.20828,-0.17727 0.0213,-0.0214 0.0488,-0.0428 0.061,-0.0711 0.0294,-0.0685 -0.0261,-0.14864 -0.10163,-0.13981 m -0.64008,0.27412 c -0.0579,0.009 -0.11314,0.0295 -0.16256,0.0609 -0.0443,0.0282 -0.0843,0.0667 -0.11461,0.10955 -0.20694,0.29329 0.0474,0.70881 0.40417,0.65309 0.0583,-0.009 0.11285,-0.0293 0.16256,-0.0609 0.0443,-0.0282 0.0843,-0.0666 0.11461,-0.10954 0.20697,-0.29334 -0.0474,-0.70881 -0.40417,-0.65309 m 0.0254,0.19741 c 0.10283,-0.0148 0.20297,0.0372 0.24149,0.13564 0.0482,0.12316 -0.0319,0.27388 -0.16529,0.29311 -0.10283,0.0148 -0.20297,-0.0372 -0.24148,-0.13563 -0.0482,-0.12316 0.0318,-0.27388 0.16528,-0.29312 m -0.81788,0.11802 c -0.086,0.0205 -0.0979,0.14596 -0.0203,0.18526 0.0305,0.0154 0.0685,0.0102 0.10158,0.0102 0.0745,0 0.17219,0.0167 0.24384,-0.004 0.0824,-0.0238 0.0959,-0.1405 0.0203,-0.18183 -0.0321,-0.0175 -0.0715,-0.0123 -0.10668,-0.0123 -0.0745,0 -0.16629,-0.0146 -0.23876,0.003 m 1.39192,-1e-5 c -0.086,0.0199 -0.10309,0.14067 -0.0254,0.18315 0.0308,0.0168 0.0678,0.0123 0.10159,0.0123 0.0753,0 0.17668,0.0177 0.24892,-0.004 0.082,-0.0247 0.0909,-0.14557 0.0152,-0.18389 -0.0305,-0.0154 -0.0685,-0.0102 -0.10158,-0.0102 -0.0748,0 -0.16588,-0.0142 -0.23876,0.003 m -0.96012,0.39679 c -0.0722,0.0209 -0.14122,0.12274 -0.19304,0.17456 -0.0226,0.0226 -0.0519,0.0452 -0.0629,0.0762 -0.027,0.0757 0.0408,0.15121 0.1188,0.13185 0.0344,-0.009 0.0572,-0.0366 0.0813,-0.0607 0.0536,-0.0536 0.15181,-0.12062 0.17795,-0.19304 0.0274,-0.0759 -0.0454,-0.15099 -0.12207,-0.12884 m 0.40132,0.16201 c -0.0348,0.008 -0.0623,0.0342 -0.0722,0.0684 -0.01,0.033 -0.004,0.0727 -0.004,0.10668 0,0.0919 -0.0364,0.3297 0.127,0.28774 0.0335,-0.009 0.0604,-0.0357 0.0684,-0.0693 0.0165,-0.0695 0.003,-0.15723 0.003,-0.2286 0,-0.0342 0.006,-0.0743 -0.008,-0.10668 -0.0183,-0.0447 -0.0675,-0.0691 -0.11439,-0.0583 z"
       id="path2" /></g></svg>
