<svg width="23.565" xmlns="http://www.w3.org/2000/svg" height="23.611" fill="none"><g style="fill: rgb(0, 0, 0);"><path d="M11.204,0.045C10.423,0.147,9.657,0.196,8.886,0.389C6.657,0.946,4.587,2.173,3.044,3.879C-0.270,7.542,-0.965,13.064,1.389,17.416C2.072,18.680,2.984,19.808,4.067,20.753C5.439,21.950,7.086,22.759,8.834,23.236C10.251,23.622,11.778,23.699,13.232,23.518C18.904,22.812,23.305,17.971,23.555,12.280C23.799,6.709,19.852,1.562,14.417,0.333C13.407,0.104,12.240,-0.091,11.204,0.045ZM11.336,1.068C12.312,0.953,13.418,1.144,14.364,1.380C19.032,2.547,22.318,6.716,22.527,11.490C22.764,16.894,18.490,21.915,13.100,22.494C11.552,22.660,10.010,22.541,8.518,22.076C7.497,21.759,6.491,21.272,5.621,20.651C4.742,20.024,3.952,19.295,3.288,18.442C0.781,15.226,0.369,10.874,2.057,7.197C2.608,5.996,3.428,4.850,4.409,3.962C5.809,2.695,7.466,1.784,9.308,1.347C9.981,1.187,10.653,1.148,11.336,1.068ZM11.652,4.337C10.943,4.430,10.267,4.454,9.571,4.661C7.681,5.225,6.089,6.576,5.155,8.303C4.760,9.033,4.494,9.852,4.376,10.674C4.162,12.157,4.371,13.653,4.997,15.019C6.322,17.905,9.524,19.631,12.653,19.252C16.342,18.804,19.310,15.560,19.262,11.806C19.221,8.529,17.045,5.539,13.864,4.631C13.193,4.440,12.352,4.246,11.652,4.337ZM11.230,5.387C11.965,5.301,12.758,5.408,13.469,5.594C14.206,5.788,14.903,6.123,15.523,6.565C18.593,8.754,19.105,13.280,16.604,16.099C16.151,16.610,15.617,17.056,15.023,17.397C14.254,17.836,13.404,18.133,12.521,18.228C11.441,18.344,10.344,18.202,9.334,17.799C6.345,16.603,4.695,13.212,5.542,10.121C5.740,9.397,6.062,8.704,6.497,8.093C6.965,7.436,7.547,6.854,8.228,6.419C9.150,5.828,10.149,5.515,11.230,5.387ZM11.441,9.684C11.141,9.731,10.854,9.837,10.598,10.000C10.368,10.146,10.161,10.345,10.004,10.568C8.931,12.089,10.250,14.243,12.099,13.954C12.401,13.907,12.684,13.802,12.942,13.638C13.172,13.492,13.379,13.292,13.536,13.070C14.609,11.549,13.290,9.396,11.441,9.684ZM11.572,10.708C12.106,10.631,12.625,10.901,12.824,11.411C13.074,12.050,12.659,12.831,11.967,12.931C11.434,13.007,10.915,12.738,10.716,12.227C10.466,11.589,10.880,10.808,11.572,10.708ZZ" style="stroke: none; fill: rgb(3, 3, 3);" class="fills" xml:space="preserve"/></g></svg>