<?xml version="1.0" encoding="UTF-8" standalone="no"?>
<!-- Created with Inkscape (http://www.inkscape.org/) -->

<svg
   width="48.174377mm"
   height="48.215034mm"
   viewBox="0 0 35.4999989 35.499999"
   style="color:currentColor;"
   version="1.1"
   id="svg1"
   xml:space="preserve"
   xmlns="http://www.w3.org/2000/svg"
   xmlns:svg="http://www.w3.org/2000/svg"><defs
     id="defs1" /><g
     id="layer1"
     transform="translate(-67.286682,-388.6731)"><path
       d="m 85.283867,388.68487 c -9.89972,0 -17.999935,8.10021 -17.999935,17.99993 0,9.89973 8.100215,17.99994 17.999935,17.99994 9.89973,0 17.999933,-8.10021 17.999933,-17.99994 0,-9.89972 -8.100203,-17.99993 -17.999933,-17.99993 z m 0,3.50004 c 8.008222,-1.7e-4 14.500291,6.49167 14.500407,14.49989 1.69e-4,8.00843 -6.491983,14.50058 -14.500407,14.50041 -8.008222,-1.2e-4 -14.500059,-6.49219 -14.49989,-14.50041 1.17e-4,-8.00802 6.49187,-14.49977 14.49989,-14.49989 z"
       style="stroke-linecap:round;stroke-linejoin:round;paint-order:markers stroke fill"
       id="path57" /><path
       d="m 85.283867,401.06964 c -3.05932,0 -5.615161,2.55584 -5.615161,5.61516 0,3.05933 2.555841,5.61516 5.615161,5.61516 3.05932,0 5.615161,-2.55583 5.615161,-5.61516 0,-3.05932 -2.555841,-5.61516 -5.615161,-5.61516 z m 0,3.50108 c 1.167693,-8e-5 2.114395,0.94639 2.1146,2.11408 8.1e-5,1.1679 -0.946705,2.11468 -2.1146,2.1146 -1.167693,-2e-4 -2.114163,-0.94691 -2.114083,-2.1146 2.05e-4,-1.16749 0.946592,-2.11388 2.114083,-2.11408 z"
       style="stroke-linecap:round;stroke-linejoin:round;paint-order:markers stroke fill"
       id="path41" /><path
       d="m 85.283867,404.57072 c -1.167491,2e-4 -2.113878,0.94659 -2.114083,2.11408 -8e-5,1.16769 0.94639,2.1144 2.114083,2.1146 1.167895,8e-5 2.114681,-0.9467 2.1146,-2.1146 -2.05e-4,-1.16769 -0.946907,-2.11416 -2.1146,-2.11408 z"
       style="fill:none;stroke-linecap:round;stroke-linejoin:round;paint-order:markers stroke fill"
       id="path36" /><path
       d="m 76.249277,409.5916 c -0.06585,-8e-5 -0.132244,0.003 -0.198438,0.0108 -0.394338,0.0444 -0.761873,0.22153 -1.042314,0.5023 -0.684364,0.68359 -0.684364,1.79274 0,2.47633 l 4.379061,4.37906 c 0.683596,0.68437 1.792739,0.68437 2.476335,0 0.68333,-0.68342 0.68333,-1.79136 0,-2.47478 L 77.48486,410.1047 c -0.329525,-0.32991 -0.774639,-0.51255 -1.235583,-0.51315 z"
       style="stroke-linecap:round;paint-order:markers stroke fill"
       id="path35" /><path
       d="m 76.246693,411.34292 4.379061,4.37957 z"
       style="fill:#ffffff;stroke-linecap:round;paint-order:markers stroke fill"
       id="path33" /><path
       d="m 90.163673,395.67824 c -0.06582,-8e-5 -0.131759,0.003 -0.197921,0.0109 -0.393906,0.0445 -0.761034,0.22141 -1.04128,0.50178 -0.682986,0.68336 -0.682986,1.79091 0,2.47427 l 4.379061,4.37906 c 0.683359,0.68298 1.790908,0.68298 2.474267,0 0.683331,-0.68342 0.683331,-1.79137 0,-2.47479 l -4.378544,-4.37854 c -0.329504,-0.32961 -0.774855,-0.51206 -1.235583,-0.51263 z"
       style="stroke-linecap:round;paint-order:markers stroke fill"
       id="path31" /><path
       d="m 90.161606,397.42852 4.379061,4.37906 z"
       style="fill:#ffffff;stroke-linecap:round;paint-order:markers stroke fill;justify-content:center;align-items:center;display:flex"
       id="path26" /></g></svg>
