<?xml version="1.0" encoding="UTF-8" standalone="no"?>
<!-- Created with Inkscape (http://www.inkscape.org/) -->

<svg
   width="7.7597184"
   height="6.4057174"
   viewBox="0 0 0 0"
   version="1.1"
   id="svg5"
   xml:space="preserve"
   inkscape:version="1.4 (unknown)"
   sodipodi:docname="crah-tricks-17-07-2025-1.svg"
   inkscape:export-batch-path="full/svgs/svgs"
   inkscape:export-batch-name=""
   xmlns:inkscape="http://www.inkscape.org/namespaces/inkscape"
   xmlns:sodipodi="http://sodipodi.sourceforge.net/DTD/sodipodi-0.dtd"
   xmlns:xlink="http://www.w3.org/1999/xlink"
   xmlns="http://www.w3.org/2000/svg"
   xmlns:svg="http://www.w3.org/2000/svg"><sodipodi:namedview
     id="namedview7"
     pagecolor="#ffffff"
     bordercolor="#000000"
     borderopacity="0.25"
     inkscape:showpageshadow="2"
     inkscape:pageopacity="0.0"
     inkscape:pagecheckerboard="0"
     inkscape:deskcolor="#d1d1d1"
     inkscape:document-units="mm"
     showgrid="false"
     inkscape:zoom="2.828427"
     inkscape:cx="130.28443"
     inkscape:cy="45.961943"
     inkscape:window-width="1918"
     inkscape:window-height="1061"
     inkscape:window-x="0"
     inkscape:window-y="17"
     inkscape:window-maximized="1"
     inkscape:current-layer="layer1"
     showguides="true"
     inkscape:export-bgcolor="#ffffff00"><inkscape:page
       x="0"
       y="0"
       width="7.7597184"
       height="6.4057174"
       id="page1"
       margin="0"
       bleed="0" /></sodipodi:namedview><defs
     id="defs2"><marker
       style="overflow:visible"
       id="marker36"
       refX="9"
       refY="0"
       orient="auto"
       inkscape:stockid="Square"
       markerWidth="0.2"
       markerHeight="0.2"
       viewBox="0 0 1 1"
       inkscape:isstock="true"
       inkscape:collect="always"
       preserveAspectRatio="xMidYMid"><path
         transform="scale(0.5)"
         style="fill:context-stroke;fill-rule:evenodd;stroke:none"
         d="M -5,-5 V 5 H 5 V -5 Z"
         id="path36" /></marker><linearGradient
       id="linearGradient4552"
       inkscape:collect="always"><stop
         style="stop-color:#ee2900;stop-opacity:1;"
         offset="0"
         id="stop4552" /><stop
         style="stop-color:#f47547;stop-opacity:0;"
         offset="1"
         id="stop4553" /></linearGradient><linearGradient
       inkscape:collect="always"
       id="linearGradient2984"><stop
         style="stop-color:#ffbca0;stop-opacity:1;"
         offset="0"
         id="stop2979" /><stop
         style="stop-color:#f49d72;stop-opacity:1;"
         offset="0.50901496"
         id="stop2980" /><stop
         style="stop-color:#f46f40;stop-opacity:1;"
         offset="1"
         id="stop2981" /></linearGradient><linearGradient
       id="linearGradient1313"
       inkscape:collect="always"><stop
         style="stop-color:#ffffff;stop-opacity:1;"
         offset="0"
         id="stop1" /><stop
         style="stop-color:#2a2a2a;stop-opacity:0;"
         offset="1"
         id="stop2" /></linearGradient><linearGradient
       id="linearGradient2904"
       inkscape:collect="always"><stop
         style="stop-color:#ffffff;stop-opacity:1;"
         offset="0"
         id="stop2904" /><stop
         style="stop-color:#ffffff;stop-opacity:0;"
         offset="1"
         id="stop2905" /></linearGradient><linearGradient
       id="linearGradient2652"
       inkscape:collect="always"><stop
         style="stop-color:#ffffff;stop-opacity:0.489718"
         offset="0"
         id="stop2654" /><stop
         style="stop-color:#ffffff;stop-opacity:0;"
         offset="1"
         id="stop2680" /></linearGradient><linearGradient
       id="linearGradient2876"
       inkscape:collect="always"><stop
         style="stop-color:#ffffff;stop-opacity:1;"
         offset="0"
         id="stop2881" /><stop
         style="stop-color:#ffffff;stop-opacity:0;"
         offset="1"
         id="stop2882" /></linearGradient><linearGradient
       id="linearGradient2846"
       inkscape:collect="always"><stop
         style="stop-color:#ffffff;stop-opacity:1;"
         offset="0"
         id="stop2848" /><stop
         style="stop-color:#ffffff;stop-opacity:0;"
         offset="1"
         id="stop2849" /></linearGradient><linearGradient
       id="linearGradient2777"
       inkscape:collect="always"><stop
         style="stop-color:#ffffff;stop-opacity:1;"
         offset="0"
         id="stop2783" /><stop
         style="stop-color:#0d0d0d;stop-opacity:0;"
         offset="1"
         id="stop2784" /></linearGradient><linearGradient
       id="linearGradient2775"
       inkscape:collect="always"><stop
         style="stop-color:#ffffff;stop-opacity:0.46666864;"
         offset="0"
         id="stop2666" /><stop
         style="stop-color:#a5a5a5;stop-opacity:0;"
         offset="1"
         id="stop2679" /></linearGradient><linearGradient
       inkscape:collect="always"
       id="linearGradient2889"><stop
         style="stop-color:#ffbca0;stop-opacity:1;"
         offset="0"
         id="stop2890" /><stop
         style="stop-color:#f49d72;stop-opacity:1;"
         offset="0.54487151"
         id="stop2888" /><stop
         style="stop-color:#f46f40;stop-opacity:1;"
         offset="1"
         id="stop2889" /></linearGradient><linearGradient
       inkscape:collect="always"
       id="linearGradient2887"><stop
         style="stop-color:#f4a77e;stop-opacity:1;"
         offset="0.37463802"
         id="stop2886" /><stop
         style="stop-color:#f46f40;stop-opacity:1;"
         offset="1"
         id="stop2887" /></linearGradient><linearGradient
       inkscape:collect="always"
       id="linearGradient2878"><stop
         style="stop-color:#201f1f;stop-opacity:1;"
         offset="0"
         id="stop2876" /><stop
         style="stop-color:#2f2f2f;stop-opacity:1;"
         offset="0.60621893"
         id="stop2877" /><stop
         style="stop-color:#49484f;stop-opacity:1;"
         offset="1"
         id="stop2878" /></linearGradient><linearGradient
       inkscape:collect="always"
       id="linearGradient2875"><stop
         style="stop-color:#020000;stop-opacity:1;"
         offset="0"
         id="stop2873" /><stop
         style="stop-color:#2f2f2f;stop-opacity:1;"
         offset="0.75268143"
         id="stop2874" /><stop
         style="stop-color:#6e6c6f;stop-opacity:1;"
         offset="1"
         id="stop2875" /></linearGradient><linearGradient
       id="linearGradient2834"
       inkscape:collect="always"><stop
         style="stop-color:#2a2a2a;stop-opacity:1;"
         offset="0"
         id="stop2836" /><stop
         style="stop-color:#000000;stop-opacity:1;"
         offset="1"
         id="stop2839" /></linearGradient><linearGradient
       id="linearGradient2823"
       inkscape:collect="always"><stop
         style="stop-color:#000000;stop-opacity:1;"
         offset="0"
         id="stop2832" /><stop
         style="stop-color:#2a2a2a;stop-opacity:1;"
         offset="1"
         id="stop2833" /></linearGradient><linearGradient
       id="linearGradient2641"
       inkscape:collect="always"><stop
         style="stop-color:#fc0e00;stop-opacity:1;"
         offset="0"
         id="stop2641" /><stop
         style="stop-color:#000e00;stop-opacity:1;"
         offset="1"
         id="stop2642" /></linearGradient><linearGradient
       id="linearGradient160"
       inkscape:collect="always"><stop
         style="stop-color:#000000;stop-opacity:1;"
         offset="0"
         id="stop160" /><stop
         style="stop-color:#2f2f2f;stop-opacity:1;"
         offset="1"
         id="stop161" /></linearGradient><linearGradient
       inkscape:collect="always"
       id="linearGradient20612"><stop
         style="stop-color:#fc0000;stop-opacity:1;"
         offset="0"
         id="stop20608" /><stop
         style="stop-color:#fc6a00;stop-opacity:1;"
         offset="1"
         id="stop20610" /></linearGradient><linearGradient
       inkscape:collect="always"
       id="linearGradient13262"><stop
         style="stop-color:#f4a57c;stop-opacity:1;"
         offset="0"
         id="stop13258" /><stop
         style="stop-color:#f46f40;stop-opacity:1;"
         offset="1"
         id="stop13260" /></linearGradient><linearGradient
       inkscape:collect="always"
       id="linearGradient64309"><stop
         style="stop-color:#000000;stop-opacity:1;"
         offset="0"
         id="stop64305" /><stop
         style="stop-color:#2f2f2f;stop-opacity:1;"
         offset="1"
         id="stop64307" /></linearGradient><linearGradient
       inkscape:collect="always"
       id="linearGradient63493"><stop
         style="stop-color:#969696;stop-opacity:1;"
         offset="0"
         id="stop63489" /><stop
         style="stop-color:#c8c8c8;stop-opacity:1;"
         offset="1"
         id="stop63491" /></linearGradient><linearGradient
       inkscape:collect="always"
       id="linearGradient62193"><stop
         style="stop-color:#969696;stop-opacity:1;"
         offset="0"
         id="stop62189" /><stop
         style="stop-color:#c8c8c8;stop-opacity:1;"
         offset="1"
         id="stop62191" /></linearGradient><linearGradient
       inkscape:collect="always"
       id="linearGradient55368"><stop
         style="stop-color:#f4a77e;stop-opacity:1;"
         offset="0"
         id="stop55364" /><stop
         style="stop-color:#f46f40;stop-opacity:1;"
         offset="1"
         id="stop55366" /></linearGradient><linearGradient
       inkscape:collect="always"
       id="linearGradient50523"><stop
         style="stop-color:#fc0000;stop-opacity:1;"
         offset="0"
         id="stop50519" /><stop
         style="stop-color:#fc6a00;stop-opacity:1;"
         offset="1"
         id="stop50521" /></linearGradient><linearGradient
       inkscape:collect="always"
       id="linearGradient49756"><stop
         style="stop-color:#f50000;stop-opacity:1;"
         offset="0"
         id="stop49752" /><stop
         style="stop-color:#ff4f00;stop-opacity:1;"
         offset="1"
         id="stop49754" /></linearGradient><linearGradient
       id="linearGradient45844"
       inkscape:swatch="solid"><stop
         style="stop-color:#000000;stop-opacity:1;"
         offset="0"
         id="stop45842" /></linearGradient><linearGradient
       inkscape:collect="always"
       xlink:href="#linearGradient2823"
       id="linearGradient2903-7"
       gradientUnits="userSpaceOnUse"
       gradientTransform="matrix(1.8902491,0,0,1.8902491,137.6767,-524.62049)"
       x1="-33.385086"
       y1="72.149727"
       x2="-33.561581"
       y2="71.920013" /><linearGradient
       inkscape:collect="always"
       xlink:href="#linearGradient2834"
       id="linearGradient2906-9"
       gradientUnits="userSpaceOnUse"
       x1="-32.456669"
       y1="73.394753"
       x2="-32.571239"
       y2="73.208565"
       gradientTransform="matrix(1.8902491,0,0,1.8902491,137.69502,-524.64833)" /><linearGradient
       inkscape:collect="always"
       xlink:href="#linearGradient160"
       id="linearGradient3387"
       gradientUnits="userSpaceOnUse"
       gradientTransform="matrix(0.37620158,-0.8234229,0.8234229,0.37620158,290.86856,48.249514)"
       x1="-18.518694"
       y1="123.41329"
       x2="-18.640476"
       y2="123.32057" /><linearGradient
       inkscape:collect="always"
       xlink:href="#linearGradient2889"
       id="linearGradient3388"
       gradientUnits="userSpaceOnUse"
       gradientTransform="translate(388.99827,-8.5354858)"
       x1="-0.70541525"
       y1="120.28293"
       x2="-7.8311706"
       y2="115.57907" /><linearGradient
       inkscape:collect="always"
       xlink:href="#linearGradient160"
       id="linearGradient3389"
       gradientUnits="userSpaceOnUse"
       gradientTransform="matrix(0.53496887,-0.73031585,0.73031585,0.53496887,129.32354,112.84158)"
       x1="169.83372"
       y1="226.40042"
       x2="169.69571"
       y2="226.33426" /><linearGradient
       inkscape:collect="always"
       xlink:href="#linearGradient2984"
       id="linearGradient3390"
       gradientUnits="userSpaceOnUse"
       gradientTransform="translate(388.99827,-8.5354858)"
       x1="-6.3862371"
       y1="119.13981"
       x2="-3.357739"
       y2="117.32738" /><linearGradient
       inkscape:collect="always"
       xlink:href="#linearGradient4552"
       id="linearGradient3391"
       gradientUnits="userSpaceOnUse"
       gradientTransform="translate(325.41146,-116.27867)"
       x1="59.453644"
       y1="225.63309"
       x2="59.452068"
       y2="225.70773" /><linearGradient
       inkscape:collect="always"
       xlink:href="#linearGradient4552"
       id="linearGradient3392"
       gradientUnits="userSpaceOnUse"
       gradientTransform="translate(325.41146,-116.27867)"
       x1="59.818787"
       y1="225.83354"
       x2="59.77964"
       y2="226.05373" /><linearGradient
       inkscape:collect="always"
       xlink:href="#linearGradient64309"
       id="linearGradient3393"
       gradientUnits="userSpaceOnUse"
       gradientTransform="translate(402.98148,-10.947206)"
       x1="-19.685173"
       y1="119.94228"
       x2="-18.033234"
       y2="119.84241" /><linearGradient
       inkscape:collect="always"
       xlink:href="#linearGradient2846"
       id="linearGradient3394"
       gradientUnits="userSpaceOnUse"
       gradientTransform="translate(387.53556,-48.794833)"
       x1="-3.3422046"
       y1="158.97607"
       x2="-3.3308709"
       y2="158.68713" /><linearGradient
       inkscape:collect="always"
       xlink:href="#linearGradient2775"
       id="linearGradient3395"
       gradientUnits="userSpaceOnUse"
       gradientTransform="translate(387.53562,-48.795065)"
       x1="-2.8283985"
       y1="157.79504"
       x2="-3.0768235"
       y2="157.78831" /><linearGradient
       inkscape:collect="always"
       xlink:href="#linearGradient2777"
       id="linearGradient3396"
       gradientUnits="userSpaceOnUse"
       gradientTransform="translate(387.53562,-48.795065)"
       x1="-4.6010423"
       y1="157.82321"
       x2="-4.115284"
       y2="157.84174" /><linearGradient
       inkscape:collect="always"
       xlink:href="#linearGradient4552"
       id="linearGradient3397"
       gradientUnits="userSpaceOnUse"
       gradientTransform="translate(420.49678,-114.76189)"
       x1="-36.99131"
       y1="220.37413"
       x2="-36.522087"
       y2="220.26459" /><linearGradient
       inkscape:collect="always"
       xlink:href="#linearGradient2875"
       id="linearGradient3398"
       gradientUnits="userSpaceOnUse"
       gradientTransform="translate(383.24819,-12.560886)"
       x1="0.18804386"
       y1="119.94888"
       x2="1.6619383"
       y2="119.97065" /><linearGradient
       inkscape:collect="always"
       xlink:href="#linearGradient2887"
       id="linearGradient3399"
       gradientUnits="userSpaceOnUse"
       gradientTransform="translate(387.57294,-10.288716)"
       x1="-3.1571689"
       y1="116.65911"
       x2="-2.8199592"
       y2="117.44535" /><linearGradient
       inkscape:collect="always"
       xlink:href="#linearGradient2878"
       id="linearGradient3400"
       gradientUnits="userSpaceOnUse"
       gradientTransform="translate(383.68847,-12.560886)"
       x1="0.71927923"
       y1="118.86435"
       x2="1.247739"
       y2="118.74294" /><linearGradient
       inkscape:collect="always"
       xlink:href="#linearGradient1313"
       id="linearGradient3401"
       gradientUnits="userSpaceOnUse"
       gradientTransform="translate(387.53562,-48.795065)"
       x1="-4.6267891"
       y1="155.74286"
       x2="-4.3582478"
       y2="155.7123" /><linearGradient
       inkscape:collect="always"
       xlink:href="#linearGradient2887"
       id="linearGradient3402"
       gradientUnits="userSpaceOnUse"
       gradientTransform="translate(387.53562,-48.795065)"
       x1="-3.1401255"
       y1="155.75163"
       x2="-4.721684"
       y2="154.62515" /><linearGradient
       inkscape:collect="always"
       xlink:href="#linearGradient2652"
       id="linearGradient3403"
       gradientUnits="userSpaceOnUse"
       gradientTransform="translate(326.74578,-12.491046)"
       x1="56.169662"
       y1="119.66933"
       x2="56.002998"
       y2="119.52242" /><linearGradient
       inkscape:collect="always"
       xlink:href="#linearGradient63493"
       id="linearGradient3404"
       gradientUnits="userSpaceOnUse"
       gradientTransform="matrix(1.7242674,0.77456041,0.77456041,-1.7242674,375.37912,254.61241)"
       x1="-28.304665"
       y1="72.717354"
       x2="-28.351576"
       y2="72.653046" /><linearGradient
       inkscape:collect="always"
       xlink:href="#linearGradient20612"
       id="linearGradient3405"
       gradientUnits="userSpaceOnUse"
       gradientTransform="matrix(0.82032073,-0.44191962,-0.44191962,-0.82032073,448.41757,216.014)"
       x1="-5.7628751"
       y1="135.44856"
       x2="-5.7142897"
       y2="135.30977" /><linearGradient
       inkscape:collect="always"
       xlink:href="#linearGradient20612"
       id="linearGradient3406"
       gradientUnits="userSpaceOnUse"
       gradientTransform="matrix(-0.78831179,0.49677316,0.49677316,0.78831179,311.02503,4.6849045)"
       x1="-5.5366392"
       y1="135.35365"
       x2="-5.5535283"
       y2="135.45999" /><linearGradient
       inkscape:collect="always"
       xlink:href="#linearGradient13262"
       id="linearGradient3407"
       gradientUnits="userSpaceOnUse"
       gradientTransform="matrix(0.55034233,-0.54327216,0.54327216,0.55034233,318.83884,40.583814)"
       x1="-2.7572935"
       y1="120.72459"
       x2="-2.2432358"
       y2="120.13155" /><linearGradient
       inkscape:collect="always"
       xlink:href="#linearGradient2777"
       id="linearGradient3408"
       gradientUnits="userSpaceOnUse"
       gradientTransform="translate(387.53562,-48.795065)"
       x1="-3.8794196"
       y1="157.96236"
       x2="-3.59483"
       y2="157.94189" /><linearGradient
       inkscape:collect="always"
       xlink:href="#linearGradient2876"
       id="linearGradient3555"
       gradientUnits="userSpaceOnUse"
       gradientTransform="translate(387.53562,-48.795065)"
       x1="-4.2012358"
       y1="158.70816"
       x2="-4.1717248"
       y2="158.61348" /><linearGradient
       inkscape:collect="always"
       xlink:href="#linearGradient2641"
       id="linearGradient3567"
       gradientUnits="userSpaceOnUse"
       gradientTransform="translate(421.84222,-11.039586)"
       x1="-39.021812"
       y1="115.69682"
       x2="-38.641582"
       y2="115.69682" /><linearGradient
       inkscape:collect="always"
       xlink:href="#linearGradient55368"
       id="linearGradient3571"
       gradientUnits="userSpaceOnUse"
       gradientTransform="translate(421.84222,-11.039586)"
       x1="-37.853333"
       y1="115.7243"
       x2="-38.360519"
       y2="116.59072" /><linearGradient
       inkscape:collect="always"
       xlink:href="#linearGradient49756"
       id="linearGradient3638"
       gradientUnits="userSpaceOnUse"
       gradientTransform="translate(402.95331,-11.033716)"
       x1="-19.885185"
       y1="115.24645"
       x2="-18.733461"
       y2="115.24645" /><linearGradient
       inkscape:collect="always"
       xlink:href="#linearGradient50523"
       id="linearGradient3641"
       gradientUnits="userSpaceOnUse"
       gradientTransform="translate(402.95331,-11.033716)"
       x1="-20.133801"
       y1="115.66431"
       x2="-19.019243"
       y2="115.66431" /><linearGradient
       inkscape:collect="always"
       xlink:href="#linearGradient2904"
       id="linearGradient3644"
       gradientUnits="userSpaceOnUse"
       gradientTransform="translate(325.41146,-116.27867)"
       x1="59.034523"
       y1="223.00195"
       x2="59.287735"
       y2="222.98016" /><linearGradient
       inkscape:collect="always"
       xlink:href="#linearGradient160"
       id="linearGradient3647"
       gradientUnits="userSpaceOnUse"
       gradientTransform="matrix(0.53496887,-0.73031585,0.73031585,0.53496887,130.00257,113.02968)"
       x1="170.02939"
       y1="226.2271"
       x2="169.79182"
       y2="226.11388" /><linearGradient
       inkscape:collect="always"
       xlink:href="#linearGradient160"
       id="linearGradient3650"
       gradientUnits="userSpaceOnUse"
       gradientTransform="matrix(0.37620158,-0.8234229,0.8234229,0.37620158,291.54759,48.437614)"
       x1="-18.292013"
       y1="123.28312"
       x2="-18.501764"
       y2="123.12419" /><linearGradient
       inkscape:collect="always"
       xlink:href="#linearGradient55368"
       id="linearGradient3653"
       gradientUnits="userSpaceOnUse"
       gradientTransform="translate(420.49656,-114.74901)"
       x1="-36.507675"
       y1="219.43372"
       x2="-37.014858"
       y2="220.30014" /><linearGradient
       inkscape:collect="always"
       xlink:href="#linearGradient4552"
       id="linearGradient3656"
       gradientUnits="userSpaceOnUse"
       gradientTransform="translate(325.41146,-116.27867)"
       x1="59.346245"
       y1="223.58847"
       x2="59.249775"
       y2="223.26399" /><linearGradient
       inkscape:collect="always"
       xlink:href="#linearGradient63493"
       id="linearGradient3659"
       gradientUnits="userSpaceOnUse"
       gradientTransform="matrix(-0.24184513,1.8792953,-1.8792953,-0.24184513,512.67427,178.50441)"
       x1="-29.339962"
       y1="73.68792"
       x2="-29.288559"
       y2="73.957664" /><linearGradient
       inkscape:collect="always"
       xlink:href="#linearGradient62193"
       id="linearGradient3662"
       gradientUnits="userSpaceOnUse"
       gradientTransform="matrix(-0.80694752,0.46589135,-0.46589135,-0.80694752,433.99884,206.68952)"
       x1="-5.6135693"
       y1="122.29231"
       x2="-5.7495532"
       y2="122.28382" /><linearGradient
       inkscape:collect="always"
       xlink:href="#linearGradient64309"
       id="linearGradient3665"
       gradientUnits="userSpaceOnUse"
       gradientTransform="matrix(-0.0460731,1.0292355,-1.0292355,-0.0460731,503.87129,135.16849)"
       x1="-23.24152"
       y1="119.46426"
       x2="-23.123699"
       y2="119.65353" /><linearGradient
       inkscape:collect="always"
       xlink:href="#linearGradient160"
       id="linearGradient3670"
       gradientUnits="userSpaceOnUse"
       gradientTransform="matrix(0.86458404,-0.50248826,-0.50248826,-0.86458404,488.01053,305.4167)"
       x1="6.8413248"
       y1="226.69063"
       x2="6.8286657"
       y2="226.98392" /><marker
       style="overflow:visible"
       id="Triangle-3-8"
       refX="0"
       refY="0"
       orient="auto-start-reverse"
       inkscape:stockid="Triangle arrow"
       markerWidth="0.5"
       markerHeight="0.5"
       viewBox="0 0 1 1"
       inkscape:isstock="true"
       inkscape:collect="always"
       preserveAspectRatio="xMidYMid"><path
         transform="scale(0.5)"
         style="fill:context-stroke;fill-rule:evenodd;stroke:context-stroke;stroke-width:1pt"
         d="M 5.77,0 -2.88,5 V -5 Z"
         id="path135-4-6" /></marker></defs><g
     inkscape:label="Layer 1"
     inkscape:groupmode="layer"
     id="layer1"
     transform="translate(-378.58505,-103.82959)"><g
       id="backscoot"
       inkscape:export-filename="pngs/backscoot.png"
       inkscape:export-xdpi="96"
       inkscape:export-ydpi="96"><path
         id="path3098-1"
         style="fill:url(#linearGradient3387);fill-opacity:1;stroke-width:0.43946"
         d="m 385.18424,109.33703 c 0.0705,0.1229 0.0582,0.2383 -0.0372,0.31107 0,0 0.15198,0.27708 0.22068,0.34649 0.0865,0.0873 0.21694,-0.0764 0.21694,-0.0764 0.0545,-0.0575 -0.0237,-0.22222 -0.0823,-0.36121 -0.042,-0.10139 -0.067,-0.21661 -0.23938,-0.2217 -0.0236,-10e-4 -0.0551,0.002 -0.0785,0.002 z"
         sodipodi:nodetypes="ccccccc" /><path
         id="path22519-4-4-58-2-1"
         style="fill:url(#linearGradient3388);fill-opacity:1;stroke-width:0.485436"
         d="m 383.64598,104.06411 c -0.0111,-1.4e-4 -0.0235,2.6e-4 -0.0372,5.1e-4 v 5.2e-4 c -0.16467,0.003 -0.49749,0.0423 -0.52245,0.31213 -0.0111,0.29942 -0.095,0.63805 0.22648,0.77272 0.0428,0.13947 0.0505,0.26125 0.13629,0.28195 -0.15728,0.0512 -0.15313,0.12197 -0.33526,0.15264 -0.0677,0.0181 -0.10548,0.0575 -0.1555,0.081 -0.0796,0.0447 -0.38419,0.70674 -0.46781,0.84174 0,0.32638 -0.0768,0.35885 -0.0296,0.8315 0.0254,0.25383 0.0684,0.5929 0.31398,1.12642 l 0.21165,-0.17136 c 0.014,-0.32038 0.0538,-0.55837 0.019,-0.89194 0.006,-0.16597 0.0145,-0.31416 -0.026,-0.40508 l -0.0608,-0.25604 c -0.0389,-0.0483 -7.7e-4,1e-4 0,0 0.16014,0.55409 0.0816,0.94295 0.28006,1.59228 -0.23762,0.87311 -0.0742,1.58038 0.30901,1.6784 0.2323,0.0663 1.52634,-0.37289 1.6507,-0.40797 0.12228,-0.0227 0.0558,-0.21158 0.0397,-0.26664 -0.28314,0.008 -0.94752,0.0539 -1.26598,0.0923 -0.0424,0.005 -0.20799,-0.31982 -0.10583,-0.45174 0,0 -0.1444,0.72069 0.0859,1.04179 0.13984,0.19495 0.24555,0.18667 0.818,0.0784 0.42883,-0.0811 0.74584,-0.15182 1.05205,-0.24278 0.18537,-0.0551 0.12133,-0.28767 0.0831,-0.32947 -0.43551,-0.008 -1.05162,-0.0326 -1.22727,4.5e-4 0.073,-0.28345 0.10684,-0.49557 0.0798,-0.76696 -0.0729,-0.38875 -0.0778,-0.20024 -0.0725,-0.66399 0.0105,-0.38571 0.14834,-1.03913 0.16485,-1.57561 0.0217,-0.70353 -0.0654,-0.74998 -0.2775,-0.8537 -0.10338,-0.048 -0.19407,-0.0848 -0.27337,-0.11472 l -5.2e-4,-5.1e-4 c -0.0557,-0.0335 -0.11057,-0.0751 -0.14004,-0.12609 -0.0438,-0.0758 -0.0447,-0.20317 -0.0269,-0.26097 0.32823,-1.06358 -0.39222,-1.09606 -0.39222,-1.09606 0,0 -0.0204,-0.002 -0.0537,-0.003 z"
         sodipodi:nodetypes="cccccccccsccccccccccscsssccccccccscccc" /><path
         style="fill:url(#linearGradient3389);fill-opacity:1;stroke-width:0.0905295;stroke-linecap:square;stroke-miterlimit:63.1"
         d="m 385.3673,109.99456 c 0,0 0.0487,0.0484 0.10732,0.0526 0.0419,0.002 0.11651,-0.0599 0.11651,-0.0599 0,0 0.0417,-0.0268 0.0701,-0.0879 0.0284,-0.0605 -0.086,-0.30609 -0.10512,-0.34967 -0.019,-0.0434 -0.0512,-0.12451 -0.0645,-0.14391 -0.0132,-0.0192 -0.0573,-0.0743 -0.2286,-0.0711 -0.10982,10e-4 0.092,0.41736 0.092,0.41736 z"
         id="path3097-4"
         sodipodi:nodetypes="ccccscscc" /><path
         id="path2953-3"
         style="fill:url(#linearGradient3390);fill-opacity:1;stroke-width:0.485436"
         d="m 384.68266,108.59397 -1.58905,0.35037 c -0.0377,0.57472 0.1256,0.99337 0.41393,1.06712 0.0624,0.0178 0.20384,-0.002 0.37621,-0.0398 0.009,0.0163 0.0178,0.0328 0.0284,0.0475 0.13983,0.19495 0.24558,0.18682 0.81803,0.0786 0.42884,-0.0811 0.74592,-0.15192 1.05214,-0.24288 0.18536,-0.0551 0.12145,-0.2879 0.0832,-0.3297 -0.19481,-0.004 -0.42465,-0.01 -0.63614,-0.0134 0.004,-0.064 -0.0215,-0.14224 -0.031,-0.17467 -0.12166,0.003 -0.3177,0.0146 -0.52245,0.0284 0.0391,-0.20627 0.0563,-0.38938 0.0419,-0.60668 -0.0148,-0.0791 -0.0255,-0.12318 -0.0351,-0.16485 z m -0.85628,0.38344 c 0,0 -0.0136,0.0732 -0.0258,0.17777 -0.0111,-0.0677 -0.008,-0.13364 0.0258,-0.17777 z"
         sodipodi:nodetypes="cccccscccccccccc" /><path
         style="opacity:0.429169;fill:url(#linearGradient3391);fill-opacity:1;stroke:none;stroke-width:0;stroke-linecap:square;stroke-miterlimit:63.1"
         d="m 385.19821,109.33711 c 0,0 -0.19966,0.008 -0.63959,0.0359 -0.0577,0.004 0.0795,0.15417 0.0795,0.15417 l 0.5827,-0.10273 z"
         id="path3147-7"
         sodipodi:nodetypes="csccc" /><path
         style="opacity:0.590142;fill:url(#linearGradient3392);fill-opacity:1;stroke:none;stroke-width:0;stroke-linecap:square;stroke-miterlimit:63.1"
         d="m 384.63816,109.52723 c 0,0 0.33592,-0.0213 0.59204,-0.0159 0.25613,0.005 0.63307,0.0138 0.63307,0.0138 0,0 0.1051,0.15161 0.10717,0.16574 0.002,0.0141 -0.10066,0.12663 -0.14438,0.14532 -0.0437,0.0187 -1.58262,0.18982 -1.58262,0.18982 l -0.46678,-0.34908 0.0448,-0.1518 0.33516,-0.22468 z"
         id="path3099-2"
         sodipodi:nodetypes="ccccsccccc" /><path
         id="path22531-7-5-99-0-73"
         style="fill:url(#linearGradient3393);fill-opacity:1;stroke:none;stroke-width:0.485436"
         d="m 384.64081,108.33973 -0.79375,0.23926 -0.64028,-0.19741 c 0,0 -0.02,-0.0202 -0.0331,-0.0103 -0.0962,0.55489 -0.12672,0.80539 -0.063,1.13946 v 5.2e-4 c 10e-4,0.004 0.007,0.021 0.0295,0.0357 0.0143,0.009 -0.0271,-0.0334 0.0191,-0.0543 10e-4,-6.1e-4 0.003,-0.001 0.004,-0.002 1.5e-4,-5e-5 3.7e-4,5e-5 5.2e-4,0 3.4e-4,-1.3e-4 6.9e-4,-3.5e-4 0.001,-5.2e-4 1.5e-4,-5e-5 3.7e-4,6e-5 5.2e-4,0 0.16517,-0.0594 0.2872,-0.0814 0.41496,-0.0656 0.0745,0.009 0.1295,0.0344 0.16898,0.0543 0.002,0.0598 0.009,0.1156 0.0145,0.17209 0,0 0.004,-0.003 0.0114,-0.009 0.13484,-0.11251 0.26374,-0.15589 0.4129,-0.1633 0.17461,-0.009 0.3084,-0.005 0.4501,0.0486 0.10885,-0.31572 0.10521,-0.73987 0.0594,-0.9679 -0.014,-0.0808 -0.0367,-0.15543 -0.0568,-0.2191 z"
         sodipodi:nodetypes="cccccccssssccccccccc" /><path
         style="opacity:0.429169;fill:url(#linearGradient3394);fill-opacity:1;stroke:none;stroke-width:0.1;stroke-miterlimit:13.8;stroke-dasharray:none;stroke-opacity:1"
         d="m 383.77662,109.67717 c 0,0 0.0457,0.28264 0.21388,0.43109 0.17138,0.1513 0.61223,0.007 0.7397,-0.0105 0.17767,-0.0244 0.57292,-0.11786 0.57292,-0.11786 l 0.60469,-0.1545 -0.005,-0.29626 -1.26492,-0.003 -0.60985,-0.23645 -0.223,0.21477 z"
         id="path2843-8-39"
         sodipodi:nodetypes="cssccccccc" /><path
         style="opacity:0.535158;fill:url(#linearGradient3395);fill-opacity:1;stroke:none;stroke-width:0.1;stroke-miterlimit:13.8;stroke-dasharray:none;stroke-opacity:1"
         d="m 384.65331,108.38022 0.0308,0.11193 0.0137,0.0666 c 0,0 0.006,0.0335 0.0119,0.0788 0.008,0.0626 0.0157,0.14653 0.0156,0.18483 -1.2e-4,0.066 0.0139,0.14763 -0.0226,0.42515 -0.0271,0.20606 -0.0646,0.27825 -0.0646,0.27825 l -0.19972,-0.0454 -0.0751,-1.01344 z"
         id="path2659-6-2"
         sodipodi:nodetypes="cccssscccc" /><path
         style="opacity:0.560529;fill:url(#linearGradient3396);fill-opacity:1;stroke:none;stroke-width:0.1;stroke-miterlimit:13.8;stroke-dasharray:none;stroke-opacity:1"
         d="m 383.17492,108.36219 c 0,0 -0.0612,0.36082 -0.0676,0.42486 -0.0181,0.11376 -0.0281,0.23954 -0.0292,0.34229 -0.001,0.10553 0.002,0.19846 0.0221,0.32325 0.008,0.0481 0.006,0.0774 0.0432,0.0956 -0.0186,-0.0417 0.007,-0.066 0.12673,-0.0925 0.15033,-0.0334 0.20808,-0.32846 0.20808,-0.32846 l -0.0372,-0.72462 z"
         id="path2824-7-4"
         sodipodi:nodetypes="ccsccsccc" /><path
         style="opacity:0.75;fill:url(#linearGradient3397);fill-opacity:1;stroke-width:0.025;stroke-linecap:square;stroke-miterlimit:63.1"
         d="m 383.33949,105.43201 c 0,0 0.81479,-0.48769 0.76591,-0.32527 0,0 -0.0893,0.24956 0.0777,0.38949 0.23932,0.20043 -0.70798,0.34501 -0.70798,0.34501 0,0 -0.22655,-0.39793 -0.15845,-0.44747 z"
         id="path3984-2-6-6-4"
         sodipodi:nodetypes="cssccc" /><path
         style="fill:url(#linearGradient3398);fill-opacity:1;stroke:none;stroke-width:3.96499;stroke-miterlimit:12.9"
         d="m 382.91868,106.74069 c 0,0 0.055,0.50918 0.0773,0.69722 0.0223,0.18805 0.0152,0.20479 0.0152,0.20479 0,0 0.035,0.6206 0.0341,0.66063 -0.004,0.0393 0.0948,0.04 0.0948,0.04 0,0 0.21089,0.19302 0.43078,0.19326 0.0475,5e-5 0.21721,0.0734 0.26483,0.0701 0.17275,-0.0116 0.30556,-0.0674 0.36793,-0.065 0.0796,0.003 0.26131,-0.0315 0.35813,-0.083 0.0968,-0.0515 0.0949,-0.0912 0.0949,-0.0912 0,0 0.0388,-0.0248 0.0278,-0.11031 -0.0119,-0.076 -0.0206,-0.12197 -0.01,-0.22361 0.007,-0.0598 -0.007,-0.14802 -0.005,-0.18682 0.01,-0.14354 0.0683,-0.56525 0.0683,-0.56525 l 0.0646,-0.56451 c 0,0 0.0848,-0.82954 -0.11891,-0.96317 -0.17149,-0.1125 -0.50049,-0.25656 -0.50049,-0.25656 0,0 -0.46378,0.51192 -0.86898,-0.0246 -0.55771,0.21296 -0.80877,0.44928 -0.82776,1.07736 0.20628,-0.0128 0.42184,0.0498 0.43157,0.19071 z"
         id="path22555-8-0-4-1-49"
         sodipodi:nodetypes="cccccsscsccssccsccccc" /><path
         style="fill:url(#linearGradient3399);fill-opacity:1;stroke:none;stroke-width:3.96499;stroke-miterlimit:12.9"
         d="m 385.02785,106.6488 c 0.0768,0.39093 -0.0346,0.74528 -0.30155,0.69678 -0.59164,-0.13492 -1.0279,-0.60787 -1.3066,-0.8547 l 0.11471,-0.16726 c 0,0 0.3997,0.14089 0.59468,0.2235 0.11081,0.0469 0.32635,0.15442 0.32635,0.15442 v -2e-5 l -0.10765,-0.89863 c 0,0 0.21389,-0.17919 0.35291,-0.0323 0.0507,0.0536 0.10511,0.12696 0.11376,0.42046 z"
         id="path22557-5-8-90-5-9"
         sodipodi:nodetypes="ccccacccscc" /><path
         style="fill:url(#linearGradient3400);fill-opacity:1;stroke:none;stroke-width:3.96499;stroke-miterlimit:12.9"
         d="m 385.02785,106.6488 c -0.0846,-0.50454 -0.15014,-0.89181 -0.50332,-0.9879 -0.0448,-0.0191 -0.13857,0.0262 -0.17912,0.077 -0.10828,0.13563 -0.11736,0.39122 -0.0946,0.51198 0.0704,0.31378 0.14031,0.39888 0.20465,0.45162 0.0824,-0.0376 0.35481,-0.18233 0.57241,-0.0528 z"
         id="path22559-9-5-1-5-38"
         sodipodi:nodetypes="ccacccc" /><path
         style="fill:#0d0d0d;fill-opacity:1;stroke-width:3.96499;stroke-miterlimit:12.9"
         d="m 383.76395,109.65054 c 8.3e-4,0.01 0.0127,0.0264 0.0127,0.0264 0,0 -0.0127,-0.0264 0.0393,-0.0677 0.021,-0.0166 -0.0255,-0.0512 -0.0255,-0.0512 0,0 -0.0293,0.0605 -0.0265,0.0925 z"
         id="path18834-00-6-3"
         sodipodi:nodetypes="acsca" /><path
         style="opacity:0.33656;fill:url(#linearGradient3401);fill-opacity:1;stroke:none;stroke-width:0.1;stroke-linecap:square;stroke-miterlimit:63.1;stroke-dasharray:none"
         d="m 382.97252,107.23171 -0.0538,-0.49094 c 0,0 -0.0385,-0.25862 0.0366,-0.44329 0.26256,-0.64636 0.38622,2.17958 0.38622,2.17958 0,0 -0.0413,-0.0186 -0.0989,-0.0563 -0.0313,-0.0205 -0.074,-0.0508 -0.10248,-0.0774 -0.0347,-0.0325 -0.0949,-0.0369 -0.0949,-0.0369 l -0.004,-0.10207 -0.0395,-0.71514 z"
         id="path2878-6-29"
         sodipodi:nodetypes="ccscsscccc" /><path
         id="path30127-9-6-2-28-3-9-5"
         style="fill:url(#linearGradient3402);fill-opacity:1;stroke:none;stroke-width:0.000592199;stroke-miterlimit:12.9;stroke-dasharray:none;stroke-opacity:1"
         d="m 383.74555,106.3996 c -0.0856,-0.0297 -0.0747,-0.0311 -0.1293,-0.0493 -0.009,-0.0785 -0.06,-0.26185 -0.0882,-0.34108 0,0 -0.083,-0.25308 -0.20538,-0.14882 -0.13136,0.11188 -0.14746,0.15518 -0.14439,0.22651 0.004,0.0802 0.0448,0.21181 0.0448,0.21181 -0.05,0.0167 -0.0651,0.0201 -0.0977,0.0448 -0.0581,0.0438 -0.0485,0.0773 -0.0177,0.088 0.0619,0.022 0.0917,-0.0136 0.17015,0.0308 0.0635,0.0359 0.1418,0.0285 0.1418,0.0285 l 0.1114,0.0984 0.11045,0.0948 z"
         sodipodi:nodetypes="cccsscsssccsc" /><path
         style="opacity:0.539688;fill:url(#linearGradient3403);fill-opacity:1;stroke:none;stroke-width:0.1;stroke-linecap:square;stroke-miterlimit:63.1"
         d="m 382.9725,107.25491 c 0,0 -0.31526,-0.0755 -0.51746,0.0435 -0.0389,-0.42463 0.032,-0.72501 0.032,-0.72501 0,0 0.40614,-0.0416 0.4316,0.19067 0.0269,0.24556 0.0538,0.49083 0.0538,0.49083 z"
         id="path2338-4"
         sodipodi:nodetypes="cccscc" /><path
         style="fill:url(#linearGradient3404);fill-opacity:1;stroke-width:0.444025"
         d="m 381.71464,105.68188 1.3745,2.4762 -0.6203,0.60162 c -0.0406,0.0395 0.002,0.14094 0.0826,0.10583 0.0803,-0.0348 1.19994,-1.13486 1.58745,-1.47439 0.0373,-0.0327 -0.0452,-0.17901 -0.10919,-0.1215 -0.34031,0.30596 -0.75398,0.70818 -0.75398,0.70818 l -1.36042,-2.42669 z"
         id="path22543-8-1-5-8-0-4-3"
         sodipodi:nodetypes="ccszssccc" /><path
         style="fill:url(#linearGradient3405);fill-opacity:1;stroke:none;stroke-width:0.000931783;stroke-miterlimit:12.9;stroke-dasharray:none;stroke-opacity:1"
         d="m 383.65299,107.61741 c 0.0133,0.0507 0.037,0.11649 0.11126,0.11805 0.18045,-0.16516 0.2063,-0.1921 0.37463,-0.34433 0.0412,-0.0372 -0.043,-0.17917 -0.10919,-0.12149 -0.1945,0.17018 -0.20489,0.18372 -0.3767,0.34777 z"
         id="path14155-7-3-7-9"
         sodipodi:nodetypes="ccscc" /><path
         id="path25467-2-18-4-4"
         style="fill:url(#linearGradient3406);fill-opacity:1;stroke:none;stroke-width:0.000931783;stroke-miterlimit:12.9;stroke-dasharray:none;stroke-opacity:1"
         d="m 382.82012,108.419 c -0.0226,0.0538 0.0475,0.11971 0.10117,0.116 -0.15059,0.13934 -0.31861,0.30165 -0.36988,0.33047 -0.019,0.008 -0.0424,0.0256 -0.0839,-0.0215 -0.0224,-0.0254 -0.0298,-0.0537 10e-4,-0.0843 0.19753,-0.19162 0.2895,-0.28087 0.35127,-0.3407 z"
         sodipodi:nodetypes="cccsccc" /><path
         style="fill:url(#linearGradient3407);fill-opacity:1;stroke-width:0.43981"
         d="m 382.99432,108.15361 c 0,0 -0.27982,0.0369 -0.31986,0.0767 -0.033,0.30638 0.0485,0.39537 0.11876,0.40304 0.11948,0.0128 0.22063,-0.0744 0.28331,-0.12559 0.0553,-0.0451 -0.002,-0.12068 -0.0438,-0.19585 -0.0167,-0.0304 -0.0339,-0.0736 0.008,-0.10443 -0.0225,-0.036 -0.046,-0.054 -0.046,-0.054 z"
         id="path5382-3-79-3-9"
         sodipodi:nodetypes="cccssccc"
         inkscape:transform-center-x="0.019241145"
         inkscape:transform-center-y="0.11315257" /><path
         style="opacity:0.322684;fill:url(#linearGradient3408);stroke:none;stroke-width:0.1;stroke-miterlimit:13.8;stroke-dasharray:none;stroke-opacity:1"
         d="m 383.7536,109.54908 -0.005,-0.0765 c 0,0 -0.0107,-0.35618 0.0124,-0.50677 0.0231,-0.15059 0.18124,-0.22105 0.18124,-0.22105 l 0.11803,0.75039 c 0,0 -0.16774,0.0559 -0.24464,0.11408 -0.0234,0.0177 -0.0357,0.0333 -0.0393,0.0677 -0.0195,-0.0153 -0.0164,-0.0711 -0.0231,-0.12786 z"
         id="path2775-0-5"
         sodipodi:nodetypes="ccsccsccc" /><path
         style="opacity:0.472208;fill:url(#linearGradient3555);fill-opacity:1;stroke:none;stroke-width:0.1;stroke-miterlimit:13.8;stroke-dasharray:none;stroke-opacity:1"
         d="m 383.1403,109.5471 0.0171,0.0598 0.0286,0.0781 0.0367,0.085 c 0.0264,0.06 0.0701,0.0997 0.11895,0.1503 0.0599,0.0581 0.11683,0.0747 0.16615,0.0912 0.0588,0.0137 0.13226,0.003 0.19347,-0.005 l 0.14164,-0.0259 0.13271,-0.0297 c 0,0 -0.55868,-0.38317 -0.83528,-0.40449 z"
         id="path2873-6-5"
         sodipodi:nodetypes="ccccccccccc" /><path
         style="fill:url(#linearGradient3567);fill-opacity:1;stroke:none;stroke-width:1;stroke-miterlimit:13.8"
         d="m 382.82943,104.76714 c 0,0 0.0463,0.0768 0.26232,-0.13654 0.27802,-0.19058 -0.0641,-0.0407 -0.0641,-0.0407 l -0.16386,0.062 -0.0434,0.0654 z"
         id="path2640-6-8-1-6-8-7"
         sodipodi:nodetypes="cccccc" /><path
         style="fill:url(#linearGradient3571);fill-opacity:1;stroke:none;stroke-width:1;stroke-miterlimit:13.8"
         d="m 383.43544,105.54992 c 0.15644,0.0102 0.56101,-0.0361 0.65651,-0.38668 0.0323,-0.11853 0.0367,-0.12295 0.0617,-0.25009 0.0463,-0.23556 0.0241,-0.41983 0.0241,-0.41983 l -1.10961,0.004 5.9e-4,0.31667 c -5.9e-4,0.1406 0.10368,0.72892 0.36673,0.73622 z"
         id="path2638-5-9-2-5-4-3"
         sodipodi:nodetypes="cssccccc" /><path
         style="fill:url(#linearGradient3638);fill-opacity:1;stroke-width:0.0381963"
         d="m 383.06812,104.49699 c 0,0 0.006,-0.26641 0.0613,-0.37586 0.0951,-0.189 0.31049,-0.28253 0.56388,-0.29154 0.14782,0.004 0.2743,0.0299 0.40412,0.18274 0.12981,0.15284 0.12232,0.32112 0.12232,0.32112 l -0.006,0.2253 c -0.11443,0.0545 -0.21265,0.0369 -0.28399,0.0226 -0.11256,7.4e-4 -0.65033,-0.13796 -0.65033,-0.13796 z"
         id="path11206-13-6-2-7-6-3-9"
         sodipodi:nodetypes="cscsccccc" /><path
         style="fill:url(#linearGradient3641);fill-opacity:1;stroke-width:0.0381963"
         d="m 383.06609,104.49706 c 0,0 -0.11241,0.0844 -0.16698,0.12862 -0.0211,0.0165 -0.1088,0.0644 -0.0697,0.14146 -0.005,-0.0314 -0.007,-0.13449 0.21926,-0.12201 0.0392,0.004 0.16837,0.0694 0.29616,0.12604 0.0211,0.009 0.14217,0.0734 0.20862,0.0607 0.2069,-0.0396 0.33075,-0.17541 0.38059,-0.24977 -0.13004,-0.033 -0.3561,-0.0906 -0.51494,-0.131 -0.16498,-0.042 -0.25205,-0.028 -0.35303,0.0461 z"
         id="path11208-7-3-8-0-3-1-0"
         sodipodi:nodetypes="ccccsscsc" /><path
         style="opacity:0.601414;fill:url(#linearGradient3644);fill-opacity:1;stroke:none;stroke-width:0.1;stroke-linecap:square;stroke-miterlimit:63.1"
         d="m 384.45544,106.7015 c 0,0 0.0733,0.0226 0.24644,0.10997 0.1602,0.0808 0.25443,-0.19543 0.25443,-0.19543 0,0 -0.17464,-0.0844 -0.50087,0.0855 z"
         id="path2877-7"
         sodipodi:nodetypes="csccc" /><path
         style="fill:url(#linearGradient3647);fill-opacity:1;stroke-width:0.0905295;stroke-linecap:square;stroke-miterlimit:63.1"
         d="m 386.04633,110.18266 c 0,0 0.0487,0.0484 0.10732,0.0526 0.0419,0.002 0.11651,-0.0599 0.11651,-0.0599 0,0 0.0417,-0.0268 0.0701,-0.0879 0.0284,-0.0605 -0.086,-0.30609 -0.10513,-0.34967 -0.019,-0.0434 -0.0512,-0.12451 -0.0645,-0.14391 -0.0132,-0.0192 -0.0572,-0.0743 -0.22859,-0.0711 -0.10982,0.001 0.092,0.41736 0.092,0.41736 z"
         id="path3148-8-2-3-6-0-2"
         sodipodi:nodetypes="ccccscscc" /><path
         id="path22517-4-81-45-3-73-7-3-1-3-7-2-5-9-7-1-6-72"
         style="fill:url(#linearGradient3650);fill-opacity:1;stroke-width:0.43946"
         d="m 385.86327,109.52513 c 0.0705,0.1229 0.0582,0.2383 -0.0372,0.31107 0,0 0.15198,0.27708 0.22068,0.34649 0.0865,0.0873 0.21694,-0.0764 0.21694,-0.0764 0.0545,-0.0575 -0.0237,-0.22222 -0.0823,-0.36121 -0.042,-0.10139 -0.067,-0.21661 -0.23939,-0.2217 -0.0236,-0.001 -0.0551,0.002 -0.0785,0.002 z"
         sodipodi:nodetypes="ccccccc" /><path
         style="fill:url(#linearGradient3653);fill-opacity:1;stroke:#000000;stroke-width:0;stroke-linecap:square;stroke-miterlimit:63.1;stroke-dasharray:none;stroke-opacity:1"
         d="m 384.07573,104.83542 c 0,0 0.14593,-0.12336 0.16363,0 0.0258,0.17954 -0.21352,0.30257 -0.21352,0.30257"
         id="path4556-0-4-5-1-90"
         sodipodi:nodetypes="csc" /><path
         style="opacity:0.664218;fill:url(#linearGradient3656);stroke:none;stroke-width:0;stroke-linecap:square;stroke-miterlimit:63.1"
         d="m 385.03147,106.83725 c 0,0 0.0253,0.15274 -0.009,0.27574 -0.046,0.16502 -0.16197,0.25355 -0.27699,0.23415 -0.22681,-0.0383 -0.48996,-0.17328 -0.69664,-0.31721 -0.0834,-0.0581 -0.2185,-0.1698 -0.2185,-0.1698 0,0 0.83775,-0.046 1.20111,-0.0229 0,0 0,2e-5 0,2e-5 z"
         id="path2946-5"
         sodipodi:nodetypes="cssscscc" /><path
         id="path5362-9-9-0"
         style="fill:url(#linearGradient3659);fill-opacity:1;stroke-width:0.50133"
         d="m 381.4701,105.29507 0.20156,0.39984 -0.0378,-0.0772 c -0.30792,-0.0129 -0.62243,-0.022 -0.92413,0.0346 l -1.41604,0.86164 c -0.1966,0.12011 -0.36762,0.20903 -0.32035,-0.0308 l -0.0289,-0.065 c -0.003,0.002 -0.0164,0.0103 -0.0164,0.0103 l -0.0738,-0.20932 c 0,0 1.53837,-0.9322 1.72324,-1.04038 0.10795,-0.0563 0.8669,0.11376 0.89045,0.11665 z"
         sodipodi:nodetypes="cccccccccccc" /><circle
         style="fill:url(#linearGradient2903-7);fill-opacity:1;stroke-width:0.43562"
         id="circle22541-7-1-8-7-4"
         cx="74.398918"
         cy="-388.45294"
         r="0.27385604"
         transform="rotate(94.528994)" /><path
         id="path2336-5-1"
         style="fill:url(#linearGradient3662);fill-opacity:1;stroke-width:0.500128"
         d="m 381.35793,104.76631 c -0.008,-5.7e-4 -0.0159,6e-4 -0.0228,0.003 -0.0529,0.0251 -0.0359,0.16606 -0.003,0.27233 0.0148,0.0384 0.0224,0.0582 0.0305,0.079 0.002,0.003 0.004,0.007 0.006,0.0103 l 10e-4,0.003 c 3.8e-4,6.6e-4 5.5e-4,7.5e-4 0.001,0.002 l 10e-4,0.003 c 4.2e-4,6.4e-4 0.002,10e-4 0.002,10e-4 l 0.0837,0.14521 0.15606,0.32142 0.22273,0.3819 c 0.0484,0.083 0.25496,-0.0425 0.25112,-0.11787 -3e-4,-0.006 -0.003,-0.0126 -0.006,-0.0181 -0.0301,-0.0465 -0.34539,-0.63554 -0.45218,-0.83509 -8.4e-4,-0.002 -0.002,-0.003 -0.003,-0.004 -0.002,-0.004 -0.004,-0.009 -0.007,-0.0129 -0.0209,-0.0288 -0.046,-0.0629 -0.0491,-0.0672 -0.0625,-0.0771 -0.15441,-0.16344 -0.21238,-0.16692 z" /><path
         style="fill:url(#linearGradient3665);fill-opacity:1;stroke-width:0.500129"
         d="m 381.66181,105.69514 c 0.0706,-0.0691 0.14262,-0.11442 0.25348,-0.144 0.0789,0.13665 0.17809,0.31766 0.17809,0.31766 0.0363,0.0648 -0.20812,0.20836 -0.25488,0.12517 z"
         id="path22553-1-6-01-4-7"
         sodipodi:nodetypes="ccccc" /><circle
         style="fill:url(#linearGradient2906-9);fill-opacity:1;stroke-width:0.435619"
         id="circle22547-7-8-73-2-93"
         cx="76.208305"
         cy="-386.08212"
         r="0.27385604"
         transform="rotate(94.528994)" /><path
         style="fill:#c8c8c8;fill-opacity:1;stroke-width:0.272591"
         d="m 379.12865,106.30037 -0.33869,0.19794 c 0,0 0.007,-0.23356 0.0501,-0.26638 0.0488,-0.0367 0.17116,-0.10714 0.17116,-0.10714 z"
         id="path22549-4-9-10-5-62"
         sodipodi:nodetypes="ccscc" /><path
         style="fill:url(#linearGradient3670);fill-opacity:1;stroke:none;stroke-width:0.1;stroke-linecap:square;stroke-miterlimit:63.1"
         d="m 379.31158,106.50469 -0.18827,-0.45048 0.61971,-0.37615 0.49423,-0.29836 0.26085,-0.15399 0.20739,0.4307 z"
         id="path3375-0-1"
         sodipodi:nodetypes="ccccccc" /><path
         style="fill:#f47a4c;fill-opacity:1;stroke-width:0.1;stroke-linecap:square;stroke-miterlimit:63.1"
         d="m 383.06677,108.38076 0.0536,-0.0322 c 0,0 0.0162,0.0944 -0.0236,0.0992"
         id="path1524-5-9"
         sodipodi:nodetypes="ccc" /><path
         style="fill:none;fill-opacity:0.631373;stroke:#ff8f00;stroke-width:0.2;stroke-linecap:square;stroke-miterlimit:63.1;stroke-dasharray:none;stroke-opacity:1;marker-start:url(#marker36);marker-end:url(#Triangle-3-8)"
         id="path5860-2-8"
         sodipodi:type="arc"
         sodipodi:cx="-55.616077"
         sodipodi:cy="393.61972"
         sodipodi:rx="0.75299358"
         sodipodi:ry="0.76785463"
         sodipodi:start="4.0441624"
         sodipodi:end="0.78539816"
         sodipodi:arc-type="arc"
         d="m -56.082628,393.01701 a 0.75299358,0.76785463 0 0 1 1.02926,0.0925 0.75299358,0.76785463 0 0 1 -0.03026,1.05319"
         transform="rotate(-82.376927)"
         sodipodi:open="true" /></g></g></svg>
