<?xml version="1.0" encoding="UTF-8" standalone="no"?>
<!-- Created with Inkscape (http://www.inkscape.org/) -->

<svg
   width="4.232224"
   height="8.5791435"
   viewBox="0 0 0 0"
   version="1.1"
   id="svg5"
   xml:space="preserve"
   inkscape:version="1.4 (unknown)"
   sodipodi:docname="crah-tricks-17-07-2025-1.svg"
   inkscape:export-batch-path="full/svgs/svgs"
   inkscape:export-batch-name=""
   xmlns:inkscape="http://www.inkscape.org/namespaces/inkscape"
   xmlns:sodipodi="http://sodipodi.sourceforge.net/DTD/sodipodi-0.dtd"
   xmlns:xlink="http://www.w3.org/1999/xlink"
   xmlns="http://www.w3.org/2000/svg"
   xmlns:svg="http://www.w3.org/2000/svg"><sodipodi:namedview
     id="namedview7"
     pagecolor="#ffffff"
     bordercolor="#000000"
     borderopacity="0.25"
     inkscape:showpageshadow="2"
     inkscape:pageopacity="0.0"
     inkscape:pagecheckerboard="0"
     inkscape:deskcolor="#d1d1d1"
     inkscape:document-units="mm"
     showgrid="false"
     inkscape:zoom="2.828427"
     inkscape:cx="130.28443"
     inkscape:cy="45.961943"
     inkscape:window-width="1918"
     inkscape:window-height="1061"
     inkscape:window-x="0"
     inkscape:window-y="17"
     inkscape:window-maximized="1"
     inkscape:current-layer="layer1"
     showguides="true"
     inkscape:export-bgcolor="#ffffff00"><inkscape:page
       x="0"
       y="0"
       width="4.232224"
       height="8.5791435"
       id="page1"
       margin="0"
       bleed="0" /></sodipodi:namedview><defs
     id="defs2"><linearGradient
       id="linearGradient4568"
       inkscape:collect="always"><stop
         style="stop-color:#f4c3b0;stop-opacity:1;"
         offset="0"
         id="stop4565" /><stop
         style="stop-color:#f4996e;stop-opacity:1;"
         offset="0.28991219"
         id="stop4566" /><stop
         style="stop-color:#f48b5f;stop-opacity:1;"
         offset="0.89106572"
         id="stop4567" /></linearGradient><linearGradient
       id="linearGradient4003"
       inkscape:collect="always"><stop
         style="stop-color:#f4a77e;stop-opacity:0;"
         offset="0.32583883"
         id="stop4001" /><stop
         style="stop-color:#f46f40;stop-opacity:1;"
         offset="1"
         id="stop4002" /></linearGradient><linearGradient
       id="linearGradient4000"
       inkscape:collect="always"><stop
         style="stop-color:#ee2900;stop-opacity:1;"
         offset="0"
         id="stop3999" /><stop
         style="stop-color:#f47547;stop-opacity:0;"
         offset="1"
         id="stop4000" /></linearGradient><linearGradient
       id="linearGradient3988"
       inkscape:collect="always"><stop
         style="stop-color:#ee2900;stop-opacity:1;"
         offset="0"
         id="stop3988" /><stop
         style="stop-color:#ee2900;stop-opacity:0"
         offset="1"
         id="stop3989" /></linearGradient><linearGradient
       id="linearGradient4552"
       inkscape:collect="always"><stop
         style="stop-color:#ee2900;stop-opacity:1;"
         offset="0"
         id="stop4552" /><stop
         style="stop-color:#f47547;stop-opacity:0;"
         offset="1"
         id="stop4553" /></linearGradient><linearGradient
       id="linearGradient3024"
       inkscape:collect="always"><stop
         style="stop-color:#ffffff;stop-opacity:1;"
         offset="0"
         id="stop3024" /><stop
         style="stop-color:#ffffff;stop-opacity:0;"
         offset="1"
         id="stop3025" /></linearGradient><linearGradient
       id="linearGradient3022"
       inkscape:collect="always"><stop
         style="stop-color:#ffffff;stop-opacity:1;"
         offset="0"
         id="stop3022" /><stop
         style="stop-color:#ffffff;stop-opacity:0;"
         offset="1"
         id="stop3023" /></linearGradient><linearGradient
       id="linearGradient3020"
       inkscape:collect="always"><stop
         style="stop-color:#ffffff;stop-opacity:1;"
         offset="0"
         id="stop3020" /><stop
         style="stop-color:#ffffff;stop-opacity:0;"
         offset="1"
         id="stop3021" /></linearGradient><linearGradient
       id="linearGradient3017"
       inkscape:collect="always"><stop
         style="stop-color:#ffffff;stop-opacity:1;"
         offset="0"
         id="stop3018" /><stop
         style="stop-color:#ffffff;stop-opacity:0;"
         offset="1"
         id="stop3019" /></linearGradient><linearGradient
       id="linearGradient3016"
       inkscape:collect="always"><stop
         style="stop-color:#000000;stop-opacity:1;"
         offset="0"
         id="stop3015" /><stop
         style="stop-color:#171717;stop-opacity:1;"
         offset="0.78403282"
         id="stop3017" /><stop
         style="stop-color:#505050;stop-opacity:1;"
         offset="1"
         id="stop3016" /></linearGradient><linearGradient
       id="linearGradient3004"
       inkscape:collect="always"><stop
         style="stop-color:#ffffff;stop-opacity:1;"
         offset="0"
         id="stop3005" /><stop
         style="stop-color:#ffffff;stop-opacity:0;"
         offset="1"
         id="stop3006" /></linearGradient><linearGradient
       inkscape:collect="always"
       id="linearGradient2999"><stop
         style="stop-color:#201f1f;stop-opacity:1;"
         offset="0"
         id="stop2998" /><stop
         style="stop-color:#272727;stop-opacity:1;"
         offset="0.67769706"
         id="stop3000" /><stop
         style="stop-color:#505050;stop-opacity:1;"
         offset="1"
         id="stop2999" /></linearGradient><linearGradient
       id="linearGradient2995"
       inkscape:collect="always"><stop
         style="stop-color:#ffffff;stop-opacity:1;"
         offset="0"
         id="stop2996" /><stop
         style="stop-color:#a5a5a5;stop-opacity:0;"
         offset="1"
         id="stop2997" /></linearGradient><linearGradient
       id="linearGradient2994"
       inkscape:collect="always"><stop
         style="stop-color:#f4a77e;stop-opacity:1;"
         offset="0.32583883"
         id="stop2993" /><stop
         style="stop-color:#f46f40;stop-opacity:1;"
         offset="1"
         id="stop2994" /></linearGradient><linearGradient
       id="linearGradient2988"
       inkscape:collect="always"><stop
         style="stop-color:#a5a5a5;stop-opacity:1;"
         offset="0"
         id="stop2989" /><stop
         style="stop-color:#a5a5a5;stop-opacity:0;"
         offset="1"
         id="stop2990" /></linearGradient><linearGradient
       inkscape:collect="always"
       id="linearGradient2987"><stop
         style="stop-color:#020000;stop-opacity:1;"
         offset="0"
         id="stop2986" /><stop
         style="stop-color:#2e2d2d;stop-opacity:1;"
         offset="0.72775453"
         id="stop2988" /><stop
         style="stop-color:#5a5a5a;stop-opacity:1;"
         offset="1"
         id="stop2987" /></linearGradient><linearGradient
       id="linearGradient2641"
       inkscape:collect="always"><stop
         style="stop-color:#fc0e00;stop-opacity:1;"
         offset="0"
         id="stop2641" /><stop
         style="stop-color:#000e00;stop-opacity:1;"
         offset="1"
         id="stop2642" /></linearGradient><linearGradient
       id="linearGradient1197"
       inkscape:collect="always"><stop
         style="stop-color:#f4a77e;stop-opacity:1;"
         offset="0"
         id="stop1197" /><stop
         style="stop-color:#f46f40;stop-opacity:1;"
         offset="1"
         id="stop1198" /></linearGradient><linearGradient
       id="linearGradient160"
       inkscape:collect="always"><stop
         style="stop-color:#000000;stop-opacity:1;"
         offset="0"
         id="stop160" /><stop
         style="stop-color:#2f2f2f;stop-opacity:1;"
         offset="1"
         id="stop161" /></linearGradient><linearGradient
       inkscape:collect="always"
       id="linearGradient20612"><stop
         style="stop-color:#fc0000;stop-opacity:1;"
         offset="0"
         id="stop20608" /><stop
         style="stop-color:#fc6a00;stop-opacity:1;"
         offset="1"
         id="stop20610" /></linearGradient><linearGradient
       inkscape:collect="always"
       id="linearGradient63493"><stop
         style="stop-color:#969696;stop-opacity:1;"
         offset="0"
         id="stop63489" /><stop
         style="stop-color:#c8c8c8;stop-opacity:1;"
         offset="1"
         id="stop63491" /></linearGradient><linearGradient
       inkscape:collect="always"
       id="linearGradient62193"><stop
         style="stop-color:#969696;stop-opacity:1;"
         offset="0"
         id="stop62189" /><stop
         style="stop-color:#c8c8c8;stop-opacity:1;"
         offset="1"
         id="stop62191" /></linearGradient><linearGradient
       inkscape:collect="always"
       id="linearGradient55368"><stop
         style="stop-color:#f4a77e;stop-opacity:1;"
         offset="0"
         id="stop55364" /><stop
         style="stop-color:#f46f40;stop-opacity:1;"
         offset="1"
         id="stop55366" /></linearGradient><linearGradient
       inkscape:collect="always"
       id="linearGradient50523"><stop
         style="stop-color:#fc0000;stop-opacity:1;"
         offset="0"
         id="stop50519" /><stop
         style="stop-color:#fc6a00;stop-opacity:1;"
         offset="1"
         id="stop50521" /></linearGradient><linearGradient
       inkscape:collect="always"
       id="linearGradient49756"><stop
         style="stop-color:#f50000;stop-opacity:1;"
         offset="0"
         id="stop49752" /><stop
         style="stop-color:#ff4f00;stop-opacity:1;"
         offset="1"
         id="stop49754" /></linearGradient><linearGradient
       id="linearGradient45844"
       inkscape:swatch="solid"><stop
         style="stop-color:#000000;stop-opacity:1;"
         offset="0"
         id="stop45842" /></linearGradient><linearGradient
       inkscape:collect="always"
       id="linearGradient1953"><stop
         style="stop-color:#eaceb8;stop-opacity:1;"
         offset="0"
         id="stop1954" /><stop
         style="stop-color:#f4a77e;stop-opacity:1;"
         offset="0.45565304"
         id="stop1952" /><stop
         style="stop-color:#f46f40;stop-opacity:1;"
         offset="1"
         id="stop1953" /></linearGradient><linearGradient
       inkscape:collect="always"
       xlink:href="#linearGradient63493"
       id="linearGradient4593"
       gradientUnits="userSpaceOnUse"
       gradientTransform="matrix(1.1534191,-1.5032843,1.5032843,1.1534191,365.06374,-6.469464)"
       x1="-29.214487"
       y1="74.322151"
       x2="-29.128742"
       y2="74.261864" /><linearGradient
       inkscape:collect="always"
       xlink:href="#linearGradient160"
       id="linearGradient4594"
       gradientUnits="userSpaceOnUse"
       gradientTransform="matrix(1.7835988,0,0,1.7835988,208.55617,305.10202)"
       x1="-33.539082"
       y1="71.95787"
       x2="-33.419525"
       y2="72.131638" /><linearGradient
       inkscape:collect="always"
       xlink:href="#linearGradient62193"
       id="linearGradient4595"
       gradientUnits="userSpaceOnUse"
       gradientTransform="matrix(1.0857319,-1.4150658,1.4150658,1.0857319,369.56956,1.1221)"
       x1="-29.426731"
       y1="73.552269"
       x2="-29.489977"
       y2="73.470787" /><linearGradient
       inkscape:collect="always"
       xlink:href="#linearGradient160"
       id="linearGradient4596"
       gradientUnits="userSpaceOnUse"
       gradientTransform="matrix(1.7835988,0,0,1.7835988,208.55617,305.10202)"
       x1="-32.525726"
       y1="73.226974"
       x2="-32.441399"
       y2="73.35099" /><linearGradient
       inkscape:collect="always"
       xlink:href="#linearGradient63493"
       id="linearGradient4597"
       gradientUnits="userSpaceOnUse"
       gradientTransform="translate(338.96507,-103.7824)"
       x1="104.12944"
       y1="226.9552"
       x2="104.13771"
       y2="226.75676" /><linearGradient
       inkscape:collect="always"
       xlink:href="#linearGradient4568"
       id="linearGradient4598"
       gradientUnits="userSpaceOnUse"
       gradientTransform="matrix(0.95837224,0,0,0.95837224,445.2648,5.11891)"
       x1="-3.8427281"
       y1="117.88457"
       x2="-3.4660745"
       y2="117.95433" /><linearGradient
       inkscape:collect="always"
       xlink:href="#linearGradient4000"
       id="linearGradient4653"
       gradientUnits="userSpaceOnUse"
       gradientTransform="translate(338.96507,-103.7824)"
       x1="103.08923"
       y1="221.95236"
       x2="102.93099"
       y2="221.94624" /><linearGradient
       inkscape:collect="always"
       xlink:href="#linearGradient63493"
       id="linearGradient4657"
       gradientUnits="userSpaceOnUse"
       gradientTransform="matrix(-1.0857319,-1.4150658,-1.4150658,1.0857319,513.61575,1.09171)"
       x1="-28.022381"
       y1="72.295418"
       x2="-27.930805"
       y2="72.47419" /><linearGradient
       inkscape:collect="always"
       xlink:href="#linearGradient20612"
       id="linearGradient4673"
       gradientUnits="userSpaceOnUse"
       gradientTransform="matrix(-0.87921036,0,0,0.87921036,435.66894,0.46988)"
       x1="-5.73314"
       y1="135.42557"
       x2="-5.7165155"
       y2="135.345" /><linearGradient
       inkscape:collect="always"
       xlink:href="#linearGradient20612"
       id="linearGradient4864"
       gradientUnits="userSpaceOnUse"
       gradientTransform="matrix(0.87716808,-0.05989161,-0.05989161,-0.87716808,455.22896,237.50729)"
       x1="-5.4826913"
       y1="135.38112"
       x2="-5.519639"
       y2="135.48863" /><linearGradient
       inkscape:collect="always"
       xlink:href="#linearGradient160"
       id="linearGradient4918"
       gradientUnits="userSpaceOnUse"
       gradientTransform="matrix(0.52323159,-0.81931653,0.81931653,0.52323159,355.78968,40.58865)"
       x1="-23.459694"
       y1="119.69993"
       x2="-23.140306"
       y2="119.5779" /><linearGradient
       inkscape:collect="always"
       xlink:href="#linearGradient1197"
       id="linearGradient4982"
       gradientUnits="userSpaceOnUse"
       gradientTransform="translate(462.29225,-0.13968)"
       x1="-20.411217"
       y1="121.22961"
       x2="-18.615778"
       y2="121.32982" /><linearGradient
       inkscape:collect="always"
       xlink:href="#linearGradient3022"
       id="linearGradient4988"
       gradientUnits="userSpaceOnUse"
       gradientTransform="translate(359.05009,0.62733)"
       x1="83.230705"
       y1="121.35031"
       x2="83.347061"
       y2="121.29009" /><linearGradient
       inkscape:collect="always"
       xlink:href="#linearGradient160"
       id="linearGradient5015"
       gradientUnits="userSpaceOnUse"
       gradientTransform="matrix(-1,0,0,1,450.17575,-103.80661)"
       x1="6.9355545"
       y1="227.11623"
       x2="6.9344907"
       y2="226.70299" /><linearGradient
       inkscape:collect="always"
       xlink:href="#linearGradient3024"
       id="linearGradient5017"
       gradientUnits="userSpaceOnUse"
       gradientTransform="translate(359.05009,0.62733)"
       x1="84.074959"
       y1="121.33891"
       x2="84.212944"
       y2="121.26514" /><linearGradient
       inkscape:collect="always"
       xlink:href="#linearGradient4552"
       id="linearGradient5021"
       gradientUnits="userSpaceOnUse"
       gradientTransform="translate(338.96507,-103.7824)"
       x1="104.68548"
       y1="225.54237"
       x2="104.49017"
       y2="225.62015" /><linearGradient
       inkscape:collect="always"
       xlink:href="#linearGradient3016"
       id="linearGradient5104"
       gradientUnits="userSpaceOnUse"
       gradientTransform="translate(445.2876,6.21025)"
       x1="-2.87376"
       y1="113.75332"
       x2="-1.1987317"
       y2="114.37305" /><linearGradient
       inkscape:collect="always"
       xlink:href="#linearGradient3020"
       id="linearGradient5113"
       gradientUnits="userSpaceOnUse"
       gradientTransform="translate(359.05009,0.62733)"
       x1="83.00515"
       y1="119.56847"
       x2="83.270767"
       y2="119.68941" /><linearGradient
       inkscape:collect="always"
       xlink:href="#linearGradient1197"
       id="linearGradient5114"
       gradientUnits="userSpaceOnUse"
       gradientTransform="translate(462.29217,-0.13959)"
       x1="-20.411217"
       y1="121.22961"
       x2="-18.615778"
       y2="121.32982" /><linearGradient
       inkscape:collect="always"
       xlink:href="#linearGradient4552"
       id="linearGradient5115"
       gradientUnits="userSpaceOnUse"
       gradientTransform="rotate(-1.5023576,-3753.0493,-18121.531)"
       x1="-37.063435"
       y1="220.37614"
       x2="-36.409924"
       y2="220.25232" /><linearGradient
       inkscape:collect="always"
       xlink:href="#linearGradient2987"
       id="linearGradient5135"
       gradientUnits="userSpaceOnUse"
       gradientTransform="rotate(-9.7484997,212.41935,-2475.8848)"
       x1="0.081231855"
       y1="120.02544"
       x2="1.5633498"
       y2="119.97387" /><linearGradient
       inkscape:collect="always"
       xlink:href="#linearGradient2994"
       id="linearGradient5144"
       gradientUnits="userSpaceOnUse"
       gradientTransform="translate(446.76921,0.57434)"
       x1="-3.5515206"
       y1="117.56866"
       x2="-3.2476065"
       y2="117.73425" /><linearGradient
       inkscape:collect="always"
       xlink:href="#linearGradient2999"
       id="linearGradient5145"
       gradientUnits="userSpaceOnUse"
       gradientTransform="translate(442.88474,-1.69783)"
       x1="0.40899256"
       y1="119.0597"
       x2="1.0071565"
       y2="119.03181" /><linearGradient
       inkscape:collect="always"
       xlink:href="#linearGradient2641"
       id="linearGradient5146"
       gradientUnits="userSpaceOnUse"
       gradientTransform="rotate(-7.5269113,201.90568,-3539.7398)"
       x1="-39.021812"
       y1="115.69682"
       x2="-38.641582"
       y2="115.69682" /><linearGradient
       inkscape:collect="always"
       xlink:href="#linearGradient55368"
       id="linearGradient5166"
       gradientUnits="userSpaceOnUse"
       gradientTransform="rotate(-7.5269113,201.90568,-3539.7398)"
       x1="-38.068344"
       y1="115.63547"
       x2="-38.334099"
       y2="116.60741" /><linearGradient
       inkscape:collect="always"
       xlink:href="#linearGradient49756"
       id="linearGradient5175"
       gradientUnits="userSpaceOnUse"
       gradientTransform="rotate(-7.5269113,211.39475,-3396.1647)"
       x1="-19.885185"
       y1="115.24645"
       x2="-18.733461"
       y2="115.24645" /><linearGradient
       inkscape:collect="always"
       xlink:href="#linearGradient50523"
       id="linearGradient5176"
       gradientUnits="userSpaceOnUse"
       gradientTransform="rotate(-7.5269113,211.39475,-3396.1647)"
       x1="-20.133801"
       y1="115.66431"
       x2="-19.019243"
       y2="115.66431" /><linearGradient
       inkscape:collect="always"
       xlink:href="#linearGradient2988"
       id="linearGradient5177"
       gradientUnits="userSpaceOnUse"
       gradientTransform="translate(359.05009,0.62733)"
       x1="83.317673"
       y1="117.8539"
       x2="83.54155"
       y2="117.80631" /><linearGradient
       inkscape:collect="always"
       xlink:href="#linearGradient2995"
       id="linearGradient5204"
       gradientUnits="userSpaceOnUse"
       gradientTransform="translate(359.05009,0.62733)"
       x1="84.16169"
       y1="117.42403"
       x2="84.512505"
       y2="117.48673" /><linearGradient
       inkscape:collect="always"
       xlink:href="#linearGradient3017"
       id="linearGradient5206"
       gradientUnits="userSpaceOnUse"
       gradientTransform="translate(359.05009,0.62733)"
       x1="83.565262"
       y1="119.84889"
       x2="84.018486"
       y2="120.01689" /><linearGradient
       inkscape:collect="always"
       xlink:href="#linearGradient160"
       id="linearGradient5210"
       gradientUnits="userSpaceOnUse"
       gradientTransform="matrix(1.0200854,0.29586868,-0.29586868,1.0200854,336.45241,-158.03896)"
       x1="170.08737"
       y1="226.20326"
       x2="169.74921"
       y2="226.0919" /><linearGradient
       inkscape:collect="always"
       xlink:href="#linearGradient3988"
       id="linearGradient5212"
       gradientUnits="userSpaceOnUse"
       gradientTransform="translate(338.96507,-103.7824)"
       x1="103.8286"
       y1="225.50313"
       x2="103.62111"
       y2="225.58232" /><linearGradient
       inkscape:collect="always"
       xlink:href="#linearGradient160"
       id="linearGradient5214"
       gradientUnits="userSpaceOnUse"
       gradientTransform="matrix(1.0588442,0.08343527,-0.08343527,1.0588442,472.61794,-5.973053)"
       x1="-18.230419"
       y1="123.27151"
       x2="-18.539061"
       y2="123.09406" /><linearGradient
       inkscape:collect="always"
       xlink:href="#linearGradient160"
       id="linearGradient5217"
       gradientUnits="userSpaceOnUse"
       gradientTransform="matrix(1.0288768,0.26367607,-0.26367607,1.0288768,328.41558,-154.57288)"
       x1="170.12064"
       y1="226.18927"
       x2="169.80826"
       y2="226.0851" /><linearGradient
       inkscape:collect="always"
       xlink:href="#linearGradient160"
       id="linearGradient5223"
       gradientUnits="userSpaceOnUse"
       gradientTransform="matrix(1.0609427,0.05012989,-0.05012989,1.0609427,469.29115,-6.859745)"
       x1="-18.195015"
       y1="123.26454"
       x2="-18.479864"
       y2="123.09934" /><linearGradient
       inkscape:collect="always"
       xlink:href="#linearGradient2994"
       id="linearGradient5224"
       gradientUnits="userSpaceOnUse"
       gradientTransform="matrix(0.90014532,0.26986457,-0.26986457,0.90014532,477.79191,13.66278)"
       x1="-3.5288053"
       y1="118.25265"
       x2="-3.1757009"
       y2="118.28916" /><linearGradient
       inkscape:collect="always"
       xlink:href="#linearGradient4003"
       id="linearGradient5225"
       gradientUnits="userSpaceOnUse"
       gradientTransform="matrix(0.90014532,0.26986457,-0.26986457,0.90014532,477.79191,13.66278)"
       x1="-3.1595943"
       y1="118.38934"
       x2="-3.3814852"
       y2="119.08598" /><linearGradient
       inkscape:collect="always"
       xlink:href="#linearGradient55368"
       id="linearGradient5236"
       gradientUnits="userSpaceOnUse"
       gradientTransform="rotate(-11.711811,-302.8922,-2170.3057)"
       x1="-36.547489"
       y1="219.43437"
       x2="-36.898888"
       y2="220.32321" /><linearGradient
       inkscape:collect="always"
       xlink:href="#linearGradient3004"
       id="linearGradient5240"
       gradientUnits="userSpaceOnUse"
       gradientTransform="translate(359.05009,0.62733)"
       x1="83.079567"
       y1="117.27405"
       x2="82.809814"
       y2="117.28645" /><linearGradient
       inkscape:collect="always"
       xlink:href="#linearGradient4552"
       id="linearGradient5254"
       gradientUnits="userSpaceOnUse"
       gradientTransform="translate(338.96507,-103.7824)"
       x1="104.72879"
       y1="222.24794"
       x2="104.50336"
       y2="222.15286" /><linearGradient
       inkscape:collect="always"
       xlink:href="#linearGradient1953"
       id="linearGradient230"
       x1="442.16174"
       y1="118.96916"
       x2="442.14612"
       y2="119.26605"
       gradientUnits="userSpaceOnUse" /><marker
       style="overflow:visible"
       id="marker36-06-0"
       refX="9"
       refY="0"
       orient="auto"
       inkscape:stockid="Square"
       markerWidth="0.2"
       markerHeight="0.2"
       viewBox="0 0 1 1"
       inkscape:isstock="true"
       inkscape:collect="always"
       preserveAspectRatio="xMidYMid"><path
         transform="scale(0.5)"
         style="fill:context-stroke;fill-rule:evenodd;stroke:none"
         d="M -5,-5 V 5 H 5 V -5 Z"
         id="path36-89-4" /></marker><marker
       style="overflow:visible"
       id="Triangle-3-8-1-8-2-8"
       refX="0"
       refY="0"
       orient="auto-start-reverse"
       inkscape:stockid="Triangle arrow"
       markerWidth="0.5"
       markerHeight="0.5"
       viewBox="0 0 1 1"
       inkscape:isstock="true"
       inkscape:collect="always"
       preserveAspectRatio="xMidYMid"><path
         transform="scale(0.5)"
         style="fill:context-stroke;fill-rule:evenodd;stroke:context-stroke;stroke-width:1pt"
         d="M 5.77,0 -2.88,5 V -5 Z"
         id="path135-4-6-4-9-66-7" /></marker></defs><g
     inkscape:label="Layer 1"
     inkscape:groupmode="layer"
     id="layer1"
     transform="translate(-427.20398,-102.73151)"><g
       id="barspin"
       inkscape:export-filename="pngs/barspin.png"
       inkscape:export-xdpi="96"
       inkscape:export-ydpi="96"><g
         id="g5263"
         transform="translate(-13.221537,-12.087496)"><path
           id="path5362-9-3-7"
           style="fill:url(#linearGradient4593);fill-opacity:1;stroke-width:0.50133"
           d="m 441.72198,122.75939 0.0126,-0.36585 c 0.25976,0.16582 0.40319,0.32596 0.69253,0.42852 l 1.78114,-0.0276 c 0.23033,-0.005 0.42287,0.004 0.26148,0.18759 l -0.008,0.0708 c 0.004,-8e-5 0.0191,-5.1e-4 0.0191,-5.1e-4 l -0.0475,0.22014 c 0,0 -1.92437,0.0313 -2.13564,0.0286 -0.1613,-0.0304 -0.55691,-0.52741 -0.57581,-0.54175 z"
           sodipodi:nodetypes="ccccccccccc" /><path
           style="fill:#2f2f2f;fill-opacity:1;stroke:none;stroke-width:0.584676;stroke-linecap:round"
           d="m 441.7469,121.99906 v -0.0268 c 0,0 -0.004,-0.0229 -0.0429,-0.026 -0.0468,-8.8e-4 -0.22696,0.0206 -0.22696,0.0206 l 0.23674,0.0671 z"
           id="path163-1-0-0-2-0-7-63-0-8"
           sodipodi:nodetypes="cccccc" /><circle
           style="fill:url(#linearGradient4594);fill-opacity:1;stroke-width:0.411041"
           id="circle22541-7-6-12-4-97-5-2-9-7-3-72"
           cx="148.84857"
           cy="433.58682"
           r="0.25840473"
           transform="rotate(-55.471006)" /><path
           id="path2976-9-66"
           style="fill:url(#linearGradient4595);fill-opacity:1;stroke-width:0.47191"
           d="m 441.62529,121.91457 c -0.0551,0.004 -0.12233,0.0347 -0.14056,0.0703 v 0.002 c -0.003,0.005 -0.004,0.011 -0.004,0.0171 0.003,0.0522 -0.0257,0.68055 -0.0243,0.89607 10e-6,0.002 5e-5,0.004 0,0.004 -8e-5,0.004 -1.3e-4,0.009 0,0.0134 0.004,0.0334 0.007,0.0725 0.008,0.0775 0.0169,0.10568 0.0594,0.24041 0.11524,0.24495 0.055,0.004 0.10742,-0.11885 0.13074,-0.22118 0.006,-0.0383 0.009,-0.0583 0.0124,-0.0791 2.6e-4,-0.004 4.8e-4,-0.008 5.2e-4,-0.0114 v -0.003 c 0,-7.2e-4 2e-5,-9.4e-4 0,-0.002 v -0.003 c -4e-5,-7.3e-4 -4.6e-4,-0.002 -5.2e-4,-0.002 l 0.006,-0.16226 0.002,0.002 0.016,-0.3757 -5.2e-4,-0.0532 -0.0429,-0.36484 c -1.8e-4,-0.0397 -0.0357,-0.0531 -0.0786,-0.0501 z"
           sodipodi:nodetypes="ccccscccccccscccccccccc" /><circle
           style="fill:url(#linearGradient4596);fill-opacity:1;stroke-width:0.411041"
           id="circle22547-7-8-68-4-82-8-0-9-6-2-2"
           cx="150.5386"
           cy="435.85016"
           r="0.25840473"
           transform="rotate(-55.471006)" /><path
           style="fill:url(#linearGradient4597);fill-opacity:1;stroke-width:0.257211"
           d="m 444.11081,123.08022 0.37016,-0.002 c 0,0 -0.1155,0.18779 -0.16664,0.19403 -0.0572,0.007 -0.19248,0.003 -0.19248,0.003 z"
           id="path22549-4-9-749-9-064-3-3-9-80-5-97"
           sodipodi:nodetypes="ccscc" /><path
           id="path22557-5-1-9-89-8-04-2-3-8-8-5-0"
           style="fill:url(#linearGradient4598);fill-opacity:1;stroke:none;stroke-width:3.79994;stroke-miterlimit:12.9"
           d="m 442.11577,117.04192 c 0,0 -0.34244,-0.0305 -0.41275,0.2222 -0.0703,0.25271 -0.11123,0.63259 -0.12099,0.83209 -0.0154,0.19855 0.0386,0.52134 0.19211,0.83525 0.0199,0.0407 0.004,0.13384 0.0199,0.18227 l 0.39255,-0.10218 c -0.0339,-0.0722 -0.0892,-0.0826 -0.0936,-0.1234 -0.0384,-0.35593 -3e-5,-0.45992 -0.0387,-0.71819 0.11562,-0.27081 0.16691,-0.68658 0.19299,-0.76864 0.006,-0.68983 0.85573,-0.63792 0.20201,-0.1583 -0.23295,-0.0625 -0.31145,-0.50423 -0.33349,-0.20159 z"
           sodipodi:nodetypes="czcsccsccccc" /><path
           style="opacity:0.376476;fill:url(#linearGradient4653);stroke:none;stroke-width:0;stroke-linecap:square;stroke-miterlimit:63.1"
           d="m 442.17586,117.73062 c 0,0 -0.057,0.32819 -0.12157,0.43934 0.0307,0.1907 0.0227,0.51189 0.0227,0.5119 0,0 0.007,0.12221 0.016,0.20629 0.003,0.024 0.0647,0.0712 0.0936,0.1234 0.007,0.0135 -0.14249,0.0359 -0.22261,0.0571 -0.12726,0.0338 -0.0836,-0.15314 -0.0932,-0.164 -0.10961,-0.12348 -0.14738,-0.46007 -0.13586,-0.60988 0.0371,-0.48238 -0.0711,-0.64408 0.11708,-0.5825 0.13591,0.0445 0.32389,0.0184 0.32389,0.0184 z"
           id="path3997-3"
           sodipodi:nodetypes="cccsssssscc" /><path
           style="fill:url(#linearGradient4657);fill-opacity:1;stroke-width:0.418973"
           d="m 441.70428,121.98423 -0.007,-2.6769 0.62364,-0.18395 c 0.0512,-0.0151 0.0609,-0.12513 -0.0214,-0.1318 -0.0822,-0.007 -1.37043,0.36891 -1.84428,0.47755 -0.0457,0.0105 -0.0425,0.16894 0.0363,0.14978 0.41961,-0.10186 0.97336,-0.26036 0.97336,-0.26036 l 0.0141,2.6295 z"
           id="path22543-8-1-5-3-4-3-8-0-8-1-9-4-72"
           sodipodi:nodetypes="ccszssccc" /><path
           style="fill:url(#linearGradient4673);fill-opacity:1;stroke:none;stroke-width:0.00087921;stroke-miterlimit:12.9;stroke-dasharray:none;stroke-opacity:1"
           d="m 440.96025,119.49862 c 0.0117,-0.0481 0.0214,-0.11335 -0.0396,-0.14788 -0.22381,0.0564 -0.25495,0.0636 -0.4653,0.11839 -0.0428,0.0112 -0.0404,0.16719 0.0363,0.14979 0.23773,-0.0543 0.2456,-0.0651 0.46856,-0.12031 z"
           id="path14155-7-99-6-2-3-1-8-00-0-3"
           sodipodi:nodetypes="ccscc" /><path
           id="path25467-9-52-1-31-7-1-3-2-5-5"
           style="fill:url(#linearGradient4864);fill-opacity:1;stroke:none;stroke-width:0.00087921;stroke-miterlimit:12.9;stroke-dasharray:none;stroke-opacity:1"
           d="m 442.32105,119.1233 c -0.21079,0.0596 -0.0524,0.0169 -0.29167,0.0846 0.0239,-0.049 -0.0132,-0.13232 -0.0654,-0.13925 0.18745,-0.0484 0.17413,-0.0479 0.30871,-0.0771 0.0194,0.002 0.0763,-0.009 0.0878,0.0493 0.007,0.0368 4e-5,0.0711 -0.0395,0.0826 z"
           sodipodi:nodetypes="ccccscc" /><path
           style="fill:url(#linearGradient4918);fill-opacity:1;stroke-width:0.471911"
           d="m 441.7469,122.33102 c -0.0848,0.0195 -0.18018,0.0218 -0.27654,-0.004 0,-0.14888 0.007,-0.36039 0.007,-0.36039 0.0742,0.0295 0.18163,0.0197 0.2699,0.006 z"
           id="path22553-1-3-66-4-09-3-1-6-6-9-1"
           sodipodi:nodetypes="ccccc" /><path
           id="path22519-4-3-97-4-53-6-57-2-6-46-78"
           style="fill:url(#linearGradient4982);fill-opacity:1;stroke-width:0.485436"
           d="m 444.11228,118.83757 c -0.72885,0.12093 -1.2558,0.2113 -1.58544,0.26822 0.002,0.0859 0.008,0.15777 0.0196,0.19946 -0.42954,0.61749 -0.65998,1.15007 -0.66559,1.7849 -0.002,0.24348 0.12551,0.49705 0.2434,0.68885 0.2142,0.34851 0.48385,0.58078 0.78444,0.89865 0.1124,0.0857 0.28173,-0.0512 0.31781,-0.12764 -0.20516,-0.38269 -0.23977,-0.43506 -0.35398,-0.67024 -0.1781,-0.36672 -0.20182,-0.48064 -0.31936,-0.68575 l 0.43357,-0.83354 c 0,0 -0.0348,0.0963 -0.076,0.23668 -0.0552,0.18821 -0.0983,0.35083 -0.10852,0.57154 -0.002,0.049 0.009,0.13472 0.017,0.19017 0.0346,0.25041 0.14452,0.44557 0.37207,0.72812 0.25183,0.34473 0.43353,0.55524 0.51056,0.67438 0.16354,0.10167 0.15358,0.0406 0.25632,-0.0295 0.0331,-0.0243 0.0527,-0.042 0.047,-0.0662 -0.0733,-0.19702 -0.17595,-0.44336 -0.28564,-0.82823 -0.0867,-0.30426 -0.19263,-0.49015 -0.19263,-0.49015 0,0 0.22482,-0.3276 0.30101,-0.46705 0.14203,-0.2599 0.35427,-0.62059 0.35037,-0.91674 -0.005,-0.34201 -0.0353,-0.38529 -0.03,-0.84904 -0.0114,-0.0818 -0.0239,-0.18068 -0.0362,-0.27699 z"
           sodipodi:nodetypes="ccccsccscccccccccsccsccc" /><path
           style="opacity:0.302863;fill:url(#linearGradient4988);fill-opacity:1;stroke:none;stroke-width:0.00499999;stroke-miterlimit:13.8;stroke-dasharray:none;stroke-opacity:1"
           d="m 441.95793,120.63692 c 0,0 -0.15599,0.36403 -0.0282,0.7315 0.0453,0.13006 0.0996,0.26103 0.19451,0.41058 0.0829,0.13061 0.15927,0.23805 0.28953,0.38371 0.20458,0.22877 0.45665,0.47527 0.45665,0.47527 l 0.10497,0.0661 0.1496,-0.047 c -0.18295,-0.67529 -0.22778,-2.11184 -1.1671,-2.02016 z"
           id="path3021-9-9"
           sodipodi:nodetypes="cssscccc" /><path
           style="fill:url(#linearGradient5015);fill-opacity:1;stroke:none;stroke-width:0.1;stroke-linecap:square;stroke-miterlimit:63.1"
           d="m 444.0686,122.79556 -0.012,0.48383 -1.63807,0.0239 0.0779,-0.48213 z"
           id="path3195-1-41"
           sodipodi:nodetypes="ccccc" /><path
           style="opacity:0.438528;fill:url(#linearGradient5017);fill-opacity:1;stroke:none;stroke-width:0.00499999;stroke-miterlimit:13.8;stroke-dasharray:none;stroke-opacity:1"
           d="m 443.65017,122.68146 c -0.13737,-0.17096 -0.26494,-0.33596 -0.43668,-0.56424 -0.12966,-0.17235 -0.20535,-0.27086 -0.25349,-0.35719 0,0 -0.23225,-0.35625 -0.13216,-0.82687 0.0938,-0.44115 1.006,1.76396 1.006,1.76396 0,0 -0.12668,0.0532 -0.18367,-0.0157 z"
           id="path3023-2-6"
           sodipodi:nodetypes="cscsccc" /><path
           style="opacity:0.411647;fill:url(#linearGradient5021);fill-opacity:1;stroke:none;stroke-width:0;stroke-linecap:square;stroke-miterlimit:63.1"
           d="m 443.62931,121.19545 c 0,0 -0.0584,0.0871 -0.10242,0.15184 0.0315,0.0612 0.0884,0.18542 0.12456,0.28142 0.0484,0.12862 0.1233,0.39346 0.1233,0.39346 0,0 0.14156,0.4171 0.17636,0.49775 0.0348,0.0806 -0.2453,0.23265 -0.2453,0.23265 l -0.11128,-0.13808 -0.41794,-1.33696 0.26985,-0.24661 z"
           id="path3992-4"
           sodipodi:nodetypes="ccacsccccc" /><path
           style="fill:url(#linearGradient5104);fill-opacity:1;stroke:none;stroke-width:0.665001;stroke-linecap:round"
           d="m 442.73849,120.96486 c 0.0917,-0.23688 0.21009,-0.45724 0.24828,-0.60438 0.0129,-0.0497 0,0 0,0 0,0 -0.14804,0.36259 -0.18895,0.5799 -0.0147,0.0783 0.19351,0.17648 0.37586,0.20965 0.14639,0.0266 0.36668,0.0625 0.50279,0.0401 0.0489,-0.008 0.0825,-0.13377 0.12501,-0.21835 0.071,-0.14115 0.14425,-0.27334 0.21132,-0.41667 0.0387,-0.0777 0.0603,-0.14227 0.0908,-0.22516 0.0177,-0.048 0.0331,-0.0966 0.0454,-0.14548 0.0344,-0.13701 0.0538,-0.2949 0.0496,-0.47546 0.006,-0.12534 -0.0192,-0.24824 -0.0386,-0.37142 -0.007,-0.0645 -0.0117,-0.19433 -0.0117,-0.19433 l -1.01616,0.22838 -0.47342,0.0216 -0.11243,-0.0885 -0.10679,0.15546 c -0.0256,0.0403 -0.0789,0.12478 -0.10245,0.16226 -0.0588,0.0934 -0.10528,0.17204 -0.152,0.27079 -0.12037,0.25438 -0.16297,0.37891 -0.26109,0.6434 -0.0206,0.0555 -0.0292,0.13108 0.02,0.16899 0.093,0.0717 0.26963,0.17309 0.41172,0.21608 0.14208,0.043 0.34724,0.0975 0.3829,0.0432 0.0357,-0.0543 0,0 0,0 z"
           id="path159-6-1-8-6-4-5-7-4-3"
           sodipodi:nodetypes="cscssssssssacccccsssszzcc" /><path
           style="opacity:0.237338;fill:url(#linearGradient5113);fill-opacity:1;stroke:none;stroke-width:0.00499999;stroke-miterlimit:13.8;stroke-dasharray:none;stroke-opacity:1"
           d="m 441.94386,120.70564 c 0,0 -0.0853,-0.0472 0.002,-0.22804 0.0176,-0.0364 0.028,-0.0839 0.0492,-0.13716 0.0841,-0.21181 0.14231,-0.35857 0.2184,-0.50405 0.0598,-0.11439 0.1386,-0.24087 0.21432,-0.35676 0.0509,-0.0779 0.10353,-0.15204 0.14501,-0.21348 0.17342,-0.25688 -0.29981,1.62595 -0.29981,1.62595 0,0 -0.17793,-0.0828 -0.32928,-0.18646 -0.12496,-0.0856 1e-5,0 1e-5,0 z"
           id="path3019-9-54"
           sodipodi:nodetypes="cssssscscc" /><path
           id="path1562-96-7-8"
           style="fill:url(#linearGradient5114);fill-opacity:1;stroke-width:0.485436"
           d="m 442.69059,115.32781 c -0.25635,0.009 -0.32707,0.17561 -0.33401,0.41209 0.007,0.30873 0.0243,0.33847 0.16419,0.41984 0.0311,0.0153 0.0158,0.31319 0.0158,0.31319 0.002,10e-4 -0.13854,0.0562 -0.18086,0.0697 -0.0422,0.0205 -0.24351,0.15689 -0.29353,0.18035 -0.0614,0.0364 -0.13,0.14314 -0.20669,0.28215 -0.1631,1.21559 0.28583,-0.0793 0.28583,-0.0793 0.23669,-0.0444 0.38961,1.42715 0.3844,2.01042 0.53322,0.11407 0.87862,0.12274 1.55564,0.26499 -5.9e-4,-0.0526 0.0662,-0.0181 0.067,-0.0867 -0.0657,-0.46933 -0.15707,-1.22156 -0.14056,-1.75803 0.005,-0.61051 -0.18888,-0.57531 -0.40101,-0.67903 -0.10338,-0.048 -0.1243,-0.0295 -0.20361,-0.0594 l -0.0403,-0.14934 c -0.0671,-0.0214 -0.0765,-0.0116 -0.12815,-0.045 -0.0628,-0.0407 -0.0298,-0.21957 -0.0243,-0.27595 0.0335,-0.33969 0.0278,-0.64832 -0.1323,-0.74621 -0.0848,-0.0518 -0.23376,-0.0796 -0.38757,-0.0739 z"
           sodipodi:nodetypes="sccccccccccccccccsss" /><path
           style="opacity:0.835869;fill:url(#linearGradient5115);fill-opacity:1;stroke-width:0.025;stroke-linecap:square;stroke-miterlimit:63.1"
           d="m 442.49053,116.46013 c 0,0 0.73464,-0.51879 0.72126,-0.31882 -0.007,0.10246 -0.0449,0.28639 0.0555,0.30303 0.30796,0.0511 -0.67079,0.4265 -0.67079,0.4265 0,0 -0.25963,-0.3009 -0.19286,-0.35221 z"
           id="path3984-2-7-9-0-9-7"
           sodipodi:nodetypes="cssccc" /><path
           style="fill:url(#linearGradient5135);fill-opacity:1;stroke:none;stroke-width:3.96499;stroke-miterlimit:12.9"
           d="m 442.55834,119.37041 c 0.003,0.0394 0.1002,0.0234 0.1002,0.0234 0,0 0.24052,0.15453 0.45728,0.11753 0.0468,-0.008 0.2265,0.0356 0.27288,0.0242 0.16829,-0.0407 0.28974,-0.11817 0.35162,-0.12637 0.0789,-0.0105 0.2522,-0.0753 0.3389,-0.14244 0.0615,-0.0476 0.082,-0.0585 0.0744,-0.15529 -0.0401,-0.35455 -0.0827,-0.68639 -0.0993,-1.03487 -0.0468,-0.55452 0.10749,-1.20669 -0.39661,-1.50326 -0.17676,-0.104 -0.39851,-0.13852 -0.39851,-0.13852 0,0 -0.45379,0.60503 -0.83412,0.0681 -0.6183,0.24107 -0.72319,0.46171 -0.80117,1.08893 0.0797,0.11823 0.39972,0.16937 0.55197,0.1388 0.028,0.22854 0.32892,1.35679 0.38246,1.63982 z"
           id="path22555-8-5-0-6-5-6-2-6-1-4-3"
           sodipodi:nodetypes="ccsscsccscccccc" /><path
           id="path22557-5-1-64-3-1-2-4-8-85-8-3"
           style="fill:url(#linearGradient5144);fill-opacity:1;stroke:none;stroke-width:3.96499;stroke-miterlimit:12.9"
           d="m 443.53522,116.68533 -0.0517,0.67349 -0.25115,0.2744 -0.0205,0.71655 c -0.28789,0.48777 -0.27308,0.75557 -0.43718,1.03818 -0.0733,0.0626 0.0158,0.27822 0.20598,0.22014 0.0164,-0.005 0.44841,-0.50837 0.69985,-1.12002 0.18702,-0.45495 0.15884,-0.96479 0.2621,-1.47082 -0.0388,-0.13748 -0.0697,-0.18289 -0.10366,-0.23333 -0.10344,-0.0815 -0.19557,0.022 -0.30987,-0.0417 z"
           sodipodi:nodetypes="cccccsscccc" /><path
           style="fill:url(#linearGradient5145);fill-opacity:1;stroke:none;stroke-width:3.96499;stroke-miterlimit:12.9"
           d="m 443.20902,117.67683 c 0,0 0.26776,0.1387 0.67586,0 0.0695,-0.1899 0.0695,-0.47201 0.0695,-0.47201 -0.004,-0.45283 -0.1009,-0.48523 -0.42109,-0.5197 -0.22479,-0.007 -0.39105,0.13937 -0.40524,0.32105 -6.9e-4,0.31545 0.002,0.41953 0.081,0.67066 z"
           id="path22559-9-7-09-9-29-9-5-8-4-12-50"
           sodipodi:nodetypes="ccccccc" /><path
           style="fill:url(#linearGradient230);fill-opacity:1;stroke-width:0.312552"
           d="m 441.87316,119.25496 c 0,0 0.0514,0.0277 0.0913,0.0305 0.0801,-0.004 0.15139,-0.0118 0.25543,-0.0602 0.0317,-0.0148 0.0555,-0.0855 0.0563,-0.13206 0.003,-0.0569 -0.19757,0.0461 -0.24203,0.0674 -0.0821,0.0393 -0.16096,0.0944 -0.16096,0.0944 z"
           id="path45625-5-13-5-87-2-3-8-3-8-14"
           sodipodi:nodetypes="ccscscc" /><path
           style="fill:url(#linearGradient5146);fill-opacity:1;stroke:none;stroke-width:1;stroke-miterlimit:13.8"
           d="m 441.90986,115.86687 c 0,0 0.056,0.07 0.24217,-0.16974 0.25067,-0.22534 -0.0688,-0.0321 -0.0688,-0.0321 l -0.15433,0.083 -0.0345,0.0705 z"
           id="path2640-6-8-1-1-5-6-5"
           sodipodi:nodetypes="cccccc" /><path
           style="fill:url(#linearGradient5166);fill-opacity:1;stroke:none;stroke-width:1;stroke-miterlimit:13.8"
           d="m 442.61318,116.56353 c 0.15641,-0.0106 0.56705,-0.10747 0.60021,-0.46936 0.012,-0.1316 0.0162,-0.14177 0.0283,-0.25602 0.0255,-0.23871 -0.0311,-0.41937 -0.0311,-0.41937 l -1.09953,0.14935 0.0421,0.31386 c 0.0178,0.13947 0.19828,0.70905 0.46001,0.68183 z"
           id="path2638-5-9-2-8-6-8-7"
           sodipodi:nodetypes="cssccccc" /><path
           style="fill:url(#linearGradient5175);fill-opacity:1;stroke-width:0.0381963"
           d="m 442.11111,115.56777 c 0,0 -0.0288,-0.26493 0.0115,-0.38065 0.0696,-0.19984 0.27081,-0.32078 0.52083,-0.36289 0.14711,-0.0147 0.27587,-0.006 0.42461,0.12812 0.14871,0.13452 0.16333,0.30234 0.16333,0.30234 l 0.0236,0.22413 c -0.10632,0.0691 -0.20598,0.0644 -0.27859,0.0597 -0.11147,0.0154 -0.6628,-0.0515 -0.6628,-0.0515 z"
           id="path11206-13-6-2-7-5-1-0-07"
           sodipodi:nodetypes="cscsccccc" /><path
           style="fill:url(#linearGradient5176);fill-opacity:1;stroke-width:0.0381963"
           d="m 442.1091,115.56811 c 0,0 -0.10037,0.0985 -0.14869,0.14939 -0.0188,0.019 -0.0994,0.0781 -0.0505,0.14938 -0.009,-0.0304 -0.0247,-0.13239 0.20139,-0.1497 0.0393,-6.6e-4 0.17603,0.0467 0.31014,0.0861 0.0221,0.007 0.15056,0.0541 0.21484,0.0326 0.19993,-0.0663 0.30493,-0.21723 0.3446,-0.29747 -0.13329,-0.0156 -0.36486,-0.0436 -0.52768,-0.0624 -0.1691,-0.0197 -0.25355,0.005 -0.34396,0.0919 z"
           id="path11208-7-3-8-0-97-1-2-89"
           sodipodi:nodetypes="ccccsscsc" /><path
           style="opacity:0.328216;fill:url(#linearGradient5177);fill-opacity:1;stroke:none;stroke-width:0.00499999;stroke-miterlimit:13.8;stroke-dasharray:none;stroke-opacity:1"
           d="m 442.55838,119.37041 c -0.0141,-0.083 -0.0527,-0.22935 -0.0789,-0.34403 l -0.0825,-0.33973 c -0.061,-0.2336 -0.0841,-0.34561 -0.1564,-0.62975 -0.0219,-0.0963 -0.0299,-0.13658 -0.0447,-0.20683 l -0.0201,-0.1196 c 0,0 -0.0155,-0.36011 0.17091,-0.43506 0.23423,-0.0942 0.58545,2.05891 0.58545,2.05891 l -0.21053,0.0746 -0.063,-0.0356 c -0.0744,0.009 -0.0986,-0.004 -0.10029,-0.0229 z"
           id="path2988-1-93"
           sodipodi:nodetypes="ccccccsccccc" /><path
           style="opacity:0.489441;fill:url(#linearGradient5204);fill-opacity:1;stroke:none;stroke-width:0.00499999;stroke-miterlimit:13.8;stroke-dasharray:none;stroke-opacity:1"
           d="m 443.21177,118.34977 c 0,0 0.14683,-0.008 0.29556,0.0301 0.13954,0.0362 0.23571,-0.66412 0.23571,-0.66412 l -0.23675,0.0227 -0.18764,-0.0242 -0.0847,-0.0266 -0.0222,0.66202 z"
           id="path2995-0-9"
           sodipodi:nodetypes="cscccccc" /><path
           style="opacity:0.419545;fill:url(#linearGradient5206);stroke:none;stroke-width:0.00499999;stroke-miterlimit:13.8;stroke-dasharray:none;stroke-opacity:1"
           d="m 442.79781,120.94038 c 0,0 0.0146,-0.17821 0.34562,-0.9752 0.0777,-0.18714 0.27542,-0.11993 0.27542,-0.11993 l -0.24,1.29961 c 0,0 -0.11128,-0.0195 -0.17865,-0.0467 -0.0674,-0.0272 -0.0915,-0.0366 -0.11547,-0.0525 -0.024,-0.0159 -0.0943,-0.0513 -0.0869,-0.10524 z"
           id="path3017-1-4"
           sodipodi:nodetypes="csccsssc" /><path
           style="fill:url(#linearGradient5210);fill-opacity:1;stroke-width:0.106213;stroke-linecap:square;stroke-miterlimit:63.1"
           d="m 442.57482,123.01291 c 0,0 -0.0338,0.0732 -0.0148,0.13944 0.0151,0.0468 0.11273,0.10437 0.11273,0.10437 0,0 0.0237,0.0259 0.10223,0.0326 0.0782,0.007 0.32551,-0.20864 0.36586,-0.24721 0.0401,-0.0384 0.11664,-0.10645 0.13266,-0.12899 0.0158,-0.0223 0.0589,-0.093 -0.0136,-0.28054 -0.0465,-0.1202 -0.42298,0.26928 -0.42298,0.26928 z"
           id="path3148-8-2-3-64"
           sodipodi:nodetypes="ccccscscc" /><path
           style="opacity:0.411647;fill:url(#linearGradient5212);fill-opacity:1;stroke:none;stroke-width:0;stroke-linecap:square;stroke-miterlimit:63.1"
           d="m 442.66054,120.98758 c -0.0262,0.0503 -0.10738,0.20644 -0.10738,0.20644 0.12626,0.21811 0.0377,0.0821 0.21288,0.45728 l 0.13367,0.2865 c 0,0 0.26179,0.49139 0.32671,0.61221 0.0651,0.1211 -0.32671,0.18079 -0.32671,0.18079 l -0.0354,-0.0987 -0.72175,-1.46378 0.13031,-0.27621 c 0,0 0.16667,0.0693 0.38767,0.0955 z"
           id="path3633-5"
           sodipodi:nodetypes="ccscsccccc" /><path
           id="path22517-4-81-45-3-73-7-3-1-3-7-2-5-9-7-5"
           style="fill:url(#linearGradient5214);fill-opacity:1;stroke-width:0.515593"
           d="m 443.22587,122.54669 c -0.10712,0.12707 -0.24336,0.16102 -0.36192,0.0851 0,0 -0.24013,0.27792 -0.28901,0.38156 -0.0615,0.13043 0.1715,0.20836 0.1715,0.20836 0.0852,0.037 0.23539,-0.11546 0.36501,-0.23599 0.0948,-0.0871 0.21178,-0.16093 0.14806,-0.35301 -0.008,-0.0265 -0.024,-0.06 -0.0334,-0.0858 z"
           sodipodi:nodetypes="cccccccc" /><path
           style="fill:url(#linearGradient5217);fill-opacity:1;stroke-width:0.106213;stroke-linecap:square;stroke-miterlimit:63.1"
           d="m 443.31503,123.00636 c 0,0 -0.0315,0.0742 -0.0104,0.13984 0.0166,0.0463 0.11596,0.10078 0.11596,0.10078 0,0 0.032,0.0254 0.11072,0.0296 0.0784,0.005 0.31128,-0.21907 0.35039,-0.25889 0.0389,-0.0396 0.11324,-0.11006 0.12855,-0.1331 0.0151,-0.0228 0.0559,-0.0948 -0.0224,-0.27997 -0.0503,-0.11868 -0.41431,0.28243 -0.41431,0.28243 z"
           id="path2339-56"
           sodipodi:nodetypes="ccccscscc" /><path
           id="path2340-0"
           style="fill:url(#linearGradient5223);fill-opacity:1;stroke-width:0.515593"
           d="m 443.95111,122.51992 c -0.10308,0.13037 -0.23616,0.1664 -0.35704,0.0943 0,0 -0.23331,0.28751 -0.27891,0.39264 -0.0574,0.1323 0.17796,0.20287 0.17796,0.20287 0.0863,0.0343 0.23165,-0.1228 0.35742,-0.24734 0.092,-0.09 0.20662,-0.16751 0.1369,-0.35749 -0.009,-0.0262 -0.0259,-0.0592 -0.0361,-0.0847 z"
           sodipodi:nodetypes="cccccccc" /><path
           id="path1212-2-94-6-4-9-62"
           style="fill:url(#linearGradient5224);fill-opacity:1;stroke:none;stroke-width:3.72601;stroke-miterlimit:12.9"
           d="m 443.17651,119.3627 -0.31303,-0.16911 c -0.0539,0.11374 -0.0867,0.17778 -0.0867,0.17778 -0.0431,0.10759 -0.14209,0.10566 -0.19072,0.12361 -0.0283,0.0104 -0.0497,0.0147 -0.0978,0.032 -0.0425,0.0179 -0.0462,0.052 -0.0385,0.073 0.0171,0.0541 0.0637,0.0367 0.0989,0.0541 0,0 -0.0711,0.0833 -0.10295,0.16077 -0.0287,0.0857 -0.006,0.134 0.15731,0.22612 0.13536,0.0766 0.37108,-0.43315 0.42857,-0.4961 0.0482,-0.0528 0.0961,-0.11456 0.14474,-0.1817 z"
           sodipodi:nodetypes="cccscccccscc" /><path
           id="path4000-6"
           style="fill:url(#linearGradient5225);fill-opacity:1;stroke:none;stroke-width:3.72601;stroke-miterlimit:12.9"
           d="m 443.17651,119.3627 -0.31303,-0.16911 c -0.0539,0.11374 -0.0867,0.17778 -0.0867,0.17778 -0.0431,0.10759 -0.13763,0.14247 -0.18626,0.16042 -0.0283,0.0104 -0.0534,0.0233 -0.10322,0.0315 -0.0259,9.4e-4 -0.0453,0.0154 -0.0376,0.0364 0.0171,0.0461 0.0638,0.037 0.0991,0.0544 0,0 -0.0711,0.0833 -0.10295,0.16077 -0.0287,0.0857 -0.006,0.134 0.15731,0.22612 0.13536,0.0766 0.37108,-0.43315 0.42857,-0.4961 0.0482,-0.0528 0.0961,-0.11456 0.14474,-0.1817 z"
           sodipodi:nodetypes="cccscccccscc" /><path
           style="fill:url(#linearGradient5236);fill-opacity:1;stroke:#000000;stroke-width:0;stroke-linecap:square;stroke-miterlimit:63.1;stroke-dasharray:none;stroke-opacity:1"
           d="m 443.15323,115.73848 c 0,0 0.11785,-0.15041 0.16022,-0.0332 0.0617,0.17056 -0.14765,0.33961 -0.14765,0.33961"
           id="path4556-0-4-5-7-9"
           sodipodi:nodetypes="csc" /><path
           style="opacity:0.553128;fill:url(#linearGradient5240);fill-opacity:1;stroke:none;stroke-width:0.00499999;stroke-miterlimit:13.8;stroke-dasharray:none;stroke-opacity:1"
           d="m 442.05429,118.16996 c 0,0 -0.12476,-0.0174 -0.25307,0.003 -0.013,-0.21794 0.0739,-0.45651 0.0739,-0.45651 0,0 0.14083,0.0358 0.30076,0.0141 -0.0255,0.2204 -0.12158,0.43941 -0.12158,0.43941 z"
           id="path3004-5-2"
           sodipodi:nodetypes="ccccc" /><path
           style="opacity:0.75;fill:url(#linearGradient5254);fill-opacity:1;stroke:none;stroke-width:0;stroke-linecap:square;stroke-miterlimit:63.1"
           d="m 443.82808,117.88904 c 0,0 -0.0272,0.24235 -0.10001,0.46852 -0.10846,0.33702 -0.35396,0.71872 -0.35396,0.71872 l -0.30038,-0.16326 0.45164,-1.05822 z"
           id="path3993-9"
           sodipodi:nodetypes="cscccc" /><path
           style="fill:#f48b5f;fill-opacity:1;stroke:none;stroke-width:0.3;stroke-linecap:square;stroke-miterlimit:63.1;stroke-dasharray:none"
           d="m 441.78604,119.03141 c 0,0 0.007,0.11301 0.0208,0.15248 0.0131,0.0395 0.0444,0.052 0.0664,0.0388 0.0267,-0.0161 0.032,-0.0332 0.0353,-0.0826 0.002,-0.0268 7.7e-4,-0.0542 0.003,-0.0789 0.0161,-0.21194 -0.12456,-0.0298 -0.12456,-0.0298 z"
           id="path3631-65"
           sodipodi:nodetypes="ccssscc" /></g><path
         style="fill:none;fill-opacity:0.631373;stroke:#ff8f00;stroke-width:0.203036;stroke-linecap:square;stroke-miterlimit:63.1;stroke-dasharray:none;stroke-opacity:1;marker-start:url(#marker36-06-0);marker-end:url(#Triangle-3-8-1-8-2-8)"
         id="path42-5-7"
         sodipodi:type="arc"
         sodipodi:cx="388.44196"
         sodipodi:cy="-138.9014"
         sodipodi:rx="0.64999586"
         sodipodi:ry="0.51932919"
         sodipodi:start="6.0225798"
         sodipodi:end="1.3218774"
         sodipodi:arc-type="arc"
         d="m 389.07,-139.03521 a 0.64999586,0.51932919 0 0 1 -0.0674,0.39664 0.64999586,0.51932919 0 0 1 -0.40048,0.2405"
         transform="matrix(0.84887866,0.52858776,-0.70908493,0.70512308,0,0)"
         sodipodi:open="true" /></g></g></svg>
