<?xml version="1.0" encoding="UTF-8" standalone="no"?>
<!-- Created with Inkscape (http://www.inkscape.org/) -->

<svg
   width="6.2346487"
   height="8.6219568"
   viewBox="0 0 0 0"
   version="1.1"
   id="svg5"
   xml:space="preserve"
   inkscape:version="1.4 (unknown)"
   sodipodi:docname="crah-tricks-17-07-2025-1.svg"
   inkscape:export-batch-path="full/svgs/svgs"
   inkscape:export-batch-name=""
   xmlns:inkscape="http://www.inkscape.org/namespaces/inkscape"
   xmlns:sodipodi="http://sodipodi.sourceforge.net/DTD/sodipodi-0.dtd"
   xmlns:xlink="http://www.w3.org/1999/xlink"
   xmlns="http://www.w3.org/2000/svg"
   xmlns:svg="http://www.w3.org/2000/svg"><sodipodi:namedview
     id="namedview7"
     pagecolor="#ffffff"
     bordercolor="#000000"
     borderopacity="0.25"
     inkscape:showpageshadow="2"
     inkscape:pageopacity="0.0"
     inkscape:pagecheckerboard="0"
     inkscape:deskcolor="#d1d1d1"
     inkscape:document-units="mm"
     showgrid="false"
     inkscape:zoom="2.828427"
     inkscape:cx="130.28443"
     inkscape:cy="45.961943"
     inkscape:window-width="1918"
     inkscape:window-height="1061"
     inkscape:window-x="0"
     inkscape:window-y="17"
     inkscape:window-maximized="1"
     inkscape:current-layer="layer1"
     showguides="true"
     inkscape:export-bgcolor="#ffffff00"><inkscape:page
       x="0"
       y="0"
       width="6.2346487"
       height="8.6219568"
       id="page1"
       margin="0"
       bleed="0" /></sodipodi:namedview><defs
     id="defs2"><marker
       style="overflow:visible"
       id="marker36"
       refX="9"
       refY="0"
       orient="auto"
       inkscape:stockid="Square"
       markerWidth="0.2"
       markerHeight="0.2"
       viewBox="0 0 1 1"
       inkscape:isstock="true"
       inkscape:collect="always"
       preserveAspectRatio="xMidYMid"><path
         transform="scale(0.5)"
         style="fill:context-stroke;fill-rule:evenodd;stroke:none"
         d="M -5,-5 V 5 H 5 V -5 Z"
         id="path36" /></marker><linearGradient
       id="linearGradient4571"
       inkscape:collect="always"><stop
         style="stop-color:#f40000;stop-opacity:1;"
         offset="0"
         id="stop4571" /><stop
         style="stop-color:#ff0000;stop-opacity:0;"
         offset="1"
         id="stop4572" /></linearGradient><linearGradient
       id="linearGradient4569"
       inkscape:collect="always"><stop
         style="stop-color:#f40000;stop-opacity:1;"
         offset="0"
         id="stop4569" /><stop
         style="stop-color:#ff0000;stop-opacity:0;"
         offset="1"
         id="stop4570" /></linearGradient><linearGradient
       id="linearGradient4552"
       inkscape:collect="always"><stop
         style="stop-color:#ee2900;stop-opacity:1;"
         offset="0"
         id="stop4552" /><stop
         style="stop-color:#f47547;stop-opacity:0;"
         offset="1"
         id="stop4553" /></linearGradient><linearGradient
       id="linearGradient3058"
       inkscape:collect="always"><stop
         style="stop-color:#161616;stop-opacity:1;"
         offset="0"
         id="stop3030" /><stop
         style="stop-color:#f0ffff;stop-opacity:0;"
         offset="1"
         id="stop3031" /></linearGradient><linearGradient
       id="linearGradient3030"
       inkscape:collect="always"><stop
         style="stop-color:#ffffff;stop-opacity:1;"
         offset="0"
         id="stop3027" /><stop
         style="stop-color:#161616;stop-opacity:0;"
         offset="1"
         id="stop3028" /></linearGradient><linearGradient
       inkscape:collect="always"
       id="linearGradient2778"><stop
         style="stop-color:#f4b6a3;stop-opacity:1;"
         offset="0"
         id="stop2777" /><stop
         style="stop-color:#f46f40;stop-opacity:1;"
         offset="1"
         id="stop2778" /></linearGradient><linearGradient
       inkscape:collect="always"
       id="linearGradient2776"><stop
         style="stop-color:#f4b6a3;stop-opacity:1;"
         offset="0"
         id="stop2775" /><stop
         style="stop-color:#f46f40;stop-opacity:1;"
         offset="1"
         id="stop2776" /></linearGradient><linearGradient
       inkscape:collect="always"
       id="linearGradient2835"><stop
         style="stop-color:#f4a77e;stop-opacity:1;"
         offset="0"
         id="stop2834" /><stop
         style="stop-color:#f46f40;stop-opacity:0.38932818;"
         offset="1"
         id="stop2835" /></linearGradient><linearGradient
       inkscape:collect="always"
       id="linearGradient2756"><stop
         style="stop-color:#e3ba92;stop-opacity:1;"
         offset="0"
         id="stop2757" /><stop
         style="stop-color:#f4a77e;stop-opacity:1;"
         offset="0.28905624"
         id="stop2755" /><stop
         style="stop-color:#f46f40;stop-opacity:1;"
         offset="1"
         id="stop2756" /></linearGradient><linearGradient
       inkscape:collect="always"
       id="linearGradient2754"><stop
         style="stop-color:#f46f40;stop-opacity:1;"
         offset="0"
         id="stop2754" /><stop
         style="stop-color:#f4a77e;stop-opacity:0;"
         offset="1"
         id="stop2753" /></linearGradient><linearGradient
       id="linearGradient2746"
       inkscape:collect="always"><stop
         style="stop-color:#0b0b0b;stop-opacity:1;"
         offset="0"
         id="stop2746" /><stop
         style="stop-color:#0b0b0b;stop-opacity:0;"
         offset="1"
         id="stop2747" /></linearGradient><linearGradient
       id="linearGradient2743"
       inkscape:collect="always"><stop
         style="stop-color:#505050;stop-opacity:1;"
         offset="0"
         id="stop2742" /><stop
         style="stop-color:#1c1c1c;stop-opacity:0;"
         offset="1"
         id="stop2743" /></linearGradient><linearGradient
       inkscape:collect="always"
       id="linearGradient2740"><stop
         style="stop-color:#000000;stop-opacity:1;"
         offset="0"
         id="stop2739" /><stop
         style="stop-color:#1e1e1e;stop-opacity:1;"
         offset="0.62543583"
         id="stop2741" /><stop
         style="stop-color:#505050;stop-opacity:1;"
         offset="1"
         id="stop2740" /></linearGradient><linearGradient
       inkscape:collect="always"
       id="linearGradient2657"><stop
         style="stop-color:#000000;stop-opacity:1;"
         offset="0"
         id="stop2656" /><stop
         style="stop-color:#202020;stop-opacity:1;"
         offset="0.72609508"
         id="stop2658" /><stop
         style="stop-color:#2f2f2f;stop-opacity:1;"
         offset="1"
         id="stop2657" /></linearGradient><linearGradient
       id="linearGradient2641"
       inkscape:collect="always"><stop
         style="stop-color:#fc0e00;stop-opacity:1;"
         offset="0"
         id="stop2641" /><stop
         style="stop-color:#000e00;stop-opacity:1;"
         offset="1"
         id="stop2642" /></linearGradient><linearGradient
       id="linearGradient160"
       inkscape:collect="always"><stop
         style="stop-color:#000000;stop-opacity:1;"
         offset="0"
         id="stop160" /><stop
         style="stop-color:#2f2f2f;stop-opacity:1;"
         offset="1"
         id="stop161" /></linearGradient><linearGradient
       inkscape:collect="always"
       id="linearGradient63493"><stop
         style="stop-color:#969696;stop-opacity:1;"
         offset="0"
         id="stop63489" /><stop
         style="stop-color:#c8c8c8;stop-opacity:1;"
         offset="1"
         id="stop63491" /></linearGradient><linearGradient
       inkscape:collect="always"
       id="linearGradient62413"><stop
         style="stop-color:#000000;stop-opacity:1;"
         offset="0"
         id="stop62409" /><stop
         style="stop-color:#2f2f2f;stop-opacity:1;"
         offset="1"
         id="stop62411" /></linearGradient><linearGradient
       inkscape:collect="always"
       id="linearGradient60576"><stop
         style="stop-color:#fc0000;stop-opacity:1;"
         offset="0"
         id="stop60572" /><stop
         style="stop-color:#fc6a00;stop-opacity:1;"
         offset="1"
         id="stop60574" /></linearGradient><linearGradient
       inkscape:collect="always"
       id="linearGradient59671"><stop
         style="stop-color:#f50000;stop-opacity:1;"
         offset="0"
         id="stop59667" /><stop
         style="stop-color:#fc6a00;stop-opacity:1;"
         offset="1"
         id="stop59669" /></linearGradient><linearGradient
       inkscape:collect="always"
       id="linearGradient55583"><stop
         style="stop-color:#f4a77e;stop-opacity:1;"
         offset="0"
         id="stop55579" /><stop
         style="stop-color:#f46f40;stop-opacity:1;"
         offset="1"
         id="stop55581" /></linearGradient><linearGradient
       inkscape:collect="always"
       id="linearGradient55368"><stop
         style="stop-color:#f4a77e;stop-opacity:1;"
         offset="0"
         id="stop55364" /><stop
         style="stop-color:#f46f40;stop-opacity:1;"
         offset="1"
         id="stop55366" /></linearGradient><linearGradient
       inkscape:collect="always"
       id="linearGradient50523"><stop
         style="stop-color:#fc0000;stop-opacity:1;"
         offset="0"
         id="stop50519" /><stop
         style="stop-color:#fc6a00;stop-opacity:1;"
         offset="1"
         id="stop50521" /></linearGradient><linearGradient
       inkscape:collect="always"
       id="linearGradient49756"><stop
         style="stop-color:#f50000;stop-opacity:1;"
         offset="0"
         id="stop49752" /><stop
         style="stop-color:#ff4f00;stop-opacity:1;"
         offset="1"
         id="stop49754" /></linearGradient><linearGradient
       id="linearGradient45844"
       inkscape:swatch="solid"><stop
         style="stop-color:#000000;stop-opacity:1;"
         offset="0"
         id="stop45842" /></linearGradient><radialGradient
       inkscape:collect="always"
       xlink:href="#linearGradient2754"
       id="radialGradient2752-4-5-9"
       cx="-20.484138"
       cy="117.14766"
       fx="-20.484138"
       fy="117.14766"
       r="0.232544"
       gradientTransform="matrix(1.9012003,-0.20881958,0.48367797,4.4036495,296.12734,-414.69086)"
       gradientUnits="userSpaceOnUse" /><linearGradient
       inkscape:collect="always"
       xlink:href="#linearGradient2756"
       id="linearGradient3239"
       gradientUnits="userSpaceOnUse"
       gradientTransform="translate(333.97279,-12.093855)"
       x1="-20.486498"
       y1="117.80981"
       x2="-20.184708"
       y2="117.81808" /><linearGradient
       inkscape:collect="always"
       xlink:href="#linearGradient55583"
       id="linearGradient3240"
       gradientUnits="userSpaceOnUse"
       gradientTransform="translate(333.97279,-12.093855)"
       x1="-20.539112"
       y1="117.78114"
       x2="-20.496557"
       y2="117.06794" /><linearGradient
       inkscape:collect="always"
       xlink:href="#linearGradient2776"
       id="linearGradient3241"
       gradientUnits="userSpaceOnUse"
       gradientTransform="translate(352.85106,-12.091455)"
       x1="-39.306602"
       y1="121.70846"
       x2="-39.074844"
       y2="121.56022" /><linearGradient
       inkscape:collect="always"
       xlink:href="#linearGradient2778"
       id="linearGradient3242"
       gradientUnits="userSpaceOnUse"
       gradientTransform="translate(352.85106,-12.091455)"
       x1="-38.275257"
       y1="121.89077"
       x2="-38.068352"
       y2="121.74503" /><linearGradient
       inkscape:collect="always"
       xlink:href="#linearGradient4569"
       id="linearGradient3243"
       gradientUnits="userSpaceOnUse"
       gradientTransform="translate(327.52638,-115.87111)"
       x1="-12.153441"
       y1="225.65375"
       x2="-12.335769"
       y2="225.79037" /><linearGradient
       inkscape:collect="always"
       xlink:href="#linearGradient4571"
       id="linearGradient3244"
       gradientUnits="userSpaceOnUse"
       gradientTransform="translate(327.52638,-115.87111)"
       x1="-13.374496"
       y1="225.28502"
       x2="-13.583268"
       y2="225.41939" /><linearGradient
       inkscape:collect="always"
       xlink:href="#linearGradient2657"
       id="linearGradient3245"
       gradientUnits="userSpaceOnUse"
       gradientTransform="translate(333.96214,-12.085585)"
       x1="-19.290302"
       y1="120.03522"
       x2="-18.265491"
       y2="120.33975" /><linearGradient
       inkscape:collect="always"
       xlink:href="#linearGradient3030"
       id="linearGradient3246"
       gradientUnits="userSpaceOnUse"
       gradientTransform="translate(352.85606,-12.112795)"
       x1="-39.544285"
       y1="119.58385"
       x2="-38.797783"
       y2="120.17677" /><linearGradient
       inkscape:collect="always"
       xlink:href="#linearGradient4552"
       id="linearGradient3247"
       gradientUnits="userSpaceOnUse"
       gradientTransform="translate(351.52738,-115.86351)"
       x1="-37.009624"
       y1="220.34955"
       x2="-36.449451"
       y2="220.25861" /><linearGradient
       inkscape:collect="always"
       xlink:href="#linearGradient2835"
       id="linearGradient3248"
       gradientUnits="userSpaceOnUse"
       gradientTransform="translate(334.52872,-11.586465)"
       x1="-21.267405"
       y1="118.07872"
       x2="-20.70582"
       y2="117.49331" /><linearGradient
       inkscape:collect="always"
       xlink:href="#linearGradient4552"
       id="linearGradient3249"
       gradientUnits="userSpaceOnUse"
       gradientTransform="translate(327.52638,-115.87111)"
       x1="-13.552262"
       y1="221.88678"
       x2="-13.746902"
       y2="221.87201" /><linearGradient
       inkscape:collect="always"
       xlink:href="#linearGradient4552"
       id="linearGradient3250"
       gradientUnits="userSpaceOnUse"
       gradientTransform="translate(327.52638,-115.87111)"
       x1="-13.878105"
       y1="221.54195"
       x2="-13.878359"
       y2="221.33093" /><linearGradient
       inkscape:collect="always"
       xlink:href="#linearGradient2740"
       id="linearGradient3251"
       gradientUnits="userSpaceOnUse"
       gradientTransform="translate(333.97279,-12.093855)"
       x1="-19.831745"
       y1="118.12126"
       x2="-18.187067"
       y2="118.10828" /><linearGradient
       inkscape:collect="always"
       xlink:href="#linearGradient2743"
       id="linearGradient3252"
       gradientUnits="userSpaceOnUse"
       gradientTransform="translate(352.86727,-11.585335)"
       x1="-39.043865"
       y1="118.32381"
       x2="-38.54232"
       y2="118.29487" /><linearGradient
       inkscape:collect="always"
       xlink:href="#linearGradient2641"
       id="linearGradient3253"
       gradientUnits="userSpaceOnUse"
       gradientTransform="translate(352.87054,-12.147695)"
       x1="-39.021812"
       y1="115.69682"
       x2="-38.641582"
       y2="115.69682" /><linearGradient
       inkscape:collect="always"
       xlink:href="#linearGradient55368"
       id="linearGradient3254"
       gradientUnits="userSpaceOnUse"
       gradientTransform="translate(352.87054,-12.147695)"
       x1="-37.926971"
       y1="115.69682"
       x2="-38.32169"
       y2="116.58891" /><linearGradient
       inkscape:collect="always"
       xlink:href="#linearGradient49756"
       id="linearGradient3255"
       gradientUnits="userSpaceOnUse"
       gradientTransform="translate(333.98162,-12.141825)"
       x1="-19.885185"
       y1="115.24645"
       x2="-18.733461"
       y2="115.24645" /><linearGradient
       inkscape:collect="always"
       xlink:href="#linearGradient50523"
       id="linearGradient3256"
       gradientUnits="userSpaceOnUse"
       gradientTransform="translate(333.98162,-12.141825)"
       x1="-20.133801"
       y1="115.66431"
       x2="-19.019243"
       y2="115.66431" /><linearGradient
       inkscape:collect="always"
       xlink:href="#linearGradient3058"
       id="linearGradient3257"
       gradientUnits="userSpaceOnUse"
       gradientTransform="translate(352.85106,-12.091455)"
       x1="-38.830723"
       y1="120.17366"
       x2="-38.026802"
       y2="120.51946" /><linearGradient
       inkscape:collect="always"
       xlink:href="#linearGradient2746"
       id="linearGradient3258"
       gradientUnits="userSpaceOnUse"
       gradientTransform="translate(334.55503,-11.662465)"
       x1="-19.464857"
       y1="118.06169"
       x2="-18.56588"
       y2="118.06442" /><linearGradient
       inkscape:collect="always"
       xlink:href="#linearGradient62413"
       id="linearGradient3259"
       gradientUnits="userSpaceOnUse"
       gradientTransform="matrix(1.7498609,0,0,1.7498609,35.856379,-15.557324)"
       x1="-33.373997"
       y1="72.139824"
       x2="-33.552532"
       y2="71.913887" /><linearGradient
       inkscape:collect="always"
       xlink:href="#linearGradient63493"
       id="linearGradient3260"
       gradientUnits="userSpaceOnUse"
       gradientTransform="matrix(1.7433748,0.15052372,-0.15052372,1.7433748,36.408541,-14.337325)"
       x1="-28.708323"
       y1="73.012466"
       x2="-28.767878"
       y2="72.931" /><linearGradient
       inkscape:collect="always"
       xlink:href="#linearGradient63493"
       id="linearGradient3261"
       gradientUnits="userSpaceOnUse"
       gradientTransform="matrix(1.7433748,0.15052372,-0.15052372,1.7433748,36.408541,-14.337325)"
       x1="-29.380884"
       y1="73.492561"
       x2="-29.4739"
       y2="73.423378" /><linearGradient
       inkscape:collect="always"
       xlink:href="#linearGradient59671"
       id="linearGradient3262"
       gradientUnits="userSpaceOnUse"
       gradientTransform="matrix(0.95374863,0,0,0.95374863,-3.501077,-4.8911155)"
       x1="-20.562817"
       y1="119.27399"
       x2="-20.431948"
       y2="119.2047" /><linearGradient
       inkscape:collect="always"
       xlink:href="#linearGradient60576"
       id="linearGradient3263"
       gradientUnits="userSpaceOnUse"
       gradientTransform="matrix(0.95374863,0,0,0.95374863,-3.501077,-4.8911155)"
       x1="-21.713905"
       y1="117.4888"
       x2="-21.577248"
       y2="117.39193" /><linearGradient
       inkscape:collect="always"
       xlink:href="#linearGradient63493"
       id="linearGradient3264"
       gradientUnits="userSpaceOnUse"
       gradientTransform="matrix(1.7433748,0.15052372,-0.15052372,1.7433748,36.408541,-14.337325)"
       x1="-29.219244"
       y1="74.312157"
       x2="-29.094452"
       y2="74.242691" /><linearGradient
       inkscape:collect="always"
       xlink:href="#linearGradient63493"
       id="linearGradient3265"
       gradientUnits="userSpaceOnUse"
       gradientTransform="matrix(1.7433748,0.15052372,-0.15052372,1.7433748,36.408541,-14.337325)"
       x1="-29.4107"
       y1="73.519753"
       x2="-29.476501"
       y2="73.425255" /><linearGradient
       inkscape:collect="always"
       xlink:href="#linearGradient62413"
       id="linearGradient3266"
       gradientUnits="userSpaceOnUse"
       gradientTransform="matrix(0.95374863,0,0,0.95374863,-3.501077,-4.8911155)"
       x1="-23.137465"
       y1="119.68005"
       x2="-23.297972"
       y2="119.46304" /><linearGradient
       inkscape:collect="always"
       xlink:href="#linearGradient62413"
       id="linearGradient3267"
       gradientUnits="userSpaceOnUse"
       gradientTransform="translate(15.608058,-10.835736)"
       x1="-36.488045"
       y1="123.74089"
       x2="-36.801411"
       y2="123.34343" /><linearGradient
       inkscape:collect="always"
       xlink:href="#linearGradient63493"
       id="linearGradient3268"
       gradientUnits="userSpaceOnUse"
       gradientTransform="matrix(1.7433748,0.15052372,-0.15052372,1.7433748,36.408541,-14.337325)"
       x1="-29.219244"
       y1="74.312157"
       x2="-29.094452"
       y2="74.242691" /><linearGradient
       inkscape:collect="always"
       xlink:href="#linearGradient55583"
       id="linearGradient3269"
       gradientUnits="userSpaceOnUse"
       gradientTransform="translate(334.55503,-11.662465)"
       x1="-22.262285"
       y1="116.97888"
       x2="-22.370329"
       y2="117.09111" /><linearGradient
       inkscape:collect="always"
       xlink:href="#linearGradient160"
       id="linearGradient3270"
       gradientUnits="userSpaceOnUse"
       gradientTransform="matrix(0.96750026,0.1643488,-0.1643488,0.96750026,188.20758,-135.73184)"
       x1="169.96648"
       y1="226.18936"
       x2="169.76874"
       y2="226.13625" /><linearGradient
       inkscape:collect="always"
       xlink:href="#linearGradient160"
       id="linearGradient3271"
       gradientUnits="userSpaceOnUse"
       gradientTransform="matrix(0.98074511,-0.03473078,0.03473078,0.98074511,329.18903,-10.457595)"
       x1="-18.346022"
       y1="123.23349"
       x2="-18.528927"
       y2="123.14149" /><linearGradient
       inkscape:collect="always"
       xlink:href="#linearGradient160"
       id="linearGradient3272"
       gradientUnits="userSpaceOnUse"
       gradientTransform="matrix(0.95787378,0.06860702,-0.06860702,0.95787378,167.06134,-117.64534)"
       x1="169.99321"
       y1="226.20705"
       x2="169.78809"
       y2="226.12968" /><linearGradient
       inkscape:collect="always"
       xlink:href="#linearGradient160"
       id="linearGradient3273"
       gradientUnits="userSpaceOnUse"
       gradientTransform="matrix(0.95195324,-0.12654678,0.12654678,0.95195324,316.21934,-8.9577054)"
       x1="-18.323399"
       y1="123.2562"
       x2="-18.508621"
       y2="123.13894" /><linearGradient
       inkscape:collect="always"
       xlink:href="#linearGradient55368"
       id="linearGradient3274"
       gradientUnits="userSpaceOnUse"
       gradientTransform="translate(351.54547,-115.90036)"
       x1="-36.601898"
       y1="219.44948"
       x2="-36.996616"
       y2="220.34157" /><linearGradient
       inkscape:collect="always"
       xlink:href="#linearGradient55583"
       id="linearGradient3275"
       gradientUnits="userSpaceOnUse"
       gradientTransform="rotate(-6.3259731,53.254239,-2923.1847)"
       x1="-22.262285"
       y1="116.97888"
       x2="-22.370329"
       y2="117.09111" /><marker
       style="overflow:visible"
       id="Triangle-3"
       refX="0"
       refY="0"
       orient="auto-start-reverse"
       inkscape:stockid="Triangle arrow"
       markerWidth="0.5"
       markerHeight="0.5"
       viewBox="0 0 1 1"
       inkscape:isstock="true"
       inkscape:collect="always"
       preserveAspectRatio="xMidYMid"><path
         transform="scale(0.5)"
         style="fill:context-stroke;fill-rule:evenodd;stroke:context-stroke;stroke-width:1pt"
         d="M 5.77,0 -2.88,5 V -5 Z"
         id="path135-4" /></marker></defs><g
     inkscape:label="Layer 1"
     inkscape:groupmode="layer"
     id="layer1"
     transform="translate(-309.61049,-102.72147)"><g
       id="g3"
       inkscape:export-filename="pngs/pngs/bri.png"
       inkscape:export-xdpi="50000"
       inkscape:export-ydpi="50000"><path
         style="fill:url(#linearGradient3239);fill-opacity:1;stroke-width:0.485436"
         d="m 313.6121,105.27295 c 0,0 -0.10379,0.39897 -0.1477,0.61213 -0.16018,0.38968 -0.22147,0.54168 -0.25752,0.63534 l 0.15473,0.32948 c 0.041,-0.0437 0.0379,-0.0769 0.0804,-0.12182 0.33706,-0.35606 0.52123,-0.66575 0.69902,-1.03837 l -0.43074,-0.19385 z"
         id="path45597-28-3-9"
         sodipodi:nodetypes="ccccsccc" /><path
         id="path2738-4-8-8"
         style="fill:url(#linearGradient3240);fill-opacity:1;stroke-width:0.485436"
         d="m 314.63726,102.95696 v 0.001 c -0.16467,0.003 -0.49749,0.0423 -0.52245,0.31213 -0.0111,0.29942 0.0571,0.82514 0.20309,1.01337 0.0128,0.005 0.0739,0.0206 0.15968,0.0413 -0.15728,0.0512 -0.18927,0.0734 -0.3714,0.104 -0.14805,0.065 -0.38495,0.11109 -0.48901,0.63848 l -1.16854,0.0373 c 0,0 -0.0704,-0.0171 -0.11774,-0.0229 -0.0398,-0.005 -0.10037,-0.0102 -0.10037,-0.0102 l 0.23736,0.37853 c 0.34391,0.10952 1.12023,0.25408 1.47719,0.22576 0.15278,0.52862 0.0486,0.92668 0.21366,1.52504 l 1.51825,-0.076 c -0.002,-0.0451 -0.004,-0.0907 -0.003,-0.1385 0.0105,-0.38571 0.14834,-1.03913 0.16485,-1.57561 -0.0129,-0.43972 -0.15364,-0.73289 -0.29887,-0.84119 -0.10338,-0.048 -0.1727,-0.0973 -0.252,-0.12723 l -5.2e-4,-5.1e-4 c -0.0557,-0.0335 -0.11057,-0.0751 -0.14004,-0.12609 -0.0438,-0.0758 -0.0447,-0.20317 -0.0269,-0.26097 0.32824,-1.06358 -0.39222,-1.09606 -0.39222,-1.09606 0,0 -0.0361,-0.003 -0.091,-0.002 z"
         sodipodi:nodetypes="ccccccccsccccccccccccccc" /><path
         style="fill:url(#linearGradient3241);fill-opacity:1;stroke:none;stroke-width:0.1;stroke-miterlimit:13.8;stroke-dasharray:none;stroke-opacity:1"
         d="m 313.27313,108.40895 -0.0622,0.11535 -0.0477,0.11135 -0.0244,0.0789 -0.014,0.075 -0.003,0.0641 0.0104,0.0786 0.0277,0.0877 0.0622,0.13273 0.0678,0.11502 0.0476,0.0723 0.0628,0.089 0.0896,0.1186 0.15552,0.1934 0.0663,0.0803 0.10238,0.11937 0.15965,0.17467 0.25771,0.24727 0.04,0.0474 0.11984,-0.013 0.10418,-0.0761 0.0532,-0.0872 c 0,0 -0.10807,-0.17671 -0.2563,-0.5041 -0.0536,-0.1185 -0.0863,-0.23005 -0.16893,-0.40843 -0.0492,-0.10614 -0.12643,-0.19732 -0.20248,-0.26701 -0.021,-0.0193 -0.0653,-0.0571 -0.0653,-0.0571 0,0 0.0502,-0.0499 0.0812,-0.0878 -0.38003,-0.23737 -0.57206,-0.49715 -0.61124,-0.5814 z"
         id="path2649-5-3-4-6"
         sodipodi:nodetypes="ccccccccccccccccccccccssscccc" /><path
         style="fill:url(#linearGradient3242);fill-opacity:1;stroke:none;stroke-width:0.1;stroke-miterlimit:13.8;stroke-dasharray:none;stroke-opacity:1"
         d="m 314.38196,108.87901 c 0,0 -0.0628,0.23552 -0.0421,0.41363 0.009,0.08 0.0174,0.14073 0.0623,0.23684 0.0226,0.0484 0.0668,0.1268 0.12922,0.21192 0.0482,0.0657 0.10885,0.13381 0.16842,0.20445 0.11684,0.1386 0.24743,0.27146 0.32547,0.35702 0.0719,0.0795 0.38568,0.43523 0.38568,0.43523 0,0 0.0129,0.0271 0.0828,0.0331 0.0465,0.004 0.15145,0.0833 0.1631,0.008 0.007,-0.0434 0.10952,-0.077 0.0816,-0.13401 -0.29023,-0.59205 -0.29564,-0.69934 -0.34181,-0.80096 -0.0614,-0.13512 -0.0998,-0.20727 -0.15385,-0.27147 -0.0572,-0.068 -0.0943,-0.12035 -0.16151,-0.19345 0.0323,-0.0487 0.0995,-0.15174 0.12792,-0.19617 0.1464,-0.2287 -0.72064,-0.27346 -0.82719,-0.30418 z"
         id="path2664-4-7-0-7"
         sodipodi:nodetypes="cssssccssssscscc" /><path
         style="opacity:0.341641;fill:url(#linearGradient3243);fill-opacity:1;stroke:#000000;stroke-width:0;stroke-linecap:square;stroke-miterlimit:63.1;stroke-dasharray:none;stroke-opacity:1"
         d="m 315.08123,109.37931 c 0,0 0.10113,0.11208 0.19408,0.23579 0.0336,0.0447 0.10577,0.17755 0.14075,0.27782 0.037,0.10601 0.0703,0.19907 0.11841,0.3121 0.0647,0.15189 0.11835,0.26236 0.16242,0.3548 0.0992,0.35655 -1.65666,-1.46472 -0.89141,-1.71241 0.0277,-0.009 0.40085,0.3405 0.36627,0.39362 -0.03,0.046 -0.0484,0.0743 -0.0905,0.13828 z"
         id="path4567-0"
         sodipodi:nodetypes="cssscsscc" /><path
         style="opacity:0.275971;fill:url(#linearGradient3244);fill-opacity:1;stroke:#000000;stroke-width:0;stroke-linecap:square;stroke-miterlimit:63.1;stroke-dasharray:none;stroke-opacity:1"
         d="m 314.54635,110.23249 -0.0391,-0.0704 c 0,0 -0.17165,-0.32353 -0.25545,-0.52849 -0.0422,-0.1033 -0.12313,-0.36713 -0.26514,-0.51328 -0.0625,-0.0643 -0.13122,-0.12322 -0.13122,-0.12322 l 0.0812,-0.0878 -0.0782,-0.18369 -0.33052,-0.26252 -0.11496,-0.0217 -0.003,0.76173 c 0,0 0.45682,0.61185 0.46508,0.61598 0.008,0.004 0.45616,0.58446 0.45616,0.58446 l 0.21733,0.0233 z"
         id="path4571-4"
         sodipodi:nodetypes="ccsscccccccccc" /><path
         id="path11202-1-1-0-6-84"
         style="fill:url(#linearGradient3245);fill-opacity:1;stroke:none;stroke-width:0.485436"
         d="m 314.15874,107.20114 c 0,0 -0.0611,-0.0195 -0.0742,-0.009 -0.28732,0.36174 -0.79542,1.00112 -0.77204,1.11169 0.0777,0.27939 0.58779,0.61101 0.64368,0.61138 0.0614,2.3e-4 0.15497,-0.11526 0.27798,-0.24764 0.14754,-0.15754 0.21258,-0.21955 0.31085,-0.39098 -0.1179,0.16816 -0.18873,0.45715 -0.18824,0.59185 4.8e-4,0.1347 0.81195,0.42369 0.85967,0.36558 0.0545,-0.0664 0.16089,-0.2361 0.23946,-0.38877 0.0462,-0.0927 0.1482,-0.33375 0.1482,-0.33375 0,0 0.0859,-0.22586 0.0925,-0.25735 0.0864,-0.32005 0.0193,-0.68231 -0.0222,-0.98753 l -0.84388,0.23151 z"
         sodipodi:nodetypes="cccccczscccccc" /><path
         style="fill:url(#linearGradient3246);fill-opacity:1;stroke:none;stroke-width:1;stroke-miterlimit:13.8"
         d="m 314.17401,108.71679 0.22306,-0.24184 0.11018,-0.14327 c 0,0 0.0972,-0.20001 0.0585,-0.31401 -0.0387,-0.11401 0.044,-0.46204 -0.0883,-0.56165 -0.13868,-0.091 -0.39284,-0.26388 -0.39284,-0.26388 l -0.29282,0.36507 c 0,0 -0.0827,0.11537 -0.12666,0.17109 -0.25683,0.32579 -0.32873,0.49083 -0.32873,0.49083 -0.0471,0.0763 -0.0184,0.10961 -0.0119,0.128 0.10822,0.21335 0.2477,0.30686 0.30286,0.35351 l 0.10323,0.0784 0.0913,0.0617 0.0863,0.0499 c 0,0 0.0555,0.0425 0.10797,-7.9e-4 0.0525,-0.0433 0.15782,-0.17295 0.15782,-0.17295 z"
         id="path2660-9-9-1-8"
         sodipodi:nodetypes="cccccccsccccccccc" /><path
         style="opacity:0.75;fill:url(#linearGradient3247);fill-opacity:1;stroke-width:0.025;stroke-linecap:square;stroke-miterlimit:63.1"
         d="m 314.37008,104.3304 c 0,0 0.80963,-0.47219 0.76075,-0.30977 0,0 -0.0842,0.23406 0.0829,0.37399 0.23932,0.20043 -0.70798,0.34501 -0.70798,0.34501 0,0 -0.22655,-0.39793 -0.15845,-0.44747 z"
         id="path3984-2-1"
         sodipodi:nodetypes="cssccc" /><path
         style="fill:url(#linearGradient3248);fill-opacity:1;stroke:none;stroke-width:0.1;stroke-miterlimit:13.8;stroke-dasharray:none;stroke-opacity:1"
         d="m 313.47265,105.8462 c 0.12898,-0.0258 0.3963,-0.008 0.45728,0.21337 l -0.0889,0.16901 -0.11269,0.1678 c 0,0 -0.0898,0.093 -0.17405,0.20045 -0.0352,0.0448 -0.062,0.0748 -0.12897,0.15136 -0.009,0.0103 -0.0359,0.0717 -0.049,0.0859 -0.009,0.009 -0.0147,0.0158 -0.0147,0.0158 -0.0229,-0.0379 -0.37938,-0.2623 -0.37938,-0.2623 0,0 0.19035,-0.097 0.22144,-0.10324 0.004,-8.3e-4 0.0177,-0.0263 0.0255,-0.041 0.0601,-0.11348 0.0921,-0.20981 0.13347,-0.30989 0.0358,-0.0866 0.0702,-0.16696 0.0989,-0.24557 0.005,-0.0148 0.006,-0.0266 0.011,-0.0415 z"
         id="path2751-6-6-68"
         sodipodi:nodetypes="ccccsssccsssscc" /><path
         style="fill:url(#linearGradient3249);fill-opacity:1;stroke:#000000;stroke-width:0;stroke-linecap:square;stroke-miterlimit:63.1;stroke-dasharray:none;stroke-opacity:1"
         d="m 313.72696,106.39833 -0.26094,-0.23847 0.47286,-0.60811 c 0,0 0.0247,0.32514 0.0299,0.46632 -0.11731,0.20988 -0.24181,0.38026 -0.24181,0.38026 z"
         id="path4558-5"
         sodipodi:nodetypes="ccccc" /><path
         style="fill:url(#radialGradient2752-4-5-9);stroke:none;stroke-width:0.0999983;stroke-miterlimit:13.8;stroke-dasharray:none;stroke-opacity:1"
         d="m 313.45425,105.06725 c 0,0 -0.0663,0.49979 0.0916,0.59421 0.23299,0.0285 0.61244,0.0148 0.61244,0.0148 l 0.2546,-0.57945 z"
         id="path2750-5-4-2"
         sodipodi:nodetypes="ccccc" /><path
         style="opacity:0.767536;fill:url(#linearGradient3250);fill-opacity:1;stroke:#000000;stroke-width:0;stroke-linecap:square;stroke-miterlimit:63.1;stroke-dasharray:none;stroke-opacity:1"
         d="m 314.24422,105.67955 -0.37221,-5.3e-4 c 0,0 -0.26433,0.003 -0.56404,-0.0479 -0.29971,-0.0511 -0.54839,-0.10349 -0.54839,-0.10349 l -0.26055,-0.0647 1.73057,-0.11631 0.50167,0.16198 -0.009,0.15627 -0.25281,0.0116 z"
         id="path4559-1"
         sodipodi:nodetypes="cccccccccc" /><path
         id="path45647-3-0-9"
         style="fill:url(#linearGradient3251);fill-opacity:1;stroke:none;stroke-width:0.485436"
         d="m 314.3249,104.36932 c -0.33389,0.0514 -0.52776,0.19871 -0.597,0.33492 -0.11476,0.22576 -0.11097,0.36684 -0.11097,0.36684 l 1.10329,0.0357 c 0,0 0.11009,0.35859 -0.0656,0.52968 -0.0532,0.0427 -0.15001,0.0398 -0.24856,0.0403 -0.20595,9.9e-4 -0.45279,-9.9e-4 -0.45786,-0.001 h -0.003 l 0.003,0.053 c 0,0 0.005,0.0566 0.0118,0.10224 l 0.0282,0.60246 c 0,0 0.0146,0.48144 0.038,0.61574 0.0234,0.1343 0.14728,0.23306 0.14728,0.23306 0,0 0.0954,0.15163 0.22531,0.16071 0.16092,0.005 0.42496,0.20065 0.91776,0.0629 0.41185,-0.0953 0.4116,-0.31674 0.42944,-0.73207 0.003,-0.14231 0.0564,-0.82934 0.0801,-1.12654 0.083,-1.01844 -0.10237,-0.98779 -0.61236,-1.25264 0,0 -0.40301,0.50835 -0.88884,-0.0248 z"
         sodipodi:nodetypes="ccccccccccccccsccccc" /><path
         style="fill:url(#linearGradient3252);stroke:none;stroke-width:1;stroke-miterlimit:13.8"
         d="m 313.96899,106.03865 c -0.008,-0.14979 -0.007,-0.21683 -0.0239,-0.3629 l 0.42328,0.001 -0.0307,1.75137 -0.0877,-0.0594 c 0,0 -0.0471,-0.0618 -0.0765,-0.0867 -0.0303,-0.0257 -0.0865,-0.0908 -0.0865,-0.0908 -0.0324,-0.0502 -0.0625,-0.10767 -0.0681,-0.17325 -0.013,-0.15173 -0.022,-0.34399 -0.0278,-0.50641 -0.006,-0.15836 -0.0152,-0.31459 -0.022,-0.47291 z"
         id="path2644-1-4-5-9"
         sodipodi:nodetypes="cccccscsccc" /><path
         style="fill:url(#linearGradient3253);fill-opacity:1;stroke:none;stroke-width:1;stroke-miterlimit:13.8"
         d="m 313.85775,103.65902 c 0,0 0.0463,0.0768 0.26232,-0.13654 0.27802,-0.19058 -0.0641,-0.0407 -0.0641,-0.0407 l -0.16386,0.062 -0.0434,0.0654 z"
         id="path2640-6-0-0-6"
         sodipodi:nodetypes="cccccc" /><path
         style="fill:url(#linearGradient3254);fill-opacity:1;stroke:none;stroke-width:1;stroke-miterlimit:13.8"
         d="m 314.46375,104.4418 c 0.15645,0.0102 0.53606,-0.0439 0.65652,-0.38668 0.093,-0.26479 0.0889,-0.44133 0.0858,-0.66992 l -1.10961,0.004 5.9e-4,0.31667 c -5.9e-4,0.1406 0.10368,0.72892 0.36672,0.73622 z"
         id="path2638-5-3-2-0"
         sodipodi:nodetypes="csccccc" /><path
         style="fill:url(#linearGradient3255);fill-opacity:1;stroke-width:0.0381963"
         d="m 314.09644,103.38887 c 0,0 0.006,-0.26641 0.0613,-0.37586 0.0951,-0.189 0.31049,-0.28253 0.56388,-0.29154 0.14782,0.004 0.2743,0.0299 0.40412,0.18274 0.12981,0.15284 0.12232,0.32112 0.12232,0.32112 l -0.006,0.2253 c -0.11443,0.0545 -0.21265,0.0369 -0.28399,0.0226 -0.11256,7.4e-4 -0.65033,-0.13796 -0.65033,-0.13796 z"
         id="path11206-13-6-9-9-6"
         sodipodi:nodetypes="cscsccccc" /><path
         style="fill:url(#linearGradient3256);fill-opacity:1;stroke-width:0.0381963"
         d="m 314.09441,103.38894 c 0,0 -0.11242,0.0844 -0.16698,0.12862 -0.0211,0.0165 -0.1088,0.0644 -0.0697,0.14146 -0.005,-0.0314 -0.007,-0.13449 0.21925,-0.12201 0.0392,0.004 0.16838,0.0694 0.29617,0.12604 0.0211,0.009 0.14217,0.0734 0.20861,0.0607 0.20691,-0.0396 0.33076,-0.17541 0.3806,-0.24977 -0.13004,-0.033 -0.3561,-0.0906 -0.51494,-0.131 -0.16498,-0.042 -0.25205,-0.028 -0.35303,0.0461 z"
         id="path11208-7-3-1-4-4"
         sodipodi:nodetypes="ccccsscsc" /><path
         style="opacity:0.736849;fill:url(#linearGradient3257);fill-opacity:1;stroke:none;stroke-width:1;stroke-miterlimit:13.8"
         d="m 314.3595,108.81563 c 0,0 0.0159,-0.34757 0.31278,-0.76289 0.0749,-0.10477 0.32524,-0.14597 0.41723,-0.0834 0.23072,0.15673 -0.43348,1.10725 -0.43348,1.10725 0,0 -0.15995,-0.0498 -0.24477,-0.13489 -0.007,-0.007 -0.0217,-0.0186 -0.0217,-0.0186 l -0.0244,-0.029 -0.008,-0.0255 z"
         id="path2658-5-6-5-9"
         sodipodi:nodetypes="csscscccc" /><path
         style="opacity:0.73535;fill:url(#linearGradient3258);fill-opacity:1;stroke:none;stroke-width:0.1;stroke-miterlimit:13.8;stroke-dasharray:none;stroke-opacity:1"
         d="m 314.51601,105.67494 c 0,0 0.027,0.0336 0.0809,0.04 0.37597,0.0447 0.59059,0.0348 0.89663,0.0104 0.0797,-0.006 0.32345,-0.0194 0.34492,-0.23711 -0.0149,0.11396 -0.0949,1.27513 -0.11131,1.57982 -0.005,0.0323 -0.0186,0.17803 -0.0943,0.26997 -0.0691,0.0839 -0.14024,0.11584 -0.24716,0.14961 -0.15465,0.0489 -0.39066,0.0913 -0.51515,0.0622 -0.21462,-0.0502 -0.35882,-0.0842 -0.35882,-0.0842"
         id="path2745-0-1-9"
         sodipodi:nodetypes="cssccsssc" /><g
         id="g2730-2-4-0"
         transform="translate(336.36298,-1.9200555)"><circle
           style="fill:url(#linearGradient3259);fill-opacity:1;stroke-width:0.403266"
           id="circle11172-58-3-4-0-8"
           cx="-22.721788"
           cy="110.49712"
           r="0.25351685"
           transform="rotate(1.9658936)" /><path
           style="fill:url(#linearGradient3260);fill-opacity:1;stroke-width:0.411048"
           d="m -25.571118,108.95469 1.804941,-1.10954 -0.654107,-1.01012 c -0.02848,-0.044 0.0958,-0.12421 0.144718,-0.0597 0.04892,0.0645 1.223334,1.92725 1.377734,2.16608 0.02495,0.0386 -0.07685,0.13073 -0.121648,0.0649 -0.102293,-0.1503 -0.641532,-0.97505 -0.641532,-0.97505 l -1.823801,1.12491 z"
           id="path11174-26-85-0-9-9"
           sodipodi:nodetypes="ccszssccc" /><path
           id="path11176-06-6-6-1-3"
           style="fill:url(#linearGradient3261);fill-opacity:1;stroke-width:0.462983"
           d="m -25.554739,108.94847 c -0.0058,5.7e-4 -0.01132,0.003 -0.01618,0.006 -0.04179,0.0298 -0.573465,0.34593 -0.753586,0.45295 -0.0013,7.2e-4 -0.0026,0.002 -0.0039,0.002 -0.0035,0.002 -0.0074,0.004 -0.01131,0.007 -0.02578,0.0205 -0.05615,0.0447 -0.06007,0.0478 -0.07847,0.0697 -0.167167,0.17572 -0.141448,0.22426 0.02537,0.0479 0.154936,0.0264 0.251853,-0.008 0.03492,-0.0153 0.05305,-0.0232 0.07196,-0.0315 0.0033,-0.002 0.0063,-0.004 0.0093,-0.006 l 0.0024,-10e-4 c 5.95e-4,-3.8e-4 8.94e-4,-5.9e-4 0.0015,-9.8e-4 l 0.002,-9.8e-4 c 5.75e-4,-4.2e-4 9.12e-4,-0.001 0.0015,-0.001 l 0.130611,-0.0833 c 0,0 -0.06841,0.72452 -0.01107,0.8672 0.05727,0.14268 0.963778,1.50939 0.963778,1.50939 l 0.190246,-0.0764 c 0,0 -0.008,-0.0116 -0.0098,-0.0144 l 0.05914,-0.0296 0.07738,0.12027 c 0.05032,-0.0738 0.07897,-0.13898 0.06169,-0.23262 -0.04773,-0.0715 -0.123208,-0.18432 -0.123208,-0.18432 l -0.781912,-1.22993 c -0.06981,-0.10465 -0.123741,-0.6933 -0.138262,-0.86819 0.0012,-0.008 0.003,-0.0192 0.003,-0.0192 l 0.34402,-0.22179 c 0.07479,-0.0482 -0.04982,-0.23384 -0.119276,-0.22721 z"
           sodipodi:nodetypes="ssssccsccscccccccccccccccccss" /><path
           style="fill:url(#linearGradient3262);fill-opacity:1;stroke-width:0.462984"
           d="m -23.436321,108.37745 0.126672,-0.0845 c 0,0 0.180963,0.25961 0.411829,0.64852 0.02347,0.0396 -0.07566,0.13474 -0.121651,0.0649 -0.126743,-0.19228 -0.41685,-0.62897 -0.41685,-0.62897 z"
           id="path11184-6-11-2-9-1"
           sodipodi:nodetypes="ccsscc" /><path
           style="fill:url(#linearGradient3263);fill-opacity:1;stroke-width:0.462984"
           d="m -24.019887,107.45334 0.124573,-0.0828 c 0,0 -0.208982,-0.34613 -0.390554,-0.6168 -0.02907,-0.0434 -0.172728,0.0189 -0.134407,0.0814 0.142019,0.2308 0.400393,0.61832 0.400393,0.61832 z"
           id="path11188-2-5-9-6-48"
           sodipodi:nodetypes="ccsscc" /><path
           id="path2686-9-9-2-96"
           style="fill:url(#linearGradient3264);fill-opacity:1;stroke-width:0.462983"
           d="m -26.070109,109.55572 c -0.0011,0.0113 -0.06775,0.72581 -0.01087,0.86736 0.05727,0.14268 0.963765,1.50947 0.963765,1.50947 l 0.190169,-0.0765 c 0,0 -0.008,-0.0117 -0.0098,-0.0145 l 0.05891,-0.0294 0.07752,0.11988 c 0.05032,-0.0738 0.07877,-0.1389 0.06149,-0.23254 -0.04773,-0.0715 -0.122989,-0.18448 -0.122989,-0.18448 l -0.781865,-1.2299 c -0.06981,-0.10465 -0.135348,-0.88719 -0.135348,-0.88719 0,0 -0.09085,0.0503 -0.290982,0.1578 z"
           sodipodi:nodetypes="cccccccccccc" /><path
           id="path2687-8-0-5-77"
           style="fill:url(#linearGradient3265);fill-opacity:1;stroke-width:0.462983"
           d="m -25.55491,108.94824 c -0.0058,5.7e-4 -0.01116,0.003 -0.01602,0.006 -0.04179,0.0298 -0.573321,0.34618 -0.753442,0.4532 -0.0013,7.2e-4 -0.0028,0.002 -0.0041,0.002 -0.0035,0.002 -0.0075,0.004 -0.01137,0.007 -0.02578,0.0205 -0.05602,0.0444 -0.05994,0.0475 -0.07847,0.0697 -0.167312,0.17573 -0.141593,0.22427 0.02537,0.0479 0.155264,0.0267 0.252181,-0.008 0.03492,-0.0153 0.05292,-0.0232 0.07183,-0.0315 0.0033,-0.002 0.0063,-0.004 0.0093,-0.006 l 0.0026,-10e-4 c 5.95e-4,-3.8e-4 9.45e-4,-1.2e-4 0.0016,-5.1e-4 l 0.0016,-0.001 c 5.75e-4,-4.2e-4 9.62e-4,-10e-4 0.0016,-10e-4 l 0.130742,-0.0832 c 0,0 -1.79e-4,-2.8e-4 -1.87e-4,-2.8e-4 l 0.335629,-0.18657 v 0 l 0.282091,-0.21023 c 0.07479,-0.0482 -0.03235,-0.21637 -0.101803,-0.20974 z"
           sodipodi:nodetypes="ccccccscccccccccccccc" /><path
           style="fill:url(#linearGradient3266);fill-opacity:1;stroke-width:0.462984"
           d="m -25.73448,109.36915 c -0.01365,-0.0913 -0.06161,-0.17658 -0.147723,-0.2254 0.100117,-0.0613 0.311078,-0.18915 0.311078,-0.18915 0.0713,-0.0438 0.216154,0.16873 0.136306,0.22196 l -0.169197,0.1115 z"
           id="path11210-7-4-8-4-3"
           sodipodi:nodetypes="cccccc" /><circle
           style="fill:url(#linearGradient3267);fill-opacity:1;stroke-width:0.403266"
           id="circle11178-6-8-1-4-7"
           cx="-21.024843"
           cy="112.6971"
           r="0.25351685"
           transform="rotate(1.9658936)" /><path
           style="fill:url(#linearGradient3268);fill-opacity:1;stroke-width:0.252346"
           d="m -24.971608,111.67373 0.171111,0.25805 c 0,0 0.08169,-0.20265 0.06169,-0.23262 -0.03207,-0.048 -0.09729,-0.14559 -0.09729,-0.14559 z"
           id="path11180-4-1-3-9-1"
           sodipodi:nodetypes="ccscc" /></g><path
         style="fill:url(#linearGradient3269);fill-opacity:1;stroke-width:0.485436"
         d="m 312.07982,105.13188 c 0,0 -0.053,0.0512 -0.0423,0.11235 0.003,0.0199 0.0132,0.0479 0.0272,0.0793 0.0291,0.065 0.0769,0.14486 0.12786,0.19893 0.094,0.0997 0.1993,-0.003 0.18838,-0.0473 -0.033,-0.13518 -0.15579,-0.19554 -0.18838,-0.23095 -0.0887,-0.0964 -0.11277,-0.11207 -0.11277,-0.11207 z"
         id="path45625-1-9-22"
         sodipodi:nodetypes="ccsssscc" /><path
         style="fill:url(#linearGradient3270);fill-opacity:1;stroke-width:0.0981363;stroke-linecap:square;stroke-miterlimit:63.1"
         d="m 315.17158,111.10455 c 0,0 -0.0234,0.0707 9.5e-4,0.12954 0.0184,0.0416 0.11456,0.084 0.11456,0.084 0,0 0.0462,0.0275 0.11918,0.0252 0.0724,-2.4e-4 0.25502,-0.23189 0.28799,-0.27156 0.0328,-0.0395 0.0959,-0.10999 0.10822,-0.13234 0.0122,-0.0223 0.0442,-0.0915 -0.042,-0.25611 -0.0542,-0.10613 -0.35996,0.29167 -0.35996,0.29167 z"
         id="path3148-8-2-3-6-0-9-1-2-1"
         sodipodi:nodetypes="ccccscscc" /><path
         id="path22517-4-81-45-3-73-7-3-1-3-7-2-5-9-7-1-6-3-4-7-5"
         style="fill:url(#linearGradient3271);fill-opacity:1;stroke-width:0.476385"
         d="m 315.72021,110.60812 c -0.085,0.1279 -0.2028,0.172 -0.31962,0.11482 0,0 -0.19489,0.28173 -0.22883,0.38203 -0.0427,0.12614 0.1793,0.17323 0.1793,0.17323 0.0822,0.0249 0.20395,-0.13075 0.31024,-0.255 0.0779,-0.09 0.17751,-0.16999 0.0988,-0.33959 -0.0105,-0.0232 -0.0286,-0.0525 -0.04,-0.075 z"
         sodipodi:nodetypes="ccccccc" /><path
         style="fill:url(#linearGradient3272);fill-opacity:1;stroke-width:0.0960331;stroke-linecap:square;stroke-miterlimit:63.1"
         d="m 314.05892,110.76789 c 0,0 -0.016,0.0712 0.0134,0.12607 0.0218,0.0388 0.11952,0.0709 0.11952,0.0709 0,0 0.0476,0.0224 0.11848,0.0135 0.0705,-0.006 0.22646,-0.24999 0.25483,-0.29171 0.0282,-0.0417 0.083,-0.1162 0.0929,-0.13914 0.01,-0.0228 0.0344,-0.0934 -0.0651,-0.24547 -0.0628,-0.0984 -0.32303,0.3181 -0.32303,0.3181 z"
         id="path3148-8-2-3-6-0-9-1-9-09"
         sodipodi:nodetypes="ccccscscc" /><path
         id="path22517-4-81-45-3-73-7-3-1-3-7-2-5-9-7-1-6-3-4-49-0"
         style="fill:url(#linearGradient3273);fill-opacity:1;stroke-width:0.466176"
         d="m 314.54635,110.23249 c -0.0707,0.1326 -0.18126,0.18671 -0.30045,0.14208 0,0 -0.16318,0.29282 -0.18676,0.39372 -0.0296,0.12689 0.19101,0.15175 0.19101,0.15175 0.0824,0.0165 0.18628,-0.14659 0.27807,-0.27768 0.0674,-0.0951 0.15681,-0.18234 0.0641,-0.3401 -0.0124,-0.0217 -0.0329,-0.0483 -0.0461,-0.0694 z"
         sodipodi:nodetypes="ccccccc" /><path
         style="fill:url(#linearGradient3274);fill-opacity:1;stroke:#000000;stroke-width:0;stroke-linecap:square;stroke-miterlimit:63.1;stroke-dasharray:none;stroke-opacity:1"
         d="m 315.12463,103.68406 c 0,0 0.14594,-0.12336 0.16363,0 0.0258,0.17954 -0.21351,0.30257 -0.21351,0.30257"
         id="path4556-0-40"
         sodipodi:nodetypes="csc" /><path
         style="fill:url(#linearGradient3275);fill-opacity:1;stroke-width:0.485436"
         d="m 313.19768,106.96617 0.07,-0.0378 c 0.0697,-0.0401 -0.11651,-0.19784 -0.241,-0.32601 -0.0543,-0.0559 -0.0826,0.03 -0.0587,0.0948 0.0216,0.0533 0.16244,0.30227 0.22968,0.26897 z"
         id="path45625-4-1-3-1"
         sodipodi:nodetypes="ccsccc" /><path
         style="fill:#f4a77e;fill-opacity:1;stroke-width:0.1;stroke-linecap:square;stroke-miterlimit:63.1"
         d="m 313.21916,106.46885 c 0,0 -0.10157,-0.017 -0.12741,-0.007 -0.0258,0.0103 -0.10846,0.0607 -0.10229,0.0996 0.006,0.0389 0.0474,0.0605 0.0474,0.0605 0,0 0.0386,0.007 0.0683,-0.0518 0.0148,-0.0294 0.091,-0.005 0.091,-0.005 z"
         id="path436-3"
         sodipodi:nodetypes="csccscc" /><path
         style="fill:#f4996e;fill-opacity:1;stroke-width:0.1;stroke-linecap:square;stroke-miterlimit:63.1"
         d="m 312.4618,105.43717 c 0,0 -0.13786,-0.076 -0.16201,-0.0124 -0.0265,0.0699 0.093,0.11518 0.13436,0.12708 0.0413,0.012 0.15609,-0.0663 0.15609,-0.0663"
         id="path435-1"
         sodipodi:nodetypes="cscc" /><path
         style="fill:none;fill-opacity:0.631373;stroke:#ff8f00;stroke-width:0.2;stroke-linecap:square;stroke-miterlimit:63.1;stroke-dasharray:none;stroke-opacity:1;marker-start:url(#marker36);marker-end:url(#Triangle-3)"
         id="path5860-2"
         sodipodi:type="arc"
         sodipodi:cx="324.14343"
         sodipodi:cy="58.594692"
         sodipodi:rx="0.72625059"
         sodipodi:ry="0.73823804"
         sodipodi:start="2.4765263"
         sodipodi:end="5.5027709"
         sodipodi:arc-type="arc"
         d="m 323.57196,59.050267 a 0.72625059,0.73823804 0 0 1 0.0911,-1.00925 0.72625059,0.73823804 0 0 1 0.99646,0.03427"
         transform="rotate(8.356528)"
         sodipodi:open="true" /></g></g></svg>
