<?xml version="1.0" encoding="UTF-8" standalone="no"?>
<!-- Created with Inkscape (http://www.inkscape.org/) -->

<svg
   width="5.7173982"
   height="8.5593596"
   viewBox="0 0 0 0"
   version="1.1"
   id="svg5"
   xml:space="preserve"
   inkscape:version="1.4 (unknown)"
   sodipodi:docname="crah-tricks-17-07-2025-1.svg"
   inkscape:export-batch-path="full/svgs/svgs"
   inkscape:export-batch-name=""
   xmlns:inkscape="http://www.inkscape.org/namespaces/inkscape"
   xmlns:sodipodi="http://sodipodi.sourceforge.net/DTD/sodipodi-0.dtd"
   xmlns:xlink="http://www.w3.org/1999/xlink"
   xmlns="http://www.w3.org/2000/svg"
   xmlns:svg="http://www.w3.org/2000/svg"><sodipodi:namedview
     id="namedview7"
     pagecolor="#ffffff"
     bordercolor="#000000"
     borderopacity="0.25"
     inkscape:showpageshadow="2"
     inkscape:pageopacity="0.0"
     inkscape:pagecheckerboard="0"
     inkscape:deskcolor="#d1d1d1"
     inkscape:document-units="mm"
     showgrid="false"
     inkscape:zoom="2.828427"
     inkscape:cx="130.28443"
     inkscape:cy="45.961943"
     inkscape:window-width="1918"
     inkscape:window-height="1061"
     inkscape:window-x="0"
     inkscape:window-y="17"
     inkscape:window-maximized="1"
     inkscape:current-layer="layer1"
     showguides="true"
     inkscape:export-bgcolor="#ffffff00"><inkscape:page
       x="0"
       y="0"
       width="5.7173982"
       height="8.5593596"
       id="page1"
       margin="0"
       bleed="0" /></sodipodi:namedview><defs
     id="defs2"><marker
       style="overflow:visible"
       id="marker36"
       refX="9"
       refY="0"
       orient="auto"
       inkscape:stockid="Square"
       markerWidth="0.2"
       markerHeight="0.2"
       viewBox="0 0 1 1"
       inkscape:isstock="true"
       inkscape:collect="always"
       preserveAspectRatio="xMidYMid"><path
         transform="scale(0.5)"
         style="fill:context-stroke;fill-rule:evenodd;stroke:none"
         d="M -5,-5 V 5 H 5 V -5 Z"
         id="path36" /></marker><linearGradient
       id="linearGradient2479"
       inkscape:collect="always"><stop
         style="stop-color:#f4895d;stop-opacity:1;"
         offset="0"
         id="stop2477" /><stop
         style="stop-color:#f4895d;stop-opacity:1;"
         offset="1"
         id="stop2478" /></linearGradient><linearGradient
       id="linearGradient2853"
       inkscape:collect="always"><stop
         style="stop-color:#282828;stop-opacity:1;"
         offset="0"
         id="stop2815" /><stop
         style="stop-color:#282828;stop-opacity:0;"
         offset="1"
         id="stop2816" /></linearGradient><linearGradient
       id="linearGradient4552"
       inkscape:collect="always"><stop
         style="stop-color:#ee2900;stop-opacity:1;"
         offset="0"
         id="stop4552" /><stop
         style="stop-color:#f47547;stop-opacity:0;"
         offset="1"
         id="stop4553" /></linearGradient><linearGradient
       id="linearGradient3011"
       inkscape:collect="always"><stop
         style="stop-color:#000000;stop-opacity:1;"
         offset="0"
         id="stop3010" /><stop
         style="stop-color:#ffffff;stop-opacity:0;"
         offset="1"
         id="stop3011" /></linearGradient><linearGradient
       id="linearGradient3008"
       inkscape:collect="always"><stop
         style="stop-color:#161616;stop-opacity:1;"
         offset="0"
         id="stop3007" /><stop
         style="stop-color:#ffffff;stop-opacity:0;"
         offset="1"
         id="stop3008" /></linearGradient><linearGradient
       inkscape:collect="always"
       id="linearGradient2782"><stop
         style="stop-color:#ffd7cd;stop-opacity:1;"
         offset="0"
         id="stop2781" /><stop
         style="stop-color:#f46f40;stop-opacity:1;"
         offset="1"
         id="stop2782" /></linearGradient><linearGradient
       inkscape:collect="always"
       id="linearGradient2780"><stop
         style="stop-color:#ffd7cb;stop-opacity:1;"
         offset="0"
         id="stop2779" /><stop
         style="stop-color:#f46f40;stop-opacity:1;"
         offset="1"
         id="stop2780" /></linearGradient><linearGradient
       inkscape:collect="always"
       id="linearGradient2657"><stop
         style="stop-color:#000000;stop-opacity:1;"
         offset="0"
         id="stop2656" /><stop
         style="stop-color:#202020;stop-opacity:1;"
         offset="0.72609508"
         id="stop2658" /><stop
         style="stop-color:#2f2f2f;stop-opacity:1;"
         offset="1"
         id="stop2657" /></linearGradient><linearGradient
       inkscape:collect="always"
       id="linearGradient2650"><stop
         style="stop-color:#000000;stop-opacity:1;"
         offset="0"
         id="stop2649" /><stop
         style="stop-color:#171717;stop-opacity:1;"
         offset="0.60837948"
         id="stop2651" /><stop
         style="stop-color:#454545;stop-opacity:1;"
         offset="1"
         id="stop2650" /></linearGradient><linearGradient
       id="linearGradient2647"
       inkscape:collect="always"><stop
         style="stop-color:#f4a77e;stop-opacity:1;"
         offset="0"
         id="stop2647" /><stop
         style="stop-color:#f46f40;stop-opacity:1;"
         offset="1"
         id="stop2648" /></linearGradient><linearGradient
       id="linearGradient2643"
       inkscape:collect="always"><stop
         style="stop-color:#1c1c1c;stop-opacity:1;"
         offset="0"
         id="stop2643" /><stop
         style="stop-color:#2f2f2f;stop-opacity:1;"
         offset="1"
         id="stop2644" /></linearGradient><linearGradient
       id="linearGradient2641"
       inkscape:collect="always"><stop
         style="stop-color:#fc0e00;stop-opacity:1;"
         offset="0"
         id="stop2641" /><stop
         style="stop-color:#000e00;stop-opacity:1;"
         offset="1"
         id="stop2642" /></linearGradient><linearGradient
       id="linearGradient160"
       inkscape:collect="always"><stop
         style="stop-color:#000000;stop-opacity:1;"
         offset="0"
         id="stop160" /><stop
         style="stop-color:#2f2f2f;stop-opacity:1;"
         offset="1"
         id="stop161" /></linearGradient><linearGradient
       inkscape:collect="always"
       id="linearGradient36900"><stop
         style="stop-color:#f47344;stop-opacity:1;"
         offset="0"
         id="stop36896" /><stop
         style="stop-color:#f48c60;stop-opacity:1"
         offset="1"
         id="stop36898" /></linearGradient><linearGradient
       inkscape:collect="always"
       id="linearGradient63493"><stop
         style="stop-color:#969696;stop-opacity:1;"
         offset="0"
         id="stop63489" /><stop
         style="stop-color:#c8c8c8;stop-opacity:1;"
         offset="1"
         id="stop63491" /></linearGradient><linearGradient
       inkscape:collect="always"
       id="linearGradient62413"><stop
         style="stop-color:#000000;stop-opacity:1;"
         offset="0"
         id="stop62409" /><stop
         style="stop-color:#2f2f2f;stop-opacity:1;"
         offset="1"
         id="stop62411" /></linearGradient><linearGradient
       inkscape:collect="always"
       id="linearGradient60576"><stop
         style="stop-color:#fc0000;stop-opacity:1;"
         offset="0"
         id="stop60572" /><stop
         style="stop-color:#fc6a00;stop-opacity:1;"
         offset="1"
         id="stop60574" /></linearGradient><linearGradient
       inkscape:collect="always"
       id="linearGradient59671"><stop
         style="stop-color:#f50000;stop-opacity:1;"
         offset="0"
         id="stop59667" /><stop
         style="stop-color:#fc6a00;stop-opacity:1;"
         offset="1"
         id="stop59669" /></linearGradient><linearGradient
       inkscape:collect="always"
       id="linearGradient55583"><stop
         style="stop-color:#f4a77e;stop-opacity:1;"
         offset="0"
         id="stop55579" /><stop
         style="stop-color:#f46f40;stop-opacity:1;"
         offset="1"
         id="stop55581" /></linearGradient><linearGradient
       inkscape:collect="always"
       id="linearGradient55368"><stop
         style="stop-color:#f4a77e;stop-opacity:1;"
         offset="0"
         id="stop55364" /><stop
         style="stop-color:#f46f40;stop-opacity:1;"
         offset="1"
         id="stop55366" /></linearGradient><linearGradient
       inkscape:collect="always"
       id="linearGradient50523"><stop
         style="stop-color:#fc0000;stop-opacity:1;"
         offset="0"
         id="stop50519" /><stop
         style="stop-color:#fc6a00;stop-opacity:1;"
         offset="1"
         id="stop50521" /></linearGradient><linearGradient
       inkscape:collect="always"
       id="linearGradient49756"><stop
         style="stop-color:#f50000;stop-opacity:1;"
         offset="0"
         id="stop49752" /><stop
         style="stop-color:#ff4f00;stop-opacity:1;"
         offset="1"
         id="stop49754" /></linearGradient><linearGradient
       id="linearGradient45844"
       inkscape:swatch="solid"><stop
         style="stop-color:#000000;stop-opacity:1;"
         offset="0"
         id="stop45842" /></linearGradient><linearGradient
       inkscape:collect="always"
       xlink:href="#linearGradient2641"
       id="linearGradient2721"
       gradientUnits="userSpaceOnUse"
       gradientTransform="translate(343.20862,0.04238441)"
       x1="-39.021812"
       y1="115.69682"
       x2="-38.641582"
       y2="115.69682" /><linearGradient
       inkscape:collect="always"
       xlink:href="#linearGradient55583"
       id="linearGradient2722"
       gradientUnits="userSpaceOnUse"
       gradientTransform="rotate(-13.61666,145.97103,-1238.2568)"
       x1="-20.809834"
       y1="118.21287"
       x2="-19.831745"
       y2="118.21287" /><linearGradient
       inkscape:collect="always"
       xlink:href="#linearGradient36900"
       id="linearGradient2723"
       gradientUnits="userSpaceOnUse"
       gradientTransform="matrix(1.0242395,-0.18681697,0.18681697,1.0242395,282.55073,-19.948761)"
       x1="-5.1330819"
       y1="134.82043"
       x2="-4.6906729"
       y2="134.47148" /><linearGradient
       inkscape:collect="always"
       xlink:href="#linearGradient2647"
       id="linearGradient2724"
       gradientUnits="userSpaceOnUse"
       gradientTransform="translate(343.20862,0.04238441)"
       x1="-39.187744"
       y1="117.83865"
       x2="-38.986042"
       y2="117.83865" /><linearGradient
       inkscape:collect="always"
       xlink:href="#linearGradient55368"
       id="linearGradient2725"
       gradientUnits="userSpaceOnUse"
       gradientTransform="translate(324.3197,0.04825441)"
       x1="-20.901991"
       y1="119.44694"
       x2="-18.223547"
       y2="119.32657" /><linearGradient
       inkscape:collect="always"
       xlink:href="#linearGradient2782"
       id="linearGradient2727"
       gradientUnits="userSpaceOnUse"
       gradientTransform="translate(343.20862,0.04238441)"
       x1="-38.275257"
       y1="121.89077"
       x2="-38.10247"
       y2="121.75555" /><linearGradient
       inkscape:collect="always"
       xlink:href="#linearGradient2657"
       id="linearGradient2729"
       gradientUnits="userSpaceOnUse"
       gradientTransform="translate(324.3197,0.04825441)"
       x1="-19.290302"
       y1="120.03522"
       x2="-18.275827"
       y2="120.33252" /><linearGradient
       inkscape:collect="always"
       xlink:href="#linearGradient4552"
       id="linearGradient2730"
       gradientUnits="userSpaceOnUse"
       gradientTransform="translate(341.8743,-103.72184)"
       x1="-36.982357"
       y1="220.3985"
       x2="-36.423218"
       y2="220.28275" /><linearGradient
       inkscape:collect="always"
       xlink:href="#linearGradient4552"
       id="linearGradient2752"
       gradientUnits="userSpaceOnUse"
       gradientTransform="translate(341.8743,-103.72184)"
       x1="-37.559841"
       y1="221.91052"
       x2="-37.751312"
       y2="221.85498" /><linearGradient
       inkscape:collect="always"
       xlink:href="#linearGradient2650"
       id="linearGradient2764"
       gradientUnits="userSpaceOnUse"
       gradientTransform="translate(324.3197,0.04825441)"
       x1="-19.321251"
       y1="118.04926"
       x2="-18.214895"
       y2="118.05511" /><linearGradient
       inkscape:collect="always"
       xlink:href="#linearGradient2647"
       id="linearGradient2771"
       gradientUnits="userSpaceOnUse"
       gradientTransform="translate(343.20862,0.04238441)"
       x1="-38.03371"
       y1="115.60495"
       x2="-38.360008"
       y2="116.59079" /><linearGradient
       inkscape:collect="always"
       xlink:href="#linearGradient62413"
       id="linearGradient2837"
       gradientUnits="userSpaceOnUse"
       gradientTransform="matrix(1.7498609,0,0,1.7498609,363.25638,-16.45286)"
       x1="-33.373997"
       y1="72.139824"
       x2="-33.552532"
       y2="71.913887" /><linearGradient
       inkscape:collect="always"
       xlink:href="#linearGradient63493"
       id="linearGradient2950"
       gradientUnits="userSpaceOnUse"
       gradientTransform="matrix(1.7433748,0.15052372,-0.15052372,1.7433748,363.64658,-4.0010106)"
       x1="-28.708323"
       y1="73.012466"
       x2="-28.767878"
       y2="72.931" /><linearGradient
       inkscape:collect="always"
       xlink:href="#linearGradient63493"
       id="linearGradient2954"
       gradientUnits="userSpaceOnUse"
       gradientTransform="matrix(1.7433748,0.15052372,-0.15052372,1.7433748,363.64658,-4.0010106)"
       x1="-29.380884"
       y1="73.492561"
       x2="-29.4739"
       y2="73.423378" /><linearGradient
       inkscape:collect="always"
       xlink:href="#linearGradient59671"
       id="linearGradient2973"
       gradientUnits="userSpaceOnUse"
       gradientTransform="matrix(0.95374863,0,0,0.95374863,323.73696,5.4451944)"
       x1="-20.562817"
       y1="119.27399"
       x2="-20.431948"
       y2="119.2047" /><linearGradient
       inkscape:collect="always"
       xlink:href="#linearGradient60576"
       id="linearGradient2974"
       gradientUnits="userSpaceOnUse"
       gradientTransform="matrix(0.95374863,0,0,0.95374863,323.73696,5.4451944)"
       x1="-21.713905"
       y1="117.4888"
       x2="-21.577248"
       y2="117.39193" /><linearGradient
       inkscape:collect="always"
       xlink:href="#linearGradient49756"
       id="linearGradient2982"
       gradientUnits="userSpaceOnUse"
       gradientTransform="translate(324.3197,0.04825441)"
       x1="-19.885185"
       y1="115.24645"
       x2="-18.733461"
       y2="115.24645" /><linearGradient
       inkscape:collect="always"
       xlink:href="#linearGradient50523"
       id="linearGradient2983"
       gradientUnits="userSpaceOnUse"
       gradientTransform="translate(324.3197,0.04825441)"
       x1="-20.133801"
       y1="115.66431"
       x2="-19.019243"
       y2="115.66431" /><linearGradient
       inkscape:collect="always"
       xlink:href="#linearGradient2643"
       id="linearGradient3158"
       gradientUnits="userSpaceOnUse"
       gradientTransform="rotate(-0.66448439,137.77375,-29476.021)"
       x1="-37.64481"
       y1="117.44641"
       x2="-37.29113"
       y2="116.95859" /><linearGradient
       inkscape:collect="always"
       xlink:href="#linearGradient2853"
       id="linearGradient3161"
       gradientUnits="userSpaceOnUse"
       gradientTransform="translate(343.20862,0.04238441)"
       x1="-38.832905"
       y1="117.93581"
       x2="-38.562119"
       y2="117.90344" /><linearGradient
       inkscape:collect="always"
       xlink:href="#linearGradient55583"
       id="linearGradient3172"
       gradientUnits="userSpaceOnUse"
       gradientTransform="rotate(17.246092,139.27545,1189.0498)"
       x1="-20.809834"
       y1="118.21287"
       x2="-19.831745"
       y2="118.21287" /><linearGradient
       inkscape:collect="always"
       xlink:href="#linearGradient2479"
       id="linearGradient3206"
       gradientUnits="userSpaceOnUse"
       gradientTransform="translate(341.8743,-103.72184)"
       x1="-37.924934"
       y1="222.63196"
       x2="-37.479485"
       y2="222.49243" /><linearGradient
       inkscape:collect="always"
       xlink:href="#linearGradient2647"
       id="linearGradient3207"
       gradientUnits="userSpaceOnUse"
       gradientTransform="translate(343.20862,0.04238441)"
       x1="-38.149529"
       y1="117.96053"
       x2="-37.749802"
       y2="117.98914" /><linearGradient
       inkscape:collect="always"
       xlink:href="#linearGradient3008"
       id="linearGradient3208"
       gradientUnits="userSpaceOnUse"
       gradientTransform="translate(343.20862,0.04238441)"
       x1="-38.81863"
       y1="120.23163"
       x2="-38.127422"
       y2="120.51977" /><linearGradient
       inkscape:collect="always"
       xlink:href="#linearGradient3011"
       id="linearGradient3209"
       gradientUnits="userSpaceOnUse"
       gradientTransform="translate(343.21362,0.02105441)"
       x1="-39.764442"
       y1="119.47433"
       x2="-38.828999"
       y2="120.15252" /><linearGradient
       inkscape:collect="always"
       xlink:href="#linearGradient2780"
       id="linearGradient3210"
       gradientUnits="userSpaceOnUse"
       gradientTransform="translate(343.20863,0.04239441)"
       x1="-39.306602"
       y1="121.70846"
       x2="-39.098232"
       y2="121.56022" /><linearGradient
       inkscape:collect="always"
       xlink:href="#linearGradient4552"
       id="linearGradient3211"
       gradientUnits="userSpaceOnUse"
       gradientTransform="translate(343.20863,0.04239441)"
       x1="-38.756203"
       y1="121.36231"
       x2="-39.015972"
       y2="121.46405" /><linearGradient
       inkscape:collect="always"
       xlink:href="#linearGradient63493"
       id="linearGradient3212"
       gradientUnits="userSpaceOnUse"
       gradientTransform="matrix(1.7433748,0.15052372,-0.15052372,1.7433748,363.64658,-4.0010106)"
       x1="-29.126225"
       y1="74.429321"
       x2="-28.991299"
       y2="74.344162" /><linearGradient
       inkscape:collect="always"
       xlink:href="#linearGradient63493"
       id="linearGradient3213"
       gradientUnits="userSpaceOnUse"
       gradientTransform="matrix(1.7433748,0.15052372,-0.15052372,1.7433748,363.64658,-4.0010106)"
       x1="-29.418137"
       y1="73.520226"
       x2="-29.458525"
       y2="73.464424" /><linearGradient
       inkscape:collect="always"
       xlink:href="#linearGradient62413"
       id="linearGradient3214"
       gradientUnits="userSpaceOnUse"
       gradientTransform="matrix(0.95374863,0,0,0.95374863,323.73696,5.4451944)"
       x1="-23.121872"
       y1="119.67808"
       x2="-23.274147"
       y2="119.44971" /><linearGradient
       inkscape:collect="always"
       xlink:href="#linearGradient160"
       id="linearGradient3215"
       gradientUnits="userSpaceOnUse"
       gradientTransform="translate(343.00806,-11.731283)"
       x1="-36.488045"
       y1="123.74089"
       x2="-36.801411"
       y2="123.34343" /><linearGradient
       inkscape:collect="always"
       xlink:href="#linearGradient160"
       id="linearGradient3216"
       gradientUnits="userSpaceOnUse"
       gradientTransform="matrix(0.94289482,0.14923509,-0.14923509,0.94289482,179.34884,-115.45225)"
       x1="170.11813"
       y1="226.19618"
       x2="169.82771"
       y2="226.05933" /><linearGradient
       inkscape:collect="always"
       xlink:href="#linearGradient160"
       id="linearGradient3219"
       gradientUnits="userSpaceOnUse"
       gradientTransform="matrix(0.95359136,-0.04455551,0.04455551,0.95359136,317.85784,4.8536644)"
       x1="-18.19886"
       y1="123.27086"
       x2="-18.455603"
       y2="123.07808" /><linearGradient
       inkscape:collect="always"
       xlink:href="#linearGradient160"
       id="linearGradient3231"
       gradientUnits="userSpaceOnUse"
       gradientTransform="matrix(0.98151431,0.07988172,-0.07988172,0.98151431,155.92857,-112.78827)"
       x1="170.12567"
       y1="226.2823"
       x2="169.80945"
       y2="226.07721" /><linearGradient
       inkscape:collect="always"
       xlink:href="#linearGradient160"
       id="linearGradient3232"
       gradientUnits="userSpaceOnUse"
       gradientTransform="matrix(0.97738554,-0.12028655,0.12028655,0.97738554,307.79252,0.14360441)"
       x1="-18.208916"
       y1="123.35673"
       x2="-18.477118"
       y2="123.09193" /><linearGradient
       inkscape:collect="always"
       xlink:href="#linearGradient4552"
       id="linearGradient3233"
       gradientUnits="userSpaceOnUse"
       gradientTransform="translate(341.8743,-103.72184)"
       x1="-36.407196"
       y1="222.24644"
       x2="-36.619511"
       y2="222.02452" /><linearGradient
       inkscape:collect="always"
       xlink:href="#linearGradient2647"
       id="linearGradient3234"
       gradientUnits="userSpaceOnUse"
       gradientTransform="translate(341.8743,-103.72184)"
       x1="-36.699394"
       y1="219.36919"
       x2="-37.025692"
       y2="220.35503" /><linearGradient
       inkscape:collect="always"
       xlink:href="#linearGradient4552"
       id="linearGradient3235"
       gradientUnits="userSpaceOnUse"
       gradientTransform="translate(341.8743,-103.72184)"
       x1="-36.202057"
       y1="225.53563"
       x2="-36.477421"
       y2="225.68936" /><marker
       style="overflow:visible"
       id="Triangle-37"
       refX="0"
       refY="0"
       orient="auto-start-reverse"
       inkscape:stockid="Triangle arrow"
       markerWidth="0.5"
       markerHeight="0.5"
       viewBox="0 0 1 1"
       inkscape:isstock="true"
       inkscape:collect="always"
       preserveAspectRatio="xMidYMid"><path
         transform="scale(0.5)"
         style="fill:context-stroke;fill-rule:evenodd;stroke:context-stroke;stroke-width:1pt"
         d="M 5.77,0 -2.88,5 V -5 Z"
         id="path135-5" /></marker></defs><g
     inkscape:label="Layer 1"
     inkscape:groupmode="layer"
     id="layer1"
     transform="translate(-286.41462,-102.76931)"><g
       id="britwist"
       transform="translate(-14.070897,-12.142247)"
       inkscape:export-filename="pngs/britwist.png"
       inkscape:export-xdpi="50000"
       inkscape:export-ydpi="50000"><path
         style="fill:#f4a77e;fill-opacity:1;stroke-width:0.1;stroke-linecap:square;stroke-miterlimit:63.1"
         d="m 304.23073,118.69823 c 0,0 -0.15488,-0.0366 -0.21018,-0.0315 -0.0192,0.002 -0.0638,0.0236 -0.0638,0.0236 l 0.0368,0.042 0.23607,0.0103 z"
         id="path1523-7"
         sodipodi:nodetypes="cscccc" /><path
         style="fill:url(#linearGradient2721);fill-opacity:1;stroke:none;stroke-width:1;stroke-miterlimit:13.8"
         d="m 304.19583,115.84911 c 0,0 0.0463,0.0768 0.26232,-0.13654 0.27802,-0.19058 -0.0641,-0.0407 -0.0641,-0.0407 l -0.16386,0.062 -0.0434,0.0654 z"
         id="path2640-0-0"
         sodipodi:nodetypes="cccccc" /><path
         style="fill:url(#linearGradient2722);fill-opacity:1;stroke-width:0.485436"
         d="m 303.89507,118.00177 c 0,0 -0.48389,0.27911 -1.09456,0.61989 l 0.23131,0.16703 c 0,0 1.14967,-0.15119 1.32101,-0.50012 0.12822,-0.26113 -0.0148,-0.58331 0.15593,-0.8982 -0.37127,-0.0193 -0.58903,0.17681 -0.58903,0.17681 -0.007,0.2397 -0.0247,0.43459 -0.0247,0.43459 z"
         id="path37430-4-6-34"
         sodipodi:nodetypes="cccscccc" /><path
         id="path30127-9-6-2-28-3-7-06-8-6"
         style="fill:url(#linearGradient2723);fill-opacity:1;stroke:none;stroke-width:0.000592199;stroke-miterlimit:12.9;stroke-dasharray:none;stroke-opacity:1"
         d="m 302.72177,119.13051 c 0,0 -0.10638,0.0953 -0.25214,0.0275 -0.17996,-0.0837 -0.0512,-0.20787 -0.0132,-0.26829 0.0432,-0.0677 0.14392,-0.16175 0.14392,-0.16175 -0.0351,-0.0393 -0.0466,-0.0498 -0.0627,-0.0873 -0.0288,-0.0669 -0.004,-0.0912 0.0283,-0.0852 0.0648,0.0113 0.0729,0.0573 0.16305,0.0576 0.14777,-0.0102 0.17698,0.0249 0.25594,0.0635 0.0537,0.0262 0.0468,0.11208 0.0468,0.11208 -0.11262,0.11335 -0.1338,0.16966 -0.31007,0.34165 z"
         sodipodi:nodetypes="csscsscsccc" /><path
         style="fill:url(#linearGradient2724);fill-opacity:1;stroke:none;stroke-width:1;stroke-miterlimit:13.8"
         d="m 303.89507,118.00177 c 0,0 0.37019,0.052 0.45785,0.2868 0.0877,0.23479 0.13417,-0.36362 0.13417,-0.36362 l -0.14299,-0.26059 -0.42437,-0.0972 z"
         id="path2646-9-3" /><path
         id="path11166-4-2-6"
         style="fill:url(#linearGradient2725);fill-opacity:1;stroke-width:0.485436"
         d="m 304.98394,115.10015 c -0.16468,0.003 -0.49749,0.0423 -0.52245,0.31213 -0.0527,0.42144 -0.0756,0.83181 0.29145,1.07431 -0.15728,0.0512 -0.13616,0.0847 -0.31842,0.13489 -0.25153,0.0672 0.59459,0.31137 0.49672,0.86361 -0.0151,0.28135 -0.62176,0.0536 -0.48781,0.24855 0,0 -0.11965,0.35925 0.0874,1.69687 -0.46656,0.53128 -1.14432,1.22793 -1.04128,1.63556 0.0624,0.26564 0.36809,0.63058 0.51314,0.80873 0.35012,0.43028 0.58601,0.62167 0.58601,0.62167 0,0 0.002,0.001 0.006,0.004 0.003,10e-4 0.008,0.005 0.015,0.009 0.003,0.001 0.007,0.004 0.0114,0.005 0.004,10e-4 0.008,10e-4 0.0134,0.004 0.005,7.3e-4 0.0101,0.001 0.016,0.001 0.006,5e-4 0.0125,7.8e-4 0.0191,5.2e-4 0.007,-2.9e-4 0.0132,-6.2e-4 0.0207,-0.004 0.007,-0.001 0.0155,-0.004 0.0238,-0.005 0.008,-0.001 0.0172,-0.005 0.0264,-0.009 0.009,-0.004 0.0185,-0.009 0.0284,-0.015 0.01,-0.005 0.0198,-0.013 0.0305,-0.0202 0.0106,-0.007 0.0216,-0.0162 0.0331,-0.0263 0.0116,-0.009 0.0239,-0.0203 0.0362,-0.0326 0.0123,-0.0128 0.0246,-0.0256 0.0377,-0.0403 -0.10716,-0.16072 -0.22669,-0.40783 -0.32814,-0.69918 -0.12051,-0.34603 -0.35243,-0.54777 -0.35243,-0.54777 l 0.75911,-0.79604 c 0,0 -0.36488,0.74511 -0.27542,1.18775 0.0544,0.26932 0.30784,0.5232 0.55397,0.79271 0.38294,0.41936 0.50549,0.5669 0.50549,0.5669 0,0 0.003,0.001 0.008,0.005 0.005,0.004 0.0125,0.007 0.0217,0.0109 0.005,10e-4 0.01,0.004 0.015,0.007 0.005,0.001 0.0117,0.004 0.0181,0.005 0.006,10e-4 0.0131,0.004 0.0201,0.005 0.007,0.001 0.014,0.001 0.0217,0.004 0.008,5.7e-4 0.0165,4.6e-4 0.0248,0 0.008,-4.1e-4 0.0164,-0.001 0.0253,-0.004 0.009,-0.001 0.0182,-0.004 0.0274,-0.007 0.005,-10e-4 0.009,-0.004 0.0134,-0.005 0.005,-0.001 0.01,-0.004 0.0145,-0.007 0.005,-10e-4 0.009,-0.005 0.014,-0.007 0.005,-0.004 0.0105,-0.005 0.0155,-0.009 0.005,-0.004 0.01,-0.007 0.0145,-0.0109 0.005,-0.004 0.01,-0.007 0.015,-0.0129 0.005,-0.004 0.01,-0.009 0.0145,-0.0145 0.005,-0.005 0.01,-0.009 0.015,-0.015 0.005,-0.005 0.01,-0.0107 0.0145,-0.0181 0.005,-0.005 0.01,-0.013 0.015,-0.0202 -0.0917,-0.1732 -0.11632,-0.27547 -0.2714,-0.66456 -0.14833,-0.37218 -0.38602,-0.60048 -0.38602,-0.60048 0,0 0.17702,-0.26414 0.25321,-0.40359 0.14203,-0.2599 0.31958,-0.51379 0.37828,-0.80409 0.0778,-0.38493 -0.0549,-0.71292 -0.0496,-1.17667 0.0105,-0.38571 0.14833,-1.03913 0.16484,-1.57561 0.0207,-0.68699 -0.085,-0.76135 -0.2775,-0.8537 -0.10338,-0.048 -0.19407,-0.0848 -0.27337,-0.11472 -2e-4,-8e-5 -3.2e-4,-4.4e-4 -5.1e-4,-5.2e-4 -0.0557,-0.0335 -0.11058,-0.0751 -0.14005,-0.12609 -0.0438,-0.0758 -0.0447,-0.20316 -0.0269,-0.26096 0.32824,-1.06358 -0.39222,-1.09606 -0.39222,-1.09606 0,0 -0.0361,-0.003 -0.091,-0.002 z"
         sodipodi:nodetypes="ccccccccccccsccccsccccccsccsccsccssccccccccccccccsccscccscscccc" /><path
         style="opacity:0.691709;fill:url(#linearGradient2727);fill-opacity:1;stroke:none;stroke-width:0.1;stroke-miterlimit:13.8;stroke-dasharray:none;stroke-opacity:1"
         d="m 304.73953,121.01287 c 0,0 -0.0593,0.23515 -0.0421,0.41363 0.007,0.0748 0.0143,0.1397 0.0592,0.23581 0.0226,0.0484 0.0699,0.12783 0.13231,0.21295 0.0482,0.0657 0.10314,0.13045 0.16842,0.20445 0.12254,0.1389 0.24744,0.27146 0.32547,0.35702 0.0719,0.0795 0.38569,0.43523 0.38569,0.43523 0,0 0.0129,0.0271 0.0828,0.0331 0.0465,0.004 0.12974,0.0492 0.14139,-0.026 0.007,-0.0434 0.12867,-0.0417 0.10328,-0.0999 -0.12481,-0.28641 -0.17651,-0.42315 -0.19674,-0.47539 -0.0291,-0.0752 -0.0553,-0.15808 -0.0968,-0.24372 -0.0648,-0.13351 -0.14803,-0.28912 -0.20208,-0.35332 -0.0572,-0.068 -0.0943,-0.12035 -0.16151,-0.19345 0.0323,-0.0487 0.0995,-0.15174 0.12791,-0.19617 0.1464,-0.2287 -0.72063,-0.27346 -0.82718,-0.30418 z"
         id="path2664-6-33"
         sodipodi:nodetypes="cssssccsssssscscc" /><path
         id="path11202-1-6-4"
         style="fill:url(#linearGradient2729);fill-opacity:1;stroke:none;stroke-width:0.485436"
         d="m 304.5163,119.335 c 0,0 -0.0611,-0.0195 -0.0742,-0.009 -0.28732,0.36174 -0.79542,1.00112 -0.77204,1.11169 0.0777,0.27939 0.58779,0.61101 0.64369,0.61138 0.0615,2.3e-4 0.15496,-0.11526 0.27797,-0.24764 0.14755,-0.15754 0.21259,-0.21955 0.31085,-0.39098 -0.1179,0.16816 -0.18872,0.45715 -0.18824,0.59185 4.8e-4,0.1347 0.81195,0.42369 0.85967,0.36558 0.0545,-0.0664 0.1609,-0.2361 0.23947,-0.38877 0.11627,-0.18801 0.19296,-0.38028 0.24896,-0.5911 0.105,-0.3893 0.0111,-0.68231 -0.0305,-0.98753 l -0.84388,0.23151 z"
         sodipodi:nodetypes="cccccczsccccc" /><path
         style="opacity:0.75;fill:url(#linearGradient2730);fill-opacity:1;stroke-width:0.025;stroke-linecap:square;stroke-miterlimit:63.1"
         d="m 304.84861,116.63318 c 0,0 0.67803,-0.6333 0.62914,-0.47088 0,0 -0.0842,0.23406 0.0829,0.37399 0.23932,0.20043 -0.70798,0.34501 -0.70798,0.34501 0,0 -0.0949,-0.23682 -0.0268,-0.28636 z"
         id="path3984-4"
         sodipodi:nodetypes="cssccc" /><path
         style="opacity:0.75;fill:url(#linearGradient2752);fill-opacity:1;stroke-width:0.025;stroke-linecap:square;stroke-miterlimit:63.1"
         d="m 304.25215,117.67023 c 0,0 -0.53613,0.95805 -0.24687,0.87763 0.0864,-0.024 0.31884,-0.1602 0.34614,-0.26322 0.036,-0.13573 0.0272,-0.48488 -0.007,-0.62028 -0.0163,-0.064 -0.0919,0.006 -0.0919,0.006 z"
         id="path442-39"
         sodipodi:nodetypes="csssc" /><path
         id="path11204-0-4-7"
         style="fill:url(#linearGradient2764);fill-opacity:1;stroke:none;stroke-width:0.485436"
         d="m 304.67181,116.51144 c -0.36283,0.12175 -0.50694,0.19595 -0.5904,0.33233 -0.10649,0.17403 -0.16321,0.38169 -0.16358,0.63779 -4e-5,0.028 5.9e-4,0.0565 0.002,0.0856 0.0525,0.0466 0.13106,0.0803 0.2062,0.0932 0.11279,0.0196 0.21815,0.004 0.21815,0.004 0.0179,0.3725 -0.0162,0.51982 0.029,0.85527 0,0 -0.0234,0.53698 0,0.67128 0.0234,0.1343 0.18242,0.23616 0.18242,0.23616 0,0 0.0292,0.15266 0.19017,0.15761 0.16092,0.005 0.41619,0.24011 0.90899,0.10232 0.49279,-0.13779 0.38137,-0.36225 0.38137,-0.36225 0,0 0.0106,-0.0643 0.0233,-0.16382 0.007,-0.054 0.0184,-0.17702 0.0264,-0.24327 0.028,-0.25703 0.0666,-0.83884 0.0902,-1.13604 0.0596,-0.93074 0.0806,-0.9635 -0.61529,-1.24533 0,0 -0.40301,0.50835 -0.88883,-0.0248 z"
         sodipodi:nodetypes="csscsccsccsccccccc" /><path
         style="fill:url(#linearGradient2771);fill-opacity:1;stroke:none;stroke-width:1;stroke-miterlimit:13.8"
         d="m 304.80183,116.63189 c 0.15645,0.0102 0.57625,-0.0323 0.65652,-0.38668 0.0292,-0.12887 0.0346,-0.13845 0.0617,-0.25009 0.0566,-0.23331 0.0241,-0.41983 0.0241,-0.41983 l -1.10961,0.004 5.9e-4,0.31667 c -5.9e-4,0.1406 0.10368,0.72892 0.36672,0.73622 z"
         id="path2638-9-2"
         sodipodi:nodetypes="cssccccc" /><circle
         style="fill:url(#linearGradient2837);fill-opacity:1;stroke-width:0.403266"
         id="circle11172-58-4-5"
         cx="304.67819"
         cy="109.60159"
         r="0.25351685"
         transform="rotate(1.9658936)" /><path
         style="fill:url(#linearGradient2950);fill-opacity:1;stroke-width:0.411048"
         d="m 301.66692,119.29101 1.80494,-1.10954 -0.65411,-1.01012 c -0.0285,-0.044 0.0958,-0.12421 0.14472,-0.0597 0.0489,0.0645 1.22333,1.92725 1.37773,2.16608 0.0249,0.0386 -0.0769,0.13073 -0.12165,0.0649 -0.10229,-0.1503 -0.64153,-0.97505 -0.64153,-0.97505 l -1.8238,1.12491 z"
         id="path11174-26-8-8"
         sodipodi:nodetypes="ccszssccc" /><path
         id="path11176-06-7-9"
         style="fill:url(#linearGradient2954);fill-opacity:1;stroke-width:0.462983"
         d="m 301.6833,119.28479 c -0.006,5.7e-4 -0.0113,0.003 -0.0162,0.006 -0.0418,0.0298 -0.57347,0.34593 -0.75359,0.45295 -10e-4,7.2e-4 -0.003,0.002 -0.004,0.002 -0.004,0.002 -0.007,0.004 -0.0113,0.007 -0.0258,0.0205 -0.0562,0.0447 -0.0601,0.0478 -0.0785,0.0697 -0.16717,0.17572 -0.14145,0.22426 0.0254,0.0479 0.15494,0.0264 0.25185,-0.008 0.0349,-0.0153 0.053,-0.0232 0.072,-0.0315 0.003,-0.002 0.006,-0.004 0.009,-0.006 l 0.002,-10e-4 c 6e-4,-3.8e-4 9e-4,-5.9e-4 10e-4,-9.8e-4 l 0.002,-9.8e-4 c 5.8e-4,-4.2e-4 9.2e-4,-10e-4 0.002,-10e-4 l 0.13062,-0.0833 c 0,0 -0.0684,0.72452 -0.0111,0.8672 0.0573,0.14268 0.96377,1.50939 0.96377,1.50939 l 0.19025,-0.0764 c 0,0 -0.008,-0.0116 -0.01,-0.0144 l 0.0591,-0.0296 0.0774,0.12027 c 0.0503,-0.0738 0.079,-0.13898 0.0617,-0.23262 -0.0477,-0.0715 -0.12321,-0.18432 -0.12321,-0.18432 l -0.78191,-1.22993 c -0.0698,-0.10465 -0.12374,-0.6933 -0.13826,-0.86819 10e-4,-0.008 0.003,-0.0192 0.003,-0.0192 l 0.34402,-0.22179 c 0.0748,-0.0482 -0.0498,-0.23384 -0.11928,-0.22721 z"
         sodipodi:nodetypes="ssssccsccscccccccccccccccccss" /><path
         style="fill:url(#linearGradient2973);fill-opacity:1;stroke-width:0.462984"
         d="m 303.80171,118.71377 0.12668,-0.0845 c 0,0 0.18096,0.25961 0.41182,0.64852 0.0235,0.0396 -0.0757,0.13474 -0.12165,0.0649 -0.12674,-0.19228 -0.41685,-0.62897 -0.41685,-0.62897 z"
         id="path11184-6-1-0"
         sodipodi:nodetypes="ccsscc" /><path
         style="fill:url(#linearGradient2974);fill-opacity:1;stroke-width:0.462984"
         d="m 303.21815,117.78966 0.12457,-0.0828 c 0,0 -0.20898,-0.34613 -0.39055,-0.6168 -0.0291,-0.0434 -0.17273,0.0189 -0.13441,0.0814 0.14202,0.2308 0.40039,0.61832 0.40039,0.61832 z"
         id="path11188-2-7-2"
         sodipodi:nodetypes="ccsscc" /><path
         style="fill:url(#linearGradient2982);fill-opacity:1;stroke-width:0.0381963"
         d="m 304.43452,115.57896 c 0,0 0.006,-0.26641 0.0613,-0.37586 0.0951,-0.189 0.31049,-0.28253 0.56388,-0.29154 0.14782,0.004 0.2743,0.0299 0.40412,0.18274 0.12981,0.15284 0.12232,0.32112 0.12232,0.32112 l -0.006,0.2253 c -0.11443,0.0545 -0.21265,0.0369 -0.28399,0.0226 -0.11256,7.4e-4 -0.65033,-0.13796 -0.65033,-0.13796 z"
         id="path11206-13-2-4"
         sodipodi:nodetypes="cscsccccc" /><path
         style="fill:url(#linearGradient2983);fill-opacity:1;stroke-width:0.0381963"
         d="m 304.43249,115.57903 c 0,0 -0.11242,0.0844 -0.16698,0.12862 -0.0211,0.0165 -0.1088,0.0644 -0.0697,0.14146 -0.005,-0.0314 -0.007,-0.13449 0.21925,-0.12201 0.0392,0.004 0.16838,0.0694 0.29617,0.12604 0.0211,0.009 0.14217,0.0734 0.20861,0.0607 0.20691,-0.0396 0.33076,-0.17541 0.3806,-0.24977 -0.13004,-0.033 -0.3561,-0.0906 -0.51494,-0.131 -0.16498,-0.042 -0.25205,-0.028 -0.35303,0.0461 z"
         id="path11208-7-7-7"
         sodipodi:nodetypes="ccccsscsc" /><path
         style="fill:url(#linearGradient3158);fill-opacity:1;stroke:none;stroke-width:1;stroke-miterlimit:13.8"
         d="m 305.9814,117.77394 c 0,0 -0.0118,0.0266 -0.0285,0.0493 -0.0179,0.0245 -0.0286,0.0394 -0.0467,0.0586 -0.0188,0.0199 -0.35324,-0.088 -0.35324,-0.088 l -0.29145,-0.1434 c 0,0 -0.0202,-0.007 -0.006,-0.0373 0.0146,-0.0522 0.0483,-0.3642 0.10662,-0.48843 0.28043,-0.59738 0.68634,-0.47109 0.80263,-0.17065 0.0893,0.28591 -0.0319,0.52321 -0.18327,0.81977 z"
         id="path2642-2-6"
         sodipodi:nodetypes="csscccsccc" /><path
         style="fill:url(#linearGradient3161);fill-opacity:1;stroke:none;stroke-width:1;stroke-miterlimit:13.8"
         d="m 304.3484,117.7849 -0.004,-0.12054 c -2e-5,-0.14783 0.0196,-0.22552 0.0491,-0.37158 l 0.0729,-0.2053 0.59433,2.2114 c 0,0 -0.0509,0.32755 -0.24164,0.30388 -0.037,-0.005 -0.0725,-0.026 -0.10004,-0.0212 -0.0306,0.005 -0.10566,-0.0473 -0.10566,-0.0473 l -0.0371,-0.0493 c 0,0 -0.0238,-0.0476 -0.0354,-0.066 -0.0118,-0.009 -0.0978,-0.0897 -0.0978,-0.0897 0,0 -0.0754,-0.081 -0.078,-0.20301 -0.003,-0.14022 0.003,-0.44946 0.003,-0.44946 l -10e-4,-0.20914 -0.0136,-0.17871 -0.005,-0.15071 10e-4,-0.21189 z"
         id="path2644-6-5"
         sodipodi:nodetypes="cccccssccccscccccc" /><path
         style="fill:url(#linearGradient3172);fill-opacity:1;stroke-width:0.485436"
         d="m 304.08141,118.87157 0.18236,0.16468 c 0,0 0.64147,-0.21317 1.04163,-0.41685 0.3604,-0.18345 0.29685,-0.26264 0.57951,-0.78289 -0.12885,-0.14905 -0.34494,-0.23808 -0.5856,-0.22428 -0.10023,0.21912 -0.14654,0.30367 -0.24022,0.50861 -0.38036,0.25369 -0.39814,0.28499 -0.9607,0.66785 z"
         id="path11164-26-1-7"
         sodipodi:nodetypes="ccsccccc" /><path
         style="fill:url(#linearGradient3206);stroke-width:0.542853"
         d="m 304.23073,118.69823 c -0.0471,0.0325 -0.3192,0.0128 -0.39259,0.0884 -0.0663,0.0539 0.049,0.24524 0.0835,0.30311 0.0938,0.15765 0.38285,-0.0777 0.4483,-0.10782 0.15108,-0.079 -0.0358,-0.35507 -0.13918,-0.28371 z"
         id="path11186-45-0-1"
         sodipodi:nodetypes="scscss" /><path
         style="fill:url(#linearGradient3207);fill-opacity:1;stroke:none;stroke-width:1;stroke-miterlimit:13.8"
         d="m 305.05909,118.12084 c 0,0 0.12229,-0.061 0.28996,-0.0196 0.0665,0.0164 0.3551,-0.4051 0.3551,-0.4051 0,0 -0.27069,-0.0862 -0.40484,-0.084 -0.081,0.16842 -0.24022,0.5087 -0.24022,0.5087 z"
         id="path2651-6-33"
         sodipodi:nodetypes="csccc" /><path
         style="fill:url(#linearGradient3208);fill-opacity:1;stroke:none;stroke-width:1;stroke-miterlimit:13.8"
         d="m 304.71501,120.97734 c 0,0 0.007,-0.37728 0.32103,-0.78557 0.0785,-0.10212 0.31905,-0.15114 0.41103,-0.0886 0.23073,0.15673 -0.41362,1.11274 -0.41362,1.11274 l -0.26463,-0.14038 c -0.0482,-0.0425 -0.0616,-0.0589 -0.0538,-0.0982 z"
         id="path2658-1-38"
         sodipodi:nodetypes="csscccc" /><path
         style="fill:url(#linearGradient3209);fill-opacity:1;stroke:none;stroke-width:1;stroke-miterlimit:13.8"
         d="m 304.53158,120.85065 0.22305,-0.24184 0.10709,-0.13914 c 0,0 0.10026,-0.20414 0.0616,-0.31814 -0.031,-0.0915 0.0558,-0.55119 -0.12747,-0.56005 -0.0172,-8.3e-4 -0.0326,-0.002 -0.0464,-0.004 -0.0593,-0.005 -0.094,-0.0229 -0.11547,-0.0391 -0.0242,-0.0176 -0.0182,-0.0123 -0.0369,-0.0356 -0.0395,-0.0493 -0.0368,-0.0772 -0.07,-0.10655 -0.0589,-0.0521 -0.0849,-0.0806 -0.0849,-0.0806 l -0.29282,0.36509 -0.12667,0.17109 -0.14827,0.20085 -0.13394,0.20267 -0.0378,0.0668 -0.0232,0.0519 -0.0114,0.0403 0.004,0.0261 0.0128,0.0366 c 0.0554,0.1043 0.12691,0.18962 0.21725,0.27717 l 0.0826,0.0699 c 0.0812,0.0628 0.12816,0.0931 0.19455,0.1401 l 0.0863,0.0499 c 0,0 0.0555,0.0425 0.10797,-7.9e-4 0.0525,-0.0433 0.15783,-0.17295 0.15783,-0.17295 z"
         id="path2662-9-5"
         sodipodi:nodetypes="ccccsscssccccccccccccccccc" /><path
         style="opacity:0.630406;fill:url(#linearGradient3210);fill-opacity:1;stroke:none;stroke-width:0.1;stroke-miterlimit:13.8;stroke-dasharray:none;stroke-opacity:1"
         d="m 303.63069,120.54282 -0.0622,0.11535 -0.0477,0.11135 -0.0244,0.0789 c -0.0386,0.17076 -0.0117,0.25172 0.0831,0.43813 0.12258,0.22754 0.31852,0.47151 0.59189,0.78799 0.12863,0.15094 0.26107,0.28383 0.41736,0.42194 l 0.04,0.0474 0.11984,-0.013 0.10418,-0.0761 0.0532,-0.0872 c 0,0 -0.18091,-0.27569 -0.26716,-0.53462 -0.0352,-0.10577 -0.0239,-0.0945 -0.10453,-0.27386 -0.0347,-0.0772 -0.10259,-0.19704 -0.1575,-0.26759 -0.0397,-0.051 -0.15138,-0.17087 -0.15138,-0.17087 0,0 0.0419,-0.0386 0.0729,-0.0765 -0.38314,-0.19572 -0.59254,-0.47939 -0.61976,-0.57512 z"
         id="path2649-4-1"
         sodipodi:nodetypes="cccccccccccssscccc" /><path
         style="opacity:0.431429;fill:url(#linearGradient3211);fill-opacity:1;stroke:none;stroke-width:0.1;stroke-miterlimit:13.8;stroke-dasharray:none;stroke-opacity:1"
         d="m 303.63069,120.54282 -0.0622,0.11535 -0.0477,0.11135 -0.0244,0.0789 c -0.0386,0.17076 -0.0117,0.25172 0.0831,0.43813 0.12258,0.22754 0.31852,0.47151 0.59189,0.78799 0.12863,0.15094 0.26107,0.28383 0.41736,0.42194 l 0.04,0.0474 0.11984,-0.013 0.10418,-0.0761 0.0532,-0.0872 c 0,0 -0.18091,-0.27569 -0.26716,-0.53462 -0.0352,-0.10577 -0.0239,-0.0945 -0.10453,-0.27386 -0.0347,-0.0772 -0.10259,-0.19704 -0.1575,-0.26759 -0.0397,-0.051 -0.15138,-0.17087 -0.15138,-0.17087 0,0 0.0419,-0.0386 0.0729,-0.0765 -0.38314,-0.19572 -0.59254,-0.47939 -0.61976,-0.57512 z"
         id="path4564-0"
         sodipodi:nodetypes="cccccccccccssscccc" /><path
         id="path2686-0-8"
         style="fill:url(#linearGradient3212);fill-opacity:1;stroke-width:0.462983"
         d="m 301.16739,119.89072 c -0.001,0.0113 -0.0672,0.72713 -0.0103,0.86868 0.0573,0.14268 0.96377,1.50947 0.96377,1.50947 l 0.19017,-0.0765 c 0,0 -0.008,-0.0117 -0.01,-0.0145 l 0.0589,-0.0294 0.0775,0.11988 c 0.0503,-0.0738 0.0788,-0.1389 0.0615,-0.23254 -0.0477,-0.0715 -0.12299,-0.18448 -0.12299,-0.18448 l -0.78187,-1.2299 c -0.0698,-0.10465 -0.13539,-0.88884 -0.13539,-0.88884 0,0 -0.16682,0.094 -0.29147,0.15813 z"
         sodipodi:nodetypes="cccccccccccc" /><path
         id="path2687-9-76"
         style="fill:url(#linearGradient3213);fill-opacity:1;stroke-width:0.462983"
         d="m 301.68312,119.28456 c -0.006,5.7e-4 -0.0112,0.003 -0.016,0.006 -0.0688,0.0649 -0.57332,0.34618 -0.75344,0.4532 -10e-4,7.2e-4 -0.003,0.002 -0.004,0.002 -0.003,0.002 -0.007,0.004 -0.0114,0.007 -0.0258,0.0205 -0.056,0.0444 -0.0599,0.0475 -0.0785,0.0697 -0.16731,0.17573 -0.14159,0.22427 0.0254,0.0479 0.15526,0.0267 0.25218,-0.008 0.0349,-0.0153 0.0529,-0.0232 0.0718,-0.0315 0.003,-0.002 0.006,-0.004 0.009,-0.006 l 0.003,-10e-4 c 6e-4,-3.8e-4 9.5e-4,-1.2e-4 0.002,-5.1e-4 l 0.002,-0.001 c 5.8e-4,-4.2e-4 9.6e-4,-10e-4 0.002,-10e-4 l 0.13074,-0.0832 0.38499,-0.27661 v 0 l 0.24983,-0.10326 c 0.0748,-0.0482 -0.0496,-0.23358 -0.11909,-0.22695 z"
         sodipodi:nodetypes="ccccccsccccccccccccc" /><path
         style="fill:url(#linearGradient3214);fill-opacity:1;stroke-width:0.462984"
         d="m 301.52243,119.69335 c -0.0199,-0.11716 -0.0656,-0.16346 -0.1631,-0.21538 0.12493,-0.0747 0.30758,-0.18705 0.30758,-0.18705 0.0713,-0.0438 0.21615,0.16873 0.13631,0.22196 z"
         id="path11210-7-1-3"
         sodipodi:nodetypes="ccccc" /><circle
         style="fill:url(#linearGradient3215);fill-opacity:1;stroke-width:0.403266"
         id="circle11178-6-7-5"
         cx="306.37515"
         cy="111.80156"
         r="0.25351685"
         transform="rotate(1.9658936)" /><path
         style="fill:#c8c8c8;fill-opacity:1;stroke-width:0.252346"
         d="m 302.26643,122.01005 0.17111,0.25805 c 0,0 0.0817,-0.20265 0.0617,-0.23262 -0.0321,-0.048 -0.0973,-0.14559 -0.0973,-0.14559 z"
         id="path11180-4-7-0"
         sodipodi:nodetypes="ccscc" /><path
         style="fill:url(#linearGradient3216);fill-opacity:1;stroke-width:0.0954636;stroke-linecap:square;stroke-miterlimit:63.1"
         d="m 305.55831,123.25143 c 0,0 -0.0219,0.0691 0.002,0.12599 0.0121,0.0266 0.0874,0.0913 0.22515,0.0935 0.10761,-0.001 0.25615,-0.21184 0.28779,-0.25076 0.0315,-0.0388 0.0848,-0.11423 0.0966,-0.13611 0.0117,-0.0217 0.042,-0.0896 -0.0436,-0.24866 -0.0539,-0.10269 -0.34694,0.28766 -0.34694,0.28766 z"
         id="path3148-8-2-3-6-0-9-1-97-80"
         sodipodi:nodetypes="cccscscc" /><path
         id="path22517-4-81-45-3-73-7-3-1-3-7-2-5-9-7-1-6-3-4-76-41"
         style="fill:url(#linearGradient3219);fill-opacity:1;stroke-width:0.463411"
         d="m 306.08651,122.76252 c -0.0813,0.12532 -0.19537,0.16953 -0.30963,0.11519 0,0 -0.18647,0.27618 -0.21839,0.3741 -0.0402,0.12318 0.17631,0.16656 0.17631,0.16656 0.11727,0.0279 0.19694,-0.12941 0.29897,-0.25143 0.0748,-0.0885 0.1708,-0.16733 0.0924,-0.33144 -0.0105,-0.0225 -0.0285,-0.0507 -0.0397,-0.0726 z"
         sodipodi:nodetypes="cccccccc" /><path
         style="fill:url(#linearGradient3231);fill-opacity:1;stroke-width:0.0984764;stroke-linecap:square;stroke-miterlimit:63.1"
         d="m 304.38576,122.88793 c 0,0 -0.0172,0.0729 0.0124,0.12939 0.0144,0.0261 0.10757,0.0827 0.23803,0.0847 0.11859,0.009 0.25934,-0.27622 0.36599,-0.43416 0.0103,-0.0233 0.0362,-0.0956 -0.0643,-0.25237 -0.0634,-0.10146 -0.3344,0.32298 -0.3344,0.32298 z"
         id="path3148-8-2-3-6-0-9-1-97-8-1"
         sodipodi:nodetypes="ccccscc" /><path
         id="path22517-4-81-45-3-73-7-3-1-3-7-2-5-9-7-1-6-3-4-76-1-3"
         style="fill:url(#linearGradient3232);fill-opacity:1;stroke-width:0.478037"
         d="m 304.89089,122.3438 c -0.0738,0.13527 -0.18772,0.18965 -0.30949,0.14268 0,0 -0.17024,0.29864 -0.19543,0.40186 -0.0317,0.12983 0.1195,0.1439 0.19436,0.15752 0.15976,0.0291 0.19247,-0.14847 0.28789,-0.28195 0.07,-0.097 0.16262,-0.18544 0.0691,-0.34812 -0.0125,-0.0224 -0.0332,-0.0498 -0.0466,-0.0717 z"
         sodipodi:nodetypes="cccscccc" /><path
         style="opacity:0.75;fill:url(#linearGradient3233);fill-opacity:1;stroke:#000000;stroke-width:0;stroke-linecap:square;stroke-miterlimit:63.1;stroke-dasharray:none;stroke-opacity:1"
         d="m 305.7597,118.08136 c 0,0 -0.0495,0.0973 -0.12996,0.2637 -0.0778,0.16092 -0.24812,0.2419 -0.55565,0.38261 -0.11457,0.0524 -0.25555,0.10582 -0.35003,0.1426 -0.1328,-0.39782 0.42921,-0.90444 0.77068,-1.0038 0.12782,-0.0372 0.26496,0.21489 0.26496,0.21489 z"
         id="path4555-5"
         sodipodi:nodetypes="csscsc" /><path
         style="fill:url(#linearGradient3234);fill-opacity:1;stroke:#000000;stroke-width:0;stroke-linecap:square;stroke-miterlimit:63.1;stroke-dasharray:none;stroke-opacity:1"
         d="m 305.45347,115.86257 c 0,0 0.14593,-0.12336 0.16363,0 0.0257,0.17954 -0.21352,0.30257 -0.21352,0.30257"
         id="path4556-9"
         sodipodi:nodetypes="csc" /><path
         style="opacity:0.41337;fill:url(#linearGradient3235);fill-opacity:1;stroke:#000000;stroke-width:0;stroke-linecap:square;stroke-miterlimit:63.1;stroke-dasharray:none;stroke-opacity:1"
         d="m 305.4388,121.51328 c 0,0 0.26436,0.22252 0.4644,0.80077 0.10447,0.30199 -0.13295,0.22982 -0.13295,0.22982 l -0.79336,-0.81512 0.1707,-0.35325 z"
         id="path4561-3"
         sodipodi:nodetypes="cscccc" /><path
         style="fill:none;fill-opacity:0.631373;stroke:#ff8f00;stroke-width:0.200315;stroke-linecap:square;stroke-miterlimit:63.1;stroke-dasharray:none;stroke-opacity:1;marker-start:url(#marker36);marker-end:url(#Triangle-37)"
         id="path5860-22"
         sodipodi:type="arc"
         sodipodi:cx="-230.24356"
         sodipodi:cy="231.69099"
         sodipodi:rx="0.69685763"
         sodipodi:ry="0.7083599"
         sodipodi:start="2.8057741"
         sodipodi:end="4.9887951"
         sodipodi:open="true"
         sodipodi:arc-type="arc"
         d="m -230.90149,231.92443 a 0.69685763,0.7083599 0 0 1 0.15076,-0.71922 0.69685763,0.7083599 0 0 1 0.69734,-0.19569"
         transform="rotate(-113.42465)" /></g></g></svg>
