<?xml version="1.0" encoding="UTF-8" standalone="no"?>
<!-- Created with Inkscape (http://www.inkscape.org/) -->

<svg
   width="5.2871866"
   height="7.1324511"
   viewBox="0 0 0 0"
   version="1.1"
   id="svg5"
   xml:space="preserve"
   inkscape:version="1.4 (unknown)"
   sodipodi:docname="crah-tricks-17-07-2025-1.svg"
   inkscape:export-batch-path="full/svgs/svgs"
   inkscape:export-batch-name=""
   xmlns:inkscape="http://www.inkscape.org/namespaces/inkscape"
   xmlns:sodipodi="http://sodipodi.sourceforge.net/DTD/sodipodi-0.dtd"
   xmlns:xlink="http://www.w3.org/1999/xlink"
   xmlns="http://www.w3.org/2000/svg"
   xmlns:svg="http://www.w3.org/2000/svg"><sodipodi:namedview
     id="namedview7"
     pagecolor="#ffffff"
     bordercolor="#000000"
     borderopacity="0.25"
     inkscape:showpageshadow="2"
     inkscape:pageopacity="0.0"
     inkscape:pagecheckerboard="0"
     inkscape:deskcolor="#d1d1d1"
     inkscape:document-units="mm"
     showgrid="false"
     inkscape:zoom="2.828427"
     inkscape:cx="130.28443"
     inkscape:cy="45.961943"
     inkscape:window-width="1918"
     inkscape:window-height="1061"
     inkscape:window-x="0"
     inkscape:window-y="17"
     inkscape:window-maximized="1"
     inkscape:current-layer="layer1"
     showguides="true"
     inkscape:export-bgcolor="#ffffff00"><inkscape:page
       x="0"
       y="0"
       width="5.2871866"
       height="7.1324511"
       id="page1"
       margin="0"
       bleed="0" /></sodipodi:namedview><defs
     id="defs2"><marker
       style="overflow:visible"
       id="marker36"
       refX="9"
       refY="0"
       orient="auto"
       inkscape:stockid="Square"
       markerWidth="0.2"
       markerHeight="0.2"
       viewBox="0 0 1 1"
       inkscape:isstock="true"
       inkscape:collect="always"
       preserveAspectRatio="xMidYMid"><path
         transform="scale(0.5)"
         style="fill:context-stroke;fill-rule:evenodd;stroke:none"
         d="M -5,-5 V 5 H 5 V -5 Z"
         id="path36" /></marker><linearGradient
       id="linearGradient4029"
       inkscape:collect="always"><stop
         style="stop-color:#ffffff;stop-opacity:1"
         offset="0"
         id="stop4028" /><stop
         style="stop-color:#ffffff;stop-opacity:0;"
         offset="1"
         id="stop4029" /></linearGradient><linearGradient
       id="linearGradient4023"
       inkscape:collect="always"><stop
         style="stop-color:#ee2900;stop-opacity:1;"
         offset="0"
         id="stop4022" /><stop
         style="stop-color:#f47547;stop-opacity:0;"
         offset="1"
         id="stop4023" /></linearGradient><linearGradient
       id="linearGradient4552"
       inkscape:collect="always"><stop
         style="stop-color:#ee2900;stop-opacity:1;"
         offset="0"
         id="stop4552" /><stop
         style="stop-color:#f47547;stop-opacity:0;"
         offset="1"
         id="stop4553" /></linearGradient><linearGradient
       id="linearGradient3623"
       inkscape:collect="always"><stop
         style="stop-color:#000000;stop-opacity:1;"
         offset="0"
         id="stop3622" /><stop
         style="stop-color:#2f2f2f;stop-opacity:1;"
         offset="1"
         id="stop3623" /></linearGradient><linearGradient
       id="linearGradient1917"
       inkscape:collect="always"><stop
         style="stop-color:#fffaff;stop-opacity:1;"
         offset="0"
         id="stop1918" /><stop
         style="stop-color:#f4895d;stop-opacity:0;"
         offset="1"
         id="stop1919" /></linearGradient><linearGradient
       id="linearGradient3077"
       inkscape:collect="always"><stop
         style="stop-color:#f49c72;stop-opacity:0;"
         offset="0"
         id="stop3077" /><stop
         style="stop-color:#ffffff;stop-opacity:1;"
         offset="1"
         id="stop3078" /></linearGradient><linearGradient
       id="linearGradient3075"
       inkscape:collect="always"><stop
         style="stop-color:#ffffff;stop-opacity:1;"
         offset="0"
         id="stop3075" /><stop
         style="stop-color:#ffffff;stop-opacity:0;"
         offset="1"
         id="stop3076" /></linearGradient><linearGradient
       id="linearGradient3072"
       inkscape:collect="always"><stop
         style="stop-color:#ffffff;stop-opacity:1;"
         offset="0"
         id="stop3073" /><stop
         style="stop-color:#3a3a3a;stop-opacity:0;"
         offset="1"
         id="stop3074" /></linearGradient><linearGradient
       inkscape:collect="always"
       id="linearGradient3070"><stop
         style="stop-color:#020000;stop-opacity:1;"
         offset="0.48519322"
         id="stop3069" /><stop
         style="stop-color:#2c2b2b;stop-opacity:1;"
         offset="0.7956624"
         id="stop3072" /><stop
         style="stop-color:#484848;stop-opacity:1;"
         offset="1"
         id="stop3070" /></linearGradient><linearGradient
       inkscape:collect="always"
       id="linearGradient3067"><stop
         style="stop-color:#020000;stop-opacity:1;"
         offset="0"
         id="stop3066" /><stop
         style="stop-color:#484848;stop-opacity:1;"
         offset="1"
         id="stop3067" /></linearGradient><linearGradient
       id="linearGradient2876"
       inkscape:collect="always"><stop
         style="stop-color:#ffffff;stop-opacity:1;"
         offset="0"
         id="stop2881" /><stop
         style="stop-color:#ffffff;stop-opacity:0;"
         offset="1"
         id="stop2882" /></linearGradient><linearGradient
       id="linearGradient2777"
       inkscape:collect="always"><stop
         style="stop-color:#ffffff;stop-opacity:1;"
         offset="0"
         id="stop2783" /><stop
         style="stop-color:#0d0d0d;stop-opacity:0;"
         offset="1"
         id="stop2784" /></linearGradient><linearGradient
       id="linearGradient2775"
       inkscape:collect="always"><stop
         style="stop-color:#ffffff;stop-opacity:0.46666864;"
         offset="0"
         id="stop2666" /><stop
         style="stop-color:#a5a5a5;stop-opacity:0;"
         offset="1"
         id="stop2679" /></linearGradient><linearGradient
       id="linearGradient2641"
       inkscape:collect="always"><stop
         style="stop-color:#fc0e00;stop-opacity:1;"
         offset="0"
         id="stop2641" /><stop
         style="stop-color:#000e00;stop-opacity:1;"
         offset="1"
         id="stop2642" /></linearGradient><linearGradient
       id="linearGradient160"
       inkscape:collect="always"><stop
         style="stop-color:#000000;stop-opacity:1;"
         offset="0"
         id="stop160" /><stop
         style="stop-color:#2f2f2f;stop-opacity:1;"
         offset="1"
         id="stop161" /></linearGradient><linearGradient
       inkscape:collect="always"
       id="linearGradient36900"><stop
         style="stop-color:#f47344;stop-opacity:1;"
         offset="0"
         id="stop36896" /><stop
         style="stop-color:#f48c60;stop-opacity:1"
         offset="1"
         id="stop36898" /></linearGradient><linearGradient
       inkscape:collect="always"
       id="linearGradient20612"><stop
         style="stop-color:#fc0000;stop-opacity:1;"
         offset="0"
         id="stop20608" /><stop
         style="stop-color:#fc6a00;stop-opacity:1;"
         offset="1"
         id="stop20610" /></linearGradient><linearGradient
       inkscape:collect="always"
       id="linearGradient27226"><stop
         style="stop-color:#f4a77e;stop-opacity:1;"
         offset="0"
         id="stop27222" /><stop
         style="stop-color:#f46f40;stop-opacity:1;"
         offset="1"
         id="stop27224" /></linearGradient><linearGradient
       inkscape:collect="always"
       id="linearGradient64309"><stop
         style="stop-color:#000000;stop-opacity:1;"
         offset="0"
         id="stop64305" /><stop
         style="stop-color:#2f2f2f;stop-opacity:1;"
         offset="1"
         id="stop64307" /></linearGradient><linearGradient
       inkscape:collect="always"
       id="linearGradient63493"><stop
         style="stop-color:#969696;stop-opacity:1;"
         offset="0"
         id="stop63489" /><stop
         style="stop-color:#c8c8c8;stop-opacity:1;"
         offset="1"
         id="stop63491" /></linearGradient><linearGradient
       inkscape:collect="always"
       id="linearGradient62193"><stop
         style="stop-color:#969696;stop-opacity:1;"
         offset="0"
         id="stop62189" /><stop
         style="stop-color:#c8c8c8;stop-opacity:1;"
         offset="1"
         id="stop62191" /></linearGradient><linearGradient
       inkscape:collect="always"
       id="linearGradient55368"><stop
         style="stop-color:#f4a77e;stop-opacity:1;"
         offset="0"
         id="stop55364" /><stop
         style="stop-color:#f46f40;stop-opacity:1;"
         offset="1"
         id="stop55366" /></linearGradient><linearGradient
       inkscape:collect="always"
       id="linearGradient50523"><stop
         style="stop-color:#fc0000;stop-opacity:1;"
         offset="0"
         id="stop50519" /><stop
         style="stop-color:#fc6a00;stop-opacity:1;"
         offset="1"
         id="stop50521" /></linearGradient><linearGradient
       inkscape:collect="always"
       id="linearGradient49756"><stop
         style="stop-color:#f50000;stop-opacity:1;"
         offset="0"
         id="stop49752" /><stop
         style="stop-color:#ff4f00;stop-opacity:1;"
         offset="1"
         id="stop49754" /></linearGradient><linearGradient
       id="linearGradient45844"
       inkscape:swatch="solid"><stop
         style="stop-color:#000000;stop-opacity:1;"
         offset="0"
         id="stop45842" /></linearGradient><linearGradient
       id="linearGradient384"
       inkscape:collect="always"><stop
         style="stop-color:#f48b5f;stop-opacity:1;"
         offset="0"
         id="stop384" /><stop
         style="stop-color:#f47344;stop-opacity:1;"
         offset="1"
         id="stop385" /></linearGradient><linearGradient
       inkscape:collect="always"
       xlink:href="#linearGradient3623"
       id="linearGradient3104-2"
       x1="-104.38168"
       y1="65.092087"
       x2="-104.59273"
       y2="64.832657"
       gradientUnits="userSpaceOnUse"
       gradientTransform="matrix(0.86014925,0,0,0.86014925,-386.98155,-136.12773)" /><linearGradient
       inkscape:collect="always"
       xlink:href="#linearGradient3623"
       id="linearGradient3103-0"
       x1="-32.469578"
       y1="73.380898"
       x2="-32.599758"
       y2="73.22657"
       gradientUnits="userSpaceOnUse"
       gradientTransform="matrix(1.7449308,0,0,1.7449308,-418.44064,-205.99302)" /><filter
       inkscape:collect="always"
       style="color-interpolation-filters:sRGB"
       id="filter2951-8-4"
       x="-0.077018604"
       y="-0.087751053"
       width="1.1540372"
       height="1.1755021"><feGaussianBlur
         inkscape:collect="always"
         stdDeviation="0.015900491"
         id="feGaussianBlur2951-7-5" /></filter><linearGradient
       inkscape:collect="always"
       xlink:href="#linearGradient160"
       id="linearGradient5295"
       gradientUnits="userSpaceOnUse"
       gradientTransform="matrix(0.54819061,-0.71199622,0.71199622,0.54819061,215.46826,118.74026)"
       x1="170.10716"
       y1="226.21191"
       x2="169.84048"
       y2="226.08702" /><linearGradient
       inkscape:collect="always"
       xlink:href="#linearGradient160"
       id="linearGradient5302"
       gradientUnits="userSpaceOnUse"
       gradientTransform="matrix(0.39285532,-0.8081561,0.8081561,0.39285532,377.30373,58.48032)"
       x1="-18.212774"
       y1="123.28399"
       x2="-18.448679"
       y2="123.10773" /><linearGradient
       inkscape:collect="always"
       xlink:href="#linearGradient62193"
       id="linearGradient5303"
       gradientUnits="userSpaceOnUse"
       gradientTransform="matrix(-1.7300114,-0.22769287,0.22769287,-1.7300114,400.86811,238.39136)"
       x1="-29.44154"
       y1="74.133972"
       x2="-29.29541"
       y2="74.009598" /><linearGradient
       inkscape:collect="always"
       xlink:href="#linearGradient62193"
       id="linearGradient5304"
       gradientUnits="userSpaceOnUse"
       gradientTransform="translate(342.63769,-104.16798)"
       x1="126.04439"
       y1="221.01035"
       x2="125.76327"
       y2="221.19225" /><linearGradient
       inkscape:collect="always"
       xlink:href="#linearGradient63493"
       id="linearGradient5337"
       gradientUnits="userSpaceOnUse"
       gradientTransform="matrix(-0.71501385,1.5917094,1.5917094,0.71501385,330.78538,112.14694)"
       x1="-28.162312"
       y1="72.566162"
       x2="-28.206665"
       y2="72.49427" /><linearGradient
       inkscape:collect="always"
       xlink:href="#linearGradient160"
       id="linearGradient5339"
       gradientUnits="userSpaceOnUse"
       gradientTransform="matrix(-1.0060897,0.22188255,-0.22188255,-1.0060897,470.91201,243.86523)"
       x1="-23.459694"
       y1="119.69993"
       x2="-23.140306"
       y2="119.5779" /><linearGradient
       inkscape:collect="always"
       xlink:href="#linearGradient63493"
       id="linearGradient5346"
       gradientUnits="userSpaceOnUse"
       gradientTransform="matrix(-0.76594311,1.5678376,1.5678376,0.76594311,331.08704,107.78171)"
       x1="-28.16283"
       y1="72.563576"
       x2="-28.204842"
       y2="72.490288" /><linearGradient
       inkscape:collect="always"
       xlink:href="#linearGradient20612"
       id="linearGradient5351"
       gradientUnits="userSpaceOnUse"
       gradientTransform="matrix(-0.45517821,-0.77673043,-0.77673043,0.45517821,568.13851,52.87179)"
       x1="-5.6073132"
       y1="135.31395"
       x2="-5.6344094"
       y2="135.4664" /><linearGradient
       inkscape:collect="always"
       xlink:href="#linearGradient36900"
       id="linearGradient5358"
       gradientUnits="userSpaceOnUse"
       gradientTransform="matrix(-0.60252571,-0.77529025,-0.77529025,0.60252571,568.37511,35.22082)"
       x1="-3.9529669"
       y1="134.32088"
       x2="-4.2098842"
       y2="134.21022" /><linearGradient
       inkscape:collect="always"
       xlink:href="#linearGradient4552"
       id="linearGradient5359"
       gradientUnits="userSpaceOnUse"
       gradientTransform="translate(342.63769,-104.16798)"
       x1="126.33425"
       y1="225.52986"
       x2="126.34223"
       y2="225.62852" /><linearGradient
       inkscape:collect="always"
       xlink:href="#linearGradient4029"
       id="linearGradient5360"
       gradientUnits="userSpaceOnUse"
       gradientTransform="translate(471.78716,-36.794591)"
       x1="-3.3422046"
       y1="158.97607"
       x2="-3.3563271"
       y2="158.67766" /><linearGradient
       inkscape:collect="always"
       xlink:href="#linearGradient4552"
       id="linearGradient5412"
       gradientUnits="userSpaceOnUse"
       gradientTransform="translate(387.37709,-104.24689)"
       x1="81.92305"
       y1="225.77225"
       x2="81.91375"
       y2="225.87141" /><linearGradient
       inkscape:collect="always"
       xlink:href="#linearGradient64309"
       id="linearGradient5413"
       gradientUnits="userSpaceOnUse"
       gradientTransform="translate(487.23303,1.05328)"
       x1="-19.685173"
       y1="119.94228"
       x2="-18.033234"
       y2="119.84241" /><linearGradient
       inkscape:collect="always"
       xlink:href="#linearGradient2775"
       id="linearGradient5417"
       gradientUnits="userSpaceOnUse"
       gradientTransform="translate(471.78701,-36.794431)"
       x1="-2.811862"
       y1="157.79195"
       x2="-3.0768235"
       y2="157.78831" /><linearGradient
       inkscape:collect="always"
       xlink:href="#linearGradient2777"
       id="linearGradient5419"
       gradientUnits="userSpaceOnUse"
       gradientTransform="translate(471.78716,-36.794591)"
       x1="-4.6010423"
       y1="157.82321"
       x2="-4.115284"
       y2="157.84174" /><linearGradient
       inkscape:collect="always"
       xlink:href="#linearGradient4552"
       id="linearGradient5420"
       gradientUnits="userSpaceOnUse"
       gradientTransform="rotate(-4.2280552,-1175.5831,-6668.264)"
       x1="-37.014931"
       y1="220.31265"
       x2="-36.537048"
       y2="220.27177" /><linearGradient
       inkscape:collect="always"
       xlink:href="#linearGradient4023"
       id="linearGradient5425"
       gradientUnits="userSpaceOnUse"
       gradientTransform="rotate(8.5557028,991.34346,2461.9271)"
       x1="124.53495"
       y1="223.34772"
       x2="124.32569"
       y2="223.22307" /><linearGradient
       inkscape:collect="always"
       xlink:href="#linearGradient3067"
       id="linearGradient5446"
       gradientUnits="userSpaceOnUse"
       gradientTransform="translate(467.49968,-0.56041)"
       x1="0.86783659"
       y1="120.23609"
       x2="1.5726829"
       y2="120.24882" /><linearGradient
       inkscape:collect="always"
       xlink:href="#linearGradient3072"
       id="linearGradient5451"
       gradientUnits="userSpaceOnUse"
       gradientTransform="translate(364.60595,-0.2569)"
       x1="102.63425"
       y1="119.34264"
       x2="102.96566"
       y2="119.34213" /><linearGradient
       inkscape:collect="always"
       xlink:href="#linearGradient27226"
       id="linearGradient5453"
       gradientUnits="userSpaceOnUse"
       gradientTransform="translate(471.82443,1.71177)"
       x1="-3.2702301"
       y1="116.89552"
       x2="-3.2531588"
       y2="117.17789" /><linearGradient
       inkscape:collect="always"
       xlink:href="#linearGradient3075"
       id="linearGradient5454"
       gradientUnits="userSpaceOnUse"
       gradientTransform="translate(364.60595,-0.2569)"
       x1="104.08382"
       y1="118.81171"
       x2="104.26068"
       y2="118.8729" /><linearGradient
       inkscape:collect="always"
       xlink:href="#linearGradient3070"
       id="linearGradient5456"
       gradientUnits="userSpaceOnUse"
       gradientTransform="translate(364.60595,-0.2569)"
       x1="103.82832"
       y1="118.51905"
       x2="104.50755"
       y2="118.49027" /><linearGradient
       inkscape:collect="always"
       xlink:href="#linearGradient2641"
       id="linearGradient5460"
       gradientUnits="userSpaceOnUse"
       gradientTransform="rotate(-3.0284455,233.24816,-9456.1383)"
       x1="-39.021812"
       y1="115.69682"
       x2="-38.641582"
       y2="115.69682" /><linearGradient
       inkscape:collect="always"
       xlink:href="#linearGradient160"
       id="linearGradient5462"
       gradientUnits="userSpaceOnUse"
       gradientTransform="rotate(-117.1962,203.74635,30.826317)"
       x1="7.0413647"
       y1="226.70172"
       x2="7.0668187"
       y2="227.02765" /><linearGradient
       inkscape:collect="always"
       xlink:href="#linearGradient55368"
       id="linearGradient5463"
       gradientUnits="userSpaceOnUse"
       gradientTransform="rotate(-3.0284455,233.24816,-9456.1383)"
       x1="-37.921734"
       y1="115.69207"
       x2="-38.304783"
       y2="116.59685" /><linearGradient
       inkscape:collect="always"
       xlink:href="#linearGradient49756"
       id="linearGradient5467"
       gradientUnits="userSpaceOnUse"
       gradientTransform="rotate(-3.0284455,242.80366,-9098.861)"
       x1="-19.885185"
       y1="115.24645"
       x2="-18.733461"
       y2="115.24645" /><linearGradient
       inkscape:collect="always"
       xlink:href="#linearGradient50523"
       id="linearGradient5469"
       gradientUnits="userSpaceOnUse"
       gradientTransform="rotate(-3.0284455,242.80366,-9098.861)"
       x1="-20.133801"
       y1="115.66431"
       x2="-19.019243"
       y2="115.66431" /><linearGradient
       inkscape:collect="always"
       xlink:href="#linearGradient20612"
       id="linearGradient5504"
       gradientUnits="userSpaceOnUse"
       gradientTransform="matrix(0.38332751,0.77001087,0.77001087,-0.38332751,364.52652,176.3185)"
       x1="-5.7652311"
       y1="135.45085"
       x2="-5.7197576"
       y2="135.27655" /><linearGradient
       inkscape:collect="always"
       xlink:href="#linearGradient27226"
       id="linearGradient5505"
       gradientUnits="userSpaceOnUse"
       gradientTransform="translate(342.63769,-104.16798)"
       x1="124.67185"
       y1="222.74667"
       x2="124.96538"
       y2="222.37047" /><linearGradient
       inkscape:collect="always"
       xlink:href="#linearGradient2777"
       id="linearGradient5506"
       gradientUnits="userSpaceOnUse"
       gradientTransform="translate(471.78716,-36.794591)"
       x1="-3.8794196"
       y1="157.96236"
       x2="-3.59483"
       y2="157.94189" /><linearGradient
       inkscape:collect="always"
       xlink:href="#linearGradient2876"
       id="linearGradient5507"
       gradientUnits="userSpaceOnUse"
       gradientTransform="translate(471.78716,-36.794591)"
       x1="-4.1909003"
       y1="158.71747"
       x2="-4.0884118"
       y2="158.54041" /><linearGradient
       inkscape:collect="always"
       xlink:href="#linearGradient3077"
       id="linearGradient5508"
       gradientUnits="userSpaceOnUse"
       gradientTransform="rotate(-7.390043,283.97038,-2704.1206)"
       x1="102.45202"
       y1="118.93082"
       x2="102.17267"
       y2="118.87983" /><linearGradient
       inkscape:collect="always"
       xlink:href="#linearGradient384"
       id="linearGradient5509"
       gradientUnits="userSpaceOnUse"
       gradientTransform="matrix(0.27944162,-1.0428903,-1.0428903,-0.27944162,588.876,166.16951)"
       x1="12.203532"
       y1="120.86652"
       x2="12.131632"
       y2="120.9865" /><linearGradient
       inkscape:collect="always"
       xlink:href="#linearGradient2876"
       id="linearGradient5510"
       gradientUnits="userSpaceOnUse"
       gradientTransform="translate(471.78542,-36.796678)"
       x1="-4.1862674"
       y1="158.73215"
       x2="-4.0884118"
       y2="158.54041" /><linearGradient
       inkscape:collect="always"
       xlink:href="#linearGradient1917"
       id="linearGradient5511"
       gradientUnits="userSpaceOnUse"
       gradientTransform="translate(387.37709,-104.24689)"
       x1="81.780815"
       y1="225.76686"
       x2="81.789719"
       y2="225.62195" /><linearGradient
       inkscape:collect="always"
       xlink:href="#linearGradient160"
       id="linearGradient5512"
       gradientUnits="userSpaceOnUse"
       gradientTransform="matrix(0.54819061,-0.71199622,0.71199622,0.54819061,216.14337,118.93051)"
       x1="170.09393"
       y1="226.16513"
       x2="169.82906"
       y2="226.02908" /><linearGradient
       inkscape:collect="always"
       xlink:href="#linearGradient160"
       id="linearGradient5513"
       gradientUnits="userSpaceOnUse"
       gradientTransform="matrix(0.39285532,-0.8081561,0.8081561,0.39285532,377.97885,58.67057)"
       x1="-18.216269"
       y1="123.23549"
       x2="-18.448156"
       y2="123.04867" /><linearGradient
       inkscape:collect="always"
       xlink:href="#linearGradient4552"
       id="linearGradient5514"
       gradientUnits="userSpaceOnUse"
       gradientTransform="translate(342.63769,-104.16798)"
       x1="126.38235"
       y1="223.28824"
       x2="126.24282"
       y2="223.07741" /><linearGradient
       inkscape:collect="always"
       xlink:href="#linearGradient55368"
       id="linearGradient5515"
       gradientUnits="userSpaceOnUse"
       gradientTransform="translate(504.73691,-102.75918)"
       x1="-36.583527"
       y1="219.40988"
       x2="-36.91824"
       y2="220.33363" /><linearGradient
       inkscape:collect="always"
       xlink:href="#linearGradient4552"
       id="linearGradient5518"
       gradientUnits="userSpaceOnUse"
       gradientTransform="translate(-0.00584652)"
       x1="123.77929"
       y1="223.52896"
       x2="124.18123"
       y2="223.52896" /><marker
       style="overflow:visible"
       id="Triangle-3-8-1-1"
       refX="0"
       refY="0"
       orient="auto-start-reverse"
       inkscape:stockid="Triangle arrow"
       markerWidth="0.5"
       markerHeight="0.5"
       viewBox="0 0 1 1"
       inkscape:isstock="true"
       inkscape:collect="always"
       preserveAspectRatio="xMidYMid"><path
         transform="scale(0.5)"
         style="fill:context-stroke;fill-rule:evenodd;stroke:context-stroke;stroke-width:1pt"
         d="M 5.77,0 -2.88,5 V -5 Z"
         id="path135-4-6-4-7" /></marker></defs><g
     inkscape:label="Layer 1"
     inkscape:groupmode="layer"
     id="layer1"
     transform="translate(-449.90565,-103.46623)"><g
       id="dono"
       inkscape:export-filename="pngs/dono.png"
       inkscape:export-xdpi="96"
       inkscape:export-ydpi="96"><g
         id="g5521"
         transform="translate(-15.390693,-11.640111)"><path
           style="fill:url(#linearGradient5295);fill-opacity:1;stroke-width:0.0898583;stroke-linecap:square;stroke-miterlimit:63.1"
           d="m 469.6095,121.99373 c 0,0 0.0472,0.0492 0.10527,0.0547 0.0414,0.003 0.11699,-0.0566 0.11699,-0.0566 0,0 0.0421,-0.0257 0.0716,-0.0855 0.0294,-0.0595 -0.0781,-0.30579 -0.096,-0.34949 -0.0179,-0.0435 -0.0478,-0.12474 -0.0606,-0.14431 -0.0126,-0.0193 -0.055,-0.0752 -0.22511,-0.0761 -0.10906,-4.7e-4 0.0814,0.41634 0.0814,0.41634 z"
           id="path3148-8-2-6-3"
           sodipodi:nodetypes="ccccscscc" /><path
           id="path22517-4-81-45-3-73-7-3-1-3-7-2-5-9-2-9"
           style="fill:url(#linearGradient5302);fill-opacity:1;stroke-width:0.436204"
           d="m 469.44346,121.3369 c 0.067,0.12363 0.0521,0.23785 -0.0443,0.30779 0,0 0.14424,0.27857 0.21076,0.34909 0.0837,0.0888 0.2171,-0.0707 0.2171,-0.0707 0.0555,-0.0556 -0.0182,-0.22107 -0.0731,-0.36039 -0.0393,-0.10153 -0.0613,-0.21653 -0.23228,-0.22568 -0.0233,-0.002 -0.0546,2.7e-4 -0.0778,-1.4e-4 z"
           sodipodi:nodetypes="ccccccc" /><circle
           style="fill:url(#linearGradient3104-2);fill-opacity:1;stroke-width:0.40213"
           id="circle22541-7-1-8-3-3-8-22-7"
           cx="-476.83212"
           cy="-80.275734"
           r="0.25280258"
           transform="rotate(-175.47101)" /><path
           id="path22545-5-2-38-8-8-0-20-5"
           style="fill:url(#linearGradient5303);fill-opacity:1;stroke-width:0.461679"
           d="m 468.09274,118.33906 c 0.006,-2.7e-4 0.0114,-0.002 0.0164,-0.006 0.0429,-0.0278 0.58671,-0.31903 0.77091,-0.41761 0.002,-7.8e-4 0.003,-0.002 0.004,-0.002 0.004,-0.002 0.008,-0.004 0.0116,-0.006 0.0266,-0.0193 0.058,-0.0421 0.0619,-0.045 0.0813,-0.066 0.17437,-0.16759 0.15092,-0.2171 -0.0232,-0.0488 -0.15317,-0.0332 -0.25127,-0.003 -0.0354,0.0137 -0.0539,0.0208 -0.0731,0.0282 -0.003,0.002 -0.007,0.004 -0.009,0.005 l -0.002,0.001 c -6.1e-4,3.6e-4 -7.3e-4,4.4e-4 -10e-4,8.9e-4 l -0.002,10e-4 c -5.9e-4,3.9e-4 -0.001,0.001 -0.001,0.001 l -0.13382,0.0771 c 0,0 0.0992,-0.78296 0.0484,-0.92765 -0.0756,-0.14146 -0.89149,-1.48236 -0.89149,-1.48236 l -0.19293,0.0676 c 0,0 0.007,0.0119 0.009,0.0147 l -0.0602,0.0268 c -0.22072,-0.0442 -0.13898,0.11332 -0.0291,0.29482 l 0.72281,1.19585 c 0.0649,0.10733 0.0936,0.76043 0.10031,0.93529 -0.001,0.008 -0.004,0.019 -0.004,0.019 l -0.3526,0.2056 c -0.0767,0.0447 0.0392,0.23515 0.10871,0.23165 z"
           sodipodi:nodetypes="ssssccsccscccccccccccccccss" /><circle
           style="fill:url(#linearGradient3103-0);fill-opacity:1;stroke-width:0.40213"
           id="circle22547-7-8-73-3-5-86-5-4"
           cx="-475.20038"
           cy="-78.07946"
           r="0.25280258"
           transform="rotate(-175.47101)" /><path
           style="fill:url(#linearGradient5304);fill-opacity:1;stroke-width:0.251635"
           d="m 467.72698,115.61393 -0.18256,-0.31276 c 0,0 0.2156,0.006 0.2459,0.0463 0.0339,0.045 0.0991,0.15789 0.0991,0.15789 z"
           id="path22549-4-9-10-2-0-93-5-4"
           sodipodi:nodetypes="ccscc" /><path
           id="path87478-5-3-2-9"
           style="fill:url(#linearGradient5337);fill-opacity:1;stroke-width:0.409889"
           d="m 468.26646,117.99565 -2.20622,1.21717 0.2831,0.1136 2.04396,-1.14583 z"
           sodipodi:nodetypes="ccccc" /><path
           style="fill:url(#linearGradient5339);fill-opacity:1;stroke-width:0.500129"
           d="m 467.75347,118.19312 c 0.085,0.0503 0.1449,0.10669 0.20217,0.20611 -0.11158,0.11158 -0.26047,0.25399 -0.26047,0.25399 -0.0488,0.0453 -0.24004,-0.15255 -0.19434,-0.20357 z"
           id="path22553-1-6-01-9-9-7-90-6"
           sodipodi:nodetypes="ccccc" /><path
           id="path87767-26-4-2-7"
           style="fill:url(#linearGradient5346);fill-opacity:1;stroke-width:0.409889"
           d="m 465.42122,118.64839 c -0.0416,-0.01 -0.0899,0.042 -0.0656,0.10296 0.0185,0.0469 0.39823,0.46377 0.76168,0.87194 l 0.10902,-0.10157 c -0.0502,-0.0556 -0.0828,-0.0918 -0.0828,-0.0918 l 0.20122,-0.10428 -0.11551,-0.20605 -0.2464,0.13305 -0.53655,-0.59011 c -0.007,-0.007 -0.0157,-0.0116 -0.0251,-0.0143 z"
           sodipodi:nodetypes="ccccccccccc" /><path
           id="path25467-2-18-3-8-3-8-2"
           style="fill:url(#linearGradient5351);fill-opacity:1;stroke:none;stroke-width:0.000900277;stroke-miterlimit:12.9;stroke-dasharray:none;stroke-opacity:1"
           d="m 465.72834,118.97293 c -0.0512,-0.0236 -0.11709,0.0422 -0.11516,0.0941 -0.12987,-0.14976 -0.28138,-0.31708 -0.30762,-0.36748 -0.007,-0.0187 -0.0251,-0.0332 0.0229,-0.0703 0.0303,-0.0234 0.0532,-0.0371 0.0818,-0.006 0.17889,0.19673 0.26222,0.28831 0.31806,0.34984 z"
           sodipodi:nodetypes="cccsccc" /><path
           id="path119656-2-1-8-1"
           style="fill:url(#linearGradient5358);fill-opacity:1;stroke:none;stroke-width:0.0005585;stroke-miterlimit:12.9;stroke-dasharray:none;stroke-opacity:1"
           d="m 467.89743,116.06459 c -0.0111,-1.4e-4 -0.0235,2.7e-4 -0.0372,5.2e-4 v 5.2e-4 c -0.16467,0.003 -0.49749,0.0423 -0.52245,0.31212 -0.0111,0.29942 -0.10878,0.52529 0.21269,0.65996 0.0128,0.005 0.0643,0.37402 0.15008,0.39472 -0.13417,0.0407 -0.20199,0.078 -0.32282,0.12716 -0.0594,0.0261 -0.15456,0.10733 -0.20459,0.13073 -0.1425,0.12137 -0.25557,0.51354 -0.33919,0.64854 -0.008,0.12801 -0.0413,0.39982 -0.0635,0.65229 -0.15172,0.19095 -0.23791,0.3053 -0.45331,0.46958 -0.0623,7.6e-4 -0.0858,0.0144 -0.12357,0.0247 0.0587,0.0654 0.21309,0.29865 0.23968,0.26909 0.0346,-0.0385 0.0298,-0.0565 0.0604,-0.0905 0.3178,-0.0763 0.81516,-0.35183 0.83917,-0.48399 0.036,0.12445 -0.0265,0.6786 0.11778,1.1526 -0.23762,0.8731 -0.0742,1.58043 0.30902,1.67845 0.058,0.009 0.19604,-0.0135 0.36794,-0.0522 0.011,0.0212 0.0228,0.0413 0.0362,0.06 0.13983,0.19495 0.24558,0.18682 0.81803,0.0786 0.42884,-0.0811 0.74592,-0.15192 1.05214,-0.24288 0.18536,-0.0551 0.12146,-0.28738 0.0832,-0.32918 -0.19465,-0.004 -0.42427,-0.0104 -0.63562,-0.0139 0.0139,-0.0621 -0.0221,-0.14229 -0.0315,-0.17467 -0.12213,0.003 -0.31629,0.014 -0.52194,0.0279 0.0453,-0.20854 0.063,-0.3887 0.0413,-0.60616 -0.0729,-0.38875 -0.0777,-0.20029 -0.0724,-0.66404 0.0105,-0.38571 0.14834,-1.03914 0.16485,-1.57562 0.0217,-0.70353 -0.0654,-0.74997 -0.2775,-0.85369 -0.10338,-0.048 -0.19407,-0.0848 -0.27337,-0.11472 l -5.1e-4,-5.2e-4 c -0.0557,-0.0335 -0.11058,-0.0751 -0.14005,-0.12609 -0.0438,-0.0758 -0.0447,-0.20317 -0.0269,-0.26097 0.27863,-0.98503 -0.39222,-1.09605 -0.39222,-1.09605 0,0 -0.0204,-0.002 -0.0537,-0.003 z m 0.18035,4.91288 c 0,0 -0.0144,0.0721 -0.0269,0.18035 -0.0116,-0.0686 -0.008,-0.13568 0.0269,-0.18035 z"
           sodipodi:nodetypes="ccccccccccccsccccccccccccccccccsccccccc" /><path
           style="opacity:0.558809;fill:url(#linearGradient5359);fill-opacity:1;stroke:none;stroke-width:0;stroke-linecap:square;stroke-miterlimit:63.1"
           d="m 468.92803,121.36482 0.52194,-0.0279 0.0346,0.14867 -0.65367,-0.042 z"
           id="path4060-0"
           sodipodi:nodetypes="ccccc" /><path
           style="opacity:0.483024;fill:url(#linearGradient5360);fill-opacity:1;stroke:none;stroke-width:0.1;stroke-miterlimit:13.8;stroke-dasharray:none;stroke-opacity:1"
           d="m 468.02822,121.67742 c 0,0 0.0461,0.26038 0.19065,0.41067 0.0789,0.0821 0.19461,0.0992 0.35139,0.0799 0.14498,-0.0178 0.26189,-0.0419 0.4194,-0.0719 0.16564,-0.0316 0.37732,-0.0726 0.56423,-0.11681 0.2033,-0.0481 0.60562,-0.16123 0.60562,-0.16123 l 0.0372,-0.29079 -1.30724,-8.7e-4 -0.60984,-0.23645 -0.223,0.21477 z"
           id="path2843-2-9-3-1"
           sodipodi:nodetypes="csssacccccc" /><path
           style="opacity:0.397506;fill:url(#linearGradient5412);stroke:none;stroke-width:0;stroke-linecap:square;stroke-miterlimit:63.1"
           d="m 470.11857,121.52715 c 0,0 -0.64066,-0.0301 -1.23182,9e-5 10e-4,-0.1499 -0.0288,-0.30989 -0.0288,-0.30989 l -0.47471,0.058 c 0,0 -0.0867,0.40981 0.0848,0.58465 0.10227,0.10427 1.72041,-0.17866 1.72041,-0.17866 z"
           id="path3460-3-3"
           sodipodi:nodetypes="ccccscc" /><path
           id="path22531-7-5-99-4-0-0-7"
           style="fill:url(#linearGradient5413);fill-opacity:1;stroke:none;stroke-width:0.485436"
           d="m 468.89187,120.34035 -0.79375,0.23926 -0.63975,-0.19741 c 0,0 -0.0201,-0.0202 -0.0331,-0.0103 -0.0961,0.55461 -0.12664,0.80462 -0.063,1.13843 v 5.2e-4 h -5.2e-4 c 0,0 0.004,0.0199 0.03,0.0367 0.014,0.009 -0.0257,-0.0326 0.0171,-0.0537 0.002,-9.6e-4 0.004,-0.002 0.006,-0.003 1.5e-4,-5e-5 3.7e-4,5e-5 5.2e-4,0 1.1e-4,-4e-5 4e-4,5e-5 5.1e-4,0 9.1e-4,-3.3e-4 0.002,-10e-4 0.003,-0.002 0.16434,-0.059 0.28607,-0.0809 0.41341,-0.0651 0.0741,0.009 0.129,0.0344 0.16846,0.0543 0.002,0.06 0.009,0.11543 0.015,0.17208 0,0 0.003,-0.003 0.0109,-0.009 0.13484,-0.11251 0.26425,-0.15588 0.41341,-0.16329 0.17461,-0.009 0.30789,-0.005 0.44959,0.0486 0.10162,-0.31511 0.10781,-0.744 0.0599,-0.9679 -0.014,-0.0808 -0.0373,-0.15543 -0.0574,-0.2191 z"
           sodipodi:nodetypes="ccccccccsssccscccccccc" /><path
           style="fill:#969696;fill-opacity:1;stroke-width:0.613877;stroke-linecap:round"
           d="m 466.21197,119.5057 c 0,0 0.41742,0.46777 0.52002,0.58964 -0.0167,0.15191 -0.1231,0.0897 -0.1231,0.0897 l -0.5593,-0.63786 z"
           id="path1-40-7"
           sodipodi:nodetypes="ccccc" /><path
           style="opacity:0.535158;fill:url(#linearGradient5417);fill-opacity:1;stroke:none;stroke-width:0.1;stroke-miterlimit:13.8;stroke-dasharray:none;stroke-opacity:1"
           d="m 468.90801,120.36813 c 0.063,0.23915 0.0636,0.30239 0.0698,0.42773 0.006,0.12055 0.002,0.31232 -0.0227,0.45597 -0.0312,0.17958 -0.0461,0.19679 -0.0655,0.27461 l -0.29423,-0.0521 0.0193,-1.00679 z"
           id="path2659-8-3-9-6"
           sodipodi:nodetypes="csscccc" /><path
           style="opacity:0.322684;fill:url(#linearGradient5419);fill-opacity:1;stroke:none;stroke-width:0.1;stroke-miterlimit:13.8;stroke-dasharray:none;stroke-opacity:1"
           d="m 467.42543,120.37197 c 0,0 -0.0329,0.17804 -0.0665,0.41556 -0.0154,0.10228 -0.0303,0.27133 -0.0303,0.34295 0,0.0656 0.005,0.18374 0.01,0.23146 0.003,0.0325 0.01,0.0643 0.0133,0.0856 0.008,0.053 0.005,0.0783 0.0398,0.1 -0.0155,-0.0365 0.0238,-0.0566 0.12983,-0.0914 0.14633,-0.048 0.20808,-0.32846 0.20808,-0.32846 l -0.0372,-0.72462 z"
           id="path2824-0-4-1-39"
           sodipodi:nodetypes="ccssscsccc" /><path
           style="opacity:0.75;fill:url(#linearGradient5420);fill-opacity:1;stroke-width:0.025;stroke-linecap:square;stroke-miterlimit:63.1"
           d="m 467.60654,117.51474 c 0,0 0.77889,-0.55158 0.74211,-0.386 0,0 -0.073,0.26062 0.10395,0.38786 0.25345,0.18223 -0.68062,0.39626 -0.68062,0.39626 0,0 -0.25526,-0.38014 -0.191,-0.43456 z"
           id="path3984-2-7-9-0-8-1"
           sodipodi:nodetypes="cssccc" /><path
           style="opacity:0.74979;fill:url(#linearGradient5425);fill-opacity:1;stroke:none;stroke-width:0;stroke-linecap:square;stroke-miterlimit:63.1"
           d="m 466.68233,119.60981 c 0,0 0.55203,-0.24189 0.65903,-0.41112 0.10697,-0.16925 0.0546,-0.36618 0.0546,-0.36618 0,0 -0.6751,0.24496 -0.71367,0.77729 z"
           id="path4013-0" /><path
           style="fill:url(#linearGradient5446);fill-opacity:1;stroke:none;stroke-width:3.96499;stroke-miterlimit:12.9"
           d="m 467.24466,119.43633 c 0.0167,0.28659 0.0386,0.57638 0.0521,0.86748 -0.004,0.0393 0.0948,0.04 0.0948,0.04 0,0 0.21089,0.19302 0.43078,0.19326 0.0475,5e-5 0.21721,0.0734 0.26483,0.0701 0.17275,-0.0116 0.30556,-0.0674 0.36793,-0.065 0.0796,0.003 0.26131,-0.0315 0.35813,-0.083 0.0968,-0.0515 0.0949,-0.0912 0.0949,-0.0912 0,0 0.0388,-0.0248 0.0278,-0.11031 0.0407,-0.3012 -0.004,-0.55537 0.0543,-0.97568 l 0.0646,-0.56451 c 0,0 0.08,-0.82246 -0.11891,-0.96317 -0.16631,-0.11767 -0.50049,-0.25656 -0.50049,-0.25656 0,0 -0.46378,0.51192 -0.86898,-0.0246 -0.17838,0.0761 -0.23167,0.084 -0.39916,0.16778 -0.20975,0.1049 -0.30738,0.2491 -0.39581,0.77893 -0.0204,0.10712 0.27034,0.1729 0.47767,0.17153 -0.0135,0.26824 -0.0234,0.57731 -0.005,0.84495 z"
           id="path22555-8-0-4-3-2-9-9-4"
           sodipodi:nodetypes="cccsscsccccsccscccc" /><path
           style="opacity:0.32871;fill:url(#linearGradient5451);fill-opacity:1;stroke:none;stroke-width:0.00499999;stroke-miterlimit:13.8;stroke-dasharray:none;stroke-opacity:1"
           d="m 467.23089,119.08471 0.008,-0.23656 c 0,0 0.002,-0.0792 0.008,-0.21246 0.008,-0.18991 0.12999,-0.48677 0.26067,-0.53781 0.25598,-0.0431 0.21012,2.42558 0.21012,2.42558 -0.16713,-0.0416 -0.29585,-0.15351 -0.32565,-0.17967 0,0 -0.1059,0.002 -0.0953,-0.0494 -0.003,-0.0981 -0.0564,-0.83852 -0.0658,-1.20957 -0.0102,-0.4065 -2e-5,2e-5 -2e-5,2e-5 z"
           id="path3072-6-1"
           sodipodi:nodetypes="ccsccsczcc" /><path
           style="fill:url(#linearGradient5453);fill-opacity:1;stroke:none;stroke-width:3.96499;stroke-miterlimit:12.9"
           d="m 469.21144,118.6364 c -2.4e-4,0.0576 -0.0297,0.47303 -0.20727,0.52401 -0.40923,0.1175 -1.18403,-0.33519 -1.49706,-0.43399 0,0 0.0807,-0.26722 0.19359,-0.26491 0.12828,0.0712 0.6165,0.0697 0.85355,0.14582 -0.12531,0.0269 0,0 0,0 v 0 l 0.0735,-0.89254 c 0,0 0.0517,-0.0917 0.2279,-0.009 0.0668,0.0313 0.19897,0.3173 0.2033,0.46405 0.004,0.14675 0.15243,0.46685 0.15243,0.46685 z"
           id="path22557-5-8-90-9-66-57-25-1"
           sodipodi:nodetypes="cscccczcszcc" /><path
           style="opacity:0.32871;fill:url(#linearGradient5454);fill-opacity:1;stroke:none;stroke-width:0.00499999;stroke-miterlimit:13.8;stroke-dasharray:none;stroke-opacity:1"
           d="m 468.55425,118.60733 c 0,0 0.22855,0.0182 0.28236,0.092 0.10496,-0.0627 0.13025,-0.16559 0.13025,-0.16559 l -0.21081,-0.10823 z"
           id="path3074-4-8"
           sodipodi:nodetypes="ccccc" /><path
           style="fill:url(#linearGradient5456);fill-opacity:1;stroke:none;stroke-width:3.96499;stroke-miterlimit:12.9"
           d="m 469.21138,118.63659 c -0.0109,-0.43423 -0.11905,-1.08001 -0.6498,-0.95864 -0.19891,0.0608 -0.0993,0.19372 -0.13961,0.39929 0.005,0.24858 0.0431,0.38819 0.13223,0.53004 0.16854,-0.10203 0.5675,-0.11151 0.65718,0.0294 0.0897,0.1409 0,1e-5 0,1e-5 z"
           id="path22559-9-5-1-2-29-4-4-64"
           sodipodi:nodetypes="cccczcc" /><path
           style="fill:url(#linearGradient5460);fill-opacity:1;stroke:none;stroke-width:1;stroke-miterlimit:13.8"
           d="m 467.0699,116.82287 c 0,0 0.0503,0.0742 0.25474,-0.15023 0.26756,-0.20498 -0.0661,-0.0374 -0.0661,-0.0374 l -0.16037,0.0706 -0.0399,0.0676 z"
           id="path2640-6-8-1-1-5-5-9-3"
           sodipodi:nodetypes="cccccc" /><path
           style="fill:url(#linearGradient5462);fill-opacity:1;stroke:none;stroke-width:0.1;stroke-linecap:square;stroke-miterlimit:63.1"
           d="m 468.24286,116.97184 c 0,0 0.32224,-0.18633 0.39179,-0.22838 -0.14959,-0.25853 -0.7294,-1.21273 -0.7294,-1.21273 l -0.37996,0.23338 z"
           id="path3316-2-4"
           sodipodi:nodetypes="ccccc" /><path
           style="fill:url(#linearGradient5463);fill-opacity:1;stroke:none;stroke-width:1;stroke-miterlimit:13.8"
           d="m 467.71641,117.57254 c 0.15676,0.002 0.57373,-0.0627 0.63517,-0.42084 0.0223,-0.13025 0.0273,-0.14006 0.0483,-0.253 0.0442,-0.23598 0.002,-0.42052 0.002,-0.42052 l -1.10785,0.0627 0.0173,0.31619 c 0.007,0.14044 0.14206,0.72242 0.40512,0.71581 z"
           id="path2638-5-9-2-8-6-86-9-7"
           sodipodi:nodetypes="cssccccc" /><path
           style="fill:url(#linearGradient5467);fill-opacity:1;stroke-width:0.0381963"
           d="m 467.29398,116.54047 c 0,0 -0.008,-0.26637 0.0414,-0.37857 0.085,-0.19377 0.29514,-0.29855 0.54769,-0.32092 0.14782,-0.003 0.27549,0.0156 0.41326,0.16103 0.13769,0.14577 0.13911,0.31421 0.13911,0.31421 l 0.006,0.2253 c -0.11142,0.0605 -0.21039,0.048 -0.28241,0.0377 -0.11234,0.007 -0.65672,-0.10332 -0.65672,-0.10332 z"
           id="path11206-13-6-2-7-5-1-2-3-7"
           sodipodi:nodetypes="cscsccccc" /><path
           style="fill:url(#linearGradient5469);fill-opacity:1;stroke-width:0.0381963"
           d="m 467.29196,116.54065 c 0,0 -0.10779,0.0903 -0.15995,0.13727 -0.0202,0.0175 -0.10526,0.0701 -0.0621,0.14496 -0.007,-0.031 -0.0143,-0.13393 0.21251,-0.13345 0.0392,0.002 0.17183,0.0604 0.30244,0.11016 0.0215,0.009 0.14585,0.0657 0.21162,0.0494 0.20452,-0.0504 0.32102,-0.19264 0.36686,-0.26952 -0.13164,-0.026 -0.36031,-0.0721 -0.52115,-0.1036 -0.16704,-0.0329 -0.25317,-0.0149 -0.35011,0.0646 z"
           id="path11208-7-3-8-0-97-1-8-6-0"
           sodipodi:nodetypes="ccccsscsc" /><path
           style="fill:url(#linearGradient5504);fill-opacity:1;stroke:none;stroke-width:0.00086015;stroke-miterlimit:12.9;stroke-dasharray:none;stroke-opacity:1"
           d="m 466.4647,119.78897 c -0.0472,0.0107 -0.1062,0.0378 -0.10985,0.10637 0.14701,0.17139 0.16873,0.18883 0.30416,0.34866 0.0332,0.0391 0.1666,-0.0343 0.11535,-0.0971 -0.15122,-0.18451 -0.16341,-0.1945 -0.30966,-0.3579 z"
           id="path14155-7-3-4-2-2-0-7"
           sodipodi:nodetypes="ccscc" /><path
           id="path30127-9-6-2-28-3-8-5-4"
           style="fill:url(#linearGradient5505);fill-opacity:1;stroke:none;stroke-width:0.000592199;stroke-miterlimit:12.9;stroke-dasharray:none;stroke-opacity:1"
           d="m 467.65182,118.25709 c 0,0 -0.083,-0.25309 -0.20537,-0.14883 -0.13136,0.11187 -0.14747,0.15517 -0.1444,0.2265 0.004,0.0802 0.0448,0.21182 0.0448,0.21182 -0.05,0.0167 -0.0651,0.0201 -0.0977,0.0448 -0.0581,0.0438 -0.0484,0.0773 -0.0177,0.088 0.0619,0.022 0.0917,-0.0136 0.17015,0.0308 0.0636,0.0359 0.064,0.0269 0.1418,0.0285 0.30745,-0.0322 0.19455,-0.18707 0.10842,-0.48159 z"
           sodipodi:nodetypes="csscssscc" /><path
           style="fill:#0d0d0d;fill-opacity:1;stroke-width:3.96499;stroke-miterlimit:12.9"
           d="m 468.0155,121.65102 c 8.3e-4,0.01 0.0127,0.0264 0.0127,0.0264 0,0 -0.0127,-0.0264 0.0393,-0.0677 0.021,-0.0166 -0.0255,-0.0512 -0.0255,-0.0512 0,0 -0.0292,0.0605 -0.0265,0.0925 z"
           id="path18834-00-2-3-2-5"
           sodipodi:nodetypes="acsca" /><path
           style="opacity:0.322684;fill:url(#linearGradient5506);stroke:none;stroke-width:0.1;stroke-miterlimit:13.8;stroke-dasharray:none;stroke-opacity:1"
           d="m 468.00515,121.54956 -0.005,-0.0765 c 0,0 -0.0107,-0.35618 0.0124,-0.50677 0.0231,-0.15059 0.18124,-0.22105 0.18124,-0.22105 l 0.11803,0.75039 c 0,0 -0.16775,0.0559 -0.24464,0.11408 -0.0234,0.0177 -0.0357,0.0333 -0.0393,0.0677 -0.0195,-0.0153 -0.0164,-0.0711 -0.0231,-0.12786 z"
           id="path2775-8-1-4-3"
           sodipodi:nodetypes="ccsccsccc" /><path
           style="opacity:0.483024;fill:url(#linearGradient5507);fill-opacity:1;stroke:none;stroke-width:0.1;stroke-miterlimit:13.8;stroke-dasharray:none;stroke-opacity:1"
           d="m 467.39184,121.54758 0.0171,0.0598 0.0286,0.0781 0.0419,0.0871 c 0.0316,0.061 0.0681,0.0997 0.11689,0.1503 0.0588,0.0588 0.11373,0.0726 0.16304,0.0891 0.0567,0.006 0.12193,-0.008 0.18314,-0.0164 l 0.15507,-0.0259 0.12962,-0.0183 c 0,0 -0.55868,-0.38317 -0.83528,-0.40449 z"
           id="path2873-1-6-5-07"
           sodipodi:nodetypes="ccccccccccc" /><path
           style="opacity:0.627689;fill:url(#linearGradient5508);fill-opacity:1;stroke:none;stroke-width:0.00499999;stroke-miterlimit:13.8;stroke-dasharray:none;stroke-opacity:1"
           d="m 466.77047,118.99113 c 0,0 0.2953,-0.0144 0.37907,0.10171 0.0837,0.11612 0.0396,-0.50282 0.0396,-0.50282 0,0 -0.27256,-0.0196 -0.36937,-0.0899 -0.0111,0.0899 -0.0493,0.49103 -0.0493,0.49103 z"
           id="path3076-1-2"
           sodipodi:nodetypes="cccccc" /><path
           style="fill:url(#linearGradient5509);fill-opacity:1;stroke-width:0.337456"
           d="m 466.03866,119.60643 c -0.008,0.0426 0.17424,0.28451 0.2418,0.25461 0.0474,-0.0172 0.0531,-0.0897 0.0354,-0.11261 -0.0282,-0.0363 -0.0449,-0.0512 -0.0802,-0.081 -0.053,-0.0449 -0.15584,-0.0888 -0.15584,-0.0888 0,0 -0.0257,-0.0306 -0.0412,0.0278 z"
           id="path45625-5-13-5-87-2-3-4-7-9"
           sodipodi:nodetypes="ccssccc" /><path
           style="opacity:0.297647;fill:url(#linearGradient5510);fill-opacity:1;stroke:none;stroke-width:0.1;stroke-miterlimit:13.8;stroke-dasharray:none;stroke-opacity:1"
           d="m 467.3901,121.54549 0.0171,0.0598 0.0286,0.0781 0.0101,0.0242 c 0.078,0.17172 0.20428,0.28358 0.31203,0.30018 0.0805,0.009 0.12613,-0.003 0.18734,-0.0111 l 0.14887,-0.0259 0.13479,-0.0297 c 0,0 -0.56179,-0.3749 -0.83839,-0.39622 z"
           id="path2873-1-4-6-9"
           sodipodi:nodetypes="cccccccccc" /><path
           style="opacity:0.414661;fill:url(#linearGradient5511);fill-opacity:1;stroke-width:0.1;stroke-linecap:square;stroke-miterlimit:63.1"
           d="m 469.47839,121.51355 -0.59045,0.0118 0.0435,-0.15918 0.51703,-0.0287 c 0,0 0.0294,0.0965 0.03,0.17608 z"
           id="path1329-0-3"
           sodipodi:nodetypes="ccccc" /><path
           style="fill:url(#linearGradient5512);fill-opacity:1;stroke-width:0.0898583;stroke-linecap:square;stroke-miterlimit:63.1"
           d="m 470.28461,122.18398 c 0,0 0.0472,0.0492 0.10527,0.0547 0.0414,0.003 0.11699,-0.0566 0.11699,-0.0566 0,0 0.0421,-0.0257 0.0716,-0.0855 0.0294,-0.0595 -0.0781,-0.30579 -0.096,-0.34949 -0.0179,-0.0435 -0.0478,-0.12474 -0.0606,-0.14431 -0.0126,-0.0193 -0.055,-0.0752 -0.22511,-0.0761 -0.10906,-4.7e-4 0.0814,0.41634 0.0814,0.41634 z"
           id="path3148-8-2-0"
           sodipodi:nodetypes="ccccscscc" /><path
           id="path22517-4-81-45-3-73-7-3-1-3-7-2-5-9-27"
           style="fill:url(#linearGradient5513);fill-opacity:1;stroke-width:0.436204"
           d="m 470.11857,121.52715 c 0.067,0.12363 0.0521,0.23785 -0.0443,0.30779 0,0 0.14424,0.27857 0.21076,0.34909 0.0837,0.0888 0.2171,-0.0707 0.2171,-0.0707 0.0555,-0.0556 -0.0182,-0.22107 -0.0731,-0.36039 -0.0393,-0.10153 -0.0613,-0.21653 -0.23228,-0.22568 -0.0233,-0.002 -0.0546,2.7e-4 -0.0778,-1.4e-4 z"
           sodipodi:nodetypes="ccccccc" /><path
           style="opacity:0.75;fill:url(#linearGradient5514);fill-opacity:1;stroke:none;stroke-width:0;stroke-linecap:square;stroke-miterlimit:63.1"
           d="m 469.20332,118.74046 c 0,0 -0.0368,0.35237 -0.17966,0.4127 -0.12853,0.0543 -0.35176,0.0224 -0.56583,-0.0434 -0.11041,-0.034 -0.28579,-0.10407 -0.28579,-0.10407 z"
           id="path4011-9"
           sodipodi:nodetypes="csscc" /><path
           style="fill:url(#linearGradient5515);fill-opacity:1;stroke:#000000;stroke-width:0;stroke-linecap:square;stroke-miterlimit:63.1;stroke-dasharray:none;stroke-opacity:1"
           d="m 468.31607,116.82524 c 0,0 0.14594,-0.12336 0.16363,0 0.0258,0.17954 -0.21351,0.30257 -0.21351,0.30257"
           id="path4556-0-4-5-28-9"
           sodipodi:nodetypes="csc" /><path
           style="fill:#f47344;fill-opacity:1;stroke:none;stroke-width:0.3;stroke-linecap:square;stroke-miterlimit:63.1;stroke-dasharray:none"
           d="m 466.35485,119.44523 c 0,0 -0.0962,-0.0127 -0.17311,-0.009 -0.0391,0.002 -0.0797,0.0101 -0.10106,0.0301 -0.0148,0.0139 -0.0175,0.0416 -0.005,0.0552 0.0339,0.0371 0.13341,0.0162 0.15081,-1e-5"
           id="path3632-5"
           sodipodi:nodetypes="cssac" /><path
           style="opacity:0.49979;fill:url(#linearGradient5518);stroke-width:0.1;stroke-linecap:square;stroke-miterlimit:63.1;filter:url(#filter2951-8-4)"
           d="m 123.77344,223.67368 0.49548,-0.39835 -0.47502,0.43488 z"
           id="path2345-5-3"
           sodipodi:nodetypes="cccc"
           transform="rotate(60.363944,385.97542,466.88049)" /></g><path
         style="fill:none;fill-opacity:0.631373;stroke:#ff8f00;stroke-width:0.2;stroke-linecap:square;stroke-miterlimit:63.1;stroke-dasharray:none;stroke-opacity:1;marker-start:url(#marker36);marker-end:url(#Triangle-3-8-1-1)"
         id="path5860-2-8-2-7"
         sodipodi:type="arc"
         sodipodi:cx="-198.32306"
         sodipodi:cy="-421.6116"
         sodipodi:rx="0.75299358"
         sodipodi:ry="0.71522802"
         sodipodi:start="3.9282034"
         sodipodi:end="5.9180491"
         sodipodi:arc-type="arc"
         d="m -198.85486,-422.11796 a 0.75299358,0.71522802 0 0 1 0.68931,-0.19305 0.75299358,0.71522802 0 0 1 0.54584,0.44402"
         transform="matrix(-0.20847282,-0.97802816,-0.97802816,0.20847282,0,0)"
         sodipodi:open="true" /></g></g></svg>
