<?xml version="1.0" encoding="UTF-8" standalone="no"?>
<!-- Created with Inkscape (http://www.inkscape.org/) -->

<svg
   width="5.1476955"
   height="6.9022732"
   viewBox="0 0 0 0"
   version="1.1"
   id="svg5"
   xml:space="preserve"
   inkscape:version="1.4 (unknown)"
   sodipodi:docname="crah-tricks-17-07-2025-1.svg"
   inkscape:export-batch-path="full/svgs/svgs"
   inkscape:export-batch-name=""
   xmlns:inkscape="http://www.inkscape.org/namespaces/inkscape"
   xmlns:sodipodi="http://sodipodi.sourceforge.net/DTD/sodipodi-0.dtd"
   xmlns:xlink="http://www.w3.org/1999/xlink"
   xmlns="http://www.w3.org/2000/svg"
   xmlns:svg="http://www.w3.org/2000/svg"><sodipodi:namedview
     id="namedview7"
     pagecolor="#ffffff"
     bordercolor="#000000"
     borderopacity="0.25"
     inkscape:showpageshadow="2"
     inkscape:pageopacity="0.0"
     inkscape:pagecheckerboard="0"
     inkscape:deskcolor="#d1d1d1"
     inkscape:document-units="mm"
     showgrid="false"
     inkscape:zoom="2.828427"
     inkscape:cx="130.28443"
     inkscape:cy="45.961943"
     inkscape:window-width="1918"
     inkscape:window-height="1061"
     inkscape:window-x="0"
     inkscape:window-y="17"
     inkscape:window-maximized="1"
     inkscape:current-layer="layer1"
     showguides="true"
     inkscape:export-bgcolor="#ffffff00"><inkscape:page
       x="0"
       y="0"
       width="5.1476955"
       height="6.9022732"
       id="page1"
       margin="0"
       bleed="0" /></sodipodi:namedview><defs
     id="defs2"><marker
       style="overflow:visible"
       id="marker36"
       refX="9"
       refY="0"
       orient="auto"
       inkscape:stockid="Square"
       markerWidth="0.2"
       markerHeight="0.2"
       viewBox="0 0 1 1"
       inkscape:isstock="true"
       inkscape:collect="always"
       preserveAspectRatio="xMidYMid"><path
         transform="scale(0.5)"
         style="fill:context-stroke;fill-rule:evenodd;stroke:none"
         d="M -5,-5 V 5 H 5 V -5 Z"
         id="path36" /></marker><linearGradient
       id="linearGradient4552"
       inkscape:collect="always"><stop
         style="stop-color:#ee2900;stop-opacity:1;"
         offset="0"
         id="stop4552" /><stop
         style="stop-color:#f47547;stop-opacity:0;"
         offset="1"
         id="stop4553" /></linearGradient><linearGradient
       id="linearGradient3623"
       inkscape:collect="always"><stop
         style="stop-color:#000000;stop-opacity:1;"
         offset="0"
         id="stop3622" /><stop
         style="stop-color:#2f2f2f;stop-opacity:1;"
         offset="1"
         id="stop3623" /></linearGradient><linearGradient
       id="linearGradient1917"
       inkscape:collect="always"><stop
         style="stop-color:#fffaff;stop-opacity:1;"
         offset="0"
         id="stop1918" /><stop
         style="stop-color:#f4895d;stop-opacity:0;"
         offset="1"
         id="stop1919" /></linearGradient><linearGradient
       inkscape:collect="always"
       id="linearGradient2659"><stop
         style="stop-color:#020000;stop-opacity:0;"
         offset="0"
         id="stop2652" /><stop
         style="stop-color:#ffffff;stop-opacity:1;"
         offset="1"
         id="stop2653" /></linearGradient><linearGradient
       id="linearGradient1954"
       inkscape:collect="always"><stop
         style="stop-color:#272727;stop-opacity:1;"
         offset="0"
         id="stop1961" /><stop
         style="stop-color:#000000;stop-opacity:1;"
         offset="1"
         id="stop1962" /></linearGradient><linearGradient
       id="linearGradient2971"
       inkscape:collect="always"><stop
         style="stop-color:#ffffff;stop-opacity:1;"
         offset="0"
         id="stop2971" /><stop
         style="stop-color:#ffffff;stop-opacity:0;"
         offset="1"
         id="stop2972" /></linearGradient><linearGradient
       id="linearGradient2968"
       inkscape:collect="always"><stop
         style="stop-color:#ffffff;stop-opacity:1;"
         offset="0"
         id="stop2968" /><stop
         style="stop-color:#ffffff;stop-opacity:0;"
         offset="1"
         id="stop2969" /></linearGradient><linearGradient
       id="linearGradient2876"
       inkscape:collect="always"><stop
         style="stop-color:#ffffff;stop-opacity:1;"
         offset="0"
         id="stop2881" /><stop
         style="stop-color:#ffffff;stop-opacity:0;"
         offset="1"
         id="stop2882" /></linearGradient><linearGradient
       id="linearGradient2846"
       inkscape:collect="always"><stop
         style="stop-color:#ffffff;stop-opacity:1;"
         offset="0"
         id="stop2848" /><stop
         style="stop-color:#ffffff;stop-opacity:0;"
         offset="1"
         id="stop2849" /></linearGradient><linearGradient
       id="linearGradient2777"
       inkscape:collect="always"><stop
         style="stop-color:#ffffff;stop-opacity:1;"
         offset="0"
         id="stop2783" /><stop
         style="stop-color:#0d0d0d;stop-opacity:0;"
         offset="1"
         id="stop2784" /></linearGradient><linearGradient
       id="linearGradient2775"
       inkscape:collect="always"><stop
         style="stop-color:#ffffff;stop-opacity:0.46666864;"
         offset="0"
         id="stop2666" /><stop
         style="stop-color:#a5a5a5;stop-opacity:0;"
         offset="1"
         id="stop2679" /></linearGradient><linearGradient
       id="linearGradient2641"
       inkscape:collect="always"><stop
         style="stop-color:#fc0e00;stop-opacity:1;"
         offset="0"
         id="stop2641" /><stop
         style="stop-color:#000e00;stop-opacity:1;"
         offset="1"
         id="stop2642" /></linearGradient><linearGradient
       id="linearGradient160"
       inkscape:collect="always"><stop
         style="stop-color:#000000;stop-opacity:1;"
         offset="0"
         id="stop160" /><stop
         style="stop-color:#2f2f2f;stop-opacity:1;"
         offset="1"
         id="stop161" /></linearGradient><linearGradient
       inkscape:collect="always"
       id="linearGradient36900"><stop
         style="stop-color:#f47344;stop-opacity:1;"
         offset="0"
         id="stop36896" /><stop
         style="stop-color:#f48c60;stop-opacity:1"
         offset="1"
         id="stop36898" /></linearGradient><linearGradient
       inkscape:collect="always"
       id="linearGradient20612"><stop
         style="stop-color:#fc0000;stop-opacity:1;"
         offset="0"
         id="stop20608" /><stop
         style="stop-color:#fc6a00;stop-opacity:1;"
         offset="1"
         id="stop20610" /></linearGradient><linearGradient
       inkscape:collect="always"
       id="linearGradient27226"><stop
         style="stop-color:#f4a77e;stop-opacity:1;"
         offset="0"
         id="stop27222" /><stop
         style="stop-color:#f46f40;stop-opacity:1;"
         offset="1"
         id="stop27224" /></linearGradient><linearGradient
       inkscape:collect="always"
       id="linearGradient13282"><stop
         style="stop-color:#020000;stop-opacity:1;"
         offset="0"
         id="stop13278" /><stop
         style="stop-color:#2f2f2f;stop-opacity:1;"
         offset="1"
         id="stop13280" /></linearGradient><linearGradient
       inkscape:collect="always"
       id="linearGradient64309"><stop
         style="stop-color:#000000;stop-opacity:1;"
         offset="0"
         id="stop64305" /><stop
         style="stop-color:#2f2f2f;stop-opacity:1;"
         offset="1"
         id="stop64307" /></linearGradient><linearGradient
       inkscape:collect="always"
       id="linearGradient63493"><stop
         style="stop-color:#969696;stop-opacity:1;"
         offset="0"
         id="stop63489" /><stop
         style="stop-color:#c8c8c8;stop-opacity:1;"
         offset="1"
         id="stop63491" /></linearGradient><linearGradient
       inkscape:collect="always"
       id="linearGradient62193"><stop
         style="stop-color:#969696;stop-opacity:1;"
         offset="0"
         id="stop62189" /><stop
         style="stop-color:#c8c8c8;stop-opacity:1;"
         offset="1"
         id="stop62191" /></linearGradient><linearGradient
       inkscape:collect="always"
       id="linearGradient55368"><stop
         style="stop-color:#f4a77e;stop-opacity:1;"
         offset="0"
         id="stop55364" /><stop
         style="stop-color:#f46f40;stop-opacity:1;"
         offset="1"
         id="stop55366" /></linearGradient><linearGradient
       inkscape:collect="always"
       id="linearGradient50523"><stop
         style="stop-color:#fc0000;stop-opacity:1;"
         offset="0"
         id="stop50519" /><stop
         style="stop-color:#fc6a00;stop-opacity:1;"
         offset="1"
         id="stop50521" /></linearGradient><linearGradient
       inkscape:collect="always"
       id="linearGradient49756"><stop
         style="stop-color:#f50000;stop-opacity:1;"
         offset="0"
         id="stop49752" /><stop
         style="stop-color:#ff4f00;stop-opacity:1;"
         offset="1"
         id="stop49754" /></linearGradient><linearGradient
       id="linearGradient45844"
       inkscape:swatch="solid"><stop
         style="stop-color:#000000;stop-opacity:1;"
         offset="0"
         id="stop45842" /></linearGradient><linearGradient
       inkscape:collect="always"
       xlink:href="#linearGradient3623"
       id="linearGradient2670-1"
       gradientUnits="userSpaceOnUse"
       x1="-104.36366"
       y1="65.128593"
       x2="-104.7234"
       y2="64.956406" /><linearGradient
       inkscape:collect="always"
       xlink:href="#linearGradient3623"
       id="linearGradient2675-5"
       gradientUnits="userSpaceOnUse"
       x1="-32.441269"
       y1="73.37043"
       x2="-32.523445"
       y2="73.189819" /><linearGradient
       inkscape:collect="always"
       xlink:href="#linearGradient62193"
       id="linearGradient3854"
       gradientUnits="userSpaceOnUse"
       gradientTransform="matrix(1.2348944,-1.6094735,1.6094735,1.2348944,-87.647031,-15.9089)"
       x1="-28.875076"
       y1="74.445183"
       x2="-28.974092"
       y2="74.629364" /><linearGradient
       inkscape:collect="always"
       xlink:href="#linearGradient63493"
       id="linearGradient3864"
       gradientUnits="userSpaceOnUse"
       gradientTransform="translate(357.52192,-11.535202)"
       x1="46.975208"
       y1="119.84072"
       x2="46.791042"
       y2="119.7121" /><linearGradient
       inkscape:collect="always"
       xlink:href="#linearGradient64309"
       id="linearGradient3869"
       gradientUnits="userSpaceOnUse"
       gradientTransform="matrix(-1.0060897,0.22188255,-0.22188255,-1.0060897,408.98004,232.11757)"
       x1="-23.459694"
       y1="119.69993"
       x2="-23.140306"
       y2="119.5779" /><linearGradient
       inkscape:collect="always"
       xlink:href="#linearGradient63493"
       id="linearGradient3873"
       gradientUnits="userSpaceOnUse"
       gradientTransform="translate(357.52192,-11.535202)"
       x1="46.975208"
       y1="119.84072"
       x2="46.791042"
       y2="119.7121" /><linearGradient
       inkscape:collect="always"
       xlink:href="#linearGradient20612"
       id="linearGradient3912"
       gradientUnits="userSpaceOnUse"
       gradientTransform="matrix(-0.64222475,-0.59433111,-0.59433111,0.64222475,480.65274,17.570437)"
       x1="-5.6434941"
       y1="135.306"
       x2="-5.6648555"
       y2="135.46632" /><linearGradient
       inkscape:collect="always"
       xlink:href="#linearGradient160"
       id="linearGradient3923"
       gradientUnits="userSpaceOnUse"
       gradientTransform="matrix(0.52386343,-0.73832245,0.73832245,0.52386343,151.7233,116.96373)"
       x1="169.89526"
       y1="226.29961"
       x2="169.6799"
       y2="226.27017" /><linearGradient
       inkscape:collect="always"
       xlink:href="#linearGradient160"
       id="linearGradient3924"
       gradientUnits="userSpaceOnUse"
       gradientTransform="matrix(0.36370627,-0.82901788,0.82901788,0.36370627,312.27304,49.936077)"
       x1="-18.438028"
       y1="123.327"
       x2="-18.642982"
       y2="123.25462" /><linearGradient
       inkscape:collect="always"
       xlink:href="#linearGradient36900"
       id="linearGradient3925"
       gradientUnits="userSpaceOnUse"
       gradientTransform="matrix(-0.60252571,-0.77529025,-0.77529025,0.60252571,506.44313,23.473177)"
       x1="-5.1330819"
       y1="134.82043"
       x2="-4.6906729"
       y2="134.47148" /><linearGradient
       inkscape:collect="always"
       xlink:href="#linearGradient27226"
       id="linearGradient3926"
       gradientUnits="userSpaceOnUse"
       gradientTransform="matrix(-0.60252571,-0.77529025,-0.77529025,0.60252571,506.44313,23.473177)"
       x1="-6.8855805"
       y1="135.90291"
       x2="-6.9995451"
       y2="133.56171" /><linearGradient
       inkscape:collect="always"
       xlink:href="#linearGradient2846"
       id="linearGradient3927"
       gradientUnits="userSpaceOnUse"
       gradientTransform="translate(409.85526,-48.543167)"
       x1="-3.3422046"
       y1="158.97607"
       x2="-3.3812099"
       y2="158.77925" /><linearGradient
       inkscape:collect="always"
       xlink:href="#linearGradient4552"
       id="linearGradient3928"
       gradientUnits="userSpaceOnUse"
       gradientTransform="translate(325.44811,-115.99624)"
       x1="81.92305"
       y1="225.77225"
       x2="81.91375"
       y2="225.87141" /><linearGradient
       inkscape:collect="always"
       xlink:href="#linearGradient64309"
       id="linearGradient3929"
       gradientUnits="userSpaceOnUse"
       gradientTransform="translate(425.30233,-10.698152)"
       x1="-19.685173"
       y1="119.94228"
       x2="-18.033234"
       y2="119.84241" /><linearGradient
       inkscape:collect="always"
       xlink:href="#linearGradient2775"
       id="linearGradient3931"
       gradientUnits="userSpaceOnUse"
       gradientTransform="translate(409.85646,-48.546015)"
       x1="-2.811862"
       y1="157.79195"
       x2="-3.0768235"
       y2="157.78831" /><linearGradient
       inkscape:collect="always"
       xlink:href="#linearGradient2777"
       id="linearGradient3932"
       gradientUnits="userSpaceOnUse"
       gradientTransform="translate(409.85646,-48.546016)"
       x1="-4.6010423"
       y1="157.82321"
       x2="-4.0573888"
       y2="157.84587" /><linearGradient
       inkscape:collect="always"
       xlink:href="#linearGradient4552"
       id="linearGradient3976"
       gradientUnits="userSpaceOnUse"
       gradientTransform="rotate(4.5266641,1633.862,5764.8008)"
       x1="-36.952106"
       y1="220.42662"
       x2="-36.471062"
       y2="220.2693" /><linearGradient
       inkscape:collect="always"
       xlink:href="#linearGradient13282"
       id="linearGradient3980"
       gradientUnits="userSpaceOnUse"
       gradientTransform="translate(405.56772,-12.308052)"
       x1="0.37411952"
       y1="119.9315"
       x2="1.5546571"
       y2="119.95438" /><linearGradient
       inkscape:collect="always"
       xlink:href="#linearGradient2659"
       id="linearGradient3983"
       gradientUnits="userSpaceOnUse"
       gradientTransform="translate(357.52192,-11.535202)"
       x1="48.234238"
       y1="119.38918"
       x2="47.808109"
       y2="119.40537" /><linearGradient
       inkscape:collect="always"
       xlink:href="#linearGradient27226"
       id="linearGradient3984"
       gradientUnits="userSpaceOnUse"
       gradientTransform="translate(409.89247,-10.035882)"
       x1="-4.7902193"
       y1="118.26832"
       x2="-3.2613542"
       y2="118.08123" /><linearGradient
       inkscape:collect="always"
       xlink:href="#linearGradient1954"
       id="linearGradient4199"
       gradientUnits="userSpaceOnUse"
       gradientTransform="rotate(4.5129962,374.85457,4649.9105)"
       x1="48.789886"
       y1="117.97562"
       x2="49.24638"
       y2="117.95938" /><linearGradient
       inkscape:collect="always"
       xlink:href="#linearGradient63493"
       id="linearGradient4200"
       gradientUnits="userSpaceOnUse"
       gradientTransform="translate(357.52192,-11.535202)"
       x1="46.975208"
       y1="119.84072"
       x2="46.791042"
       y2="119.7121" /><linearGradient
       inkscape:collect="always"
       xlink:href="#linearGradient20612"
       id="linearGradient4201"
       gradientUnits="userSpaceOnUse"
       gradientTransform="matrix(0.60024726,0.63669877,0.63669877,-0.60024726,322.35097,193.56345)"
       x1="-5.6584463"
       y1="135.47537"
       x2="-5.6265621"
       y2="135.30222" /><linearGradient
       inkscape:collect="always"
       xlink:href="#linearGradient27226"
       id="linearGradient4202"
       gradientUnits="userSpaceOnUse"
       gradientTransform="translate(325.44811,-115.99624)"
       x1="79.654137"
       y1="224.22867"
       x2="81.182999"
       y2="224.04158" /><linearGradient
       inkscape:collect="always"
       xlink:href="#linearGradient2777"
       id="linearGradient4203"
       gradientUnits="userSpaceOnUse"
       gradientTransform="translate(409.85646,-48.546016)"
       x1="-3.8794196"
       y1="157.96236"
       x2="-3.5340171"
       y2="157.91502" /><linearGradient
       inkscape:collect="always"
       xlink:href="#linearGradient2876"
       id="linearGradient4204"
       gradientUnits="userSpaceOnUse"
       gradientTransform="translate(409.85646,-48.546016)"
       x1="-4.1862674"
       y1="158.73215"
       x2="-4.0884118"
       y2="158.54041" /><linearGradient
       inkscape:collect="always"
       xlink:href="#linearGradient2641"
       id="linearGradient4205"
       gradientUnits="userSpaceOnUse"
       gradientTransform="translate(444.16172,-10.787402)"
       x1="-39.021812"
       y1="115.69682"
       x2="-38.641582"
       y2="115.69682" /><linearGradient
       inkscape:collect="always"
       xlink:href="#linearGradient160"
       id="linearGradient4206"
       gradientUnits="userSpaceOnUse"
       gradientTransform="matrix(0.65961885,0.65636811,0.65636811,-0.65961885,252.24606,249.80458)"
       x1="6.5914898"
       y1="226.57246"
       x2="6.5990481"
       y2="226.93451" /><linearGradient
       inkscape:collect="always"
       xlink:href="#linearGradient55368"
       id="linearGradient4207"
       gradientUnits="userSpaceOnUse"
       gradientTransform="translate(444.16172,-10.787402)"
       x1="-37.900581"
       y1="115.6713"
       x2="-38.409081"
       y2="116.6118" /><linearGradient
       inkscape:collect="always"
       xlink:href="#linearGradient49756"
       id="linearGradient4208"
       gradientUnits="userSpaceOnUse"
       gradientTransform="translate(425.27282,-10.781532)"
       x1="-19.885185"
       y1="115.24645"
       x2="-18.733461"
       y2="115.24645" /><linearGradient
       inkscape:collect="always"
       xlink:href="#linearGradient50523"
       id="linearGradient4215"
       gradientUnits="userSpaceOnUse"
       gradientTransform="translate(425.27282,-10.781532)"
       x1="-20.133801"
       y1="115.66431"
       x2="-19.019243"
       y2="115.66431" /><linearGradient
       inkscape:collect="always"
       xlink:href="#linearGradient2968"
       id="linearGradient4220"
       gradientUnits="userSpaceOnUse"
       gradientTransform="rotate(11.784763,283.88118,1845.0116)"
       x1="48.581051"
       y1="118.94073"
       x2="49.073853"
       y2="118.9333" /><linearGradient
       inkscape:collect="always"
       xlink:href="#linearGradient2971"
       id="linearGradient4260"
       gradientUnits="userSpaceOnUse"
       gradientTransform="translate(357.52192,-11.535202)"
       x1="47.368416"
       y1="118.54212"
       x2="47.564423"
       y2="118.56079" /><linearGradient
       inkscape:collect="always"
       xlink:href="#linearGradient1917"
       id="linearGradient4264"
       gradientUnits="userSpaceOnUse"
       gradientTransform="translate(325.44811,-115.99624)"
       x1="81.780815"
       y1="225.76686"
       x2="81.789719"
       y2="225.62195" /><linearGradient
       inkscape:collect="always"
       xlink:href="#linearGradient160"
       id="linearGradient4278"
       gradientUnits="userSpaceOnUse"
       gradientTransform="matrix(0.52386343,-0.73832245,0.73832245,0.52386343,152.39683,117.15131)"
       x1="170.06447"
       y1="226.18001"
       x2="169.80598"
       y2="226.0643" /><linearGradient
       inkscape:collect="always"
       xlink:href="#linearGradient160"
       id="linearGradient4523"
       gradientUnits="userSpaceOnUse"
       gradientTransform="matrix(0.36370627,-0.82901788,0.82901788,0.36370627,312.94657,50.123657)"
       x1="-18.248137"
       y1="123.24409"
       x2="-18.477869"
       y2="123.0785" /><linearGradient
       inkscape:collect="always"
       xlink:href="#linearGradient4552"
       id="linearGradient4525"
       gradientUnits="userSpaceOnUse"
       gradientTransform="translate(325.44811,-115.99624)"
       x1="81.182999"
       y1="223.73463"
       x2="80.986801"
       y2="223.55399" /><linearGradient
       inkscape:collect="always"
       xlink:href="#linearGradient4552"
       id="linearGradient4543"
       gradientUnits="userSpaceOnUse"
       gradientTransform="translate(325.46419,-116.02255)"
       x1="79.657059"
       y1="224.66423"
       x2="79.630745"
       y2="224.31929" /><linearGradient
       inkscape:collect="always"
       xlink:href="#linearGradient55368"
       id="linearGradient4586"
       gradientUnits="userSpaceOnUse"
       gradientTransform="translate(442.80833,-114.48205)"
       x1="-36.547192"
       y1="219.36594"
       x2="-37.055691"
       y2="220.30644" /><marker
       style="overflow:visible"
       id="Triangle-3-8-1"
       refX="0"
       refY="0"
       orient="auto-start-reverse"
       inkscape:stockid="Triangle arrow"
       markerWidth="0.5"
       markerHeight="0.5"
       viewBox="0 0 1 1"
       inkscape:isstock="true"
       inkscape:collect="always"
       preserveAspectRatio="xMidYMid"><path
         transform="scale(0.5)"
         style="fill:context-stroke;fill-rule:evenodd;stroke:context-stroke;stroke-width:1pt"
         d="M 5.77,0 -2.88,5 V -5 Z"
         id="path135-4-6-4" /></marker></defs><g
     inkscape:label="Layer 1"
     inkscape:groupmode="layer"
     id="layer1"
     transform="translate(-403.51708,-103.58131)"><g
       id="frontscoot"
       inkscape:export-filename="pngs/frontscoot.png"
       inkscape:export-xdpi="96"
       inkscape:export-ydpi="96"><g
         id="g23761-8-90-9-82-3-7"
         transform="matrix(-0.61874149,-0.61874152,0.61874152,-0.61874149,327.30461,178.2179)"><circle
           style="fill:url(#linearGradient2670-1);fill-opacity:1;stroke-width:0.467512"
           id="circle22541-7-1-8-3-3-6-38"
           cx="-104.48909"
           cy="64.937149"
           r="0.29390547"
           transform="rotate(-55.471007)" /><path
           id="path22545-5-2-38-8-8-1-0"
           style="fill:url(#linearGradient3854);fill-opacity:1;stroke-width:0.536743"
           d="m -5.8519067,121.56073 c -0.0031,0.006 -0.00424,0.0129 -0.00391,0.0198 0.00305,0.0594 -0.019839,0.77616 -0.027664,1.01893 -1.082e-4,0.002 4.16e-5,0.004 -1.81e-5,0.005 -9.3e-5,0.005 -4.33e-4,0.01 -2.902e-4,0.0154 0.00398,0.038 0.00866,0.0828 0.00926,0.0885 0.019185,0.1202 0.067374,0.27298 0.1308524,0.27814 0.062609,0.005 0.1224455,-0.13493 0.1489652,-0.25131 0.00685,-0.0436 0.010392,-0.0663 0.014108,-0.09 2.915e-4,-0.004 1.4e-5,-0.009 5.85e-5,-0.0127 l 5.54e-5,-0.003 c -7e-7,-8.2e-4 -1.72e-5,-0.001 -3.99e-5,-0.002 l 2.994e-4,-0.003 c -4.58e-5,-8.2e-4 -4.554e-4,-0.002 -5.215e-4,-0.002 l 1.22e-4,-0.17958 c 0,0 0.7306543,0.55498 0.9058419,0.58798 0.1751414,0.0331 2.0107063,-0.0359 2.0107063,-0.0359 l 0.044062,-0.23355 c 0,0 -0.016277,5.5e-4 -0.020173,6.3e-4 l 0.00802,-0.0762 c 0.1727884,-0.19654 -0.033309,-0.2058 -0.2799099,-0.2007 l -1.6241816,0.0326 c -0.1458063,0.003 -0.8200533,-0.34775 -0.9999907,-0.44268 -0.00724,-0.006 -0.016938,-0.0149 -0.016938,-0.0149 l -0.00204,-0.47452 c -4.639e-4,-0.10317 -0.259565,-0.0972 -0.2964255,-0.0252 z"
           sodipodi:nodetypes="ssssccsccscccccccccccccccss" /><circle
           style="fill:url(#linearGradient2675-5);fill-opacity:1;stroke-width:0.230456"
           id="circle22547-7-8-73-3-5-0-9"
           cx="-32.528366"
           cy="73.305809"
           r="0.14487828"
           transform="matrix(1.1498786,-1.6712714,1.6712714,1.1498786,-87.647031,-15.9089)" /><path
           style="fill:#c8c8c8;fill-opacity:1;stroke-width:0.144209"
           d="m -28.807002,74.760532 0.127201,0.163986 c 0,0 -0.122953,0.01272 -0.143179,-0.0079 -0.02262,-0.02306 -0.06801,-0.08238 -0.06801,-0.08238 z"
           id="path22549-4-9-10-2-0-6-2"
           sodipodi:nodetypes="ccscc"
           transform="matrix(1.2348944,-1.6094735,1.6094735,1.2348944,-87.647031,-15.9089)" /></g><path
         id="path87478-5-32-3"
         style="fill:url(#linearGradient3864);fill-opacity:1;stroke:none;stroke-width:0.416982"
         d="m 406.22039,106.24084 -1.84847,1.78684 0.30913,0.0271 1.70676,-1.66406 z" /><path
         style="fill:url(#linearGradient3869);fill-opacity:1;stroke-width:0.500129"
         d="m 405.8215,106.44546 c 0.085,0.0503 0.1449,0.10669 0.20217,0.20611 -0.11158,0.11158 -0.26047,0.25399 -0.26047,0.25399 -0.0488,0.0453 -0.24004,-0.15255 -0.19434,-0.20357 z"
         id="path22553-1-6-01-9-9-0-1"
         sodipodi:nodetypes="ccccc" /><path
         id="path87767-26-61-8"
         style="fill:url(#linearGradient3873);fill-opacity:1;stroke:none;stroke-width:0.416982"
         d="m 403.58345,107.66644 c -0.0433,0.003 -0.0892,0.0547 -0.0476,0.10677 0.0319,0.0402 0.53862,0.34694 1.01284,0.63718 l 0.25894,-0.0199 c -0.0652,-0.0393 -0.29051,-0.17609 -0.29051,-0.17609 l 0.30665,-0.29877 -0.30551,-0.0294 -0.20984,0.20301 -0.6964,-0.41638 c -0.008,-0.005 -0.0186,-0.007 -0.0286,-0.007 z"
         sodipodi:nodetypes="ccccccccccc" /><path
         id="path25467-2-18-3-8-5-7"
         style="fill:url(#linearGradient3912);fill-opacity:1;stroke:none;stroke-width:0.000875033;stroke-miterlimit:12.9;stroke-dasharray:none;stroke-opacity:1"
         d="m 404.00615,107.90865 c -0.0543,-0.008 -0.097,0.0722 -0.0806,0.11996 -0.163,-0.10272 -0.35107,-0.21569 -0.38967,-0.25519 -0.0119,-0.0153 -0.0351,-0.0333 -8.9e-4,-0.0813 0.0216,-0.0303 0.0415,-0.04 0.0768,-0.0192 0.22183,0.13261 0.32514,0.19433 0.39442,0.23583 z"
         sodipodi:nodetypes="cccscc" /><path
         style="fill:url(#linearGradient3923);fill-opacity:1;stroke-width:0.0905295;stroke-linecap:square;stroke-miterlimit:63.1"
         d="m 407.69473,110.24499 c 0,0 0.0495,0.0477 0.1081,0.051 0.0419,10e-4 0.11559,-0.0616 0.11559,-0.0616 0,0 0.0413,-0.0274 0.0687,-0.0889 0.0275,-0.0609 -0.0906,-0.30476 -0.1104,-0.34804 -0.0197,-0.0431 -0.053,-0.12372 -0.0667,-0.14292 -0.0135,-0.019 -0.0584,-0.0734 -0.22965,-0.0676 -0.10978,0.003 0.0983,0.41592 0.0983,0.41592 z"
         id="path3148-8-2-3-6-4-4"
         sodipodi:nodetypes="ccccscscc" /><path
         id="path22517-4-81-45-3-73-7-3-1-3-7-2-5-9-7-1-5-16"
         style="fill:url(#linearGradient3924);fill-opacity:1;stroke-width:0.43946"
         d="m 407.50174,109.59031 c 0.0723,0.12182 0.0618,0.23739 -0.0325,0.31159 0,0 0.15616,0.27475 0.2259,0.34312 0.0878,0.086 0.21576,-0.0797 0.21576,-0.0797 0.0537,-0.0583 -0.027,-0.22183 -0.0878,-0.35992 -0.0436,-0.10074 -0.0702,-0.21557 -0.24271,-0.21805 -0.0236,-9.8e-4 -0.0551,0.003 -0.0784,0.003 z"
         sodipodi:nodetypes="ccccccc" /><path
         id="path119656-2-5-3"
         style="fill:url(#linearGradient3925);fill-opacity:1;stroke:none;stroke-width:0.0005585;stroke-miterlimit:12.9;stroke-dasharray:none;stroke-opacity:1"
         d="m 405.96546,104.31693 c -0.0111,-1.4e-4 -0.0235,2.7e-4 -0.0372,5.2e-4 v 5.2e-4 c -0.16467,0.003 -0.34039,0.0464 -0.36535,0.31625 -0.12067,0.44541 0.18114,0.64918 0.20568,1.05055 -0.15728,0.0512 -0.2173,0.0639 -0.3394,0.10614 -0.071,0.0302 -0.1103,0.0528 -0.16032,0.0763 -0.0796,0.0447 -0.29516,0.77039 -0.37878,0.90539 -8.4e-4,0.14477 0,0.2482 0,0.39687 0,0.0212 -10e-5,0.046 5.1e-4,0.0718 -2.9e-4,0.001 -7.8e-4,0.002 -0.001,0.003 -0.0538,0.23985 -0.0673,0.57452 -0.0677,0.82269 -0.003,0.041 -0.007,0.0978 -0.015,0.15658 v 5.2e-4 c -0.007,0.0742 0.004,0.25315 0.014,0.33176 0,0 -0.004,0.18596 0.1602,0.17777 0.16258,-0.008 0.16657,-0.11391 0.17777,-0.18035 0.0123,-0.0747 5.1e-4,-0.20413 5.1e-4,-0.20413 0.0494,-0.006 0.0643,-0.006 0.0992,-0.0217 0.0623,-0.0289 0.0598,-0.0615 0.0336,-0.0775 -0.0524,-0.033 -0.0872,-0.006 -0.15089,-0.0625 -0.004,-0.004 -0.008,-0.007 -0.0114,-0.01 0.0484,-0.21219 0.1867,-0.44415 0.22009,-0.59056 0.0202,-0.0272 0.0436,-0.0932 0.0549,-0.10863 -0.02,-0.0104 -0.0367,-0.024 -0.0465,-0.046 l -0.0192,-0.44338 c 0.036,0.12445 0.11533,0.33459 0.12518,0.44752 0.035,0.002 0.057,0.0604 0.0708,0.1142 -0.0164,-0.023 -0.0406,-0.0357 -0.0661,-0.046 0.0213,0.36318 -0.0953,0.60656 0.0495,1.08056 -0.23762,0.8731 -0.0742,1.58043 0.30902,1.67845 0.058,0.009 0.19605,-0.0135 0.36794,-0.0522 0.011,0.0212 0.0228,0.0413 0.0362,0.06 0.13983,0.19495 0.24559,0.18682 0.81804,0.0786 0.42883,-0.0811 0.74592,-0.15192 1.05213,-0.24288 0.18537,-0.0551 0.12146,-0.28738 0.0832,-0.32918 -0.19465,-0.004 -0.42427,-0.0104 -0.63562,-0.0139 0.004,-0.0639 -0.0221,-0.14229 -0.0315,-0.17467 -0.12213,0.003 -0.31629,0.014 -0.52193,0.0279 0.0454,-0.20854 0.063,-0.3887 0.0413,-0.60616 -0.0729,-0.38875 -0.0777,-0.20029 -0.0724,-0.66404 0.0105,-0.38571 0.14834,-1.03914 0.16485,-1.57562 0.0217,-0.70353 -0.1398,-0.76341 -0.27751,-0.85369 -0.10337,-0.048 -0.19406,-0.0848 -0.27336,-0.11472 l -5.2e-4,-5.2e-4 c -0.0557,-0.0335 -0.11058,-0.0751 -0.14004,-0.12609 -0.0438,-0.0758 -0.0447,-0.20317 -0.0269,-0.26097 0.32823,-1.06358 -0.39223,-1.09605 -0.39223,-1.09605 0,0 -0.0205,-0.002 -0.0537,-0.003 z m -0.49649,3.18792 c -0.001,-0.0226 -0.003,-0.0454 -0.005,-0.0682 -0.0168,-0.001 -0.0363,0.0106 -0.0594,0.0419 0.0197,0.0102 0.0424,0.0176 0.0641,0.0263 z m 0.67684,1.72496 c 0,0 -0.0144,0.0721 -0.0269,0.18035 -0.0116,-0.0686 -0.008,-0.13568 0.0269,-0.18035 z"
         sodipodi:nodetypes="ccccccccsccccccccccccccccccccccccccccccccccccscccccccccccc" /><path
         id="path2956-8"
         style="fill:url(#linearGradient3926);fill-opacity:1;stroke:none;stroke-width:0.0005585;stroke-miterlimit:12.9;stroke-dasharray:none;stroke-opacity:1"
         d="m 406.96447,108.51002 -1.45521,0.0424 c 0.003,0.0109 0.006,0.0214 0.009,0.0326 -0.23762,0.8731 -0.0742,1.58043 0.30902,1.67845 0.058,0.009 0.19605,-0.0135 0.36794,-0.0522 0.011,0.0212 0.0228,0.0412 0.0362,0.0599 0.13983,0.19495 0.24559,0.18729 0.81804,0.0791 0.42883,-0.0811 0.74592,-0.15192 1.05213,-0.24288 0.27011,-0.0789 0.12146,-0.28738 0.0832,-0.32918 -0.19465,-0.004 -0.42427,-0.0105 -0.63562,-0.014 0.004,-0.0639 -0.0221,-0.14229 -0.0315,-0.17467 -0.12213,0.003 -0.31629,0.014 -0.52193,0.0279 0.0453,-0.20854 0.063,-0.3887 0.0413,-0.60616 -0.0607,-0.32403 -0.0731,-0.26733 -0.0729,-0.50126 z m -0.81856,0.71985 c 0,0 -0.0144,0.0721 -0.0269,0.18035 -0.0116,-0.0686 -0.008,-0.13568 0.0269,-0.18035 z"
         sodipodi:nodetypes="ccccccscccccccccc" /><path
         style="opacity:0.55244;fill:url(#linearGradient3927);fill-opacity:1;stroke:none;stroke-width:0.1;stroke-miterlimit:13.8;stroke-dasharray:none;stroke-opacity:1"
         d="m 406.09632,109.92884 c 0,0 0.0607,0.26637 0.19995,0.41893 0.0555,0.0608 0.15198,0.0879 0.26078,0.0791 0.18769,-0.0152 0.36254,-0.0486 0.49141,-0.0737 0.21665,-0.0422 0.38615,-0.0767 0.57767,-0.12198 0.19301,-0.0457 0.57554,-0.1509 0.57554,-0.1509 l 0.0417,-0.30039 c 0,0 -0.86442,0.0771 -1.28559,-0.002 -0.21427,-0.0403 -0.60984,-0.23645 -0.60984,-0.23645 l -0.223,0.21477 z"
         id="path2843-2-4-5"
         sodipodi:nodetypes="csssaccaccc" /><path
         style="opacity:0.419684;fill:url(#linearGradient3928);stroke:none;stroke-width:0;stroke-linecap:square;stroke-miterlimit:63.1"
         d="m 408.17551,109.77793 c 0,0 -0.62656,-0.0302 -1.21772,-3e-5 0.001,-0.1499 -0.0288,-0.30989 -0.0288,-0.30989 l -0.4747,0.058 c 0,0 -0.0867,0.40981 0.0848,0.58465 0.10226,0.10427 1.72041,-0.17866 1.72041,-0.17866 z"
         id="path3460-50"
         sodipodi:nodetypes="ccccscc" /><path
         id="path22531-7-5-99-4-4-1"
         style="fill:url(#linearGradient3929);fill-opacity:1;stroke:none;stroke-width:0.485436"
         d="m 406.96137,108.58857 -0.79375,0.23926 -0.63976,-0.19741 c 0,0 -0.02,-0.0197 -0.0331,-0.01 -0.0962,0.55489 -0.12724,0.80487 -0.0636,1.13894 0,0 0.004,0.0199 0.03,0.0367 0.014,0.009 -0.0256,-0.0326 0.0171,-0.0537 5.6e-4,-2.8e-4 9.6e-4,-7.6e-4 0.001,-0.001 1.5e-4,-6e-5 3.7e-4,5e-5 5.2e-4,0 7.4e-4,-3.4e-4 10e-4,-7.1e-4 0.002,-0.001 10e-4,-4.9e-4 0.003,-10e-4 0.004,-0.002 0.16506,-0.0593 0.28726,-0.0814 0.41496,-0.0656 0.0742,0.009 0.129,0.0339 0.16847,0.0538 0.002,0.0602 0.01,0.11578 0.015,0.1726 0,0 0.003,-0.003 0.0109,-0.009 0.13483,-0.11251 0.26425,-0.15588 0.41341,-0.16329 0.17461,-0.009 0.30788,-0.005 0.44958,0.0486 0.11505,-0.34259 0.0995,-0.75279 0.0599,-0.96842 -0.014,-0.0808 -0.0373,-0.15543 -0.0574,-0.2191 z"
         sodipodi:nodetypes="ccccccsscccsccccccc" /><path
         style="opacity:0.535158;fill:url(#linearGradient3931);fill-opacity:1;stroke:none;stroke-width:0.1;stroke-miterlimit:13.8;stroke-dasharray:none;stroke-opacity:1"
         d="m 406.97746,108.61653 0.0275,0.12466 0.0137,0.0666 c 0,0 0.006,0.0335 0.0119,0.0788 0.008,0.0626 0.0156,0.14653 0.0156,0.18483 -1.1e-4,0.066 0.015,0.21497 -0.0226,0.42515 -0.007,0.0395 -0.012,0.0807 -0.0211,0.12026 -0.0196,0.0851 -0.0435,0.15799 -0.0435,0.15799 l -0.19972,-0.0454 -0.0751,-1.01344 z"
         id="path2659-8-7-2"
         sodipodi:nodetypes="cccsssscccc" /><path
         style="opacity:0.624349;fill:url(#linearGradient3932);fill-opacity:1;stroke:none;stroke-width:0.1;stroke-miterlimit:13.8;stroke-dasharray:none;stroke-opacity:1"
         d="m 405.49473,108.62054 c 0,0 -0.0612,0.35979 -0.0665,0.41556 -0.0114,0.093 -0.0303,0.27133 -0.0303,0.34295 0,0.10001 1.3e-4,0.2027 0.0219,0.30837 0.008,0.0396 -0.002,0.084 0.0444,0.11283 -0.0196,-0.0623 0.0207,-0.0607 0.12673,-0.0955 0.14633,-0.048 0.20808,-0.32846 0.20808,-0.32846 l -0.0372,-0.72462 z"
         id="path2824-0-6-6"
         sodipodi:nodetypes="ccsscsccc" /><path
         style="opacity:0.75;fill:url(#linearGradient3976);fill-opacity:1;stroke-width:0.025;stroke-linecap:square;stroke-miterlimit:63.1"
         d="m 405.65226,105.6072 c 0,0 0.84127,-0.42748 0.77972,-0.26943 0,0 -0.0993,0.24736 0.0562,0.40004 0.22275,0.21869 -0.73301,0.28805 -0.73301,0.28805 0,0 -0.19443,-0.41456 -0.12263,-0.45857 z"
         id="path3984-2-7-9-0-48"
         sodipodi:nodetypes="cssccc" /><path
         style="fill:url(#linearGradient3980);fill-opacity:1;stroke:none;stroke-width:3.96499;stroke-miterlimit:12.9"
         d="m 405.31553,107.69074 c 0.0223,0.18805 0.0152,0.20479 0.0152,0.20479 0,0 0.035,0.6206 0.0341,0.66063 -0.004,0.0393 0.0948,0.04 0.0948,0.04 0,0 0.21088,0.19302 0.43077,0.19326 0.0475,5e-5 0.21721,0.0734 0.26484,0.0701 0.17275,-0.0116 0.30556,-0.0674 0.36793,-0.065 0.0796,0.003 0.26131,-0.0315 0.35813,-0.083 0.0968,-0.0515 0.0949,-0.0912 0.0949,-0.0912 0.04,-0.0677 0.009,-0.15687 0.0183,-0.33392 0.003,-0.0601 -0.008,-0.14812 -0.005,-0.18682 0.0153,-0.15545 0.13004,-0.99708 0.13281,-1.12976 0,0 0.0826,-0.79436 -0.14372,-0.96937 -0.16444,-0.12716 -0.47569,-0.25036 -0.47569,-0.25036 0,0 -0.46378,0.51192 -0.86897,-0.0246 -0.69706,0.17306 -0.77764,0.56801 -0.74453,1.04691 0.0793,0.0391 0.24094,0.0713 0.41186,0.0567 9.6e-4,0.32519 -0.0249,0.5312 0.0138,0.861 z"
         id="path22555-8-0-4-3-2-5-5"
         sodipodi:nodetypes="ccccsscscsscscccccc" /><path
         style="opacity:0.235013;fill:url(#linearGradient3983);fill-opacity:1;stroke-width:0.1;stroke-miterlimit:13.8"
         d="m 405.30171,106.8291 c 0,0 0.012,-0.32235 0.10709,-0.44224 0.0951,-0.11989 0.3231,0.14958 0.3231,0.14958 l -5.3e-4,0.33231 0.0248,0.64672 -0.0868,0.33643 -0.0814,0.83795 -0.12822,-0.0937 c 0,0 -0.0948,0.005 -0.0948,-0.04 0,-0.0454 -0.0308,-0.60199 -0.0308,-0.60199 l -0.008,-0.16799 -0.0104,-0.0961 c -0.0125,-0.0927 -0.0197,-0.22698 -0.0234,-0.31892 z"
         id="path2337-6-6"
         sodipodi:nodetypes="csccccccsccccc" /><path
         style="fill:url(#linearGradient3984);fill-opacity:1;stroke:none;stroke-width:3.96499;stroke-miterlimit:12.9"
         d="m 406.99968,106.91175 c -0.045,0.34937 -0.10633,0.49362 -0.14099,0.56584 -0.0907,0.18907 -0.19715,0.31323 -0.51409,0.51693 -0.3594,0.231 -0.40857,0.24242 -0.79091,0.42088 l -0.76245,0.0743 c 0,0 1.20373,-0.88142 1.40605,-1.00905 0.032,-0.44394 0.0671,-0.63034 0.0671,-0.63034 l 0.006,0.0103 0.3962,-0.90404 c 0,0 0.0343,0.012 0.21046,0.0945 0.0668,0.0313 0.15875,0.20362 0.16307,0.35037 0.004,0.14675 -0.0313,0.46367 -0.0313,0.46367 z"
         id="path22557-5-8-90-9-66-9-2"
         sodipodi:nodetypes="csscccczcszcc" /><path
         style="fill:url(#linearGradient4199);fill-opacity:1;stroke:none;stroke-width:3.96499;stroke-miterlimit:12.9"
         d="m 407.01269,106.90323 c 0.0695,-0.32881 0.19314,-0.7761 -0.10283,-0.95138 -0.10269,-0.0669 -0.42449,-0.0436 -0.52205,0.11199 -0.13214,0.18217 -0.14608,0.29659 -0.12796,0.80488 0.17044,0.10263 0.74951,0.0612 0.75291,0.0335 z"
         id="path22559-9-5-1-2-29-7-5"
         sodipodi:nodetypes="cccccc" /><path
         id="path22543-8-1-5-8-0-5-7-4-2"
         style="fill:url(#linearGradient4200);fill-opacity:1;stroke:none;stroke-width:0.416982"
         d="m 404.62489,108.27936 -0.0762,0.13103 c 0.28551,0.17475 0.55932,0.34345 0.71046,0.44453 0.0387,0.0259 0.15118,-0.0845 0.0835,-0.1286 -0.25502,-0.16588 -0.55979,-0.35152 -0.71774,-0.44696 z" /><path
         style="fill:url(#linearGradient4201);fill-opacity:1;stroke:none;stroke-width:0.000875033;stroke-miterlimit:12.9;stroke-dasharray:none;stroke-opacity:1"
         d="m 404.9357,108.46931 c -0.0428,0.0243 -0.0967,0.0619 -0.08,0.12963 0.19368,0.12353 0.2244,0.14043 0.4034,0.25613 0.0437,0.0283 0.15207,-0.0825 0.0837,-0.12859 -0.20164,-0.13506 -0.21645,-0.14119 -0.40702,-0.25717 z"
         id="path14155-7-3-4-2-5-6"
         sodipodi:nodetypes="ccscc" /><path
         style="fill:url(#linearGradient4202);fill-opacity:1;stroke-width:0.43981"
         d="m 405.55369,108.4154 c -0.0415,-0.22306 -0.24996,-0.29527 -0.29836,-0.26405 -0.0998,0.0643 -0.23523,0.15472 -0.36455,0.2049 -0.24745,0.10506 -0.17625,0.27902 -0.11451,0.32308 0.0643,0.0459 0.13823,0.10673 0.23124,0.0763 0.0576,-0.0189 0.0904,-0.11703 0.14164,-0.14128 0.0288,-0.0136 0.0703,0.0523 0.0859,0.0337 0.0172,-0.0204 0.007,-0.0954 0.007,-0.0954 l 0.025,-0.011 z"
         id="path5382-3-79-4-35-2-9"
         sodipodi:nodetypes="cscssssccc"
         inkscape:transform-center-x="0.099488773"
         inkscape:transform-center-y="0.0093569633" /><path
         style="fill:#0d0d0d;fill-opacity:1;stroke-width:3.96499;stroke-miterlimit:12.9"
         d="m 406.0848,109.89959 c 8.3e-4,0.01 0.0127,0.0264 0.0127,0.0264 0,0 -0.0127,-0.0264 0.0393,-0.0677 0.021,-0.0166 -0.0255,-0.0512 -0.0255,-0.0512 0,0 -0.0292,0.0605 -0.0265,0.0925 z"
         id="path18834-00-2-5-1"
         sodipodi:nodetypes="acsca" /><path
         style="opacity:0.353422;fill:url(#linearGradient4203);stroke:none;stroke-width:0.1;stroke-miterlimit:13.8;stroke-dasharray:none;stroke-opacity:1"
         d="m 406.07445,109.79813 -0.005,-0.0765 c 0,0 -0.0107,-0.35618 0.0124,-0.50677 0.0231,-0.15059 0.18124,-0.22105 0.18124,-0.22105 l 0.11803,0.75039 c 0,0 -0.16775,0.0559 -0.24464,0.11408 -0.0234,0.0177 -0.0357,0.0333 -0.0393,0.0677 -0.0195,-0.0153 -0.0164,-0.0711 -0.0231,-0.12786 z"
         id="path2775-8-7-33"
         sodipodi:nodetypes="ccsccsccc" /><path
         style="opacity:0.67816;fill:url(#linearGradient4204);fill-opacity:1;stroke:none;stroke-width:0.1;stroke-miterlimit:13.8;stroke-dasharray:none;stroke-opacity:1"
         d="m 405.46115,109.79615 0.0171,0.0598 0.0286,0.0781 0.007,0.0211 c 0.0997,0.21617 0.21564,0.28668 0.31409,0.30845 0.0805,0.009 0.12717,-0.008 0.18838,-0.0163 l 0.14887,-0.0259 0.13478,-0.0297 c 0,0 -0.56178,-0.3749 -0.83838,-0.39622 z"
         id="path2873-1-4-15"
         sodipodi:nodetypes="cccccccccc" /><path
         style="fill:url(#linearGradient4205);fill-opacity:1;stroke:none;stroke-width:1;stroke-miterlimit:13.8"
         d="m 405.14894,105.01931 c 0,0 0.0463,0.0768 0.26232,-0.13654 0.27802,-0.19058 -0.0641,-0.0407 -0.0641,-0.0407 l -0.16386,0.062 -0.0434,0.0654 z"
         id="path2640-6-8-1-1-3-2"
         sodipodi:nodetypes="cccccc" /><path
         style="fill:url(#linearGradient4206);fill-opacity:1;stroke:none;stroke-width:0.0930546;stroke-linecap:square;stroke-miterlimit:63.1"
         d="m 404.93288,104.27137 0.31048,-0.33265 1.12133,1.04432 -0.39053,0.28995 z"
         id="path3252-0-6"
         sodipodi:nodetypes="ccccc" /><path
         style="fill:url(#linearGradient4207);fill-opacity:1;stroke:none;stroke-width:1;stroke-miterlimit:13.8"
         d="m 405.75495,105.80209 c 0.15644,0.0102 0.55956,-0.0365 0.65651,-0.38668 0.0354,-0.12784 0.0346,-0.13845 0.0617,-0.25009 0.0566,-0.23331 0.0241,-0.41983 0.0241,-0.41983 l -1.10961,0.004 5.9e-4,0.31667 c -5.9e-4,0.1406 0.10368,0.72892 0.36673,0.73622 z"
         id="path2638-5-9-2-8-0-9"
         sodipodi:nodetypes="cssccccc" /><path
         style="fill:url(#linearGradient4208);fill-opacity:1;stroke-width:0.0381963"
         d="m 405.38763,104.74916 c 0,0 0.006,-0.26641 0.0613,-0.37586 0.0951,-0.189 0.31049,-0.28253 0.56388,-0.29154 0.14783,0.004 0.27431,0.0299 0.40412,0.18274 0.12981,0.15284 0.12233,0.32112 0.12233,0.32112 l -0.006,0.2253 c -0.11444,0.0545 -0.21266,0.0369 -0.284,0.0226 -0.11256,7.4e-4 -0.65033,-0.13796 -0.65033,-0.13796 z"
         id="path11206-13-6-2-7-5-7-4"
         sodipodi:nodetypes="cscsccccc" /><path
         style="fill:url(#linearGradient4215);fill-opacity:1;stroke-width:0.0381963"
         d="m 405.3856,104.74923 c 0,0 -0.11241,0.0844 -0.16698,0.12862 -0.0211,0.0165 -0.1088,0.0644 -0.0697,0.14146 -0.005,-0.0314 -0.007,-0.13449 0.21926,-0.12201 0.0392,0.004 0.16837,0.0694 0.29616,0.12604 0.0211,0.009 0.14217,0.0734 0.20862,0.0607 0.2069,-0.0396 0.33075,-0.17541 0.38059,-0.24977 -0.13004,-0.033 -0.3561,-0.0906 -0.51494,-0.131 -0.16498,-0.042 -0.25205,-0.028 -0.35303,0.0461 z"
         id="path11208-7-3-8-0-97-8-46"
         sodipodi:nodetypes="ccccsscsc" /><path
         style="opacity:0.556038;fill:url(#linearGradient4220);fill-opacity:1;stroke:none;stroke-width:0.1;stroke-miterlimit:13.8;stroke-dasharray:none;stroke-opacity:1"
         d="m 406.19727,107.48123 c 0,0 0.21763,-0.002 0.30537,0.12387 0.0907,-0.12423 0.25535,-0.67175 0.25535,-0.67175 0,0 -0.32584,0.0164 -0.49814,-0.0646 -0.0364,0.30424 -0.0626,0.6119 -0.0626,0.6119 z"
         id="path2967-6-0"
         sodipodi:nodetypes="cccccc" /><path
         style="opacity:0.510154;fill:url(#linearGradient4260);fill-opacity:1;stroke:none;stroke-width:0.1;stroke-miterlimit:13.8;stroke-dasharray:none;stroke-opacity:1"
         d="m 404.89008,106.77258 5.2e-4,0.46867 c 0,0 0.33876,0.0715 0.45128,0.18475 0.11251,0.11325 -0.0402,-0.5969 -0.0402,-0.5969 0,0 -0.16141,0.0372 -0.41163,-0.0565 z"
         id="path2971-8-7" /><path
         style="opacity:0.275109;fill:url(#linearGradient4264);fill-opacity:1;stroke-width:0.1;stroke-linecap:square;stroke-miterlimit:63.1"
         d="m 407.54944,109.76421 -0.59045,0.0118 0.0435,-0.15918 0.51703,-0.0287 c 0,0 0.0294,0.0965 0.03,0.17608 z"
         id="path1329-4"
         sodipodi:nodetypes="ccccc" /><path
         style="fill:url(#linearGradient4278);fill-opacity:1;stroke-width:0.0905295;stroke-linecap:square;stroke-miterlimit:63.1"
         d="m 408.36826,110.43257 c 0,0 0.0495,0.0477 0.1081,0.051 0.0419,0.001 0.11559,-0.0616 0.11559,-0.0616 0,0 0.0413,-0.0274 0.0687,-0.0889 0.0275,-0.0609 -0.0906,-0.30476 -0.1104,-0.34804 -0.0197,-0.0431 -0.053,-0.12372 -0.0667,-0.14292 -0.0135,-0.019 -0.0584,-0.0734 -0.22964,-0.0676 -0.10979,0.003 0.0983,0.41592 0.0983,0.41592 z"
         id="path3148-8-2-3-6-3"
         sodipodi:nodetypes="ccccscscc" /><path
         id="path22517-4-81-45-3-73-7-3-1-3-7-2-5-9-7-1-79"
         style="fill:url(#linearGradient4523);fill-opacity:1;stroke-width:0.43946"
         d="m 408.17528,109.77789 c 0.0723,0.12182 0.0639,0.24256 -0.0304,0.31676 0,0 0.15408,0.26958 0.22382,0.33795 0.0878,0.086 0.21576,-0.0797 0.21576,-0.0797 0.0537,-0.0583 -0.027,-0.22183 -0.0877,-0.35992 -0.0436,-0.10074 -0.0702,-0.21557 -0.24271,-0.21805 -0.0236,-9.8e-4 -0.0551,0.003 -0.0785,0.003 z"
         sodipodi:nodetypes="cccccccc" /><path
         style="opacity:0.749775;fill:url(#linearGradient4525);fill-opacity:1;stroke:none;stroke-width:0;stroke-linecap:square;stroke-miterlimit:63.1"
         d="m 406.91263,107.34068 c 0,0 -0.0448,0.18427 -0.2089,0.37367 -0.10604,0.12239 -0.28555,0.23796 -0.52144,0.38253 -0.14552,0.0892 -0.24931,0.14988 -0.33358,0.18313 -0.15387,0.0607 -0.19818,-0.23473 -0.19818,-0.23473 l 0.74704,-0.54239 0.26872,-0.49402 c 0,0 0.32754,-0.0509 0.31113,0.053 -0.019,0.11999 -0.0305,0.16615 -0.0648,0.27889 -0.0357,0.11728 0,-8e-5 0,-8e-5 z"
         id="path3627-0"
         sodipodi:nodetypes="cssscccssc" /><path
         style="opacity:0.56543;fill:url(#linearGradient4543);fill-opacity:1;stroke-width:0.43981"
         d="m 405.59767,108.39737 c -0.0415,-0.22306 -0.27785,-0.30352 -0.32626,-0.27232 -0.0601,0.0387 -0.13376,0.0934 -0.21109,0.14163 -0.051,0.0318 -0.10355,0.0609 -0.15493,0.0808 -0.0478,0.0182 -0.085,0.0382 -0.11177,0.0612 -0.13319,0.11428 -0.0618,0.2447 -0.007,0.28012 0.0362,0.0235 0.081,0.0562 0.12697,0.0675 0.0857,0.021 0.1206,-0.0131 0.14608,-0.0422 0.0435,-0.0497 0.0901,-0.13732 0.12644,-0.0843 0.005,0.008 0.0373,0.0278 0.0433,0.0239 0.025,-0.016 0.0139,-0.10144 0.0139,-0.10144 z"
         id="path3991-0"
         sodipodi:nodetypes="csscsssssscc"
         inkscape:transform-center-x="0.099488773"
         inkscape:transform-center-y="0.0093569633" /><path
         style="fill:url(#linearGradient4586);fill-opacity:1;stroke:#000000;stroke-width:0;stroke-linecap:square;stroke-miterlimit:63.1;stroke-dasharray:none;stroke-opacity:1"
         d="m 406.38751,105.10238 c 0,0 0.14594,-0.12336 0.16363,0 0.0258,0.17954 -0.21351,0.30257 -0.21351,0.30257"
         id="path4556-0-4-5-2-2"
         sodipodi:nodetypes="csc" /><path
         style="fill:none;fill-opacity:0.631373;stroke:#ff8f00;stroke-width:0.2;stroke-linecap:square;stroke-miterlimit:63.1;stroke-dasharray:none;stroke-opacity:1;marker-start:url(#marker36);marker-end:url(#Triangle-3-8-1)"
         id="path5860-2-8-2"
         sodipodi:type="arc"
         sodipodi:cx="-188.26747"
         sodipodi:cy="-375.97507"
         sodipodi:rx="0.75299358"
         sodipodi:ry="0.71522802"
         sodipodi:start="3.9282034"
         sodipodi:end="5.9180491"
         sodipodi:arc-type="arc"
         d="m -188.79927,-376.48142 a 0.75299358,0.71522802 0 0 1 0.68931,-0.19305 0.75299358,0.71522802 0 0 1 0.54584,0.44401"
         transform="matrix(-0.20847282,-0.97802816,-0.97802816,0.20847282,0,0)"
         sodipodi:open="true" /></g></g></svg>
