<?xml version="1.0" encoding="UTF-8" standalone="no"?>
<!-- Created with Inkscape (http://www.inkscape.org/) -->

<svg
   width="5.8375869"
   height="7.2410517"
   viewBox="0 0 0 0"
   version="1.1"
   id="svg5"
   xml:space="preserve"
   inkscape:version="1.4 (unknown)"
   sodipodi:docname="crah-tricks-17-07-2025-1.svg"
   inkscape:export-batch-path="full/svgs/svgs"
   inkscape:export-batch-name=""
   xmlns:inkscape="http://www.inkscape.org/namespaces/inkscape"
   xmlns:sodipodi="http://sodipodi.sourceforge.net/DTD/sodipodi-0.dtd"
   xmlns:xlink="http://www.w3.org/1999/xlink"
   xmlns="http://www.w3.org/2000/svg"
   xmlns:svg="http://www.w3.org/2000/svg"><sodipodi:namedview
     id="namedview7"
     pagecolor="#ffffff"
     bordercolor="#000000"
     borderopacity="0.25"
     inkscape:showpageshadow="2"
     inkscape:pageopacity="0.0"
     inkscape:pagecheckerboard="0"
     inkscape:deskcolor="#d1d1d1"
     inkscape:document-units="mm"
     showgrid="false"
     inkscape:zoom="2.828427"
     inkscape:cx="130.28443"
     inkscape:cy="45.961943"
     inkscape:window-width="1918"
     inkscape:window-height="1061"
     inkscape:window-x="0"
     inkscape:window-y="17"
     inkscape:window-maximized="1"
     inkscape:current-layer="layer1"
     showguides="true"
     inkscape:export-bgcolor="#ffffff00"><inkscape:page
       x="0"
       y="0"
       width="5.8375869"
       height="7.2410517"
       id="page1"
       margin="0"
       bleed="0" /></sodipodi:namedview><defs
     id="defs2"><linearGradient
       id="linearGradient5092"
       inkscape:collect="always"><stop
         style="stop-color:#ffffff;stop-opacity:1;"
         offset="0"
         id="stop5092" /><stop
         style="stop-color:#ffffff;stop-opacity:0;"
         offset="1"
         id="stop5093" /></linearGradient><linearGradient
       id="linearGradient5090"
       inkscape:collect="always"><stop
         style="stop-color:#ff0000;stop-opacity:1;"
         offset="0"
         id="stop5090" /><stop
         style="stop-color:#ff0000;stop-opacity:0;"
         offset="1"
         id="stop5091" /></linearGradient><linearGradient
       id="linearGradient5043"
       inkscape:collect="always"><stop
         style="stop-color:#ffffff;stop-opacity:0.62342614;"
         offset="0"
         id="stop5043" /><stop
         style="stop-color:#ffffff;stop-opacity:0;"
         offset="1"
         id="stop5044" /></linearGradient><linearGradient
       id="linearGradient5035"
       inkscape:collect="always"><stop
         style="stop-color:#000000;stop-opacity:1;"
         offset="0"
         id="stop5035" /><stop
         style="stop-color:#000000;stop-opacity:0;"
         offset="1"
         id="stop5036" /></linearGradient><linearGradient
       id="linearGradient5031"
       inkscape:collect="always"><stop
         style="stop-color:#ffffff;stop-opacity:1;"
         offset="0"
         id="stop5031" /><stop
         style="stop-color:#ffffff;stop-opacity:0;"
         offset="1"
         id="stop5032" /></linearGradient><linearGradient
       id="linearGradient5027"
       inkscape:collect="always"><stop
         style="stop-color:#ff0000;stop-opacity:1;"
         offset="0"
         id="stop5027" /><stop
         style="stop-color:#ff0000;stop-opacity:0;"
         offset="1"
         id="stop5028" /></linearGradient><linearGradient
       inkscape:collect="always"
       id="linearGradient5010"><stop
         style="stop-color:#020000;stop-opacity:1;"
         offset="0"
         id="stop5009" /><stop
         style="stop-color:#505050;stop-opacity:1;"
         offset="1"
         id="stop5010" /></linearGradient><linearGradient
       inkscape:collect="always"
       id="linearGradient5007"><stop
         style="stop-color:#000000;stop-opacity:1;"
         offset="0"
         id="stop5006" /><stop
         style="stop-color:#272727;stop-opacity:1;"
         offset="0.65270925"
         id="stop5008" /><stop
         style="stop-color:#505050;stop-opacity:1;"
         offset="1"
         id="stop5007" /></linearGradient><linearGradient
       id="linearGradient4992"
       inkscape:collect="always"><stop
         style="stop-color:#f4ffff;stop-opacity:1;"
         offset="0"
         id="stop4992" /><stop
         style="stop-color:#f4ffff;stop-opacity:0;"
         offset="1"
         id="stop4993" /></linearGradient><linearGradient
       id="linearGradient4552"
       inkscape:collect="always"><stop
         style="stop-color:#ee2900;stop-opacity:1;"
         offset="0"
         id="stop4552" /><stop
         style="stop-color:#f47547;stop-opacity:0;"
         offset="1"
         id="stop4553" /></linearGradient><linearGradient
       id="linearGradient2641"
       inkscape:collect="always"><stop
         style="stop-color:#fc0e00;stop-opacity:1;"
         offset="0"
         id="stop2641" /><stop
         style="stop-color:#000e00;stop-opacity:1;"
         offset="1"
         id="stop2642" /></linearGradient><linearGradient
       id="linearGradient1197"
       inkscape:collect="always"><stop
         style="stop-color:#f4a77e;stop-opacity:1;"
         offset="0"
         id="stop1197" /><stop
         style="stop-color:#f46f40;stop-opacity:1;"
         offset="1"
         id="stop1198" /></linearGradient><linearGradient
       id="linearGradient160"
       inkscape:collect="always"><stop
         style="stop-color:#000000;stop-opacity:1;"
         offset="0"
         id="stop160" /><stop
         style="stop-color:#2f2f2f;stop-opacity:1;"
         offset="1"
         id="stop161" /></linearGradient><linearGradient
       inkscape:collect="always"
       id="linearGradient20612"><stop
         style="stop-color:#fc0000;stop-opacity:1;"
         offset="0"
         id="stop20608" /><stop
         style="stop-color:#fc6a00;stop-opacity:1;"
         offset="1"
         id="stop20610" /></linearGradient><linearGradient
       inkscape:collect="always"
       id="linearGradient64309"><stop
         style="stop-color:#000000;stop-opacity:1;"
         offset="0"
         id="stop64305" /><stop
         style="stop-color:#2f2f2f;stop-opacity:1;"
         offset="1"
         id="stop64307" /></linearGradient><linearGradient
       inkscape:collect="always"
       id="linearGradient63493"><stop
         style="stop-color:#969696;stop-opacity:1;"
         offset="0"
         id="stop63489" /><stop
         style="stop-color:#c8c8c8;stop-opacity:1;"
         offset="1"
         id="stop63491" /></linearGradient><linearGradient
       inkscape:collect="always"
       id="linearGradient62193"><stop
         style="stop-color:#969696;stop-opacity:1;"
         offset="0"
         id="stop62189" /><stop
         style="stop-color:#c8c8c8;stop-opacity:1;"
         offset="1"
         id="stop62191" /></linearGradient><linearGradient
       inkscape:collect="always"
       id="linearGradient55368"><stop
         style="stop-color:#f4a77e;stop-opacity:1;"
         offset="0"
         id="stop55364" /><stop
         style="stop-color:#f46f40;stop-opacity:1;"
         offset="1"
         id="stop55366" /></linearGradient><linearGradient
       inkscape:collect="always"
       id="linearGradient50523"><stop
         style="stop-color:#fc0000;stop-opacity:1;"
         offset="0"
         id="stop50519" /><stop
         style="stop-color:#fc6a00;stop-opacity:1;"
         offset="1"
         id="stop50521" /></linearGradient><linearGradient
       inkscape:collect="always"
       id="linearGradient49756"><stop
         style="stop-color:#f50000;stop-opacity:1;"
         offset="0"
         id="stop49752" /><stop
         style="stop-color:#ff4f00;stop-opacity:1;"
         offset="1"
         id="stop49754" /></linearGradient><linearGradient
       id="linearGradient45844"
       inkscape:swatch="solid"><stop
         style="stop-color:#000000;stop-opacity:1;"
         offset="0"
         id="stop45842" /></linearGradient><linearGradient
       inkscape:collect="always"
       xlink:href="#linearGradient63493"
       id="linearGradient2691-0"
       x1="230.25682"
       y1="219.57191"
       x2="230.24681"
       y2="219.9841"
       gradientUnits="userSpaceOnUse"
       gradientTransform="translate(351.41782,-103.81629)" /><linearGradient
       inkscape:collect="always"
       xlink:href="#linearGradient160"
       id="linearGradient5716"
       gradientUnits="userSpaceOnUse"
       gradientTransform="matrix(0.53766962,-0.63496153,0.63496153,0.53766962,349.25933,107.88981)"
       x1="170.05849"
       y1="226.34512"
       x2="169.71339"
       y2="226.19327" /><linearGradient
       inkscape:collect="always"
       xlink:href="#linearGradient160"
       id="linearGradient5717"
       gradientUnits="userSpaceOnUse"
       gradientTransform="matrix(0.3981325,-0.73058555,0.73058555,0.3981325,501.53824,59.11623)"
       x1="-18.287382"
       y1="123.40459"
       x2="-18.594629"
       y2="123.18607" /><linearGradient
       inkscape:collect="always"
       xlink:href="#linearGradient160"
       id="linearGradient5718"
       gradientUnits="userSpaceOnUse"
       gradientTransform="matrix(1.77532,0,0,1.77532,-248.30664,-635.73915)"
       x1="-33.55286"
       y1="72.135559"
       x2="-33.472187"
       y2="72.050545" /><linearGradient
       inkscape:collect="always"
       xlink:href="#linearGradient62193"
       id="linearGradient5719"
       gradientUnits="userSpaceOnUse"
       gradientTransform="matrix(-1.2649694,1.2456378,-1.2456378,-1.2649694,636.58841,246.12121)"
       x1="-29.483219"
       y1="74.025642"
       x2="-29.316298"
       y2="73.864174" /><linearGradient
       inkscape:collect="always"
       xlink:href="#linearGradient160"
       id="linearGradient5720"
       gradientUnits="userSpaceOnUse"
       gradientTransform="matrix(0.87512938,0,0,0.87512938,-216.296,-564.65429)"
       x1="-102.55309"
       y1="67.686295"
       x2="-102.42473"
       y2="67.315804" /><linearGradient
       inkscape:collect="always"
       xlink:href="#linearGradient5007"
       id="linearGradient5721"
       gradientUnits="userSpaceOnUse"
       gradientTransform="matrix(-0.86673265,-0.12093778,0.12093778,-0.86673265,562.54585,221.73261)"
       x1="-3.724998"
       y1="122.49908"
       x2="-3.7705901"
       y2="123.02197" /><linearGradient
       inkscape:collect="always"
       xlink:href="#linearGradient63493"
       id="linearGradient5722"
       gradientUnits="userSpaceOnUse"
       gradientTransform="matrix(0.83290263,1.567812,1.567812,-0.83290263,491.63038,223.74601)"
       x1="-29.137346"
       y1="73.232597"
       x2="-28.349934"
       y2="72.746292" /><linearGradient
       inkscape:collect="always"
       xlink:href="#linearGradient160"
       id="linearGradient5723"
       gradientUnits="userSpaceOnUse"
       gradientTransform="matrix(-1.0060897,0.22188255,-0.22188255,-1.0060897,585.52679,243.74479)"
       x1="-23.459694"
       y1="119.69993"
       x2="-23.140306"
       y2="119.5779" /><linearGradient
       inkscape:collect="always"
       xlink:href="#linearGradient20612"
       id="linearGradient5724"
       gradientUnits="userSpaceOnUse"
       gradientTransform="matrix(-0.87093443,-0.08558399,-0.08558399,0.87093443,587.85873,1.27754)"
       x1="-6.2126875"
       y1="135.28999"
       x2="-5.4116697"
       y2="135.46179" /><linearGradient
       inkscape:collect="always"
       xlink:href="#linearGradient1197"
       id="linearGradient5725"
       gradientUnits="userSpaceOnUse"
       gradientTransform="translate(520.67778,-45.056728)"
       x1="63.598984"
       y1="165.4818"
       x2="61.328861"
       y2="166.48404" /><linearGradient
       inkscape:collect="always"
       xlink:href="#linearGradient5090"
       id="linearGradient5726"
       gradientUnits="userSpaceOnUse"
       gradientTransform="translate(353.67178,-103.81629)"
       x1="230.18272"
       y1="225.04524"
       x2="230.18918"
       y2="225.17288" /><linearGradient
       inkscape:collect="always"
       xlink:href="#linearGradient5090"
       id="linearGradient5727"
       gradientUnits="userSpaceOnUse"
       gradientTransform="translate(353.67178,-103.81629)"
       x1="230.35265"
       y1="225.0432"
       x2="230.24162"
       y2="225.48895" /><linearGradient
       inkscape:collect="always"
       xlink:href="#linearGradient64309"
       id="linearGradient5728"
       gradientUnits="userSpaceOnUse"
       gradientTransform="translate(601.84775,0.93283)"
       x1="-19.362564"
       y1="119.96481"
       x2="-18.25713"
       y2="119.92059" /><linearGradient
       inkscape:collect="always"
       xlink:href="#linearGradient5035"
       id="linearGradient5729"
       gradientUnits="userSpaceOnUse"
       gradientTransform="translate(408.82408,-0.25731)"
       x1="174.76662"
       y1="121.00166"
       x2="174.49931"
       y2="120.98495" /><linearGradient
       inkscape:collect="always"
       xlink:href="#linearGradient4552"
       id="linearGradient5730"
       gradientUnits="userSpaceOnUse"
       gradientTransform="rotate(7.9804513,1129.2958,2983.7988)"
       x1="189.86093"
       y1="221.02457"
       x2="190.32176"
       y2="221.43967" /><linearGradient
       inkscape:collect="always"
       xlink:href="#linearGradient5043"
       id="linearGradient5731"
       gradientUnits="userSpaceOnUse"
       gradientTransform="translate(408.82408,-0.25731)"
       x1="173.11757"
       y1="121.0899"
       x2="173.33293"
       y2="121.1165" /><linearGradient
       inkscape:collect="always"
       xlink:href="#linearGradient4552"
       id="linearGradient5732"
       gradientUnits="userSpaceOnUse"
       gradientTransform="translate(408.82408,-0.25731)"
       x1="173.03371"
       y1="118.81697"
       x2="172.89511"
       y2="118.78265" /><linearGradient
       inkscape:collect="always"
       xlink:href="#linearGradient5010"
       id="linearGradient5733"
       gradientUnits="userSpaceOnUse"
       gradientTransform="translate(582.11446,-0.68086)"
       x1="1.1556838"
       y1="120.61111"
       x2="1.42628"
       y2="120.59447" /><linearGradient
       inkscape:collect="always"
       xlink:href="#linearGradient4992"
       id="linearGradient5734"
       gradientUnits="userSpaceOnUse"
       gradientTransform="translate(408.82408,-0.25731)"
       x1="172.78891"
       y1="119.47485"
       x2="173.37094"
       y2="119.46901" /><linearGradient
       inkscape:collect="always"
       xlink:href="#linearGradient1197"
       id="linearGradient5735"
       gradientUnits="userSpaceOnUse"
       gradientTransform="translate(520.67778,-45.056728)"
       x1="61.576557"
       y1="164.26704"
       x2="61.981831"
       y2="164.98412" /><linearGradient
       inkscape:collect="always"
       xlink:href="#linearGradient5031"
       id="linearGradient5736"
       gradientUnits="userSpaceOnUse"
       gradientTransform="translate(408.82408,-0.25731)"
       x1="173.91908"
       y1="119.35578"
       x2="174.19191"
       y2="119.35578" /><linearGradient
       inkscape:collect="always"
       xlink:href="#linearGradient5007"
       id="linearGradient5737"
       gradientUnits="userSpaceOnUse"
       gradientTransform="translate(582.56571,-0.68086)"
       x1="0.40949944"
       y1="119.0535"
       x2="1.0786"
       y2="119.07644" /><linearGradient
       inkscape:collect="always"
       xlink:href="#linearGradient20612"
       id="linearGradient5738"
       gradientUnits="userSpaceOnUse"
       gradientTransform="matrix(0.86308142,0.14471302,0.14471302,-0.86308142,568.04491,237.186)"
       x1="-6.2126875"
       y1="135.28999"
       x2="-5.4116697"
       y2="135.46179" /><linearGradient
       inkscape:collect="always"
       xlink:href="#linearGradient1197"
       id="linearGradient5739"
       gradientUnits="userSpaceOnUse"
       gradientTransform="translate(520.67778,-45.056728)"
       x1="61.466877"
       y1="164.45152"
       x2="60.328358"
       y2="162.9328" /><linearGradient
       inkscape:collect="always"
       xlink:href="#linearGradient1197"
       id="linearGradient5740"
       gradientUnits="userSpaceOnUse"
       gradientTransform="matrix(0.91608775,0.06711407,-0.06711407,0.91608775,536.89958,-35.415569)"
       x1="61.43129"
       y1="164.36441"
       x2="61.906174"
       y2="164.8569" /><linearGradient
       inkscape:collect="always"
       xlink:href="#linearGradient1197"
       id="linearGradient5741"
       gradientUnits="userSpaceOnUse"
       gradientTransform="matrix(0.8825228,0.25470486,-0.25470486,0.8825228,568.77664,-41.427894)"
       x1="61.43129"
       y1="164.36441"
       x2="61.906174"
       y2="164.8569" /><linearGradient
       inkscape:collect="always"
       xlink:href="#linearGradient55368"
       id="linearGradient5742"
       gradientUnits="userSpaceOnUse"
       gradientTransform="rotate(-4.1940152,284.00679,-8359.5287)"
       x1="-38.068344"
       y1="115.63547"
       x2="-38.406788"
       y2="116.58946" /><linearGradient
       inkscape:collect="always"
       xlink:href="#linearGradient2641"
       id="linearGradient5743"
       gradientUnits="userSpaceOnUse"
       gradientTransform="rotate(-4.1940152,284.00679,-8359.5287)"
       x1="-39.021812"
       y1="115.69682"
       x2="-38.641582"
       y2="115.69682" /><linearGradient
       inkscape:collect="always"
       xlink:href="#linearGradient49756"
       id="linearGradient5744"
       gradientUnits="userSpaceOnUse"
       gradientTransform="rotate(-4.1940152,293.53159,-8101.5992)"
       x1="-19.885185"
       y1="115.24645"
       x2="-18.733461"
       y2="115.24645" /><linearGradient
       inkscape:collect="always"
       xlink:href="#linearGradient50523"
       id="linearGradient5745"
       gradientUnits="userSpaceOnUse"
       gradientTransform="rotate(-4.1940152,293.53159,-8101.5992)"
       x1="-20.133801"
       y1="115.66431"
       x2="-19.019243"
       y2="115.66431" /><linearGradient
       inkscape:collect="always"
       xlink:href="#linearGradient55368"
       id="linearGradient5746"
       gradientUnits="userSpaceOnUse"
       gradientTransform="rotate(-10.452522,-288.91376,-3217.3736)"
       x1="-36.547489"
       y1="219.43437"
       x2="-36.898888"
       y2="220.32321" /><linearGradient
       inkscape:collect="always"
       xlink:href="#linearGradient160"
       id="linearGradient5747"
       gradientUnits="userSpaceOnUse"
       gradientTransform="matrix(0.53766962,-0.63496153,0.63496153,0.53766962,349.96495,108.0954)"
       x1="170.05849"
       y1="226.34512"
       x2="169.71339"
       y2="226.19327" /><linearGradient
       inkscape:collect="always"
       xlink:href="#linearGradient160"
       id="linearGradient5748"
       gradientUnits="userSpaceOnUse"
       gradientTransform="matrix(0.3981325,-0.73058555,0.73058555,0.3981325,502.24386,59.32183)"
       x1="-18.287382"
       y1="123.40459"
       x2="-18.594629"
       y2="123.18607" /><linearGradient
       inkscape:collect="always"
       xlink:href="#linearGradient5027"
       id="linearGradient5749"
       gradientUnits="userSpaceOnUse"
       gradientTransform="translate(408.82408,-0.25731)"
       x1="174.20992"
       y1="120.01736"
       x2="174.04913"
       y2="119.72795" /><linearGradient
       inkscape:collect="always"
       xlink:href="#linearGradient5043"
       id="linearGradient5750"
       gradientUnits="userSpaceOnUse"
       gradientTransform="translate(353.67178,-103.81629)"
       x1="229.44389"
       y1="225.8555"
       x2="229.57088"
       y2="225.47932" /><linearGradient
       inkscape:collect="always"
       xlink:href="#linearGradient4992"
       id="linearGradient5751"
       gradientUnits="userSpaceOnUse"
       gradientTransform="translate(408.82408,-0.25731)"
       x1="173.71899"
       y1="121.48154"
       x2="173.95464"
       y2="121.47327" /><linearGradient
       inkscape:collect="always"
       xlink:href="#linearGradient5031"
       id="linearGradient5752"
       gradientUnits="userSpaceOnUse"
       gradientTransform="translate(408.82408,-0.25731)"
       x1="172.49236"
       y1="119.23673"
       x2="172.79059"
       y2="119.22931" /><linearGradient
       inkscape:collect="always"
       xlink:href="#linearGradient5092"
       id="linearGradient5753"
       gradientUnits="userSpaceOnUse"
       gradientTransform="translate(353.67178,-103.81629)"
       x1="228.69072"
       y1="225.66985"
       x2="228.92751"
       y2="225.43306" /><linearGradient
       inkscape:collect="always"
       xlink:href="#linearGradient1197"
       id="linearGradient5756"
       gradientUnits="userSpaceOnUse"
       gradientTransform="translate(353.50626,-103.80479)"
       x1="227.93944"
       y1="223.29616"
       x2="227.73482"
       y2="223.38969" /><marker
       style="overflow:visible"
       id="marker36-3-5"
       refX="9"
       refY="0"
       orient="auto"
       inkscape:stockid="Square"
       markerWidth="0.2"
       markerHeight="0.2"
       viewBox="0 0 1 1"
       inkscape:isstock="true"
       inkscape:collect="always"
       preserveAspectRatio="xMidYMid"><path
         transform="scale(0.5)"
         style="fill:context-stroke;fill-rule:evenodd;stroke:none"
         d="M -5,-5 V 5 H 5 V -5 Z"
         id="path36-8-9" /></marker><marker
       style="overflow:visible"
       id="Triangle-3-8-1-1-8-5-8"
       refX="0"
       refY="0"
       orient="auto-start-reverse"
       inkscape:stockid="Triangle arrow"
       markerWidth="0.5"
       markerHeight="0.5"
       viewBox="0 0 1 1"
       inkscape:isstock="true"
       inkscape:collect="always"
       preserveAspectRatio="xMidYMid"><path
         transform="scale(0.5)"
         style="fill:context-stroke;fill-rule:evenodd;stroke:context-stroke;stroke-width:1pt"
         d="M 5.77,0 -2.88,5 V -5 Z"
         id="path135-4-6-4-7-5-6-4" /></marker></defs><g
     inkscape:label="Layer 1"
     inkscape:groupmode="layer"
     id="layer1"
     transform="translate(-565.77636,-103.15299)"><g
       id="inward"
       inkscape:export-filename="pngs/inward.png"
       inkscape:export-xdpi="96"
       inkscape:export-ydpi="96"><g
         id="g5760"
         transform="translate(-13.555412,-11.700071)"><path
           style="fill:url(#linearGradient5716);fill-opacity:1;stroke-width:0.0832028;stroke-linecap:square;stroke-miterlimit:63.1"
           d="m 584.18207,121.83289 c 0,0 0.0417,0.0477 0.095,0.0553 0.0382,0.005 0.11068,-0.0474 0.11068,-0.0474 0,0 0.0401,-0.0217 0.0699,-0.0761 0.0299,-0.0538 -0.0593,-0.28621 -0.0738,-0.32738 -0.0148,-0.0409 -0.0388,-0.11745 -0.0499,-0.13611 -0.0109,-0.0183 -0.0476,-0.072 -0.20497,-0.08 -0.10078,-0.005 0.0572,0.38858 0.0572,0.38858 z"
           id="path3148-8-2-3-6-43-1-9-3-6-8-2"
           sodipodi:nodetypes="ccccscscc" /><path
           id="path22517-4-81-45-3-73-7-3-1-3-7-2-5-9-7-1-0-7-20-9-3-8-2"
           style="fill:url(#linearGradient5717);fill-opacity:1;stroke-width:0.403893"
           d="m 584.05674,121.21823 c 0.0567,0.11724 0.0379,0.22223 -0.054,0.28278 0,0 0.12142,0.26385 0.17991,0.33192 0.0737,0.0856 0.20383,-0.056 0.20383,-0.056 0.0537,-0.0492 -0.006,-0.20524 -0.0519,-0.33648 -0.0321,-0.0956 -0.0473,-0.20289 -0.20514,-0.21871 -0.0216,-0.002 -0.0507,-0.002 -0.072,-0.003 z"
           sodipodi:nodetypes="ccccccc" /><circle
           style="fill:url(#linearGradient5718);fill-opacity:1;stroke-width:0.409133"
           id="circle22541-7-1-8-3-3-23-5-5-1-2-9-5-3-8-01-7-7"
           cx="-307.73706"
           cy="-507.85071"
           r="0.25720531"
           transform="rotate(132.47236)" /><path
           id="path22545-5-2-38-8-8-7-99-7-7-9-7-6-7-6-5-6-6"
           style="fill:url(#linearGradient5719);fill-opacity:1;stroke-width:0.46972"
           d="m 582.31917,117.07967 c 0.003,-0.005 0.005,-0.0107 0.006,-0.0167 0.005,-0.0519 0.11106,-0.67032 0.1472,-0.87979 3.4e-4,-0.002 4.5e-4,-0.003 6.2e-4,-0.004 6.9e-4,-0.004 0.002,-0.009 0.002,-0.0133 10e-4,-0.0334 0.002,-0.0728 0.003,-0.0778 -0.002,-0.1065 -0.0254,-0.24475 -0.0798,-0.2569 -0.0537,-0.0119 -0.12245,0.10214 -0.15951,0.19981 -0.0112,0.037 -0.017,0.0562 -0.0231,0.0763 -7.4e-4,0.003 -0.001,0.008 -0.002,0.011 l -4.1e-4,0.003 c -10e-5,7.1e-4 -1.1e-4,8.7e-4 -2.1e-4,0.002 l -6.2e-4,0.003 c -6e-5,7.2e-4 1.5e-4,0.002 2.1e-4,0.002 l -0.0218,0.15563 c 0,0 -0.50478,-0.55769 -0.65263,-0.60748 -0.26466,-0.0521 -1.80848,-0.22371 -1.80848,-0.22371 l -0.0664,0.1971 c 0,0 0.0142,0.001 0.0176,0.002 l -0.0162,0.0651 c -0.17353,0.14946 0.004,0.18241 0.21834,0.20781 l 1.47306,0.17983 c 0.12674,0.015 0.60733,0.38889 0.7518,0.49293 0.006,0.006 0.0129,0.015 0.0129,0.015 l -0.0556,0.41153 c -0.0121,0.0895 0.21322,0.11564 0.25388,0.0577 z"
           sodipodi:nodetypes="ssssccsccscccccccccccccccss" /><circle
           style="fill:url(#linearGradient5720);fill-opacity:1;stroke-width:0.409133"
           id="circle22547-7-8-73-3-5-2-0-1-9-0-3-0-7-7-2-4-1"
           cx="-306.07077"
           cy="-505.58276"
           r="0.25720531"
           transform="rotate(132.47236)" /><path
           style="fill:url(#linearGradient2691-0);fill-opacity:1;stroke-width:0.256017"
           d="m 579.90384,115.66833 -0.36517,-0.049 c 0,0 0.13969,-0.16924 0.19096,-0.16835 0.0573,9.9e-4 0.19483,0.0226 0.19483,0.0226 z"
           id="path22549-4-9-10-2-0-5-7-6-10-5-8-6-1-0-07-3-8"
           sodipodi:nodetypes="ccscc" /><path
           style="fill:url(#linearGradient5721);fill-opacity:1;stroke-width:0.00499999;stroke-miterlimit:13.8"
           d="m 580.02472,115.4826 -0.0968,0.44633 1.44354,0.17794 0.0991,-0.44436 z"
           id="path5017-0-5"
           sodipodi:nodetypes="ccccc" /><path
           id="path87478-5-37-6-9-3-0-0-2-2-8-1-3-1"
           style="fill:url(#linearGradient5722);fill-opacity:1;stroke-width:0.417028"
           d="m 582.09882,116.91353 -0.37266,2.54494 -0.0137,0.0874 -0.80615,0.0889 c -0.01,9.4e-4 -0.0192,0.006 -0.0272,0.0119 l 2.3e-4,4.3e-4 c -0.0326,0.0287 -0.0378,0.0974 0.027,0.1138 0.0498,0.0128 0.63868,-0.0491 1.19198,-0.10445 l 2.4e-4,4.2e-4 c 0.33314,-0.0333 0.6528,-0.0643 0.83433,-0.0751 0.0466,-0.002 0.0696,-0.1589 -0.0109,-0.15313 -0.30346,0.022 -0.65828,0.0582 -0.84183,0.0776 -2.6e-4,2e-5 -1.5e-4,2.1e-4 -4.2e-4,2.3e-4 -0.0752,0.008 -0.12479,0.0134 -0.12479,0.0134 l 0.0179,-0.39994 0.35041,-2.18807 z"
           sodipodi:nodetypes="cccccccccccsccccc" /><path
           style="fill:url(#linearGradient5723);fill-opacity:1;stroke-width:0.500129"
           d="m 582.36825,118.07267 c 0.085,0.0503 0.1449,0.10669 0.20216,0.20611 -0.11157,0.11158 -0.26047,0.25399 -0.26047,0.25399 -0.0488,0.0453 -0.24004,-0.15255 -0.19433,-0.20357 z"
           id="path22553-1-6-01-9-9-6-3-8-5-4-9-6-1-1-6-0-1"
           sodipodi:nodetypes="ccccc" /><path
           id="path25467-2-18-3-8-13-6-1-9-1-2-9-0-98-4-9-3"
           style="fill:url(#linearGradient5724);fill-opacity:1;stroke:none;stroke-width:0.00087513;stroke-miterlimit:12.9;stroke-dasharray:none;stroke-opacity:1"
           d="m 581.36256,119.58479 c -0.0478,0.0268 -0.0337,0.11621 0.008,0.14434 -0.19196,0.017 -0.4101,0.0402 -0.46475,0.032 -0.0187,-0.005 -0.0482,-0.006 -0.0499,-0.0643 -9.4e-4,-0.0373 0.009,-0.057 0.0496,-0.0617 0.25692,-0.0283 0.37654,-0.0415 0.45683,-0.0503 z"
           sodipodi:nodetypes="cccscc" /><path
           id="path119656-2-4-5-3-4-9-1-9-9-6-5-2-0"
           style="fill:url(#linearGradient5725);fill-opacity:1;stroke:none;stroke-width:0.0005585;stroke-miterlimit:12.9;stroke-dasharray:none;stroke-opacity:1"
           d="m 582.51221,115.94414 c -0.0111,-1.3e-4 -0.0235,2.7e-4 -0.0372,5.2e-4 v 5.2e-4 c -0.16467,0.003 -0.49749,0.0423 -0.52245,0.31212 -0.0491,0.42269 0.11249,0.76488 0.29041,1.07293 -0.15728,0.0512 -0.0831,0.0286 -0.23967,0.0798 -0.0676,0.0181 -0.10872,0.0826 -0.15874,0.10609 -0.0796,0.0447 -0.39325,0.6016 -0.47687,0.7366 -0.029,0.10047 -0.0356,0.13367 -0.0844,0.38973 -0.0108,0.0759 0.11608,0.18276 0.25546,0.26006 0.14741,0.0218 0.24069,-0.027 0.28307,-0.10896 0.13779,-0.25535 0.071,-0.1588 0.10802,-0.37418 0.0553,-0.17044 0.0723,0.001 0.0837,-0.014 -0.02,-0.0104 -0.10955,0.46938 -0.11934,0.44738 l 0.0689,-0.33041 c 0.036,0.12445 -0.0427,1.21586 0.10214,1.68987 -0.23762,0.8731 -0.0711,1.5732 0.3018,1.67535 0.058,0.009 0.20327,-0.0104 0.37516,-0.0491 0.011,0.0212 0.0228,0.0413 0.0362,0.06 0.13984,0.19495 0.24559,0.18682 0.81804,0.0786 0.42883,-0.0811 0.75936,-0.16122 1.06557,-0.25219 0.21327,-0.0613 0.14006,-0.26051 0.1018,-0.30231 -0.19464,-0.004 -0.4563,-0.028 -0.66766,-0.0315 0.004,-0.0639 -0.023,-0.13334 -0.0387,-0.17232 -0.12213,0.003 -0.30908,0.0117 -0.51472,0.0255 0.0453,-0.20854 0.063,-0.3887 0.0413,-0.60616 -0.0729,-0.38875 -0.0777,-0.20029 -0.0724,-0.66404 0.0105,-0.38571 0.11618,-1.04206 0.13269,-1.57854 -0.0134,-0.6994 -0.0539,-0.72017 -0.24534,-0.85077 -0.10338,-0.048 -0.19407,-0.0848 -0.27337,-0.11472 l -5.2e-4,-5.2e-4 c -0.0557,-0.0335 -0.0901,-0.0722 -0.11958,-0.12317 -0.0438,-0.0758 -0.03,-0.21126 -0.0298,-0.26905 0.27269,-1.07235 -0.4098,-1.09088 -0.4098,-1.09088 0,0 -0.0204,-0.002 -0.0537,-0.003 z m 0.18035,4.91288 c 0,0 -0.0144,0.0721 -0.0269,0.18036 -0.0116,-0.0686 -0.008,-0.13569 0.0269,-0.18036 z"
           sodipodi:nodetypes="cccccccccccccccccccccccccccccccsccccccc" /><path
           style="opacity:0.477531;fill:url(#linearGradient5726);fill-opacity:1;stroke-width:0.00499999;stroke-miterlimit:13.8"
           d="m 583.54273,121.24424 c 0,0 0.44247,-0.0283 0.51401,-0.026 0.0304,0.0468 0.0386,0.13634 0.0386,0.13634 l -0.60379,0.0133 z"
           id="path5093-6"
           sodipodi:nodetypes="ccccc" /><path
           style="opacity:0.584244;fill:url(#linearGradient5727);fill-opacity:1;stroke-width:0.00499999;stroke-miterlimit:13.8"
           d="m 583.50412,121.40697 c 0,0 0.36689,-0.047 1.25969,0.0156 0.2814,0.0197 0.23344,0.16902 0.0735,0.23749 -0.26295,0.11257 -0.76525,0.21861 -0.76525,0.21861 l -1.35732,-0.10258 -0.0742,-0.23421 0.0316,-0.1245 0.76036,-0.23325 z"
           id="path5089-4"
           sodipodi:nodetypes="csscccccc" /><path
           id="path22531-7-5-99-2-7-8-8-8-3-1-1-3-4-1-5-5-4"
           style="fill:url(#linearGradient5728);fill-opacity:1;stroke:none;stroke-width:0.485436"
           d="m 583.50683,120.21964 -0.79375,0.23926 -0.63975,-0.1974 c 0,0 -0.0201,-0.0197 -0.0331,-0.01 -0.093,0.56382 -0.12719,0.80488 -0.0636,1.13895 0,0 0.004,0.0199 0.03,0.0367 0.014,0.009 -0.0257,-0.0326 0.0171,-0.0537 5.6e-4,-2.7e-4 9.6e-4,-7.6e-4 0.002,-0.001 1.5e-4,-5e-5 3.6e-4,5e-5 5.1e-4,0 7.5e-4,-3.4e-4 10e-4,-7.1e-4 0.002,-0.001 10e-4,-4.9e-4 0.003,-10e-4 0.004,-0.002 0.16507,-0.0593 0.28727,-0.0814 0.41497,-0.0656 0.0742,0.009 0.12899,0.0339 0.16846,0.0537 0.002,0.06 0.009,0.11595 0.0145,0.1726 h 5.2e-4 c 7.5e-4,0.009 0.01,0.0227 0.0119,0.0253 -0.002,-0.005 -0.005,-0.0287 0.0346,-0.0625 0.002,-10e-4 0.003,-0.003 0.005,-0.004 6.6e-4,-5.2e-4 0.002,-0.001 0.002,-0.002 0.11957,-0.0876 0.23682,-0.12258 0.37,-0.12919 0.17461,-0.009 0.30842,-0.005 0.45011,0.0486 0.10886,-0.31572 0.1052,-0.71454 0.0594,-0.96841 -0.014,-0.0808 -0.0367,-0.15544 -0.0568,-0.21911 z"
           sodipodi:nodetypes="cccccssscccccccccccccccc" /><path
           style="opacity:0.783932;fill:url(#linearGradient5729);fill-opacity:1;stroke-width:0.00499999;stroke-miterlimit:13.8"
           d="m 583.50662,120.21965 c 0,0 0.0441,0.13017 0.0572,0.21918 0.0131,0.089 0.0349,0.28861 0.0289,0.41458 -0.006,0.12597 -0.008,0.32156 -0.0886,0.55356 -0.038,-0.0133 -0.0499,-0.0176 -0.10642,-0.0317 -0.0952,-0.0237 -0.20743,-0.0206 -0.34342,-0.0169 -0.24524,0.056 -0.0166,-0.99727 -0.0166,-0.99727 z"
           id="path5033-0-7"
           sodipodi:nodetypes="csscsccc" /><path
           style="opacity:0.75;fill:url(#linearGradient5730);fill-opacity:1;stroke-width:0.025;stroke-linecap:square;stroke-miterlimit:63.1"
           d="m 582.19708,117.39111 c 0,0 0.8437,-0.51038 0.77862,-0.35376 0,0 -0.01,0.0963 0.005,0.1918 0.0103,0.0698 0.0699,0.14815 0.0699,0.14815 0.31177,0.0153 -0.93098,0.43798 -0.93098,0.43798 0,0 -0.0221,-0.14611 -0.0136,-0.24836 0.005,-0.0652 0.0146,-0.0582 0.0176,-0.10444 0.002,-0.0369 -0.007,-0.0695 0.0362,-0.0747 z"
           id="path3984-2-7-9-0-0-1-86-3-4-53"
           sodipodi:nodetypes="cssscsscc" /><path
           style="opacity:0.605728;fill:url(#linearGradient5731);fill-opacity:1;stroke-width:0.00499999;stroke-miterlimit:13.8"
           d="m 582.06524,120.21221 -0.0219,0.0209 -0.0616,0.38157 c 0,0 -0.0445,0.31858 -0.0376,0.45497 0.005,0.12032 0.002,0.14566 0.028,0.29646 0.004,0.0231 -8.3e-4,0.036 0.0345,0.0612 0.004,0.003 -0.005,-0.0179 -0.003,-0.0306 0.002,-0.0113 0.009,-0.0192 0.02,-0.0232 0.0357,-0.0133 0.0451,-0.0178 0.0685,-0.0242 0.11377,-0.0313 0.2007,-0.0458 0.2007,-0.0458 l 0.0746,-0.6198 c 0,0 0.13805,-0.46013 0.0603,-0.46539 -0.0778,-0.005 -0.3625,-0.006 -0.3625,-0.006 z"
           id="path5041-5-8"
           sodipodi:nodetypes="ccccscsssccccc" /><path
           style="opacity:0.404902;fill:url(#linearGradient5732);fill-opacity:1;stroke-width:0.00499999;stroke-miterlimit:13.8"
           d="m 581.82182,118.79355 c 0,0 -0.0828,-0.064 -0.19685,-0.0713 -0.11401,-0.007 0.1317,-0.36174 0.1317,-0.36174 l 0.20643,0.16179 z"
           id="path5045-9-2" /><path
           style="fill:url(#linearGradient5733);fill-opacity:1;stroke:none;stroke-width:3.96499;stroke-miterlimit:12.9"
           d="m 581.86227,119.31795 c -2e-5,0.20385 0.0245,0.25299 0.0279,0.40884 0.003,0.14975 0.0148,0.31513 0.0214,0.45658 -0.004,0.0393 0.0948,0.04 0.0948,0.04 0,0 0.17435,0.18717 0.39424,0.18741 0.0475,5e-5 0.20831,0.0573 0.31524,0.06 0.11911,0.003 0.29169,-0.0514 0.35406,-0.049 0.0796,0.003 0.26131,-0.0315 0.35813,-0.083 0.0968,-0.0515 0.0949,-0.0912 0.0949,-0.0912 0,0 0.0388,-0.0248 0.0278,-0.11031 -0.0353,-0.51155 0.0493,-1.02928 0.0867,-1.54019 0,0 0.0856,-0.73923 -0.0992,-0.95697 -0.15765,-0.1858 -0.48809,-0.26276 -0.48809,-0.26276 0,0 -0.65884,0.53439 -0.86897,-0.0246 -0.41071,0.0784 -0.6465,0.19557 -0.81349,0.90002 0.20557,0.007 0.41793,0.0533 0.51168,0.26376 0.002,0.53565 -0.0208,0.3732 -0.017,0.80148 z"
           id="path22555-8-0-4-3-2-99-2-0-9-3-8-7-8-7-0-4-7"
           sodipodi:nodetypes="csccsacscccscccccc" /><path
           style="opacity:0.418516;fill:url(#linearGradient5734);fill-opacity:1;stroke-width:0.00499999;stroke-miterlimit:13.8"
           d="m 581.87607,118.83883 0.003,-0.3223 c 0,0 -0.0234,-0.36027 0.2232,-0.39762 0.28374,-0.0373 0.32922,0.49522 0.32922,0.49522 l -0.0434,0.75304 0.0554,0.74085 -0.0432,0.30276 c 0,0 -0.21275,0.006 -0.39424,-0.18741 -0.0651,0.004 -0.0926,-0.016 -0.0966,-0.039 -0.0128,-0.0738 -0.004,-0.11149 -0.007,-0.15728 -0.003,-0.0413 -0.007,-0.12392 -0.007,-0.12392 l -0.0232,-0.37796 0.0275,-0.11647 z"
           id="path5021-6-3"
           sodipodi:nodetypes="ccccccccsscccc" /><path
           id="path1128-0-9-5"
           style="fill:url(#linearGradient5735);fill-opacity:1;stroke:none;stroke-width:3.96499;stroke-miterlimit:12.9"
           d="m 583.20328,117.52063 -0.28503,0.89687 -0.16596,0.16104 c 0,0 -0.009,0.17292 -0.0165,0.80365 -0.30329,0.0639 -0.6619,0.0807 -1.14137,0.13308 l -0.40668,0.23084 c 0.0551,0.047 0.22039,-0.0194 0.35616,0.0166 0.045,0.012 0.29961,0.0617 0.34954,0.0688 0.50616,0.0728 1.03669,0.1085 1.19823,0.0495 0.29114,-0.10647 0.415,-1.07303 0.415,-1.2701 v 0 c 0,0 0.12757,-0.43301 0.12327,-0.57976 -0.004,-0.14675 -0.1115,-0.40242 -0.1783,-0.43372 -0.1762,-0.0825 -0.24832,-0.0769 -0.24832,-0.0769 z"
           sodipodi:nodetypes="ccccccssscccscc" /><path
           style="opacity:0.43253;fill:url(#linearGradient5736);fill-opacity:1;stroke-width:0.00499999;stroke-miterlimit:13.8"
           d="m 582.73579,119.38219 c 0,0 0.1411,-0.0369 0.31266,0.0205 0.12196,0.0372 0.20063,-0.33608 0.18907,-0.53824 -0.1416,-0.001 -0.40674,-0.0589 -0.4905,-0.12707 -0.003,0.16023 -0.0113,0.64441 -0.0113,0.64441 z"
           id="path5029-2-3"
           sodipodi:nodetypes="cccccc" /><path
           style="fill:url(#linearGradient5737);fill-opacity:1;stroke:none;stroke-width:3.96499;stroke-miterlimit:12.9"
           d="m 583.39759,117.53712 c -0.43999,-0.13433 -0.66994,0.19094 -0.70329,0.461 -0.0302,0.26397 0.0151,0.51369 0.0312,0.78499 0.16399,0.11966 0.69132,0.0792 0.80656,0.0579 0.0574,-0.36998 0.28161,-1.1356 -0.13447,-1.30392 z"
           id="path22559-9-5-1-2-29-02-9-8-9-1-5-0-2-6-7-2-7"
           sodipodi:nodetypes="ccccc" /><path
           style="fill:#c8c8c8;fill-opacity:1;stroke:none;stroke-width:0.0939199;stroke-linecap:square;stroke-miterlimit:63.1;stroke-dasharray:none;stroke-opacity:1"
           d="m 581.90665,119.6757 0.56805,-0.0557 0.14218,-0.16649 -0.74466,0.0717 z"
           id="path1130-6-4-4"
           sodipodi:nodetypes="ccccc" /><path
           style="fill:url(#linearGradient5738);fill-opacity:1;stroke:none;stroke-width:0.00087513;stroke-miterlimit:12.9;stroke-dasharray:none;stroke-opacity:1"
           d="m 582.44213,119.46992 c -0.0194,0.0452 -0.0396,0.10772 0.0146,0.15166 0.22899,-0.0186 0.26369,-0.0237 0.47624,-0.0396 0.052,-0.004 0.0713,-0.15767 -0.011,-0.15302 -0.24231,0.0143 -0.2578,0.0186 -0.47978,0.0409 z"
           id="path14155-7-3-4-2-20-4-8-6-0-6-3-6-5-4-7-8"
           sodipodi:nodetypes="ccscc" /><path
           style="fill:#c8c8c8;fill-opacity:1;stroke:none;stroke-width:0.0939199;stroke-linecap:square;stroke-miterlimit:63.1;stroke-dasharray:none;stroke-opacity:1"
           d="m 581.74004,119.36884 -0.0276,0.17698 -0.34987,0.039 0.0137,0.1435 0.63998,-0.0636 -0.0146,-0.15195 -0.0926,0.009 -0.008,-0.113 z"
           id="path1193-1-7-0" /><path
           style="fill:url(#linearGradient5739);fill-opacity:1;stroke:none;stroke-width:0.1;stroke-linecap:square;stroke-miterlimit:63.1;stroke-dasharray:none;stroke-opacity:1"
           d="m 581.31639,118.97961 c 0.15184,0.26036 0.76335,0.52686 0.76335,0.52686 0,0 0.52115,-0.0509 0.57242,-0.0564 -0.0655,-0.0602 -0.16096,-0.0589 -0.26373,-0.0829 -0.17754,-0.19819 -0.21214,-0.27899 -0.49381,-0.51395 -0.22789,-0.19011 -0.58746,-0.38076 -0.6113,-0.21096 0,1e-5 -0.047,0.21104 0.0331,0.33716 z"
           id="path1196-9-4-0"
           sodipodi:nodetypes="ccccsscc" /><path
           style="fill:url(#linearGradient5740);fill-opacity:1;stroke-width:0.498634"
           d="m 582.73627,119.60048 c 0,0 -0.013,0.0667 -0.065,0.10278 -0.0522,0.0361 -0.29072,0.0942 -0.34724,0.0842 -0.0675,-0.0123 -0.0583,-0.0315 -0.0767,-0.0957 -0.0118,-0.0493 0.0731,-0.18317 0.13328,-0.19749 0.069,-0.0165 0.35569,0.10629 0.35569,0.10629 z"
           id="path45621-2-0-8-8-1"
           sodipodi:nodetypes="ccscscc" /><path
           style="fill:url(#linearGradient5741);fill-opacity:1;stroke-width:0.498634"
           d="m 581.63919,119.71035 c 0,0 -0.0261,0.0627 -0.0848,0.0872 -0.0585,0.0245 -0.30389,0.0321 -0.35714,0.0108 -0.0634,-0.0263 -0.0505,-0.0429 -0.0553,-0.10949 -0.002,-0.0507 0.10926,-0.16414 0.17115,-0.16573 0.0709,-0.002 0.32611,0.1774 0.32611,0.1774 z"
           id="path45621-2-0-8-8-0-6"
           sodipodi:nodetypes="ccscscc" /><path
           style="fill:url(#linearGradient5742);fill-opacity:1;stroke:none;stroke-width:1;stroke-miterlimit:13.8"
           d="m 582.34923,117.47103 c 0.15677,-0.002 0.57239,-0.0739 0.62647,-0.43368 0.0196,-0.13068 0.0244,-0.14058 0.0431,-0.25393 0.0393,-0.23683 -0.007,-0.42047 -0.007,-0.42047 l -1.10634,0.0852 0.0237,0.31578 c 0.01,0.14027 0.15669,0.71938 0.41975,0.70733 z"
           id="path2638-5-9-2-8-6-86-4-1-6-2-7-1-4"
           sodipodi:nodetypes="cssccccc" /><path
           style="fill:url(#linearGradient5743);fill-opacity:1;stroke:none;stroke-width:1;stroke-miterlimit:13.8"
           d="m 581.68759,116.73466 c 0,0 0.0521,0.073 0.25172,-0.15526 0.26336,-0.21033 -0.0669,-0.0361 -0.0669,-0.0361 l -0.15888,0.0739 -0.0386,0.0684 z"
           id="path2640-6-8-1-1-5-5-6-3-4-9-7-2-5"
           sodipodi:nodetypes="cccccc" /><path
           style="fill:url(#linearGradient5744);fill-opacity:1;stroke-width:0.0381963"
           d="m 581.90589,116.44776 c 0,0 -0.0133,-0.26616 0.0337,-0.37932 0.081,-0.19547 0.289,-0.30451 0.54093,-0.33219 0.14773,-0.006 0.27576,0.01 0.41646,0.15258 0.14062,0.14295 0.14545,0.31133 0.14545,0.31133 l 0.0105,0.22513 c -0.11022,0.0626 -0.20938,0.0523 -0.28158,0.0434 -0.11215,0.01 -0.65868,-0.09 -0.65868,-0.09 z"
           id="path11206-13-6-2-7-5-1-2-1-8-0-5-6-8-8"
           sodipodi:nodetypes="cscsccccc" /><path
           style="fill:url(#linearGradient5745);fill-opacity:1;stroke-width:0.0381963"
           d="m 581.90387,116.44798 c 0,0 -0.10592,0.0924 -0.15714,0.14048 -0.0197,0.0181 -0.10398,0.0719 -0.0591,0.14618 -0.007,-0.0308 -0.0171,-0.13356 0.20976,-0.13772 0.0393,0.002 0.17303,0.0568 0.30463,0.10401 0.0217,0.009 0.14715,0.0627 0.21256,0.0451 0.20345,-0.0545 0.31721,-0.19887 0.36132,-0.2769 -0.13215,-0.0234 -0.36171,-0.0648 -0.52315,-0.093 -0.16768,-0.0295 -0.25342,-0.0102 -0.34872,0.0717 z"
           id="path11208-7-3-8-0-97-1-8-2-0-3-4-7-9-3"
           sodipodi:nodetypes="ccccsscsc" /><path
           style="fill:url(#linearGradient5746);fill-opacity:1;stroke:#000000;stroke-width:0;stroke-linecap:square;stroke-miterlimit:63.1;stroke-dasharray:none;stroke-opacity:1"
           d="m 582.92454,116.74265 c 0,0 0.12115,-0.14779 0.16091,-0.0297 0.0579,0.1719 -0.15508,0.33629 -0.15508,0.33629"
           id="path4556-0-4-5-3-0-3-3-3-1"
           sodipodi:nodetypes="csc" /><path
           style="fill:url(#linearGradient5747);fill-opacity:1;stroke-width:0.0832028;stroke-linecap:square;stroke-miterlimit:63.1"
           d="m 584.88769,122.03848 c 0,0 0.0417,0.0477 0.095,0.0553 0.0382,0.005 0.11068,-0.0474 0.11068,-0.0474 0,0 0.0401,-0.0217 0.0699,-0.0761 0.0299,-0.0538 -0.0593,-0.28621 -0.0738,-0.32738 -0.0148,-0.0409 -0.0388,-0.11745 -0.0499,-0.13611 -0.0109,-0.0183 -0.0476,-0.072 -0.20497,-0.08 -0.10078,-0.005 0.0572,0.38858 0.0572,0.38858 z"
           id="path3148-8-2-3-6-43-1-9-3-68-2"
           sodipodi:nodetypes="ccccscscc" /><path
           id="path22517-4-81-45-3-73-7-3-1-3-7-2-5-9-7-1-0-7-20-9-0-2"
           style="fill:url(#linearGradient5748);fill-opacity:1;stroke-width:0.403893"
           d="m 584.76236,121.42382 c 0.0567,0.11724 0.0379,0.22223 -0.054,0.28278 0,0 0.12142,0.26385 0.17991,0.33192 0.0737,0.0856 0.20383,-0.056 0.20383,-0.056 0.0537,-0.0492 -0.006,-0.20524 -0.0519,-0.33648 -0.0321,-0.0956 -0.0473,-0.20289 -0.20514,-0.21871 -0.0216,-0.002 -0.0507,-0.002 -0.072,-0.003 z"
           sodipodi:nodetypes="ccccccc" /><path
           style="opacity:0.209677;fill:url(#linearGradient5749);fill-opacity:1;stroke-width:0.00499999;stroke-miterlimit:13.8"
           d="m 583.44711,119.09847 c 0,0 -0.0871,0.51468 -0.25025,0.701 -0.0399,0.0456 -0.0543,0.0775 -0.15501,0.0949 -0.31689,0.0548 -0.76027,-0.0315 -0.999,-0.0425 -0.32627,-0.015 1.14503,-0.58762 1.40426,-0.75332 z"
           id="path5025-2-9"
           sodipodi:nodetypes="cssscc" /><path
           style="opacity:0.900489;fill:url(#linearGradient5750);fill-opacity:1;stroke-width:0.00499999;stroke-miterlimit:13.8"
           d="m 582.64228,121.556 c 0.0223,0.0762 0.0758,0.2701 0.13612,0.34246 0.0612,0.0827 0.12207,0.14646 0.22067,0.15022 0.0336,0.006 0.11478,0.006 0.23177,-0.009 0.33972,-0.0438 0.97846,-0.16658 1.47752,-0.33343 0.67093,-0.22431 -1.25842,-0.15123 -1.25842,-0.15123 l -0.59965,-0.28598 -0.2282,0.18111 c 0,0 -0.002,0.0297 0.0202,0.10585 z"
           id="path5086-5"
           sodipodi:nodetypes="zccssccczz" /><path
           style="opacity:0.384364;fill:url(#linearGradient5751);fill-opacity:1;stroke-width:0.00499999;stroke-miterlimit:13.8"
           d="m 582.86444,120.6721 c 0.30986,-0.0994 0.18984,0.68627 0.18984,0.68627 0,0 -0.1446,0.004 -0.27322,0.0694 -0.13482,0.0732 -0.13306,0.096 -0.13878,0.12823 -0.0207,-7.3e-4 -0.0266,-0.19845 -0.0266,-0.19845 0,0 -0.0611,-0.58604 0.24881,-0.68544 z"
           id="path5037-1-5"
           sodipodi:nodetypes="sccccss" /><path
           style="opacity:0.584122;fill:url(#linearGradient5752);fill-opacity:1;stroke-width:0.00499999;stroke-miterlimit:13.8"
           d="m 581.36769,118.25272 c 0,0 -0.024,0.0662 -0.0844,0.38973 -0.0318,0.17005 -0.10097,0.34714 0.37716,0.64128 0.32251,0.1984 0.13534,-0.90204 0.0527,-0.95177 -0.1024,-0.0617 -0.34548,-0.0792 -0.34548,-0.0792 z"
           id="path5049-0-4"
           sodipodi:nodetypes="cssscc" /><path
           style="opacity:0.588504;fill:url(#linearGradient5753);fill-opacity:1;stroke-width:0.00499999;stroke-miterlimit:13.8"
           d="m 582.00663,121.42715 c 0,0 0.0332,0.11895 0.0633,0.17649 0.0301,0.0575 0.0823,0.1593 0.15386,0.2088 0.0632,0.0443 0.1202,0.10041 0.28107,0.0716 0.17533,-0.032 0.23735,-0.0455 0.23735,-0.0455 0,0 -0.0791,-0.17771 -0.0996,-0.28301 -0.004,-0.0192 -0.0107,-0.0132 -0.0124,-0.0254 -0.006,-0.0449 -0.007,-0.0712 -0.0117,-0.12124 -0.008,-0.0902 -0.003,-0.0513 -0.003,-0.0513 0,0 -0.20299,-0.1392 -0.58641,0.0129 -0.0441,0.0169 -0.0216,0.0557 -0.0216,0.0557 z"
           id="path5091-6"
           sodipodi:nodetypes="cscccssscccc" /><path
           style="fill:url(#linearGradient5756);fill-opacity:1;stroke:none;stroke-width:0.1;stroke-linecap:square;stroke-miterlimit:63.1;stroke-dasharray:none;stroke-opacity:1"
           d="m 581.47162,119.57375 c 0,0 -0.0576,0.006 -0.0728,0.008 -0.0287,0.005 -0.0411,0.075 -0.12161,0.06 -0.10135,-0.0188 -0.0371,-0.11316 -0.004,-0.1509 0.023,-0.0261 0.0943,-0.0241 0.1339,-0.0245 0.0695,-7.7e-4 0.15023,0.0257 0.19055,0.0512 0.0242,0.0154 0.003,0.0429 0.003,0.0429 z"
           id="path1198-1-9-2"
           sodipodi:nodetypes="cssssscc" /><path
           style="fill:#f4a77e;fill-opacity:1;stroke-width:0.00499999;stroke-miterlimit:13.8"
           d="m 582.51248,119.39047 c 0,0 0.19232,0.0108 0.13697,0.10843 -0.014,0.0401 -0.14466,0.0718 -0.17805,-0.032"
           id="path5099-6"
           sodipodi:nodetypes="ccc" /></g><path
         style="fill:none;fill-opacity:0.631373;stroke:#ff8f00;stroke-width:0.2;stroke-linecap:square;stroke-miterlimit:63.1;stroke-dasharray:none;stroke-opacity:1;marker-start:url(#marker36-3-5);marker-end:url(#Triangle-3-8-1-1-8-5-8)"
         id="path5860-2-8-2-7-96-1-1"
         sodipodi:type="arc"
         sodipodi:cx="-450.01721"
         sodipodi:cy="-363.61273"
         sodipodi:rx="0.75299358"
         sodipodi:ry="0.71522802"
         sodipodi:start="4.7059288"
         sodipodi:end="5.8186037"
         sodipodi:arc-type="arc"
         d="m -450.02208,-364.32795 a 0.75299358,0.71522802 0 0 1 0.67805,0.39476"
         transform="matrix(-0.65189897,-0.75830583,-0.75830583,0.65189897,0,0)"
         sodipodi:open="true" /></g></g></svg>
