<?xml version="1.0" encoding="UTF-8" standalone="no"?>
<!-- Created with Inkscape (http://www.inkscape.org/) -->

<svg
   width="6.2131033"
   height="9.0886917"
   viewBox="0 0 0 0"
   version="1.1"
   id="svg5"
   xml:space="preserve"
   inkscape:version="1.4 (unknown)"
   sodipodi:docname="crah-tricks-17-07-2025-1.svg"
   inkscape:export-batch-path="full/svgs/svgs"
   inkscape:export-batch-name=""
   xmlns:inkscape="http://www.inkscape.org/namespaces/inkscape"
   xmlns:sodipodi="http://sodipodi.sourceforge.net/DTD/sodipodi-0.dtd"
   xmlns:xlink="http://www.w3.org/1999/xlink"
   xmlns="http://www.w3.org/2000/svg"
   xmlns:svg="http://www.w3.org/2000/svg"><sodipodi:namedview
     id="namedview7"
     pagecolor="#ffffff"
     bordercolor="#000000"
     borderopacity="0.25"
     inkscape:showpageshadow="2"
     inkscape:pageopacity="0.0"
     inkscape:pagecheckerboard="0"
     inkscape:deskcolor="#d1d1d1"
     inkscape:document-units="mm"
     showgrid="false"
     inkscape:zoom="2.828427"
     inkscape:cx="130.28443"
     inkscape:cy="45.961943"
     inkscape:window-width="1918"
     inkscape:window-height="1061"
     inkscape:window-x="0"
     inkscape:window-y="17"
     inkscape:window-maximized="1"
     inkscape:current-layer="layer1"
     showguides="true"
     inkscape:export-bgcolor="#ffffff00"><inkscape:page
       x="0"
       y="0"
       width="6.2131033"
       height="9.0886917"
       id="page1"
       margin="0"
       bleed="0" /></sodipodi:namedview><defs
     id="defs2"><marker
       style="overflow:visible"
       id="marker36"
       refX="9"
       refY="0"
       orient="auto"
       inkscape:stockid="Square"
       markerWidth="0.2"
       markerHeight="0.2"
       viewBox="0 0 1 1"
       inkscape:isstock="true"
       inkscape:collect="always"
       preserveAspectRatio="xMidYMid"><path
         transform="scale(0.5)"
         style="fill:context-stroke;fill-rule:evenodd;stroke:none"
         d="M -5,-5 V 5 H 5 V -5 Z"
         id="path36" /></marker><linearGradient
       id="linearGradient4000"
       inkscape:collect="always"><stop
         style="stop-color:#ee2900;stop-opacity:1;"
         offset="0"
         id="stop3999" /><stop
         style="stop-color:#f47547;stop-opacity:0;"
         offset="1"
         id="stop4000" /></linearGradient><linearGradient
       id="linearGradient4552"
       inkscape:collect="always"><stop
         style="stop-color:#ee2900;stop-opacity:1;"
         offset="0"
         id="stop4552" /><stop
         style="stop-color:#f47547;stop-opacity:0;"
         offset="1"
         id="stop4553" /></linearGradient><linearGradient
       id="linearGradient3623"
       inkscape:collect="always"><stop
         style="stop-color:#000000;stop-opacity:1;"
         offset="0"
         id="stop3622" /><stop
         style="stop-color:#2f2f2f;stop-opacity:1;"
         offset="1"
         id="stop3623" /></linearGradient><linearGradient
       id="linearGradient3024"
       inkscape:collect="always"><stop
         style="stop-color:#ffffff;stop-opacity:1;"
         offset="0"
         id="stop3024" /><stop
         style="stop-color:#ffffff;stop-opacity:0;"
         offset="1"
         id="stop3025" /></linearGradient><linearGradient
       id="linearGradient3022"
       inkscape:collect="always"><stop
         style="stop-color:#ffffff;stop-opacity:1;"
         offset="0"
         id="stop3022" /><stop
         style="stop-color:#ffffff;stop-opacity:0;"
         offset="1"
         id="stop3023" /></linearGradient><linearGradient
       id="linearGradient3020"
       inkscape:collect="always"><stop
         style="stop-color:#ffffff;stop-opacity:1;"
         offset="0"
         id="stop3020" /><stop
         style="stop-color:#ffffff;stop-opacity:0;"
         offset="1"
         id="stop3021" /></linearGradient><linearGradient
       id="linearGradient3017"
       inkscape:collect="always"><stop
         style="stop-color:#ffffff;stop-opacity:1;"
         offset="0"
         id="stop3018" /><stop
         style="stop-color:#ffffff;stop-opacity:0;"
         offset="1"
         id="stop3019" /></linearGradient><linearGradient
       id="linearGradient3016"
       inkscape:collect="always"><stop
         style="stop-color:#000000;stop-opacity:1;"
         offset="0"
         id="stop3015" /><stop
         style="stop-color:#171717;stop-opacity:1;"
         offset="0.78403282"
         id="stop3017" /><stop
         style="stop-color:#505050;stop-opacity:1;"
         offset="1"
         id="stop3016" /></linearGradient><linearGradient
       id="linearGradient3004"
       inkscape:collect="always"><stop
         style="stop-color:#ffffff;stop-opacity:1;"
         offset="0"
         id="stop3005" /><stop
         style="stop-color:#ffffff;stop-opacity:0;"
         offset="1"
         id="stop3006" /></linearGradient><linearGradient
       id="linearGradient3002"
       inkscape:collect="always"><stop
         style="stop-color:#f4c3b0;stop-opacity:1;"
         offset="0"
         id="stop3001" /><stop
         style="stop-color:#f4996e;stop-opacity:1;"
         offset="0.4006401"
         id="stop3004" /><stop
         style="stop-color:#f48b5f;stop-opacity:1;"
         offset="0.63759428"
         id="stop3003" /></linearGradient><linearGradient
       inkscape:collect="always"
       id="linearGradient2999"><stop
         style="stop-color:#201f1f;stop-opacity:1;"
         offset="0"
         id="stop2998" /><stop
         style="stop-color:#272727;stop-opacity:1;"
         offset="0.67769706"
         id="stop3000" /><stop
         style="stop-color:#505050;stop-opacity:1;"
         offset="1"
         id="stop2999" /></linearGradient><linearGradient
       id="linearGradient2995"
       inkscape:collect="always"><stop
         style="stop-color:#ffffff;stop-opacity:1;"
         offset="0"
         id="stop2996" /><stop
         style="stop-color:#a5a5a5;stop-opacity:0;"
         offset="1"
         id="stop2997" /></linearGradient><linearGradient
       id="linearGradient2994"
       inkscape:collect="always"><stop
         style="stop-color:#f4a77e;stop-opacity:1;"
         offset="0.32583883"
         id="stop2993" /><stop
         style="stop-color:#f46f40;stop-opacity:1;"
         offset="1"
         id="stop2994" /></linearGradient><linearGradient
       id="linearGradient2988"
       inkscape:collect="always"><stop
         style="stop-color:#a5a5a5;stop-opacity:1;"
         offset="0"
         id="stop2989" /><stop
         style="stop-color:#a5a5a5;stop-opacity:0;"
         offset="1"
         id="stop2990" /></linearGradient><linearGradient
       inkscape:collect="always"
       id="linearGradient2987"><stop
         style="stop-color:#020000;stop-opacity:1;"
         offset="0"
         id="stop2986" /><stop
         style="stop-color:#2e2d2d;stop-opacity:1;"
         offset="0.72775453"
         id="stop2988" /><stop
         style="stop-color:#5a5a5a;stop-opacity:1;"
         offset="1"
         id="stop2987" /></linearGradient><linearGradient
       id="linearGradient2641"
       inkscape:collect="always"><stop
         style="stop-color:#fc0e00;stop-opacity:1;"
         offset="0"
         id="stop2641" /><stop
         style="stop-color:#000e00;stop-opacity:1;"
         offset="1"
         id="stop2642" /></linearGradient><linearGradient
       id="linearGradient1197"
       inkscape:collect="always"><stop
         style="stop-color:#f4a77e;stop-opacity:1;"
         offset="0"
         id="stop1197" /><stop
         style="stop-color:#f46f40;stop-opacity:1;"
         offset="1"
         id="stop1198" /></linearGradient><linearGradient
       id="linearGradient160"
       inkscape:collect="always"><stop
         style="stop-color:#000000;stop-opacity:1;"
         offset="0"
         id="stop160" /><stop
         style="stop-color:#2f2f2f;stop-opacity:1;"
         offset="1"
         id="stop161" /></linearGradient><linearGradient
       inkscape:collect="always"
       id="linearGradient20612"><stop
         style="stop-color:#fc0000;stop-opacity:1;"
         offset="0"
         id="stop20608" /><stop
         style="stop-color:#fc6a00;stop-opacity:1;"
         offset="1"
         id="stop20610" /></linearGradient><linearGradient
       inkscape:collect="always"
       id="linearGradient63493"><stop
         style="stop-color:#969696;stop-opacity:1;"
         offset="0"
         id="stop63489" /><stop
         style="stop-color:#c8c8c8;stop-opacity:1;"
         offset="1"
         id="stop63491" /></linearGradient><linearGradient
       inkscape:collect="always"
       id="linearGradient62193"><stop
         style="stop-color:#969696;stop-opacity:1;"
         offset="0"
         id="stop62189" /><stop
         style="stop-color:#c8c8c8;stop-opacity:1;"
         offset="1"
         id="stop62191" /></linearGradient><linearGradient
       inkscape:collect="always"
       id="linearGradient55368"><stop
         style="stop-color:#f4a77e;stop-opacity:1;"
         offset="0"
         id="stop55364" /><stop
         style="stop-color:#f46f40;stop-opacity:1;"
         offset="1"
         id="stop55366" /></linearGradient><linearGradient
       inkscape:collect="always"
       id="linearGradient50523"><stop
         style="stop-color:#fc0000;stop-opacity:1;"
         offset="0"
         id="stop50519" /><stop
         style="stop-color:#fc6a00;stop-opacity:1;"
         offset="1"
         id="stop50521" /></linearGradient><linearGradient
       inkscape:collect="always"
       id="linearGradient49756"><stop
         style="stop-color:#f50000;stop-opacity:1;"
         offset="0"
         id="stop49752" /><stop
         style="stop-color:#ff4f00;stop-opacity:1;"
         offset="1"
         id="stop49754" /></linearGradient><linearGradient
       id="linearGradient45844"
       inkscape:swatch="solid"><stop
         style="stop-color:#000000;stop-opacity:1;"
         offset="0"
         id="stop45842" /></linearGradient><linearGradient
       id="linearGradient384"
       inkscape:collect="always"><stop
         style="stop-color:#f48b5f;stop-opacity:1;"
         offset="0"
         id="stop384" /><stop
         style="stop-color:#f47344;stop-opacity:1;"
         offset="1"
         id="stop385" /></linearGradient><linearGradient
       inkscape:collect="always"
       xlink:href="#linearGradient3623"
       id="linearGradient2993-0"
       gradientUnits="userSpaceOnUse"
       gradientTransform="matrix(1.7835988,0,0,1.7835988,-314.36766,-476.25357)"
       x1="-33.539082"
       y1="71.95787"
       x2="-33.419525"
       y2="72.131638" /><linearGradient
       inkscape:collect="always"
       xlink:href="#linearGradient3623"
       id="linearGradient2998-7"
       gradientUnits="userSpaceOnUse"
       gradientTransform="matrix(1.7835988,0,0,1.7835988,-314.39274,-476.2508)"
       x1="-32.525726"
       y1="73.226974"
       x2="-32.441399"
       y2="73.35099" /><linearGradient
       inkscape:collect="always"
       xlink:href="#linearGradient1197"
       id="linearGradient5567"
       gradientUnits="userSpaceOnUse"
       gradientTransform="translate(519.23553,-12.229409)"
       x1="-21.94153"
       y1="122.00724"
       x2="-18.472538"
       y2="121.24212" /><linearGradient
       inkscape:collect="always"
       xlink:href="#linearGradient160"
       id="linearGradient5568"
       gradientUnits="userSpaceOnUse"
       gradientTransform="rotate(33.130404,528.26825,720.47514)"
       x1="169.9745"
       y1="226.25697"
       x2="169.76851"
       y2="226.15692" /><linearGradient
       inkscape:collect="always"
       xlink:href="#linearGradient4552"
       id="linearGradient5569"
       gradientUnits="userSpaceOnUse"
       gradientTransform="translate(331.40099,-115.30033)"
       x1="167.71172"
       y1="224.75101"
       x2="167.51576"
       y2="224.68144" /><linearGradient
       inkscape:collect="always"
       xlink:href="#linearGradient160"
       id="linearGradient5570"
       gradientUnits="userSpaceOnUse"
       gradientTransform="rotate(21.461478,273.03246,1480.2768)"
       x1="-18.351812"
       y1="123.30127"
       x2="-18.533312"
       y2="123.16162" /><linearGradient
       inkscape:collect="always"
       xlink:href="#linearGradient63493"
       id="linearGradient5571"
       gradientUnits="userSpaceOnUse"
       gradientTransform="matrix(-1.1534191,-1.5032843,-1.5032843,1.1534191,575.06512,-18.559195)"
       x1="-29.422297"
       y1="73.980087"
       x2="-29.316011"
       y2="73.908257" /><linearGradient
       inkscape:collect="always"
       xlink:href="#linearGradient3022"
       id="linearGradient5572"
       gradientUnits="userSpaceOnUse"
       gradientTransform="rotate(51.650605,303.45931,544.40754)"
       x1="83.310402"
       y1="121.33927"
       x2="83.397156"
       y2="121.2804" /><linearGradient
       inkscape:collect="always"
       xlink:href="#linearGradient62193"
       id="linearGradient5573"
       gradientUnits="userSpaceOnUse"
       gradientTransform="matrix(-1.0857319,-1.4150658,-1.4150658,1.0857319,570.5593,-10.967629)"
       x1="-29.426731"
       y1="73.552269"
       x2="-29.489977"
       y2="73.470787" /><linearGradient
       inkscape:collect="always"
       xlink:href="#linearGradient63493"
       id="linearGradient5574"
       gradientUnits="userSpaceOnUse"
       gradientTransform="matrix(-1,0,0,1,601.16378,-115.87213)"
       x1="103.37553"
       y1="226.87306"
       x2="103.39014"
       y2="226.63043" /><linearGradient
       inkscape:collect="always"
       xlink:href="#linearGradient63493"
       id="linearGradient5575"
       gradientUnits="userSpaceOnUse"
       gradientTransform="matrix(-1.0857319,-1.4150658,-1.4150658,1.0857319,570.55903,-10.998019)"
       x1="-28.022381"
       y1="72.295418"
       x2="-27.930805"
       y2="72.47419" /><linearGradient
       inkscape:collect="always"
       xlink:href="#linearGradient20612"
       id="linearGradient5576"
       gradientUnits="userSpaceOnUse"
       gradientTransform="matrix(-0.87921036,0,0,0.87921036,492.61221,-11.619849)"
       x1="-5.73314"
       y1="135.42557"
       x2="-5.7165155"
       y2="135.345" /><linearGradient
       inkscape:collect="always"
       xlink:href="#linearGradient20612"
       id="linearGradient5577"
       gradientUnits="userSpaceOnUse"
       gradientTransform="matrix(0.87716808,-0.05989161,-0.05989161,-0.87716808,512.17224,225.41756)"
       x1="-5.4826913"
       y1="135.38112"
       x2="-5.519639"
       y2="135.48863" /><linearGradient
       inkscape:collect="always"
       xlink:href="#linearGradient160"
       id="linearGradient5578"
       gradientUnits="userSpaceOnUse"
       gradientTransform="matrix(-0.52323159,-0.81931653,-0.81931653,0.52323159,584.33917,28.498921)"
       x1="-23.459694"
       y1="119.69993"
       x2="-23.140306"
       y2="119.5779" /><linearGradient
       inkscape:collect="always"
       xlink:href="#linearGradient3024"
       id="linearGradient5579"
       gradientUnits="userSpaceOnUse"
       gradientTransform="translate(416.05323,-11.449869)"
       x1="84.165909"
       y1="121.32238"
       x2="84.339432"
       y2="121.14047" /><linearGradient
       inkscape:collect="always"
       xlink:href="#linearGradient160"
       id="linearGradient5580"
       gradientUnits="userSpaceOnUse"
       gradientTransform="translate(489.96964,-115.89634)"
       x1="6.9355545"
       y1="227.11623"
       x2="6.9344907"
       y2="226.70299" /><linearGradient
       inkscape:collect="always"
       xlink:href="#linearGradient4552"
       id="linearGradient5581"
       gradientUnits="userSpaceOnUse"
       gradientTransform="translate(331.40099,-115.30033)"
       x1="169.57719"
       y1="224.98344"
       x2="169.37404"
       y2="225.1548" /><linearGradient
       inkscape:collect="always"
       xlink:href="#linearGradient3016"
       id="linearGradient5582"
       gradientUnits="userSpaceOnUse"
       gradientTransform="translate(502.23088,-5.8794789)"
       x1="-2.87376"
       y1="113.75332"
       x2="-1.1987317"
       y2="114.37305" /><linearGradient
       inkscape:collect="always"
       xlink:href="#linearGradient3020"
       id="linearGradient5583"
       gradientUnits="userSpaceOnUse"
       gradientTransform="rotate(8.901288,365.5572,2785.6523)"
       x1="82.993782"
       y1="119.56744"
       x2="83.270767"
       y2="119.68941" /><linearGradient
       inkscape:collect="always"
       xlink:href="#linearGradient1197"
       id="linearGradient5584"
       gradientUnits="userSpaceOnUse"
       gradientTransform="translate(519.23545,-12.229319)"
       x1="-20.411217"
       y1="121.22961"
       x2="-18.615778"
       y2="121.32982" /><linearGradient
       inkscape:collect="always"
       xlink:href="#linearGradient3002"
       id="linearGradient5585"
       gradientUnits="userSpaceOnUse"
       gradientTransform="matrix(0.95837224,0,0,0.95837224,502.20808,-6.9708189)"
       x1="-3.8427281"
       y1="117.88457"
       x2="-3.2234075"
       y2="117.99171" /><linearGradient
       inkscape:collect="always"
       xlink:href="#linearGradient4000"
       id="linearGradient5586"
       gradientUnits="userSpaceOnUse"
       gradientTransform="translate(395.90704,-115.86725)"
       x1="103.08923"
       y1="221.95236"
       x2="102.93099"
       y2="221.94624" /><linearGradient
       inkscape:collect="always"
       xlink:href="#linearGradient4552"
       id="linearGradient5587"
       gradientUnits="userSpaceOnUse"
       gradientTransform="rotate(-4.1491359,-1367.6064,-7243.4772)"
       x1="-37.058239"
       y1="220.37509"
       x2="-36.227455"
       y2="220.26974" /><linearGradient
       inkscape:collect="always"
       xlink:href="#linearGradient2987"
       id="linearGradient5588"
       gradientUnits="userSpaceOnUse"
       gradientTransform="rotate(-9.7484997,170.00638,-2815.8001)"
       x1="0.081231855"
       y1="120.02544"
       x2="1.5633498"
       y2="119.97387" /><linearGradient
       inkscape:collect="always"
       xlink:href="#linearGradient2994"
       id="linearGradient5589"
       gradientUnits="userSpaceOnUse"
       gradientTransform="translate(503.71249,-11.515389)"
       x1="-3.5515206"
       y1="117.56866"
       x2="-3.2476065"
       y2="117.73425" /><linearGradient
       inkscape:collect="always"
       xlink:href="#linearGradient2999"
       id="linearGradient5590"
       gradientUnits="userSpaceOnUse"
       gradientTransform="translate(499.82802,-13.787559)"
       x1="0.40899256"
       y1="119.0597"
       x2="1.0071565"
       y2="119.03181" /><linearGradient
       inkscape:collect="always"
       xlink:href="#linearGradient2641"
       id="linearGradient5591"
       gradientUnits="userSpaceOnUse"
       gradientTransform="rotate(-7.5269113,138.35548,-3978.6286)"
       x1="-39.021812"
       y1="115.69682"
       x2="-38.641582"
       y2="115.69682" /><linearGradient
       inkscape:collect="always"
       xlink:href="#linearGradient55368"
       id="linearGradient5592"
       gradientUnits="userSpaceOnUse"
       gradientTransform="rotate(-7.5269113,138.35548,-3978.6286)"
       x1="-38.156864"
       y1="115.8296"
       x2="-38.360226"
       y2="116.44809" /><linearGradient
       inkscape:collect="always"
       xlink:href="#linearGradient49756"
       id="linearGradient5593"
       gradientUnits="userSpaceOnUse"
       gradientTransform="rotate(-7.5269113,147.84455,-3835.0536)"
       x1="-19.885185"
       y1="115.24645"
       x2="-18.733461"
       y2="115.24645" /><linearGradient
       inkscape:collect="always"
       xlink:href="#linearGradient50523"
       id="linearGradient5594"
       gradientUnits="userSpaceOnUse"
       gradientTransform="rotate(-7.5269113,147.84455,-3835.0536)"
       x1="-20.133801"
       y1="115.66431"
       x2="-19.019243"
       y2="115.66431" /><linearGradient
       inkscape:collect="always"
       xlink:href="#linearGradient2988"
       id="linearGradient5595"
       gradientUnits="userSpaceOnUse"
       gradientTransform="translate(415.9949,-11.462399)"
       x1="83.30452"
       y1="117.8539"
       x2="83.54155"
       y2="117.80631" /><linearGradient
       inkscape:collect="always"
       xlink:href="#linearGradient2994"
       id="linearGradient5596"
       gradientUnits="userSpaceOnUse"
       gradientTransform="matrix(0.90014532,0.26986457,-0.26986457,0.90014532,534.73091,1.5861415)"
       x1="-3.5288053"
       y1="118.25265"
       x2="-3.1757009"
       y2="118.28916" /><linearGradient
       inkscape:collect="always"
       xlink:href="#linearGradient4552"
       id="linearGradient5597"
       gradientUnits="userSpaceOnUse"
       gradientTransform="translate(331.40099,-115.30033)"
       x1="169.18192"
       y1="221.7205"
       x2="168.99774"
       y2="221.65912" /><linearGradient
       inkscape:collect="always"
       xlink:href="#linearGradient2995"
       id="linearGradient5598"
       gradientUnits="userSpaceOnUse"
       gradientTransform="translate(415.99337,-11.462399)"
       x1="84.16169"
       y1="117.42403"
       x2="84.512505"
       y2="117.48673" /><linearGradient
       inkscape:collect="always"
       xlink:href="#linearGradient3004"
       id="linearGradient5599"
       gradientUnits="userSpaceOnUse"
       gradientTransform="translate(415.99337,-11.462399)"
       x1="83.079567"
       y1="117.27405"
       x2="82.809814"
       y2="117.28645" /><linearGradient
       inkscape:collect="always"
       xlink:href="#linearGradient3017"
       id="linearGradient5600"
       gradientUnits="userSpaceOnUse"
       gradientTransform="rotate(-2.6286383,42.363328,-8951.8494)"
       x1="83.565262"
       y1="119.84889"
       x2="84.018486"
       y2="120.01689" /><linearGradient
       inkscape:collect="always"
       xlink:href="#linearGradient160"
       id="linearGradient5601"
       gradientUnits="userSpaceOnUse"
       gradientTransform="translate(331.40099,-115.30033)"
       x1="170.04376"
       y1="226.0829"
       x2="169.87427"
       y2="225.98161" /><linearGradient
       inkscape:collect="always"
       xlink:href="#linearGradient160"
       id="linearGradient5602"
       gradientUnits="userSpaceOnUse"
       gradientTransform="rotate(-11.668926,181.10797,-2425.9656)"
       x1="-18.248768"
       y1="123.14481"
       x2="-18.394278"
       y2="123.01133" /><linearGradient
       inkscape:collect="always"
       xlink:href="#linearGradient55368"
       id="linearGradient5603"
       gradientUnits="userSpaceOnUse"
       gradientTransform="rotate(-9.2869534,-481.73101,-3141.1842)"
       x1="-36.547489"
       y1="219.43437"
       x2="-36.898888"
       y2="220.32321" /><marker
       style="overflow:visible"
       id="Triangle-3-7-56"
       refX="0"
       refY="0"
       orient="auto-start-reverse"
       inkscape:stockid="Triangle arrow"
       markerWidth="0.5"
       markerHeight="0.5"
       viewBox="0 0 1 1"
       inkscape:isstock="true"
       inkscape:collect="always"
       preserveAspectRatio="xMidYMid"><path
         transform="scale(0.5)"
         style="fill:context-stroke;fill-rule:evenodd;stroke:context-stroke;stroke-width:1pt"
         d="M 5.77,0 -2.88,5 V -5 Z"
         id="path135-4-3-3" /></marker><linearGradient
       inkscape:collect="always"
       xlink:href="#linearGradient384"
       id="linearGradient1239"
       x1="498.90683"
       y1="107.14656"
       x2="499.20056"
       y2="107.05672"
       gradientUnits="userSpaceOnUse" /><marker
       style="overflow:visible"
       id="marker36-06"
       refX="9"
       refY="0"
       orient="auto"
       inkscape:stockid="Square"
       markerWidth="0.2"
       markerHeight="0.2"
       viewBox="0 0 1 1"
       inkscape:isstock="true"
       inkscape:collect="always"
       preserveAspectRatio="xMidYMid"><path
         transform="scale(0.5)"
         style="fill:context-stroke;fill-rule:evenodd;stroke:none"
         d="M -5,-5 V 5 H 5 V -5 Z"
         id="path36-89" /></marker><marker
       style="overflow:visible"
       id="Triangle-3-8-1-8-2"
       refX="0"
       refY="0"
       orient="auto-start-reverse"
       inkscape:stockid="Triangle arrow"
       markerWidth="0.5"
       markerHeight="0.5"
       viewBox="0 0 1 1"
       inkscape:isstock="true"
       inkscape:collect="always"
       preserveAspectRatio="xMidYMid"><path
         transform="scale(0.5)"
         style="fill:context-stroke;fill-rule:evenodd;stroke:context-stroke;stroke-width:1pt"
         d="M 5.77,0 -2.88,5 V -5 Z"
         id="path135-4-6-4-9-66" /></marker></defs><g
     inkscape:label="Layer 1"
     inkscape:groupmode="layer"
     id="layer1"
     transform="translate(-495.47109,-102.71275)"><g
       id="rotorwhip"
       inkscape:export-filename="pngs/rotorwhip.png"
       inkscape:export-xdpi="96"
       inkscape:export-ydpi="96"><path
         style="fill:none;fill-opacity:0.631373;stroke:#ff8f00;stroke-width:0.2;stroke-linecap:square;stroke-miterlimit:63.1;stroke-dasharray:none;stroke-opacity:1;marker-start:url(#marker36);marker-end:url(#Triangle-3-7-56)"
         id="path5860-2-1-4"
         sodipodi:type="arc"
         sodipodi:cx="-244.2074"
         sodipodi:cy="-448.56876"
         sodipodi:rx="0.77000767"
         sodipodi:ry="0.73632014"
         sodipodi:start="2.4950461"
         sodipodi:end="3.8636413"
         sodipodi:arc-type="arc"
         d="m -244.82199,-448.12517 a 0.77000767,0.73632014 0 0 1 0.0367,-0.93024"
         transform="matrix(-0.27596609,-0.96116737,-0.96116737,0.27596609,0,0)"
         sodipodi:open="true" /><path
         id="path22519-4-3-97-4-53-6-57-2-6-46-5-2"
         style="fill:url(#linearGradient5567);fill-opacity:1;stroke-width:0.485436"
         d="m 501.05556,106.74784 c -0.72885,0.12093 -1.2558,0.2113 -1.58544,0.26822 0.002,0.0859 0.008,0.15777 0.0196,0.19946 -0.42954,0.61749 -0.72385,0.75594 -0.8668,1.37472 -0.0614,0.23056 -0.0791,0.5058 -0.11358,0.72827 -0.0461,0.29699 -0.0306,0.47504 -0.0827,1.02985 0.0456,0.20084 0.34962,0.14941 0.34814,0.0499 0.15642,-0.67917 0.33835,-0.63919 0.51331,-1.54787 l 0.64205,-0.57964 c 0,0 0.0146,-0.0513 -0.0266,0.0891 -0.0552,0.18821 -0.0927,0.45379 -0.10289,0.6745 -0.002,0.049 -0.008,0.17056 0,0.22601 0.0201,0.24628 0.23222,0.45142 0.49485,0.68427 0.32783,0.26873 0.78139,0.57424 0.96659,0.65246 0.16354,0.10167 0.16009,-0.0402 0.26283,-0.11032 0.0331,-0.0243 0.0279,-0.0368 0.0222,-0.061 -0.21899,-0.24733 -0.42885,-0.50074 -0.5281,-0.67475 -0.17075,-0.29934 -0.44143,-0.55178 -0.44143,-0.55178 0,0 0.11757,-0.26922 0.19376,-0.40867 0.14203,-0.2599 0.35427,-0.62059 0.35037,-0.91674 -0.005,-0.34201 -0.0353,-0.38529 -0.03,-0.84904 -0.0114,-0.0818 -0.0239,-0.18068 -0.0362,-0.27699 z"
         sodipodi:nodetypes="ccccscccccccccccsccsccc" /><path
         style="fill:url(#linearGradient5568);fill-opacity:1;stroke-width:0.1;stroke-linecap:square;stroke-miterlimit:63.1"
         d="m 498.05522,110.65382 c 0,0 -0.0505,0.0567 -0.0516,0.12147 6.7e-4,0.0462 0.0726,0.12512 0.0726,0.12512 0,0 0.0327,0.0443 0.10107,0.0719 0.0685,0.0274 0.33252,-0.1131 0.37941,-0.13681 0.0469,-0.0237 0.13425,-0.0639 0.15467,-0.0802 0.0203,-0.0164 0.0789,-0.0675 0.065,-0.25634 -0.009,-0.12095 -0.45487,0.12634 -0.45487,0.12634 z"
         id="path3148-2-8"
         sodipodi:nodetypes="ccccscscc" /><path
         style="opacity:0.56989;fill:url(#linearGradient5569);fill-opacity:1;stroke:none;stroke-width:0;stroke-linecap:square;stroke-miterlimit:63.1"
         d="m 499.35755,108.78767 c 0,0 -0.0412,0.0375 -0.0695,0.0627 -0.0157,0.079 -0.0488,0.24639 -0.0992,0.423 -0.0455,0.20922 -0.20447,0.51131 -0.28486,0.70511 -0.0453,0.10913 -0.0892,0.25462 -0.10923,0.33719 -0.02,0.0826 -0.0273,0.11044 -0.0273,0.11044 l -0.0409,0.0733 -0.13697,-0.015 -0.0701,-0.026 0.45268,-1.89547 z"
         id="path4578-4"
         sodipodi:nodetypes="cccsscccccc" /><path
         id="path22517-4-81-45-3-73-7-3-1-3-7-2-8-31"
         style="fill:url(#linearGradient5570);fill-opacity:1;stroke-width:0.485436"
         d="m 498.76957,110.41271 c -0.13134,0.0851 -0.25936,0.0783 -0.34528,-0.023 0,0 -0.29657,0.18415 -0.36907,0.26408 -0.0914,0.10068 0.0972,0.23475 0.0972,0.23475 0.0663,0.0568 0.24369,-0.0394 0.39354,-0.11219 0.10898,-0.053 0.23494,-0.0868 0.23026,-0.27725 6.1e-4,-0.026 -0.005,-0.0604 -0.007,-0.0864 z"
         sodipodi:nodetypes="ccccccc" /><path
         id="path5362-9-3-2-1"
         style="fill:url(#linearGradient5571);fill-opacity:1;stroke-width:0.50133"
         d="m 498.40688,110.66966 -0.0126,-0.36585 c -0.25977,0.16582 -0.51482,0.32596 -0.80416,0.42852 l -1.66952,-0.0276 c -0.23033,-0.005 -0.42287,0.004 -0.26148,0.18759 l 0.008,0.0708 c -0.004,-8e-5 -0.0191,-5.1e-4 -0.0191,-5.1e-4 l 0.0475,0.22014 c 0,0 1.81275,0.0313 2.02402,0.0286 0.1613,-0.0304 0.66854,-0.52741 0.68744,-0.54175 z"
         sodipodi:nodetypes="ccccccccccc" /><path
         style="opacity:0.302863;fill:url(#linearGradient5572);fill-opacity:1;stroke:none;stroke-width:0.00499999;stroke-miterlimit:13.8;stroke-dasharray:none;stroke-opacity:1"
         d="m 498.77151,108.21769 c 0,0 -0.15126,0.1792 -0.19705,0.67544 -0.0142,0.15411 -0.007,0.34044 -0.0406,0.53297 -0.0525,0.30239 -0.0862,0.65708 -0.0862,0.65708 l 0.0101,0.11927 0.12968,0.0882 c 0,0 1.26318,-2.39198 0.69562,-2.22419 z"
         id="path3021-9-0-1"
         sodipodi:nodetypes="csscccsc" /><path
         style="fill:#2f2f2f;fill-opacity:1;stroke:none;stroke-width:0.584676;stroke-linecap:round"
         d="m 498.38215,109.90933 v -0.0268 c 0,0 -0.004,-0.025 0.0429,-0.026 0.0468,-8.8e-4 0.22696,0.0206 0.22696,0.0206 l -0.23674,0.0671 z"
         id="path163-1-0-0-2-0-7-63-0-0-9" /><circle
         style="fill:url(#linearGradient2993-0);fill-opacity:1;stroke-width:0.411041"
         id="circle22541-7-6-12-4-97-5-2-9-7-3-6-0"
         cx="-374.07516"
         cy="-347.76877"
         r="0.25840473"
         transform="matrix(-0.56682321,-0.82383946,-0.82383946,0.56682321,0,0)" /><path
         id="path2976-9-8-0"
         style="fill:url(#linearGradient5573);fill-opacity:1;stroke-width:0.47191"
         d="m 498.50357,109.82484 c 0.0551,0.004 0.12233,0.0347 0.14056,0.0703 v 0.002 c 0.003,0.005 0.004,0.011 0.004,0.0171 -0.003,0.0522 0.0257,0.68055 0.0243,0.89607 -1e-5,0.002 -5e-5,0.004 0,0.004 8e-5,0.004 1.3e-4,0.009 0,0.0134 -0.004,0.0334 -0.007,0.0725 -0.008,0.0775 -0.0169,0.10568 -0.0594,0.24041 -0.11524,0.24495 -0.055,0.004 -0.10742,-0.11885 -0.13074,-0.22118 -0.0107,-0.0681 -0.0114,-0.078 -0.0204,-0.26076 l -0.016,-0.3757 5.2e-4,-0.0532 0.0429,-0.36484 c 1.8e-4,-0.0397 0.0357,-0.0531 0.0786,-0.0501 z"
         sodipodi:nodetypes="ccccsccccccccccc" /><circle
         style="fill:url(#linearGradient2998-7);fill-opacity:1;stroke-width:0.411041"
         id="circle22547-7-8-68-4-82-8-0-9-6-2-9-0"
         cx="-372.41025"
         cy="-345.50266"
         r="0.25840473"
         transform="matrix(-0.56682321,-0.82383946,-0.82383946,0.56682321,0,0)" /><path
         style="fill:url(#linearGradient5574);fill-opacity:1;stroke-width:0.257211"
         d="m 496.01804,110.99049 -0.37016,-0.002 c 0,0 0.1155,0.18779 0.16664,0.19403 0.0572,0.007 0.19248,0.003 0.19248,0.003 z"
         id="path22549-4-9-749-9-064-3-3-9-80-5-2-2"
         sodipodi:nodetypes="ccscc" /><path
         style="fill:url(#linearGradient5575);fill-opacity:1;stroke-width:0.418973"
         d="m 498.64755,109.8945 -0.007,-2.6769 0.62365,-0.18395 c 0.0512,-0.0151 0.0609,-0.12513 -0.0214,-0.1318 -0.0822,-0.007 -1.37044,0.36891 -1.84429,0.47755 -0.0457,0.0105 -0.0425,0.16894 0.0363,0.14978 0.41961,-0.10186 0.97336,-0.26036 0.97336,-0.26036 l 0.012,2.63157 z"
         id="path22543-8-1-5-3-4-3-8-0-8-1-9-4-6-5"
         sodipodi:nodetypes="ccszssccc" /><path
         style="fill:url(#linearGradient5576);fill-opacity:1;stroke:none;stroke-width:0.00087921;stroke-miterlimit:12.9;stroke-dasharray:none;stroke-opacity:1"
         d="m 497.90352,107.40889 c 0.0117,-0.0481 0.0214,-0.11335 -0.0396,-0.14788 -0.22381,0.0564 -0.25495,0.0636 -0.4653,0.11839 -0.0428,0.0112 -0.0404,0.16719 0.0363,0.14979 0.23773,-0.0543 0.2456,-0.0651 0.46856,-0.12031 z"
         id="path14155-7-99-6-2-3-1-8-00-0-6-7"
         sodipodi:nodetypes="ccscc" /><path
         id="path25467-9-52-1-31-7-1-3-2-5-4-6"
         style="fill:url(#linearGradient5577);fill-opacity:1;stroke:none;stroke-width:0.00087921;stroke-miterlimit:12.9;stroke-dasharray:none;stroke-opacity:1"
         d="m 499.26433,107.03357 c -0.21079,0.0596 -0.0524,0.0169 -0.29167,0.0846 0.0239,-0.049 -0.0132,-0.13232 -0.0654,-0.13925 0.18745,-0.0484 0.17413,-0.0479 0.30871,-0.0771 0.0194,0.002 0.0763,-0.009 0.0878,0.0493 0.007,0.0368 4e-5,0.0711 -0.0395,0.0826 z"
         sodipodi:nodetypes="ccccscc" /><path
         style="fill:url(#linearGradient5578);fill-opacity:1;stroke-width:0.471911"
         d="m 498.38196,110.24129 c 0.0848,0.0195 0.18018,0.0218 0.27654,-0.004 0,-0.14888 -0.007,-0.36039 -0.007,-0.36039 -0.0742,0.0295 -0.18163,0.0197 -0.2699,0.006 z"
         id="path22553-1-3-66-4-09-3-1-6-6-9-9-91"
         sodipodi:nodetypes="ccccc" /><path
         style="opacity:0.438528;fill:url(#linearGradient5579);fill-opacity:1;stroke:none;stroke-width:0.00499999;stroke-miterlimit:13.8;stroke-dasharray:none;stroke-opacity:1"
         d="m 501.20288,110.56918 c -0.11071,-0.0618 -0.33236,-0.18654 -0.5747,-0.36831 -0.16462,-0.12348 -0.31824,-0.23293 -0.48986,-0.39983 -0.0943,-0.0917 -0.14934,-0.14615 -0.21689,-0.24003 -0.0356,-0.0495 -0.0621,-0.0902 -0.099,-0.18787 -0.0328,-0.0867 -0.033,-0.30028 -0.008,-0.48667 0.0599,-0.44704 1.57203,1.69837 1.57203,1.69837 0,0 -0.12668,0.0532 -0.18367,-0.0157 z"
         id="path3023-2-7-9"
         sodipodi:nodetypes="csssssccc" /><path
         style="fill:url(#linearGradient5580);fill-opacity:1;stroke:none;stroke-width:0.1;stroke-linecap:square;stroke-miterlimit:63.1"
         d="m 496.0699,110.70686 0.0189,0.4828 1.56651,0.0213 -0.0798,-0.47954 z"
         id="path3195-1-4-8"
         sodipodi:nodetypes="ccccc" /><path
         style="opacity:0.56989;fill:url(#linearGradient5581);fill-opacity:1;stroke:none;stroke-width:0;stroke-linecap:square;stroke-miterlimit:63.1"
         d="m 500.57759,109.19924 0.2081,0.22326 c 0,0 0.16238,0.20884 0.20233,0.27639 0.12581,0.1979 0.15897,0.24352 0.201,0.29918 0.13817,0.18297 0.3581,0.4277 0.3581,0.4277 l -0.1263,0.17884 -1.42095,-1.14289 0.18799,-0.56535 0.39285,0.0631 0.0332,0.15806 z"
         id="path4577-7"
         sodipodi:nodetypes="cccsccccccc" /><path
         style="fill:url(#linearGradient5582);fill-opacity:1;stroke:none;stroke-width:0.665001;stroke-linecap:round"
         d="m 499.40757,108.78362 c 0.0833,-0.0259 0.44755,-0.43152 0.52192,-0.51561 0.034,-0.0385 0.005,-0.0279 0.005,-0.0279 0,0 -0.11957,0.40564 -0.16048,0.62295 -0.0147,0.0783 0.19351,0.17648 0.37586,0.20965 0.14639,0.0266 0.36668,0.0625 0.50279,0.0401 0.0489,-0.008 0.0825,-0.13377 0.12501,-0.21835 0.071,-0.14115 0.11118,-0.28574 0.17825,-0.42907 0.0387,-0.0777 0.0603,-0.14227 0.0908,-0.22516 0.0177,-0.048 0.0331,-0.0966 0.0454,-0.14548 0.0344,-0.13701 0.0538,-0.2949 0.0496,-0.47546 0.006,-0.12534 -0.0192,-0.24824 -0.0386,-0.37142 -0.007,-0.0645 -0.0117,-0.19433 -0.0117,-0.19433 l -1.01616,0.22838 -0.47342,0.0216 -0.11243,-0.0885 c -0.007,0.008 -0.31539,0.37003 -0.42701,0.5052 -0.1792,0.21699 -0.27131,0.31424 -0.39866,0.57435 -0.026,0.0532 -0.0246,0.12575 0.02,0.16899 0.0503,0.0488 0.50429,0.36317 0.72376,0.32013 0.21947,-0.043 0,0 0,0 z"
         id="path159-6-1-8-6-4-5-7-4-1-6"
         sodipodi:nodetypes="cscssssssssaccccssszcc" /><path
         style="opacity:0.237338;fill:url(#linearGradient5583);fill-opacity:1;stroke:none;stroke-width:0.00499999;stroke-miterlimit:13.8;stroke-dasharray:none;stroke-opacity:1"
         d="m 498.68692,108.46312 c 0,0 -0.0892,-0.0572 -0.005,-0.2083 0.0437,-0.0783 0.0644,-0.12068 0.11517,-0.19434 0.0794,-0.1153 0.0939,-0.12733 0.21565,-0.27911 0.0792,-0.0988 0.1552,-0.18716 0.24559,-0.29513 0.0858,-0.10246 0.19387,-0.22154 0.3208,-0.38494 0.34857,-0.44871 -0.57719,1.56494 -0.57719,1.56494 0,0 -0.18156,-0.0773 -0.31506,-0.20312 -0.11021,-0.10393 1e-5,0 1e-5,0 z"
         id="path3019-9-7-5"
         sodipodi:nodetypes="cssssscscc" /><path
         id="path1562-96-7-7-1"
         style="fill:url(#linearGradient5584);fill-opacity:1;stroke-width:0.485436"
         d="m 499.63387,103.23808 c -0.25635,0.009 -0.32707,0.17561 -0.33401,0.41209 0.007,0.30873 0.0243,0.33847 0.16419,0.41984 0.0311,0.0153 0.0158,0.31319 0.0158,0.31319 0.002,0.001 -0.13854,0.0562 -0.18086,0.0697 -0.0422,0.0205 -0.24351,0.15689 -0.29353,0.18035 -0.0614,0.0364 -0.13,0.14314 -0.2067,0.28215 -0.1631,1.21559 0.28584,-0.0793 0.28584,-0.0793 0.23669,-0.0444 0.38961,1.42715 0.3844,2.01042 0.53322,0.11407 0.87862,0.12274 1.55564,0.26499 -5.9e-4,-0.0526 0.0662,-0.0181 0.067,-0.0867 -0.0657,-0.46933 -0.15707,-1.22156 -0.14056,-1.75803 0.005,-0.61051 -0.18888,-0.57531 -0.40101,-0.67903 -0.10338,-0.048 -0.1243,-0.0295 -0.20361,-0.0594 l -0.0403,-0.14934 c -0.0671,-0.0214 -0.0765,-0.0116 -0.12815,-0.045 -0.0628,-0.0407 -0.0298,-0.21957 -0.0243,-0.27595 0.0335,-0.33969 0.0278,-0.64832 -0.1323,-0.74621 -0.0848,-0.0518 -0.23376,-0.0796 -0.38757,-0.0739 z"
         sodipodi:nodetypes="sccccccccccccccccsss" /><path
         id="path22557-5-1-9-89-8-04-2-3-8-8-5-2-14"
         style="fill:url(#linearGradient5585);fill-opacity:1;stroke:none;stroke-width:3.79994;stroke-miterlimit:12.9"
         d="m 499.05905,104.95219 c 0,0 -0.34245,-0.0305 -0.41276,0.2222 -0.0703,0.25271 -0.11123,0.63259 -0.12099,0.83209 -0.0154,0.19855 0.0386,0.52134 0.19211,0.83525 0.0199,0.0407 0.004,0.13384 0.0199,0.18227 l 0.39256,-0.10218 c -0.0339,-0.0722 -0.0892,-0.0826 -0.0936,-0.1234 -0.0384,-0.35593 -3e-5,-0.45992 -0.0387,-0.71819 0.11562,-0.27081 0.16691,-0.68658 0.19299,-0.76864 0.006,-0.68983 0.85573,-0.63792 0.20201,-0.1583 -0.23295,-0.0625 -0.31145,-0.50423 -0.33349,-0.20159 z"
         sodipodi:nodetypes="czcsccsccccc" /><path
         style="opacity:0.376476;fill:url(#linearGradient5586);stroke:none;stroke-width:0;stroke-linecap:square;stroke-miterlimit:63.1"
         d="m 499.11783,105.64577 c 0,0 -0.057,0.32819 -0.12157,0.43934 0.0307,0.1907 0.0227,0.51189 0.0227,0.5119 0,0 0.007,0.12221 0.016,0.20629 0.003,0.024 0.0668,0.066 0.0957,0.11823 -0.0281,0.009 -0.14456,0.0338 -0.22468,0.0623 -0.1241,0.044 -0.0836,-0.15314 -0.0932,-0.164 -0.10962,-0.12348 -0.14739,-0.46007 -0.13587,-0.60988 0.0371,-0.48238 -0.0711,-0.64408 0.11708,-0.5825 0.13592,0.0445 0.3239,0.0184 0.3239,0.0184 z"
         id="path3997-7-8"
         sodipodi:nodetypes="cccscsssscc" /><path
         style="opacity:0.881978;fill:url(#linearGradient5587);fill-opacity:1;stroke-width:0.025;stroke-linecap:square;stroke-miterlimit:63.1"
         d="m 499.42087,104.38465 c 0,0 0.74893,-0.46347 0.73053,-0.30518 0,0 -0.005,0.0344 -0.009,0.0733 -0.005,0.0424 -8.2e-4,0.10949 0.011,0.1537 0.008,0.0305 0.0379,0.0398 0.0684,0.0579 0.26862,0.159 -0.68324,0.40463 -0.68324,0.40463 0,0 -0.27567,-0.27715 -0.21133,-0.33149 z"
         id="path3984-2-7-9-0-0-3-5"
         sodipodi:nodetypes="cssssccc" /><path
         style="fill:url(#linearGradient5588);fill-opacity:1;stroke:none;stroke-width:3.96499;stroke-miterlimit:12.9"
         d="m 499.50162,107.28068 c 0.003,0.0394 0.1002,0.0234 0.1002,0.0234 0,0 0.24052,0.15453 0.45728,0.11753 0.0468,-0.008 0.2265,0.0356 0.27288,0.0242 0.16829,-0.0407 0.28974,-0.11817 0.35162,-0.12637 0.0789,-0.0105 0.2522,-0.0753 0.3389,-0.14244 0.0615,-0.0476 0.0799,-0.0575 0.0723,-0.15426 -0.039,-0.33595 -0.0806,-0.68742 -0.0972,-1.0359 -0.0468,-0.55452 0.10749,-1.20669 -0.39661,-1.50326 -0.17676,-0.104 -0.40058,-0.13335 -0.40058,-0.13335 0,0 -0.45172,0.59986 -0.83205,0.0629 -0.61831,0.24107 -0.7232,0.46171 -0.80118,1.08893 0.0797,0.11823 0.39973,0.16937 0.55198,0.1388 0.12073,0.54769 0.26275,1.09069 0.38246,1.63982 z"
         id="path22555-8-5-0-6-5-6-2-6-1-4-2-7"
         sodipodi:nodetypes="ccsscsccsccccc" /><path
         id="path22557-5-1-64-3-1-2-4-8-85-8-6-66"
         style="fill:url(#linearGradient5589);fill-opacity:1;stroke:none;stroke-width:3.96499;stroke-miterlimit:12.9"
         d="m 500.47574,104.49947 -0.049,0.76962 -0.25115,0.2744 -0.0205,0.71655 c -0.28789,0.48777 -0.27308,0.75557 -0.43718,1.03818 -0.0537,0.0533 0.0158,0.27822 0.20598,0.22014 0.0164,-0.005 0.44841,-0.50837 0.69985,-1.12002 0.18702,-0.45495 0.15884,-0.96479 0.2621,-1.47082 -0.0388,-0.13748 -0.0697,-0.18289 -0.10366,-0.23333 -0.10344,-0.0815 -0.19235,-0.12732 -0.30665,-0.19103 z"
         sodipodi:nodetypes="cccccsscccc" /><path
         style="fill:url(#linearGradient5590);fill-opacity:1;stroke:none;stroke-width:3.96499;stroke-miterlimit:12.9"
         d="m 500.1523,105.5871 c 0,0 0.26776,0.1387 0.67586,0 0.0695,-0.1899 0.0695,-0.47201 0.0695,-0.47201 -0.005,-0.43608 -0.0944,-0.58104 -0.42472,-0.62678 -0.21021,-0.0307 -0.38742,0.24645 -0.40161,0.42813 -6.9e-4,0.31545 0.0246,0.41333 0.081,0.67066 z"
         id="path22559-9-7-09-9-29-9-5-8-4-12-1-91"
         sodipodi:nodetypes="ccccccc" /><path
         style="fill:url(#linearGradient5591);fill-opacity:1;stroke:none;stroke-width:1;stroke-miterlimit:13.8"
         d="m 498.85314,103.76061 c 0,0 0.056,0.07 0.24217,-0.16974 0.25067,-0.22534 -0.0688,-0.0321 -0.0688,-0.0321 l -0.15433,0.083 -0.0345,0.0705 z"
         id="path2640-6-8-1-1-5-6-1-4"
         sodipodi:nodetypes="cccccc" /><path
         style="fill:url(#linearGradient5592);fill-opacity:1;stroke:none;stroke-width:1;stroke-miterlimit:13.8"
         d="m 499.55646,104.45727 c 0.15641,-0.0106 0.56705,-0.10747 0.60021,-0.46936 0.012,-0.1316 0.0162,-0.14177 0.0283,-0.25602 0.0255,-0.23871 -0.0311,-0.41937 -0.0311,-0.41937 l -1.09953,0.14935 0.0421,0.31386 c 0.0178,0.13947 0.19828,0.70905 0.46001,0.68183 z"
         id="path2638-5-9-2-8-6-8-5-3"
         sodipodi:nodetypes="cssccccc" /><path
         style="fill:url(#linearGradient5593);fill-opacity:1;stroke-width:0.0381963"
         d="m 499.05439,103.46151 c 0,0 -0.0288,-0.26493 0.0115,-0.38065 0.0696,-0.19984 0.27081,-0.32078 0.52083,-0.36289 0.14711,-0.0147 0.27587,-0.006 0.42461,0.12812 0.14871,0.13452 0.16333,0.30234 0.16333,0.30234 l 0.0236,0.22413 c -0.10632,0.0691 -0.20598,0.0644 -0.27859,0.0597 -0.11147,0.0154 -0.6628,-0.0515 -0.6628,-0.0515 z"
         id="path11206-13-6-2-7-5-1-0-9-6"
         sodipodi:nodetypes="cscsccccc" /><path
         style="fill:url(#linearGradient5594);fill-opacity:1;stroke-width:0.0381963"
         d="m 499.05238,103.46185 c 0,0 -0.10037,0.0985 -0.14869,0.14939 -0.0188,0.019 -0.0994,0.0781 -0.0505,0.14938 -0.009,-0.0304 -0.0247,-0.13239 0.20139,-0.1497 0.0393,-6.6e-4 0.17603,0.0467 0.31014,0.0861 0.0221,0.007 0.15056,0.0541 0.21484,0.0326 0.19993,-0.0663 0.30493,-0.21723 0.3446,-0.29747 -0.13329,-0.0156 -0.36486,-0.0436 -0.52768,-0.0624 -0.1691,-0.0197 -0.25355,0.005 -0.34396,0.0919 z"
         id="path11208-7-3-8-0-97-1-2-4-76"
         sodipodi:nodetypes="ccccsscsc" /><path
         style="opacity:0.328216;fill:url(#linearGradient5595);fill-opacity:1;stroke:none;stroke-width:0.00499999;stroke-miterlimit:13.8;stroke-dasharray:none;stroke-opacity:1"
         d="m 499.50111,107.27655 -0.13474,-0.58662 -0.12075,-0.49808 -0.0333,-0.14303 -0.0324,-0.14038 -0.023,-0.099 -0.0161,-0.0698 -0.0201,-0.0989 c 0,0 -0.0155,-0.36011 0.17091,-0.43506 0.23423,-0.0942 0.58545,2.05891 0.58545,2.05891 l -0.21053,0.0746 -0.063,-0.0356 c -0.0951,0.0111 -0.10067,-0.008 -0.10236,-0.027 z"
         id="path2988-1-9-9"
         sodipodi:nodetypes="ccccccccsccccc" /><path
         id="path1212-2-94-6-4-7"
         style="fill:url(#linearGradient5596);fill-opacity:1;stroke:none;stroke-width:3.72601;stroke-miterlimit:12.9"
         d="m 500.11551,107.28606 -0.31303,-0.16911 c -0.0539,0.11374 -0.0867,0.17778 -0.0867,0.17778 -0.0258,0.0445 -0.0458,0.0432 -0.11451,0.0696 -0.0283,0.0104 -0.0901,0.0537 -0.13996,0.0946 -0.0276,0.0258 -0.0459,0.0542 -0.0317,0.0804 0.0137,0.0288 0.0425,0.0373 0.0766,0.0195 0,0 -0.0897,0.10194 -0.12155,0.17938 -0.0287,0.0857 -0.006,0.134 0.15731,0.22612 0.13536,0.0766 0.37108,-0.43315 0.42857,-0.4961 0.0482,-0.0528 0.0961,-0.11456 0.14474,-0.1817 z"
         sodipodi:nodetypes="cccscccccscc" /><path
         style="opacity:0.454474;fill:url(#linearGradient5597);stroke:none;stroke-width:0;stroke-linecap:square;stroke-miterlimit:63.1"
         d="m 500.77856,105.74452 c 0,0 -0.0529,0.41935 -0.15482,0.65382 -0.10869,0.25018 -0.13743,0.29389 -0.22905,0.45999 -0.0444,0.0806 -0.14574,0.23444 -0.14574,0.23444 l -0.25997,-0.0392 0.60376,-1.40997 0.20701,-0.0471 z"
         id="path4568-6"
         sodipodi:nodetypes="cssccccc" /><path
         style="opacity:0.489441;fill:url(#linearGradient5598);fill-opacity:1;stroke:none;stroke-width:0.00499999;stroke-miterlimit:13.8;stroke-dasharray:none;stroke-opacity:1"
         d="m 500.15505,106.26004 c 0,0 0.14683,-0.008 0.29556,0.0301 0.13954,0.0362 0.23571,-0.66412 0.23571,-0.66412 l -0.23675,0.0227 -0.18764,-0.0242 -0.0847,-0.0266 -0.0222,0.66202 z"
         id="path2995-0-0-0"
         sodipodi:nodetypes="cscccccc" /><path
         style="opacity:0.553128;fill:url(#linearGradient5599);fill-opacity:1;stroke:none;stroke-width:0.00499999;stroke-miterlimit:13.8;stroke-dasharray:none;stroke-opacity:1"
         d="m 498.99757,106.08023 c 0,0 -0.12476,-0.0174 -0.25308,0.003 -0.013,-0.21794 0.0739,-0.45651 0.0739,-0.45651 0,0 0.14496,0.0327 0.30489,0.011 -0.0473,0.27311 -0.12674,0.44259 -0.12674,0.44259 z"
         id="path3004-5-9-9"
         sodipodi:nodetypes="cccccc" /><path
         style="opacity:0.419545;fill:url(#linearGradient5600);stroke:none;stroke-width:0.00499999;stroke-miterlimit:13.8;stroke-dasharray:none;stroke-opacity:1"
         d="m 499.90236,108.35234 c 0.0369,-0.13681 0.0974,-0.29343 0.16632,-0.47536 0.0718,-0.18948 0.27583,-0.13036 0.27583,-0.13036 l -0.18094,1.32809 c 0,0 -0.11619,-0.0278 -0.18474,-0.0519 -0.0686,-0.0241 -0.0718,-0.0247 -0.0961,-0.0399 -0.12977,-0.0808 -0.12062,-0.0887 -0.0889,-0.21997 0.0115,-0.0478 0.0207,-0.10057 0.0472,-0.19062 0.0313,-0.1061 0.0574,-0.2148 0.0613,-0.21994 z"
         id="path3017-1-1-0"
         sodipodi:nodetypes="ssccssssss" /><path
         style="fill:url(#linearGradient5601);fill-opacity:1;stroke-width:0.1;stroke-linecap:square;stroke-miterlimit:63.1"
         d="m 501.07232,111.00568 c 0,0 -0.0113,0.0751 0.0232,0.12991 0.0258,0.0383 0.12919,0.0651 0.12919,0.0651 0,0 0.0516,0.0192 0.12395,0.005 0.0724,-0.0145 0.21665,-0.27645 0.24296,-0.32193 0.0263,-0.0455 0.0775,-0.12689 0.0857,-0.15169 0.008,-0.0248 0.0292,-0.0996 -0.0857,-0.25017 -0.0736,-0.0964 -0.31187,0.35441 -0.31187,0.35441 z"
         id="path3148-7"
         sodipodi:nodetypes="ccccscscc" /><path
         id="path22517-4-81-45-3-73-7-3-1-3-7-2-6"
         style="fill:url(#linearGradient5602);fill-opacity:1;stroke-width:0.485436"
         d="m 501.53876,110.41334 c -0.0635,0.14302 -0.17439,0.20734 -0.3017,0.16948 0,0 -0.14771,0.3163 -0.16474,0.42286 -0.0215,0.13426 0.20971,0.14346 0.20971,0.14346 0.0866,0.0113 0.18253,-0.1662 0.26824,-0.30904 0.0623,-0.10394 0.14929,-0.20113 0.0413,-0.35803 -0.0137,-0.0221 -0.0373,-0.0478 -0.0528,-0.0687 z"
         sodipodi:nodetypes="ccccccc" /><path
         style="fill:url(#linearGradient5603);fill-opacity:1;stroke:#000000;stroke-width:0;stroke-linecap:square;stroke-miterlimit:63.1;stroke-dasharray:none;stroke-opacity:1"
         d="m 500.10008,103.66936 c 0,0 0.12412,-0.14529 0.16148,-0.0264 0.0544,0.17304 -0.16189,0.33306 -0.16189,0.33306"
         id="path4556-0-4-5-3-6"
         sodipodi:nodetypes="csc" /><path
         style="fill:url(#linearGradient1239);fill-opacity:1;stroke-width:0.312552"
         d="m 498.817,107.16527 c 0,0 0.0514,0.0277 0.0913,0.0305 0.0997,0.008 0.16701,-0.0196 0.28277,-0.0914 0.0297,-0.0185 0.0282,-0.0543 0.029,-0.10081 0.003,-0.0569 -0.19757,0.0461 -0.24203,0.0674 -0.0821,0.0393 -0.16096,0.0944 -0.16096,0.0944 z"
         id="path45625-5-13-5-87-2-3-8-3-8-7-8"
         sodipodi:nodetypes="ccscscc" /><path
         style="fill:#f48b5f;fill-opacity:1;stroke:none;stroke-width:0.3;stroke-linecap:square;stroke-miterlimit:63.1;stroke-dasharray:none"
         d="m 498.72987,106.94172 c 0,0 0.007,0.11301 0.0208,0.15248 0.0131,0.0395 0.0444,0.052 0.0664,0.0388 0.0267,-0.0161 0.032,-0.0332 0.0353,-0.0826 0.002,-0.0268 7.7e-4,-0.0542 0.003,-0.0789 0.0161,-0.21194 -0.12456,-0.0298 -0.12456,-0.0298 z"
         id="path3631-5-7"
         sodipodi:nodetypes="ccssscc" /><path
         style="fill:none;fill-opacity:0.631373;stroke:#ff8f00;stroke-width:0.202718;stroke-linecap:square;stroke-miterlimit:63.1;stroke-dasharray:none;stroke-opacity:1;marker-start:url(#marker36-06);marker-end:url(#Triangle-3-8-1-8-2)"
         id="path42-5"
         sodipodi:type="arc"
         sodipodi:cx="439.20596"
         sodipodi:cy="-176.9668"
         sodipodi:rx="0.64999586"
         sodipodi:ry="0.51932919"
         sodipodi:start="6.0225798"
         sodipodi:end="1.3218774"
         sodipodi:arc-type="arc"
         d="m 439.83401,-177.10061 a 0.64999586,0.51932919 0 0 1 -0.0674,0.39664 0.64999586,0.51932919 0 0 1 -0.40049,0.2405"
         transform="matrix(0.84887866,0.52858776,-0.70908493,0.70512308,0,0)"
         sodipodi:open="true" /></g></g></svg>
