<?xml version="1.0" encoding="UTF-8" standalone="no"?>
<!-- Created with Inkscape (http://www.inkscape.org/) -->

<svg
   width="6.5540514"
   height="7.178792"
   viewBox="0 0 0 0"
   version="1.1"
   id="svg5"
   xml:space="preserve"
   inkscape:version="1.4 (unknown)"
   sodipodi:docname="crah-tricks-17-07-2025-1.svg"
   inkscape:export-batch-path="full/svgs/svgs"
   inkscape:export-batch-name=""
   xmlns:inkscape="http://www.inkscape.org/namespaces/inkscape"
   xmlns:sodipodi="http://sodipodi.sourceforge.net/DTD/sodipodi-0.dtd"
   xmlns:xlink="http://www.w3.org/1999/xlink"
   xmlns="http://www.w3.org/2000/svg"
   xmlns:svg="http://www.w3.org/2000/svg"><sodipodi:namedview
     id="namedview7"
     pagecolor="#ffffff"
     bordercolor="#000000"
     borderopacity="0.25"
     inkscape:showpageshadow="2"
     inkscape:pageopacity="0.0"
     inkscape:pagecheckerboard="0"
     inkscape:deskcolor="#d1d1d1"
     inkscape:document-units="mm"
     showgrid="false"
     inkscape:zoom="2.828427"
     inkscape:cx="130.28443"
     inkscape:cy="45.961943"
     inkscape:window-width="1918"
     inkscape:window-height="1061"
     inkscape:window-x="0"
     inkscape:window-y="17"
     inkscape:window-maximized="1"
     inkscape:current-layer="layer1"
     showguides="true"
     inkscape:export-bgcolor="#ffffff00"><inkscape:page
       x="0"
       y="0"
       width="6.5540514"
       height="7.178792"
       id="page1"
       margin="0"
       bleed="0" /></sodipodi:namedview><defs
     id="defs2"><linearGradient
       id="linearGradient5471"
       inkscape:collect="always"><stop
         style="stop-color:#f40000;stop-opacity:1;"
         offset="0"
         id="stop5471" /><stop
         style="stop-color:#f40000;stop-opacity:0;"
         offset="1"
         id="stop5472" /></linearGradient><linearGradient
       id="linearGradient5465"
       inkscape:collect="always"><stop
         style="stop-color:#f40000;stop-opacity:1;"
         offset="0"
         id="stop5465" /><stop
         style="stop-color:#f40000;stop-opacity:0;"
         offset="1"
         id="stop5466" /></linearGradient><linearGradient
       id="linearGradient5458"
       inkscape:collect="always"><stop
         style="stop-color:#f40000;stop-opacity:1;"
         offset="0"
         id="stop5458" /><stop
         style="stop-color:#f40000;stop-opacity:0;"
         offset="1"
         id="stop5459" /></linearGradient><linearGradient
       id="linearGradient5450"
       inkscape:collect="always"><stop
         style="stop-color:#ffffff;stop-opacity:1;"
         offset="0"
         id="stop5449" /><stop
         style="stop-color:#fff6ff;stop-opacity:0;"
         offset="1"
         id="stop5450" /></linearGradient><linearGradient
       id="linearGradient5445"
       inkscape:collect="always"><stop
         style="stop-color:#000000;stop-opacity:1;"
         offset="0.58460402"
         id="stop5444" /><stop
         style="stop-color:#2f2f2f;stop-opacity:1;"
         offset="1"
         id="stop5445" /></linearGradient><linearGradient
       id="linearGradient5442"
       inkscape:collect="always"><stop
         style="stop-color:#ffffff;stop-opacity:1;"
         offset="0"
         id="stop5442" /><stop
         style="stop-color:#fff6ff;stop-opacity:0;"
         offset="1"
         id="stop5443" /></linearGradient><linearGradient
       inkscape:collect="always"
       id="linearGradient5342"><stop
         style="stop-color:#020000;stop-opacity:1;"
         offset="0"
         id="stop5339" /><stop
         style="stop-color:#505050;stop-opacity:1;"
         offset="1"
         id="stop5340" /></linearGradient><linearGradient
       id="linearGradient3202"
       inkscape:collect="always"
       gradientTransform="matrix(1.0212143,0,0,0.97922638,413.1138,-31.144313)"
       x1="9.9216003"
       y1="226.28363"
       x2="10.869777"
       y2="226.28363"
       gradientUnits="userSpaceOnUse"><stop
         style="stop-color:#ffffff;stop-opacity:1;"
         offset="0"
         id="stop3177" /><stop
         style="stop-color:#ffffff;stop-opacity:0;"
         offset="1"
         id="stop3178" /></linearGradient><linearGradient
       id="linearGradient4023"
       inkscape:collect="always"><stop
         style="stop-color:#ee2900;stop-opacity:1;"
         offset="0"
         id="stop4022" /><stop
         style="stop-color:#f47547;stop-opacity:0;"
         offset="1"
         id="stop4023" /></linearGradient><linearGradient
       id="linearGradient4552"
       inkscape:collect="always"><stop
         style="stop-color:#ee2900;stop-opacity:1;"
         offset="0"
         id="stop4552" /><stop
         style="stop-color:#f47547;stop-opacity:0;"
         offset="1"
         id="stop4553" /></linearGradient><linearGradient
       id="linearGradient3623"
       inkscape:collect="always"><stop
         style="stop-color:#000000;stop-opacity:1;"
         offset="0"
         id="stop3622" /><stop
         style="stop-color:#2f2f2f;stop-opacity:1;"
         offset="1"
         id="stop3623" /></linearGradient><linearGradient
       id="linearGradient2641"
       inkscape:collect="always"><stop
         style="stop-color:#fc0e00;stop-opacity:1;"
         offset="0"
         id="stop2641" /><stop
         style="stop-color:#000e00;stop-opacity:1;"
         offset="1"
         id="stop2642" /></linearGradient><linearGradient
       id="linearGradient1197"
       inkscape:collect="always"><stop
         style="stop-color:#f4a77e;stop-opacity:1;"
         offset="0"
         id="stop1197" /><stop
         style="stop-color:#f46f40;stop-opacity:1;"
         offset="1"
         id="stop1198" /></linearGradient><linearGradient
       id="linearGradient160"
       inkscape:collect="always"><stop
         style="stop-color:#000000;stop-opacity:1;"
         offset="0"
         id="stop160" /><stop
         style="stop-color:#2f2f2f;stop-opacity:1;"
         offset="1"
         id="stop161" /></linearGradient><linearGradient
       inkscape:collect="always"
       id="linearGradient20612"><stop
         style="stop-color:#fc0000;stop-opacity:1;"
         offset="0"
         id="stop20608" /><stop
         style="stop-color:#fc6a00;stop-opacity:1;"
         offset="1"
         id="stop20610" /></linearGradient><linearGradient
       inkscape:collect="always"
       id="linearGradient63493"><stop
         style="stop-color:#969696;stop-opacity:1;"
         offset="0"
         id="stop63489" /><stop
         style="stop-color:#c8c8c8;stop-opacity:1;"
         offset="1"
         id="stop63491" /></linearGradient><linearGradient
       inkscape:collect="always"
       id="linearGradient59671"><stop
         style="stop-color:#f50000;stop-opacity:1;"
         offset="0"
         id="stop59667" /><stop
         style="stop-color:#fc6a00;stop-opacity:1;"
         offset="1"
         id="stop59669" /></linearGradient><linearGradient
       inkscape:collect="always"
       id="linearGradient55368"><stop
         style="stop-color:#f4a77e;stop-opacity:1;"
         offset="0"
         id="stop55364" /><stop
         style="stop-color:#f46f40;stop-opacity:1;"
         offset="1"
         id="stop55366" /></linearGradient><linearGradient
       inkscape:collect="always"
       id="linearGradient50523"><stop
         style="stop-color:#fc0000;stop-opacity:1;"
         offset="0"
         id="stop50519" /><stop
         style="stop-color:#fc6a00;stop-opacity:1;"
         offset="1"
         id="stop50521" /></linearGradient><linearGradient
       inkscape:collect="always"
       id="linearGradient49756"><stop
         style="stop-color:#f50000;stop-opacity:1;"
         offset="0"
         id="stop49752" /><stop
         style="stop-color:#ff4f00;stop-opacity:1;"
         offset="1"
         id="stop49754" /></linearGradient><linearGradient
       id="linearGradient45844"
       inkscape:swatch="solid"><stop
         style="stop-color:#000000;stop-opacity:1;"
         offset="0"
         id="stop45842" /></linearGradient><linearGradient
       id="linearGradient384"
       inkscape:collect="always"><stop
         style="stop-color:#f48b5f;stop-opacity:1;"
         offset="0"
         id="stop384" /><stop
         style="stop-color:#f47344;stop-opacity:1;"
         offset="1"
         id="stop385" /></linearGradient><linearGradient
       id="linearGradient437-8"
       inkscape:collect="always"
       gradientTransform="matrix(1.0212143,0,0,0.97922638,413.1138,-31.144313)"
       x1="9.9216003"
       y1="226.28363"
       x2="10.869777"
       y2="226.28363"
       gradientUnits="userSpaceOnUse"><stop
         style="stop-color:#ffffff;stop-opacity:1;"
         offset="0"
         id="stop436" /><stop
         style="stop-color:#a5a5a5;stop-opacity:0;"
         offset="1"
         id="stop437" /></linearGradient><linearGradient
       inkscape:collect="always"
       xlink:href="#linearGradient160"
       id="linearGradient5816"
       gradientUnits="userSpaceOnUse"
       gradientTransform="matrix(0.63823591,-0.34071734,0.34071734,0.63823591,414.7676,38.1417)"
       x1="170.05849"
       y1="226.34512"
       x2="169.71339"
       y2="226.19327" /><linearGradient
       inkscape:collect="always"
       xlink:href="#linearGradient160"
       id="linearGradient5817"
       gradientUnits="userSpaceOnUse"
       gradientTransform="matrix(0.55613305,-0.46276277,0.46276277,0.55613305,553.48789,47.56932)"
       x1="-18.287382"
       y1="123.40459"
       x2="-18.594629"
       y2="123.18607" /><linearGradient
       inkscape:collect="always"
       xlink:href="#linearGradient63493"
       id="linearGradient5818"
       gradientUnits="userSpaceOnUse"
       gradientTransform="matrix(1.7108011,-0.71432623,0.71432623,1.7108011,593.12976,-24.874707)"
       x1="-29.198374"
       y1="74.046692"
       x2="-29.13117"
       y2="73.975929" /><linearGradient
       inkscape:collect="always"
       xlink:href="#linearGradient1197"
       id="linearGradient5819"
       gradientUnits="userSpaceOnUse"
       gradientTransform="translate(617.79031,3.48849)"
       x1="-20.966684"
       y1="115.90475"
       x2="-20.557428"
       y2="116.63556" /><linearGradient
       inkscape:collect="always"
       xlink:href="#linearGradient5450"
       id="linearGradient5820"
       gradientUnits="userSpaceOnUse"
       gradientTransform="translate(322.54759,-100.50901)"
       x1="276.80347"
       y1="225.22908"
       x2="276.98868"
       y2="224.99133" /><linearGradient
       inkscape:collect="always"
       xlink:href="#linearGradient5471"
       id="linearGradient5821"
       gradientUnits="userSpaceOnUse"
       gradientTransform="translate(322.54759,-100.50901)"
       x1="277.70456"
       y1="224.76982"
       x2="277.65143"
       y2="224.97594" /><linearGradient
       inkscape:collect="always"
       xlink:href="#linearGradient5445"
       id="linearGradient5822"
       gradientUnits="userSpaceOnUse"
       gradientTransform="translate(617.79031,3.48849)"
       x1="-19.733934"
       y1="120.32042"
       x2="-18.080179"
       y2="120.13536" /><linearGradient
       inkscape:collect="always"
       xlink:href="#linearGradient5450"
       id="linearGradient5823"
       gradientUnits="userSpaceOnUse"
       gradientTransform="translate(322.54759,-100.50901)"
       x1="277.08344"
       y1="223.95619"
       x2="276.9245"
       y2="224.00066" /><linearGradient
       inkscape:collect="always"
       xlink:href="#linearGradient3202"
       id="linearGradient5824"
       gradientUnits="userSpaceOnUse"
       gradientTransform="translate(322.54759,-100.50901)"
       x1="275.40088"
       y1="224.04425"
       x2="275.63538"
       y2="224.01234" /><linearGradient
       inkscape:collect="always"
       xlink:href="#linearGradient4023"
       id="linearGradient5825"
       gradientUnits="userSpaceOnUse"
       gradientTransform="translate(320.861,-101.42359)"
       x1="277.33408"
       y1="221.50664"
       x2="278.12115"
       y2="221.39842" /><linearGradient
       inkscape:collect="always"
       xlink:href="#linearGradient5342"
       id="linearGradient5826"
       gradientUnits="userSpaceOnUse"
       gradientTransform="translate(598.09396,1.91412)"
       x1="0.91319931"
       y1="119.67855"
       x2="1.4786524"
       y2="119.6679" /><linearGradient
       inkscape:collect="always"
       xlink:href="#linearGradient55368"
       id="linearGradient5827"
       gradientUnits="userSpaceOnUse"
       gradientTransform="rotate(-0.72021026,553.81715,-50532.676)"
       x1="-38.068344"
       y1="115.63547"
       x2="-38.406788"
       y2="116.58946" /><linearGradient
       inkscape:collect="always"
       xlink:href="#linearGradient3623"
       id="linearGradient5828"
       gradientUnits="userSpaceOnUse"
       gradientTransform="translate(327.22802,50.219134)"
       x1="156.38519"
       y1="317.66946"
       x2="156.17863"
       y2="317.3432" /><linearGradient
       inkscape:collect="always"
       xlink:href="#linearGradient5450"
       id="linearGradient5829"
       gradientUnits="userSpaceOnUse"
       gradientTransform="translate(322.54759,-100.50901)"
       x1="274.06583"
       y1="219.87411"
       x2="274.28021"
       y2="219.79077" /><linearGradient
       inkscape:collect="always"
       xlink:href="#linearGradient5465"
       id="linearGradient5830"
       gradientUnits="userSpaceOnUse"
       gradientTransform="translate(322.54759,-100.50901)"
       x1="274.57208"
       y1="219.88106"
       x2="274.40448"
       y2="219.8929" /><linearGradient
       inkscape:collect="always"
       xlink:href="#linearGradient63493"
       id="linearGradient5832"
       gradientUnits="userSpaceOnUse"
       gradientTransform="matrix(-0.14393479,-1.8483466,-1.8483466,0.14393479,726.85069,56.85053)"
       x1="-28.866045"
       y1="72.975769"
       x2="-28.782005"
       y2="73.083878" /><linearGradient
       inkscape:collect="always"
       xlink:href="#linearGradient3623"
       id="linearGradient5833"
       gradientUnits="userSpaceOnUse"
       gradientTransform="translate(320.58603,82.611955)"
       x1="125.93079"
       y1="333.4928"
       x2="125.82245"
       y2="333.10449" /><linearGradient
       inkscape:collect="always"
       xlink:href="#linearGradient63493"
       id="linearGradient5834"
       gradientUnits="userSpaceOnUse"
       gradientTransform="rotate(-1.065007,-4972.5187,-17179.586)"
       x1="273.51511"
       y1="223.17497"
       x2="273.58267"
       y2="223.00713" /><linearGradient
       inkscape:collect="always"
       xlink:href="#linearGradient59671"
       id="linearGradient5835"
       gradientUnits="userSpaceOnUse"
       gradientTransform="matrix(1.0172725,-0.33398976,0.33398976,1.0172725,579.06627,-8.458214)"
       x1="-20.725763"
       y1="119.0427"
       x2="-20.625927"
       y2="118.99223" /><linearGradient
       inkscape:collect="always"
       xlink:href="#linearGradient20612"
       id="linearGradient5836"
       gradientUnits="userSpaceOnUse"
       gradientTransform="matrix(0.92690026,-0.30604694,0.30604694,0.92690026,580.45574,2.77814)"
       x1="-21.711449"
       y1="117.46648"
       x2="-21.635401"
       y2="117.41196" /><linearGradient
       inkscape:collect="always"
       xlink:href="#linearGradient5342"
       id="linearGradient5837"
       gradientUnits="userSpaceOnUse"
       gradientTransform="rotate(-1.065007,-4972.5187,-17179.586)"
       x1="273.73468"
       y1="223.1322"
       x2="273.81287"
       y2="222.85316" /><linearGradient
       inkscape:collect="always"
       xlink:href="#linearGradient1197"
       id="linearGradient5838"
       gradientUnits="userSpaceOnUse"
       gradientTransform="translate(602.41871,4.18629)"
       x1="-4.9495368"
       y1="117.13111"
       x2="-2.7562046"
       y2="117.13111" /><linearGradient
       inkscape:collect="always"
       xlink:href="#linearGradient5450"
       id="linearGradient5839"
       gradientUnits="userSpaceOnUse"
       gradientTransform="translate(322.54759,-100.50901)"
       x1="275.8782"
       y1="222.12968"
       x2="276.01831"
       y2="222.22331" /><linearGradient
       inkscape:collect="always"
       xlink:href="#linearGradient4552"
       id="linearGradient5840"
       gradientUnits="userSpaceOnUse"
       gradientTransform="translate(322.54759,-100.50901)"
       x1="276.17303"
       y1="222.58864"
       x2="276.00693"
       y2="222.40608" /><linearGradient
       inkscape:collect="always"
       xlink:href="#linearGradient5342"
       id="linearGradient5841"
       gradientUnits="userSpaceOnUse"
       gradientTransform="rotate(-0.94444368,-1994.7544,-32327.253)"
       x1="63.58765"
       y1="159.31279"
       x2="64.226089"
       y2="159.73676" /><linearGradient
       inkscape:collect="always"
       xlink:href="#linearGradient2641"
       id="linearGradient5842"
       gradientUnits="userSpaceOnUse"
       gradientTransform="rotate(-0.72021026,553.81715,-50532.676)"
       x1="-39.021812"
       y1="115.69682"
       x2="-38.641582"
       y2="115.69682" /><linearGradient
       inkscape:collect="always"
       xlink:href="#linearGradient49756"
       id="linearGradient5843"
       gradientUnits="userSpaceOnUse"
       gradientTransform="rotate(-0.72021026,563.72945,-49030.005)"
       x1="-19.885185"
       y1="115.24645"
       x2="-18.733461"
       y2="115.24645" /><linearGradient
       inkscape:collect="always"
       xlink:href="#linearGradient50523"
       id="linearGradient5844"
       gradientUnits="userSpaceOnUse"
       gradientTransform="rotate(-0.72021026,563.72945,-49030.005)"
       x1="-20.133801"
       y1="115.66431"
       x2="-19.019243"
       y2="115.66431" /><linearGradient
       inkscape:collect="always"
       xlink:href="#linearGradient55368"
       id="linearGradient5845"
       gradientUnits="userSpaceOnUse"
       gradientTransform="rotate(-6.9787165,-540.75304,-5040.1591)"
       x1="-36.547489"
       y1="219.43437"
       x2="-36.898888"
       y2="220.32321" /><linearGradient
       inkscape:collect="always"
       xlink:href="#linearGradient437-8"
       id="linearGradient5846"
       gradientUnits="userSpaceOnUse"
       gradientTransform="translate(322.54759,-100.50901)"
       x1="275.21869"
       y1="221.713"
       x2="275.36188"
       y2="221.71709" /><linearGradient
       inkscape:collect="always"
       xlink:href="#linearGradient384"
       id="linearGradient5847"
       gradientUnits="userSpaceOnUse"
       gradientTransform="translate(322.54759,-100.50901)"
       x1="274.1315"
       y1="218.99039"
       x2="274.17383"
       y2="218.84991" /><linearGradient
       inkscape:collect="always"
       xlink:href="#linearGradient1197"
       id="linearGradient5848"
       gradientUnits="userSpaceOnUse"
       gradientTransform="rotate(-28.715219,239.38147,-461.74161)"
       x1="273.95105"
       y1="219.21286"
       x2="274.02621"
       y2="218.93202" /><linearGradient
       inkscape:collect="always"
       xlink:href="#linearGradient63493"
       id="linearGradient5849"
       gradientUnits="userSpaceOnUse"
       gradientTransform="matrix(1.7108011,-0.71432623,0.71432623,1.7108011,593.12976,-24.874707)"
       x1="-29.518204"
       y1="73.4963"
       x2="-29.480768"
       y2="73.549019" /><linearGradient
       inkscape:collect="always"
       xlink:href="#linearGradient160"
       id="linearGradient5850"
       gradientUnits="userSpaceOnUse"
       gradientTransform="matrix(-0.02923737,-1.0100545,-1.0100545,0.02923737,715.57006,94.58817)"
       x1="-23.213966"
       y1="119.40885"
       x2="-23.05047"
       y2="119.63138" /><linearGradient
       inkscape:collect="always"
       xlink:href="#linearGradient5450"
       id="linearGradient5851"
       gradientUnits="userSpaceOnUse"
       gradientTransform="translate(322.54759,-100.50901)"
       x1="275.93268"
       y1="224.95543"
       x2="276.01343"
       y2="224.74846" /><linearGradient
       inkscape:collect="always"
       xlink:href="#linearGradient5442"
       id="linearGradient5852"
       gradientUnits="userSpaceOnUse"
       gradientTransform="translate(322.54759,-100.50901)"
       x1="276.19376"
       y1="224.35561"
       x2="276.34622"
       y2="224.33716" /><linearGradient
       inkscape:collect="always"
       xlink:href="#linearGradient5458"
       id="linearGradient5853"
       gradientUnits="userSpaceOnUse"
       gradientTransform="translate(322.54759,-100.50901)"
       x1="274.36118"
       y1="223.49417"
       x2="274.85599"
       y2="223.17854" /><linearGradient
       inkscape:collect="always"
       xlink:href="#linearGradient160"
       id="linearGradient5854"
       gradientUnits="userSpaceOnUse"
       gradientTransform="matrix(0.63823591,-0.34071734,0.34071734,0.63823591,415.54097,38.48736)"
       x1="170.05849"
       y1="226.34512"
       x2="169.71339"
       y2="226.19327" /><linearGradient
       inkscape:collect="always"
       xlink:href="#linearGradient160"
       id="linearGradient5855"
       gradientUnits="userSpaceOnUse"
       gradientTransform="matrix(0.55613305,-0.46276277,0.46276277,0.55613305,554.26126,47.91498)"
       x1="-18.287382"
       y1="123.40459"
       x2="-18.594629"
       y2="123.18607" /></defs><g
     inkscape:label="Layer 1"
     inkscape:groupmode="layer"
     id="layer1"
     transform="translate(-612.14109,-103.44306)"><g
       id="superman"
       transform="translate(17.463474,-14.573694)"
       inkscape:export-filename="pngs/superman.png"
       inkscape:export-xdpi="96"
       inkscape:export-ydpi="96"><path
         style="fill:url(#linearGradient5816);fill-opacity:1;stroke-width:0.072349;stroke-linecap:square;stroke-miterlimit:63.1"
         d="m 600.1643,124.76833 c 0,0 0.0184,0.0519 0.0591,0.0751 0.0294,0.0161 0.10465,-0.003 0.10465,-0.003 0,0 0.0393,-0.005 0.0809,-0.0391 0.0414,-0.0339 0.0439,-0.2503 0.0454,-0.28829 10e-4,-0.0378 0.006,-0.10737 0.003,-0.12596 -0.003,-0.0184 -0.0155,-0.0734 -0.14004,-0.13035 -0.0796,-0.0368 -0.0784,0.33243 -0.0784,0.33243 z"
         id="path3148-8-2-3-6-43-1-2-7-5-9-3"
         sodipodi:nodetypes="ccccscscc" /><path
         id="path22517-4-81-45-3-73-7-3-1-3-7-2-5-9-7-1-0-7-3-5-6-3-7"
         style="fill:url(#linearGradient5817);fill-opacity:1;stroke-width:0.351206"
         d="m 600.26018,124.23137 c 0.008,0.11291 -0.0405,0.19177 -0.13439,0.21119 0,0 0.0135,0.2522 0.0388,0.32601 0.0322,0.0928 0.1827,0.02 0.1827,0.02 0.0592,-0.0225 0.0603,-0.16809 0.0659,-0.28864 0.005,-0.0876 0.0267,-0.17918 -0.0956,-0.24256 -0.017,-0.008 -0.0405,-0.0175 -0.0573,-0.0254 z"
         sodipodi:nodetypes="ccccccc" /><path
         id="path5420-4"
         style="fill:url(#linearGradient5818);fill-opacity:1;stroke-width:0.490522"
         d="m 595.46936,121.82578 -0.19616,0.29101 c 0,0 0.2024,0.46249 0.32375,0.51136 0.19108,0.061 1.92186,0.48319 1.92186,0.48319 l 0.14112,-0.16543 c 0,0 -0.013,-0.007 -0.0162,-0.009 l 0.0408,-0.0566 c 0.22636,-0.0772 0.10217,-0.15842 -0.0957,-0.26652 l -1.69075,-0.38096 c -0.1169,-0.064 -0.32277,-0.23099 -0.42225,-0.38807 -0.003,-0.008 -0.006,-0.0195 -0.006,-0.0195 z"
         sodipodi:nodetypes="cccccccccccc" /><path
         id="path1201-0-2-9"
         style="fill:url(#linearGradient5819);fill-opacity:1;stroke-width:0.485436"
         d="m 598.31062,119.57918 c 0.0128,0.005 -0.1397,0.33088 -0.0581,0.35878 -0.0948,0.0128 -0.0286,-0.0248 -0.2108,0.006 -0.005,0.002 -0.19382,-0.0429 -0.4718,-0.16648 -0.12324,-0.0548 -0.18567,-0.0818 -0.36945,-0.18661 -0.1118,-0.33092 -0.20507,-0.52801 -0.26262,-0.71659 -0.0822,-0.2696 -0.27247,-0.48354 -0.25877,-0.39291 0.002,0.0124 -0.29396,-0.096 -0.22482,-0.0659 0.004,0.0135 -0.0501,0.0956 -0.0143,0.18111 0.0228,0.0545 0.0884,0.16172 0.11655,0.2005 0.0176,0.1308 0.0264,0.92196 0.30405,1.26261 0.22648,0.27786 0.33746,0.28613 0.77863,0.64622 0.11185,-0.0147 0.35927,0.0575 0.0852,0.0574 0.16014,0.55409 0.0786,1.45806 0.27698,2.10739 -0.19784,0.68328 0.1075,0.91051 0.1338,1.16521 0.0461,0.22229 0.0902,0.29364 0.25697,0.37942 0.23007,0.11837 0.68979,0.0986 1.71823,0.0436 0.1345,0.0176 0.18768,-0.14453 0.14992,-0.22696 -0.39359,-0.17553 -1.2974,-0.16679 -1.2974,-0.16679 0.28867,-0.47128 -0.75821,-0.0413 -0.36424,-0.41936 0.25568,0.6391 0.15226,0.19425 0.36424,0.68086 0.0713,0.16379 0.0937,0.33066 0.29764,0.37778 0.21898,0.0506 0.68224,0.0466 1.63863,0.0838 0.15854,-1.4e-4 0.16205,-0.11179 0.13448,-0.21036 -0.85435,-0.34787 -0.94571,-0.42952 -1.28682,-0.34787 -0.0544,-0.1979 -0.0391,-0.13645 -0.10183,-0.57023 -0.063,-0.43576 -0.20403,-0.59752 -0.19873,-1.06127 0.0105,-0.38571 0.19365,-1.06836 0.21016,-1.60485 0.0217,-0.70353 -0.0937,-0.72328 -0.28473,-0.85163 -0.10338,-0.048 -0.18684,-0.0869 -0.26614,-0.11679 l -5.2e-4,-5.1e-4 c -0.0557,-0.0335 -0.11057,-0.0751 -0.14004,-0.12609 -0.0438,-0.0758 -0.0447,-0.20317 -0.0269,-0.26096 0.32823,-1.06358 -0.76197,-0.57882 -0.62751,-0.0582 z"
         sodipodi:nodetypes="cccscsscscsccccsccccsscccscccccsccc" /><path
         style="opacity:0.454426;fill:url(#linearGradient5820);stroke:none;stroke-width:0.1;stroke-miterlimit:13.8;stroke-dasharray:none;stroke-opacity:1"
         d="m 598.9802,124.36826 c 0,0 0.0533,0.18428 0.11994,0.2445 0.0471,0.0426 0.0888,0.10475 0.34721,0.11683 0.33642,0.0157 1.18271,0.0345 1.18271,0.0345 l -1.2515,-0.51827 z"
         id="path5468-4"
         sodipodi:nodetypes="ccsccc" /><path
         style="opacity:0.418357;fill:url(#linearGradient5821);fill-opacity:1;stroke:none;stroke-width:0.1;stroke-miterlimit:13.8;stroke-dasharray:none;stroke-opacity:1"
         d="m 599.77757,124.22293 c 0,0 0.10225,-0.014 0.24818,-0.007 0.19379,0.009 0.54311,0.16751 1.00791,0.36196 0.76534,0.32018 -1.37448,-0.0336 -1.37448,-0.0336 l -0.28062,-0.2982 0.21047,-0.13152 0.1497,-0.0166 z"
         id="path5470-2"
         sodipodi:nodetypes="cssccccc" /><path
         id="path1202-3-54-9"
         style="fill:url(#linearGradient5822);fill-opacity:1;stroke:none;stroke-width:0.485436"
         d="m 598.01576,122.81721 c 0,0 -0.0801,-0.0254 -0.0932,-0.0153 -0.0241,0.48794 0.0601,1.03989 0.10513,1.26299 0.15608,0.0775 0.46202,0.0559 0.80427,-0.069 0.0833,-0.24611 -0.0384,-0.23333 -0.13212,-0.37147 0,0.11661 0.0729,0.39839 0.097,0.49065 0.0826,0.22181 0.0881,0.23621 0.18337,0.25318 0.49205,-0.004 0.69899,-0.14766 0.79525,-0.20075 -0.004,-0.0435 -0.0168,-0.11154 -0.0246,-0.15676 -0.025,-0.14381 -0.0576,-0.26467 -0.0753,-0.35122 -0.0751,-0.36656 -0.0735,-0.33136 -0.11492,-0.49589 -0.0263,-0.10439 -0.0357,-0.14832 -0.0849,-0.3116 l -0.81706,0.22014 z"
         sodipodi:nodetypes="ccccccccssaccc" /><path
         style="opacity:0.239929;fill:url(#linearGradient5823);fill-opacity:1;stroke:none;stroke-width:0.1;stroke-miterlimit:13.8;stroke-dasharray:none;stroke-opacity:1"
         d="m 599.47574,122.85204 c 0,0 0.11073,0.3828 0.15526,0.59514 0.0446,0.21235 0.0763,0.33814 0.0981,0.45085 0.0218,0.11272 0.0464,0.26948 0.0464,0.26948 0,0 -0.10529,0.0581 -0.21437,0.1062 -0.12408,0.0547 -0.36838,-1.34541 -0.36838,-1.34541 z"
         id="path5445-3"
         sodipodi:nodetypes="ccccscc" /><path
         style="opacity:0.370096;fill:url(#linearGradient5824);stroke:none;stroke-width:0.1;stroke-miterlimit:13.8;stroke-dasharray:none;stroke-opacity:1"
         d="m 597.92256,122.80191 c 0,0 -0.0133,0.20141 0.009,0.53335 0.01,0.14836 0.0371,0.42379 0.0964,0.72964 0.17419,0.0874 0.4758,0.0221 0.4758,0.0221 l -0.16627,-1.14229 z"
         id="path5423-8"
         sodipodi:nodetypes="cscccc" /><path
         style="opacity:0.785133;fill:url(#linearGradient5825);fill-opacity:1;stroke-width:0.1;stroke-linecap:square;stroke-miterlimit:63.1"
         d="m 598.16767,119.98712 0.0548,0.19185 0.44855,0.092 0.39796,-0.27592 c 0,0 -0.17682,-0.0765 -0.13086,-0.35762 0.006,-0.18708 -0.61643,0.19326 -0.61643,0.19326 z"
         id="path31-2"
         sodipodi:nodetypes="ccccccc" /><path
         style="fill:url(#linearGradient5826);fill-opacity:1;stroke:none;stroke-width:3.96499;stroke-miterlimit:12.9"
         d="m 597.32156,120.45974 c 0.0817,0.0846 0.198,0.16621 0.40287,0.30332 0.0288,0.33687 0.0721,0.78196 0.11734,1.14988 0.0223,0.18805 0.0209,0.20627 0.0209,0.20627 0,0 0.0293,0.61912 0.0284,0.65915 -0.004,0.0393 0.0948,0.04 0.0948,0.04 0,0 0.2109,0.19302 0.43078,0.19326 0.0475,5e-5 0.21721,0.0734 0.26483,0.0701 0.17275,-0.0116 0.30556,-0.0674 0.36793,-0.065 0.0796,0.003 0.26131,-0.0315 0.35814,-0.083 0.0968,-0.0515 0.0949,-0.0912 0.0949,-0.0912 0,0 0.0388,-0.0248 0.0278,-0.11031 -0.0119,-0.076 -0.0206,-0.12197 -0.009,-0.22361 0.006,-0.0598 -0.007,-0.14802 -0.005,-0.18682 0.01,-0.14354 0.0683,-0.56525 0.0683,-0.56525 l 0.0646,-0.56451 c 0,0 0.11808,-0.78897 -0.16418,-0.98048 -0.16972,-0.11515 -0.41596,-0.21651 -0.41596,-0.21651 0,0 -0.78569,0.49227 -0.91135,-0.0443 -0.26659,-0.0873 -0.37561,-0.11392 -0.58774,-0.17342 -0.25243,0.19059 -0.26791,0.39622 -0.24836,0.68241 z"
         id="path1211-3-8-4"
         sodipodi:nodetypes="scccccsscsccssccscccss" /><path
         style="fill:url(#linearGradient5827);fill-opacity:1;stroke:none;stroke-width:1;stroke-miterlimit:13.8"
         d="m 598.28654,120.03233 c 0.15659,0.007 0.57582,-0.0391 0.65159,-0.39492 0.0274,-0.12925 0.0329,-0.13885 0.0584,-0.25086 0.0536,-0.23401 0.0185,-0.42012 0.0185,-0.42012 l -1.10947,0.0182 0.005,0.31664 c 10e-4,0.14062 0.11284,0.72755 0.37612,0.73147 z"
         id="path2638-5-9-2-8-6-86-4-1-6-2-7-0-4-9-5"
         sodipodi:nodetypes="cssccccc" /><circle
         style="fill:url(#linearGradient5828);fill-opacity:1;stroke-width:0.427252"
         id="circle1213-6-2-4"
         cx="483.4617"
         cy="367.69989"
         transform="rotate(-25.631252)"
         r="0.26859599" /><path
         style="opacity:0.365342;fill:url(#linearGradient5829);stroke:none;stroke-width:0.1;stroke-miterlimit:13.8;stroke-dasharray:none;stroke-opacity:1"
         d="m 596.55651,118.79708 c 0,0 0.0362,0.87328 0.23934,1.16742 0.0247,0.0358 0.0371,0.0587 0.0509,0.0776 0.0227,0.0312 0.0443,0.0528 0.0945,0.1107 0.0469,0.0541 0.062,0.0628 0.13808,0.12975 0.0269,0.0237 0.0735,0.0572 0.11709,0.0892 0.0821,0.0602 0.15351,-0.30867 0.15351,-0.30867 0,0 -0.34144,-1.22485 -0.79346,-1.26597 z"
         id="path5459-3"
         sodipodi:nodetypes="cssssscsc" /><path
         style="opacity:0.233209;fill:url(#linearGradient5830);fill-opacity:1;stroke:none;stroke-width:0.1;stroke-miterlimit:13.8;stroke-dasharray:none;stroke-opacity:1"
         d="m 597.20046,119.59087 c 0,0 -0.037,0.19777 -0.16923,0.22575 -0.0826,0.10869 -0.0571,-0.65538 -0.0571,-0.65538 l 0.0648,-0.008 z"
         id="path5464-2"
         sodipodi:nodetypes="ccccc" /><path
         style="fill:url(#linearGradient5832);fill-opacity:1;stroke-width:0.435497"
         d="m 595.67756,121.41567 1.47753,-2.35546 0.94702,0.81163 c 0.0422,0.0361 0.16536,-0.0746 0.0811,-0.14073 -0.0843,-0.0662 -1.62242,-1.37814 -2.00404,-1.70772 -0.0369,-0.0318 -0.13344,0.0729 -0.0699,0.12831 0.15398,0.13425 0.82858,0.72258 0.82858,0.72258 l -1.4679,2.41806 z"
         id="path1213-1-0-4"
         sodipodi:nodetypes="ccszssccc" /><circle
         style="fill:url(#linearGradient5833);fill-opacity:1;stroke-width:0.427252"
         id="circle1214-8-8-7"
         cx="446.38501"
         cy="415.93469"
         transform="rotate(-31.356435)"
         r="0.26859599" /><path
         style="fill:url(#linearGradient5834);fill-opacity:1;stroke-width:0.267355"
         d="m 597.21831,122.84101 0.45964,0.1062 c 0,0 -0.16801,0.15586 -0.22098,0.1478 -0.0593,-0.009 -0.19257,-0.0463 -0.19257,-0.0463 z"
         id="path1215-3-9-4"
         sodipodi:nodetypes="ccscc" /><path
         style="fill:url(#linearGradient5835);fill-opacity:1;stroke-width:0.519755"
         d="m 597.46836,119.33557 c 0,0 2.4e-4,-0.0934 0.10139,-0.12479 0.13531,0.11379 0.42545,0.36256 0.62842,0.53294 0.0567,0.0478 -0.0493,0.16575 -0.0961,0.12811 -0.20138,-0.16208 -0.52694,-0.45344 -0.63209,-0.543 -0.002,-10e-4 -0.002,0.006 -0.002,0.006 z"
         id="path1217-0-66-1"
         sodipodi:nodetypes="ccssscc" /><path
         style="fill:url(#linearGradient5836);fill-opacity:1;stroke-width:0.473843"
         d="m 596.54242,118.52551 c 0,0 0.002,-0.0957 0.092,-0.11374 -0.24009,-0.2023 -0.19109,-0.167 -0.45522,-0.38842 -0.041,-0.0341 -0.13357,0.0723 -0.0699,0.12831 0.20835,0.18308 0.43116,0.37605 0.43116,0.37605 z"
         id="path1218-2-49-6"
         sodipodi:nodetypes="ccsscc" /><path
         style="opacity:0.735909;fill:url(#linearGradient5837);fill-opacity:1;stroke:none;stroke-width:0.1;stroke-miterlimit:13.8;stroke-dasharray:none;stroke-opacity:1"
         d="m 595.89823,122.23316 -0.22506,0.41684 1.35836,0.34188 0.23495,-0.44924 z"
         id="path5455-1"
         sodipodi:nodetypes="ccccc" /><path
         id="path1212-0-4-6"
         style="fill:url(#linearGradient5838);fill-opacity:1;stroke:none;stroke-width:3.96499;stroke-miterlimit:12.9"
         d="m 599.22412,120.43208 -0.23616,0.15141 c 0,0 -0.15807,0.16274 -0.21614,0.35125 -0.0158,0.0511 -0.10897,0.0691 -0.48633,0.82057 -0.37891,0.25619 -0.91424,0.83864 -1.0332,0.8269 -0.0599,-0.001 -0.12087,-0.0123 -0.18118,-0.008 -0.065,0.005 -0.12394,0.0174 -0.1922,0.0356 -0.026,0.009 -0.0367,0.0525 -0.0247,0.0764 0.0158,0.0316 0.059,0.0266 0.10026,0.0341 0,0 -0.0615,0.0412 -0.11163,0.11741 -0.0284,0.0508 -0.0478,0.0891 -0.0101,0.14688 0.0152,0.0233 0.0395,0.0497 0.0763,0.0813 0.12867,0.1043 0.34433,-0.12361 0.34433,-0.12361 0.005,-0.005 0.28793,-0.12842 0.3466,-0.15558 0.44483,-0.21526 0.81717,-0.33682 1.19417,-0.79154 0.10196,-0.12297 0.62991,-0.62933 0.70151,-0.76727 0.21019,-0.40477 0.0278,-0.62743 0.006,-0.63643 -0.23622,-0.0951 -0.21498,-0.16743 -0.21498,-0.16743 z"
         sodipodi:nodetypes="cccccacaccscccscccc" /><path
         style="opacity:0.272402;fill:url(#linearGradient5839);stroke:none;stroke-width:0.1;stroke-miterlimit:13.8;stroke-dasharray:none;stroke-opacity:1"
         d="m 598.28549,121.75531 c 0,0 0.0648,0.1971 0.21566,0.21364 0.15089,0.0165 0.58912,-0.65319 0.58912,-0.65319 0,0 -0.41072,-0.273 -0.49636,-0.1254 -0.13023,0.22446 -0.2674,0.48395 -0.30842,0.56495 z"
         id="path5450-8"
         sodipodi:nodetypes="cscsc" /><path
         style="opacity:0.735909;fill:url(#linearGradient5840);fill-opacity:1;stroke:none;stroke-width:0.1;stroke-miterlimit:13.8;stroke-dasharray:none;stroke-opacity:1"
         d="m 599.16134,121.61294 -0.36719,0.38205 c 0,0 -0.20799,0.27111 -0.46226,0.41779 -0.25424,0.14667 -0.50027,0.26504 -0.50027,0.26504 0,0 -0.32192,-0.0326 -0.23541,-0.12806 0.26681,-0.2943 1.20868,-0.93688 1.37124,-1.03788 0.21525,-0.13374 0.19389,0.10106 0.19389,0.10106 z"
         id="path5452-7"
         sodipodi:nodetypes="ccscssc" /><path
         style="fill:url(#linearGradient5841);fill-opacity:1;stroke-width:0.665001;stroke-linecap:round"
         d="m 598.58065,121.17088 c 0,0 0.18454,0.27471 0.6047,0.45243 0.11007,-0.11452 0.16331,-0.15592 0.22673,-0.23774 0.14494,-0.18675 0.27972,-0.36971 0.31372,-0.53967 0.034,-0.16997 0.02,-0.27358 -0.0546,-0.41211 -0.13018,-0.24165 -0.55542,-0.42676 -1.09048,0.73709 z"
         id="path1220-6-87-0"
         sodipodi:nodetypes="ccszscc" /><path
         style="fill:url(#linearGradient5842);fill-opacity:1;stroke:none;stroke-width:1;stroke-miterlimit:13.8"
         d="m 597.67073,119.25723 c 0,0 0.0476,0.0761 0.26067,-0.13972 0.27561,-0.19399 -0.0645,-0.04 -0.0645,-0.04 l -0.16307,0.0642 -0.0427,0.0659 z"
         id="path2640-6-8-1-1-5-5-6-3-4-9-7-9-4-4-4"
         sodipodi:nodetypes="cccccc" /><path
         style="fill:url(#linearGradient5843);fill-opacity:1;stroke-width:0.0381963"
         d="m 597.90601,118.98407 c 0,0 0.003,-0.26647 0.0566,-0.37658 0.0927,-0.1902 0.30691,-0.28643 0.56005,-0.29879 0.14782,0.003 0.27465,0.0267 0.40646,0.17754 0.1317,0.15119 0.12634,0.31955 0.12634,0.31955 l -0.003,0.22535 c -0.11381,0.0558 -0.21216,0.0395 -0.28364,0.0267 -0.11254,0.003 -0.65202,-0.12976 -0.65202,-0.12976 z"
         id="path11206-13-6-2-7-5-1-2-1-8-0-5-6-3-3-9-9"
         sodipodi:nodetypes="cscsccccc" /><path
         style="fill:url(#linearGradient5844);fill-opacity:1;stroke-width:0.0381963"
         d="m 597.90399,118.98418 c 0,0 -0.11133,0.0859 -0.16536,0.13071 -0.0208,0.0169 -0.10816,0.0654 -0.0678,0.14231 -0.005,-0.0311 -0.009,-0.13437 0.21772,-0.12479 0.0391,0.004 0.16926,0.0673 0.29776,0.12228 0.0212,0.0103 0.14308,0.0716 0.20944,0.0579 0.20637,-0.0421 0.32868,-0.17928 0.37743,-0.2545 -0.13048,-0.0313 -0.3571,-0.0866 -0.51655,-0.12453 -0.16558,-0.0396 -0.25233,-0.0256 -0.35243,0.0505 z"
         id="path11208-7-3-8-0-97-1-8-2-0-3-4-7-6-0-0-6"
         sodipodi:nodetypes="ccccsscsc" /><path
         style="fill:url(#linearGradient5845);fill-opacity:1;stroke:#000000;stroke-width:0;stroke-linecap:square;stroke-miterlimit:63.1;stroke-dasharray:none;stroke-opacity:1"
         d="m 598.90493,119.34016 c 0,0 0.12988,-0.14019 0.16241,-0.0199 0.0474,0.17508 -0.17518,0.32628 -0.17518,0.32628"
         id="path4556-0-4-5-3-0-3-3-0-7-9-9"
         sodipodi:nodetypes="csc" /><path
         style="opacity:0.446774;fill:url(#linearGradient5846);fill-opacity:1;stroke:none;stroke-width:0;stroke-miterlimit:13.8;stroke-dasharray:none;stroke-opacity:1"
         d="m 597.72444,120.76306 0.0653,0.68851 0.0729,0.66764 0.31399,-1.44011 -0.27493,-0.25631 c 0,0 -0.2048,0.1032 -0.17727,0.34027 z"
         id="path5343-5"
         sodipodi:nodetypes="ccccccc" /><path
         style="fill:url(#linearGradient5847);fill-opacity:1;stroke:none;stroke-width:0;stroke-miterlimit:13.8;stroke-dasharray:none;stroke-opacity:1"
         d="m 596.55492,118.27577 c 0.0231,-0.0103 0.0595,-0.0103 0.0758,-0.002 0.0649,0.0333 0.10507,0.0826 0.16756,0.14408 0.0352,0.0346 0.0762,0.0788 0.10173,0.11799 0.0194,0.0297 0.0311,0.0812 0.0239,0.10566 0.007,0.0643 -0.14844,0.0353 -0.19469,0.0151 -0.15375,-0.0671 -0.21001,-0.34322 -0.21001,-0.34322 -0.007,-0.0154 0.0199,-0.0306 0.0357,-0.0377 z"
         id="path5413-1"
         sodipodi:nodetypes="assscsca" /><path
         style="fill:url(#linearGradient5848);fill-opacity:1;stroke:none;stroke-width:0.316407;stroke-linecap:square;stroke-miterlimit:63.1;stroke-dasharray:none"
         d="m 596.78273,118.61753 c -0.0168,0.0188 -0.0236,0.0749 0.004,0.11141 0.0229,0.0308 0.0367,0.0504 0.0367,0.0504 l 0.11342,0.0974 c 0.009,-0.042 0.0301,-0.10024 0.002,-0.14417 -0.0278,-0.0696 -0.0522,-0.11665 -0.0743,-0.1289 -0.0448,-0.035 -0.0597,-0.0111 -0.0819,0.0139 z"
         id="path3634-4-9-60"
         sodipodi:nodetypes="sscccss" /><path
         id="path5421-2"
         style="fill:url(#linearGradient5849);fill-opacity:1;stroke-width:0.490522"
         d="m 595.4893,121.2858 c -0.0115,6.2e-4 -0.0215,0.003 -0.0293,0.009 l -5e-4,0.001 c -0.005,0.003 -0.009,0.008 -0.0121,0.0136 -0.0246,0.0485 -0.36842,0.60625 -0.48502,0.79514 -8.8e-4,0.001 -0.002,0.003 -0.003,0.004 -0.002,0.004 -0.005,0.008 -0.007,0.012 -0.0141,0.032 -0.0306,0.0697 -0.0327,0.0745 -0.0395,0.104 -0.0707,0.24708 -0.0227,0.28004 0.0473,0.0325 0.15826,-0.0513 0.23221,-0.13146 0.0253,-0.0315 0.0383,-0.048 0.052,-0.0651 0.002,-0.003 0.004,-0.007 0.006,-0.0101 l 0.002,-0.003 c 3.8e-4,-6.4e-4 6.4e-4,-0.001 9.6e-4,-0.002 l 9.7e-4,-0.002 c 3.3e-4,-6.8e-4 1.6e-4,-0.001 4.8e-4,-0.002 l 0.0816,-0.1421 0.19617,-0.29102 0.21419,-0.37716 c 0.0408,-0.0718 -0.11355,-0.16704 -0.19426,-0.16281 z" /><path
         style="fill:url(#linearGradient5850);fill-opacity:1;stroke-width:0.490523"
         d="m 595.26823,121.60056 c 0.0681,0.0689 0.13614,0.11234 0.24472,0.14248 0.0795,-0.13278 0.17938,-0.30843 0.17938,-0.30843 0.0396,-0.0667 -0.20162,-0.20226 -0.23988,-0.13656 z"
         id="path1216-0-2-2"
         sodipodi:nodetypes="ccccc" /><path
         style="opacity:0.571163;fill:url(#linearGradient5851);stroke:none;stroke-width:0.1;stroke-miterlimit:13.8;stroke-dasharray:none;stroke-opacity:1"
         d="m 598.13518,124.03591 c 0,0 0.0339,0.20855 0.11551,0.28134 0.14732,0.13135 0.26056,0.16388 0.45662,0.17262 0.17123,0.0134 0.32175,0.009 0.32175,0.009 l -0.0489,-0.13018 c 0,0 -0.68547,-0.3329 -0.84451,-0.3328 z"
         id="path5466-2"
         sodipodi:nodetypes="cscccsc" /><path
         style="opacity:0.272402;fill:url(#linearGradient5852);stroke:none;stroke-width:0.1;stroke-miterlimit:13.8;stroke-dasharray:none;stroke-opacity:1"
         d="m 598.9802,124.36826 c 0,0 -0.0379,0.0126 -0.0841,-0.0347 -0.0227,-0.0232 -0.0403,-0.0654 -0.0635,-0.12358 -0.0204,-0.0511 -0.0468,-0.1135 -0.0626,-0.20004 -0.0702,-0.38547 -0.0843,-0.55334 -0.0843,-0.56503 0,-0.0117 -0.0265,-0.14616 0.14906,-0.2134 0.17542,-0.0672 0.33928,1.1272 0.33928,1.1272 0,0 -0.12176,0.0339 -0.19389,0.01 z"
         id="path5426-2"
         sodipodi:nodetypes="csssssccc" /><path
         style="opacity:0.365342;fill:url(#linearGradient5853);fill-opacity:1;stroke:none;stroke-width:0.1;stroke-miterlimit:13.8;stroke-dasharray:none;stroke-opacity:1"
         d="m 596.95447,122.72031 c 0,0 -0.2458,0.17212 -0.09,0.30356 0.0338,0.0285 0.0576,0.0575 0.088,0.0647 0.0861,0.0201 0.12907,-0.019 0.16501,-0.038 0.0559,-0.0295 0.13594,-0.10776 0.13594,-0.10776 0.15973,-0.0729 0.45329,-0.20627 0.45329,-0.20627 l -0.20069,-0.32065 c 0,0 -0.11315,0.16236 -0.22935,0.16268 -0.0838,2.3e-4 -0.17911,-0.007 -0.20556,-0.004 -0.0635,0.007 -0.13532,0.0112 -0.1922,0.0356 -0.0515,0.0221 -0.0315,0.0879 -0.007,0.0945 0.0395,0.0106 0.115,0.0169 0.0829,0.0165 z"
         id="path5457-7"
         sodipodi:nodetypes="cssscccsssscc" /><path
         style="fill:url(#linearGradient5854);fill-opacity:1;stroke-width:0.072349;stroke-linecap:square;stroke-miterlimit:63.1"
         d="m 600.93767,125.11399 c 0,0 0.0184,0.0519 0.0591,0.0751 0.0294,0.0161 0.10465,-0.003 0.10465,-0.003 0,0 0.0393,-0.005 0.0809,-0.0391 0.0414,-0.0339 0.0439,-0.2503 0.0454,-0.28829 10e-4,-0.0378 0.006,-0.10737 0.003,-0.12596 -0.003,-0.0184 -0.0155,-0.0734 -0.14004,-0.13035 -0.0796,-0.0368 -0.0784,0.33243 -0.0784,0.33243 z"
         id="path3148-8-2-3-6-43-1-2-7-5-3"
         sodipodi:nodetypes="ccccscscc" /><path
         id="path22517-4-81-45-3-73-7-3-1-3-7-2-5-9-7-1-0-7-3-5-6-6"
         style="fill:url(#linearGradient5855);fill-opacity:1;stroke-width:0.351206"
         d="m 601.03355,124.57703 c 0.008,0.11291 -0.0405,0.19177 -0.13439,0.21119 0,0 0.0135,0.2522 0.0388,0.32601 0.0322,0.0928 0.1827,0.02 0.1827,0.02 0.0592,-0.0225 0.0603,-0.16809 0.0659,-0.28864 0.005,-0.0876 0.0267,-0.17918 -0.0956,-0.24256 -0.017,-0.008 -0.0405,-0.0175 -0.0573,-0.0254 z"
         sodipodi:nodetypes="ccccccc" /></g></g></svg>
