<?xml version="1.0" encoding="UTF-8" standalone="no"?>
<!-- Created with Inkscape (http://www.inkscape.org/) -->

<svg
   width="6.1448517"
   height="9.2942286"
   viewBox="0 0 0 0"
   version="1.1"
   id="svg5"
   xml:space="preserve"
   inkscape:version="1.4 (unknown)"
   sodipodi:docname="crah-tricks-17-07-2025-1.svg"
   inkscape:export-batch-path="full/svgs/svgs"
   inkscape:export-batch-name=""
   xmlns:inkscape="http://www.inkscape.org/namespaces/inkscape"
   xmlns:sodipodi="http://sodipodi.sourceforge.net/DTD/sodipodi-0.dtd"
   xmlns:xlink="http://www.w3.org/1999/xlink"
   xmlns="http://www.w3.org/2000/svg"
   xmlns:svg="http://www.w3.org/2000/svg"><sodipodi:namedview
     id="namedview7"
     pagecolor="#ffffff"
     bordercolor="#000000"
     borderopacity="0.25"
     inkscape:showpageshadow="2"
     inkscape:pageopacity="0.0"
     inkscape:pagecheckerboard="0"
     inkscape:deskcolor="#d1d1d1"
     inkscape:document-units="mm"
     showgrid="false"
     inkscape:zoom="2.828427"
     inkscape:cx="130.28443"
     inkscape:cy="45.961943"
     inkscape:window-width="1918"
     inkscape:window-height="1061"
     inkscape:window-x="0"
     inkscape:window-y="17"
     inkscape:window-maximized="1"
     inkscape:current-layer="layer1"
     showguides="true"
     inkscape:export-bgcolor="#ffffff00"><inkscape:page
       x="0"
       y="0"
       width="6.1448517"
       height="9.2942286"
       id="page1"
       margin="0"
       bleed="0" /></sodipodi:namedview><defs
     id="defs2"><marker
       style="overflow:visible"
       id="marker36"
       refX="9"
       refY="0"
       orient="auto"
       inkscape:stockid="Square"
       markerWidth="0.2"
       markerHeight="0.2"
       viewBox="0 0 1 1"
       inkscape:isstock="true"
       inkscape:collect="always"
       preserveAspectRatio="xMidYMid"><path
         transform="scale(0.5)"
         style="fill:context-stroke;fill-rule:evenodd;stroke:none"
         d="M -5,-5 V 5 H 5 V -5 Z"
         id="path36" /></marker><linearGradient
       id="linearGradient4552"
       inkscape:collect="always"><stop
         style="stop-color:#ee2900;stop-opacity:1;"
         offset="0"
         id="stop4552" /><stop
         style="stop-color:#f47547;stop-opacity:0;"
         offset="1"
         id="stop4553" /></linearGradient><linearGradient
       id="linearGradient3623"
       inkscape:collect="always"><stop
         style="stop-color:#000000;stop-opacity:1;"
         offset="0"
         id="stop3622" /><stop
         style="stop-color:#2f2f2f;stop-opacity:1;"
         offset="1"
         id="stop3623" /></linearGradient><linearGradient
       id="linearGradient1968"
       inkscape:collect="always"><stop
         style="stop-color:#000000;stop-opacity:1;"
         offset="0"
         id="stop1967" /><stop
         style="stop-color:#2f2f2f;stop-opacity:1;"
         offset="0.62237167"
         id="stop1969" /><stop
         style="stop-color:#515151;stop-opacity:1;"
         offset="1"
         id="stop1968" /></linearGradient><linearGradient
       inkscape:collect="always"
       id="linearGradient3605"><stop
         style="stop-color:#000000;stop-opacity:1;"
         offset="0"
         id="stop3603" /><stop
         style="stop-color:#505050;stop-opacity:1;"
         offset="1"
         id="stop3604" /></linearGradient><linearGradient
       id="linearGradient3601"
       inkscape:collect="always"><stop
         style="stop-color:#262626;stop-opacity:1;"
         offset="0"
         id="stop3600" /><stop
         style="stop-color:#ffffff;stop-opacity:0;"
         offset="1"
         id="stop3601" /></linearGradient><linearGradient
       id="linearGradient2938"
       inkscape:collect="always"><stop
         style="stop-color:#c8c8c8;stop-opacity:1;"
         offset="0"
         id="stop2938" /><stop
         style="stop-color:#c8c8c8;stop-opacity:0;"
         offset="1"
         id="stop2939" /></linearGradient><linearGradient
       id="linearGradient2895"
       inkscape:collect="always"><stop
         style="stop-color:#fbcfbd;stop-opacity:1;"
         offset="0"
         id="stop2894" /><stop
         style="stop-color:#fbcfb1;stop-opacity:0;"
         offset="1"
         id="stop2895" /></linearGradient><linearGradient
       inkscape:collect="always"
       id="linearGradient2893"><stop
         style="stop-color:#ffe2dd;stop-opacity:1;"
         offset="0"
         id="stop2891" /><stop
         style="stop-color:#f4a77e;stop-opacity:1;"
         offset="0.30897456"
         id="stop2892" /><stop
         style="stop-color:#f46f40;stop-opacity:1;"
         offset="1"
         id="stop2893" /></linearGradient><linearGradient
       id="linearGradient2829"
       inkscape:collect="always"><stop
         style="stop-color:#ffffff;stop-opacity:0.30866027;"
         offset="0"
         id="stop2830" /><stop
         style="stop-color:#ff0000;stop-opacity:0;"
         offset="1"
         id="stop2831" /></linearGradient><linearGradient
       id="linearGradient2826"
       inkscape:collect="always"><stop
         style="stop-color:#444444;stop-opacity:1;"
         offset="0"
         id="stop2827" /><stop
         style="stop-color:#444444;stop-opacity:0;"
         offset="0.42919546"
         id="stop2829" /><stop
         style="stop-color:#444444;stop-opacity:0;"
         offset="1"
         id="stop2828" /></linearGradient><linearGradient
       inkscape:collect="always"
       id="linearGradient2825"><stop
         style="stop-color:#2f2f2f;stop-opacity:1;"
         offset="0"
         id="stop2826" /><stop
         style="stop-color:#020000;stop-opacity:1;"
         offset="0.46300328"
         id="stop2824" /><stop
         style="stop-color:#2f2f2f;stop-opacity:1;"
         offset="1"
         id="stop2825" /></linearGradient><linearGradient
       inkscape:collect="always"
       id="linearGradient2822"><stop
         style="stop-color:#020000;stop-opacity:1;"
         offset="0"
         id="stop2821" /><stop
         style="stop-color:#2e2d2d;stop-opacity:1;"
         offset="0.72771269"
         id="stop2823" /><stop
         style="stop-color:#515151;stop-opacity:1;"
         offset="1"
         id="stop2822" /></linearGradient><linearGradient
       id="linearGradient2641"
       inkscape:collect="always"><stop
         style="stop-color:#fc0e00;stop-opacity:1;"
         offset="0"
         id="stop2641" /><stop
         style="stop-color:#000e00;stop-opacity:1;"
         offset="1"
         id="stop2642" /></linearGradient><linearGradient
       id="linearGradient160"
       inkscape:collect="always"><stop
         style="stop-color:#000000;stop-opacity:1;"
         offset="0"
         id="stop160" /><stop
         style="stop-color:#2f2f2f;stop-opacity:1;"
         offset="1"
         id="stop161" /></linearGradient><linearGradient
       inkscape:collect="always"
       id="linearGradient13262"><stop
         style="stop-color:#f4a57c;stop-opacity:1;"
         offset="0"
         id="stop13258" /><stop
         style="stop-color:#f46f40;stop-opacity:1;"
         offset="1"
         id="stop13260" /></linearGradient><linearGradient
       inkscape:collect="always"
       id="linearGradient64309"><stop
         style="stop-color:#000000;stop-opacity:1;"
         offset="0"
         id="stop64305" /><stop
         style="stop-color:#2f2f2f;stop-opacity:1;"
         offset="1"
         id="stop64307" /></linearGradient><linearGradient
       inkscape:collect="always"
       id="linearGradient63493"><stop
         style="stop-color:#969696;stop-opacity:1;"
         offset="0"
         id="stop63489" /><stop
         style="stop-color:#c8c8c8;stop-opacity:1;"
         offset="1"
         id="stop63491" /></linearGradient><linearGradient
       inkscape:collect="always"
       id="linearGradient60576"><stop
         style="stop-color:#fc0000;stop-opacity:1;"
         offset="0"
         id="stop60572" /><stop
         style="stop-color:#fc6a00;stop-opacity:1;"
         offset="1"
         id="stop60574" /></linearGradient><linearGradient
       inkscape:collect="always"
       id="linearGradient59671"><stop
         style="stop-color:#f50000;stop-opacity:1;"
         offset="0"
         id="stop59667" /><stop
         style="stop-color:#fc6a00;stop-opacity:1;"
         offset="1"
         id="stop59669" /></linearGradient><linearGradient
       inkscape:collect="always"
       id="linearGradient55583"><stop
         style="stop-color:#f4a77e;stop-opacity:1;"
         offset="0"
         id="stop55579" /><stop
         style="stop-color:#f46f40;stop-opacity:1;"
         offset="1"
         id="stop55581" /></linearGradient><linearGradient
       inkscape:collect="always"
       id="linearGradient55368"><stop
         style="stop-color:#f4a77e;stop-opacity:1;"
         offset="0"
         id="stop55364" /><stop
         style="stop-color:#f46f40;stop-opacity:1;"
         offset="1"
         id="stop55366" /></linearGradient><linearGradient
       inkscape:collect="always"
       id="linearGradient50523"><stop
         style="stop-color:#fc0000;stop-opacity:1;"
         offset="0"
         id="stop50519" /><stop
         style="stop-color:#fc6a00;stop-opacity:1;"
         offset="1"
         id="stop50521" /></linearGradient><linearGradient
       inkscape:collect="always"
       id="linearGradient49756"><stop
         style="stop-color:#f50000;stop-opacity:1;"
         offset="0"
         id="stop49752" /><stop
         style="stop-color:#ff4f00;stop-opacity:1;"
         offset="1"
         id="stop49754" /></linearGradient><linearGradient
       id="linearGradient45844"
       inkscape:swatch="solid"><stop
         style="stop-color:#000000;stop-opacity:1;"
         offset="0"
         id="stop45842" /></linearGradient><linearGradient
       inkscape:collect="always"
       xlink:href="#linearGradient3623"
       id="linearGradient4002-5"
       x1="-191.87035"
       y1="121.7832"
       x2="-192.00931"
       y2="121.377"
       gradientUnits="userSpaceOnUse"
       gradientTransform="translate(-90.102307,-335.32752)" /><linearGradient
       inkscape:collect="always"
       xlink:href="#linearGradient3623"
       id="linearGradient2874-2"
       x1="-189.97205"
       y1="124.05125"
       x2="-190.11928"
       y2="123.68772"
       gradientUnits="userSpaceOnUse"
       gradientTransform="translate(-90.102307,-335.32752)" /><linearGradient
       inkscape:collect="always"
       xlink:href="#linearGradient55583"
       id="linearGradient3284"
       gradientUnits="userSpaceOnUse"
       gradientTransform="translate(356.81631,-12.144185)"
       x1="-20.630556"
       y1="117.89371"
       x2="-20.419716"
       y2="118.07069" /><linearGradient
       inkscape:collect="always"
       xlink:href="#linearGradient4552"
       id="linearGradient3286"
       gradientUnits="userSpaceOnUse"
       gradientTransform="translate(327.3281,-115.8416)"
       x1="9.3259268"
       y1="221.99489"
       x2="8.9228525"
       y2="221.86673" /><linearGradient
       inkscape:collect="always"
       xlink:href="#linearGradient2893"
       id="linearGradient3288"
       gradientUnits="userSpaceOnUse"
       gradientTransform="translate(341.05224,-11.594545)"
       x1="-3.6562235"
       y1="121.28282"
       x2="-3.4543402"
       y2="121.10202" /><linearGradient
       inkscape:collect="always"
       xlink:href="#linearGradient3605"
       id="linearGradient3289"
       gradientUnits="userSpaceOnUse"
       gradientTransform="translate(356.81631,-12.144185)"
       x1="-19.915354"
       y1="120.29072"
       x2="-20.484909"
       y2="119.84619" /><linearGradient
       inkscape:collect="always"
       xlink:href="#linearGradient4552"
       id="linearGradient3290"
       gradientUnits="userSpaceOnUse"
       gradientTransform="translate(374.37295,-115.91335)"
       x1="-36.989243"
       y1="220.38757"
       x2="-36.520023"
       y2="220.25941" /><linearGradient
       inkscape:collect="always"
       xlink:href="#linearGradient2822"
       id="linearGradient3291"
       gradientUnits="userSpaceOnUse"
       gradientTransform="translate(337.11996,-13.718555)"
       x1="-0.044936303"
       y1="119.70629"
       x2="1.6198946"
       y2="119.85477" /><linearGradient
       inkscape:collect="always"
       xlink:href="#linearGradient55583"
       id="linearGradient3292"
       gradientUnits="userSpaceOnUse"
       gradientTransform="translate(341.44471,-11.446385)"
       x1="-3.7735488"
       y1="117.32888"
       x2="-3.4812229"
       y2="117.60952" /><linearGradient
       inkscape:collect="always"
       xlink:href="#linearGradient160"
       id="linearGradient3293"
       gradientUnits="userSpaceOnUse"
       gradientTransform="matrix(0.75898007,0.54458362,-0.54458362,0.75898007,329.6697,-153.55138)"
       x1="169.88919"
       y1="226.16425"
       x2="169.76857"
       y2="226.11189" /><linearGradient
       inkscape:collect="always"
       xlink:href="#linearGradient2895"
       id="linearGradient3294"
       gradientUnits="userSpaceOnUse"
       gradientTransform="translate(341.05224,-11.594545)"
       x1="-5.0082173"
       y1="120.09077"
       x2="-4.7495399"
       y2="120.19389" /><linearGradient
       inkscape:collect="always"
       xlink:href="#linearGradient4552"
       id="linearGradient3295"
       gradientUnits="userSpaceOnUse"
       gradientTransform="translate(341.05467,-11.596945)"
       x1="-4.6752925"
       y1="120.92687"
       x2="-4.8898997"
       y2="120.80647" /><linearGradient
       inkscape:collect="always"
       xlink:href="#linearGradient160"
       id="linearGradient3296"
       gradientUnits="userSpaceOnUse"
       gradientTransform="matrix(0.85343933,0.37982009,-0.37982009,0.85343933,397.95561,12.478684)"
       x1="-18.416622"
       y1="123.19326"
       x2="-18.524168"
       y2="123.11759" /><linearGradient
       inkscape:collect="always"
       xlink:href="#linearGradient63493"
       id="linearGradient3297"
       gradientUnits="userSpaceOnUse"
       gradientTransform="matrix(-1.1534191,-1.5032843,-1.5032843,1.1534191,412.4616,-18.505221)"
       x1="-28.067972"
       y1="72.598732"
       x2="-28.136909"
       y2="72.507347" /><linearGradient
       inkscape:collect="always"
       xlink:href="#linearGradient63493"
       id="linearGradient3298"
       gradientUnits="userSpaceOnUse"
       gradientTransform="matrix(-1.1534191,-1.5032843,-1.5032843,1.1534191,412.4616,-18.505221)"
       x1="-29.368664"
       y1="74.156448"
       x2="-29.236666"
       y2="74.07579" /><linearGradient
       inkscape:collect="always"
       xlink:href="#linearGradient63493"
       id="linearGradient3300"
       gradientUnits="userSpaceOnUse"
       gradientTransform="matrix(-1.1534191,-1.5032843,-1.5032843,1.1534191,412.4616,-18.505221)"
       x1="-29.533497"
       y1="73.616333"
       x2="-29.586927"
       y2="73.53952" /><linearGradient
       inkscape:collect="always"
       xlink:href="#linearGradient63493"
       id="linearGradient3302"
       gradientUnits="userSpaceOnUse"
       gradientTransform="translate(327.3281,-115.8416)"
       x1="7.529655"
       y1="227.01929"
       x2="7.4986491"
       y2="226.72783" /><linearGradient
       inkscape:collect="always"
       xlink:href="#linearGradient64309"
       id="linearGradient3303"
       gradientUnits="userSpaceOnUse"
       gradientTransform="matrix(0.55585109,-0.87039467,0.87039467,0.55585109,244.75375,23.435564)"
       x1="-23.244501"
       y1="119.47163"
       x2="-23.155828"
       y2="119.61315" /><linearGradient
       inkscape:collect="always"
       xlink:href="#linearGradient59671"
       id="linearGradient3304"
       gradientUnits="userSpaceOnUse"
       gradientTransform="matrix(0.6853728,-0.85307271,0.85307271,0.6853728,249.45543,7.9062145)"
       x1="-20.610971"
       y1="119.26564"
       x2="-20.515135"
       y2="119.21529" /><linearGradient
       inkscape:collect="always"
       xlink:href="#linearGradient60576"
       id="linearGradient3306"
       gradientUnits="userSpaceOnUse"
       gradientTransform="matrix(0.62352272,-0.77876813,0.77876813,0.62352272,256.90799,16.758174)"
       x1="-21.739157"
       y1="117.41892"
       x2="-21.648075"
       y2="117.35389" /><linearGradient
       inkscape:collect="always"
       xlink:href="#linearGradient13262"
       id="linearGradient3308"
       gradientUnits="userSpaceOnUse"
       gradientTransform="rotate(6.5815237,263.50572,3214.8715)"
       x1="-19.816319"
       y1="118.82632"
       x2="-19.605999"
       y2="119.04243" /><linearGradient
       inkscape:collect="always"
       xlink:href="#linearGradient13262"
       id="linearGradient3310"
       gradientUnits="userSpaceOnUse"
       gradientTransform="rotate(6.5815237,264.61912,3201.9529)"
       x1="-19.828659"
       y1="118.80862"
       x2="-19.605999"
       y2="119.04243" /><linearGradient
       inkscape:collect="always"
       xlink:href="#linearGradient2825"
       id="linearGradient3312"
       gradientUnits="userSpaceOnUse"
       gradientTransform="translate(341.05224,-11.594545)"
       x1="-2.41889"
       y1="116.85781"
       x2="-3.2836998"
       y2="116.59983" /><linearGradient
       inkscape:collect="always"
       xlink:href="#linearGradient2641"
       id="linearGradient3314"
       gradientUnits="userSpaceOnUse"
       gradientTransform="translate(375.71399,-12.198095)"
       x1="-39.021812"
       y1="115.69682"
       x2="-38.641582"
       y2="115.69682" /><linearGradient
       inkscape:collect="always"
       xlink:href="#linearGradient55368"
       id="linearGradient3316"
       gradientUnits="userSpaceOnUse"
       gradientTransform="translate(375.71399,-12.198095)"
       x1="-37.887321"
       y1="115.70332"
       x2="-38.243961"
       y2="116.55399" /><linearGradient
       inkscape:collect="always"
       xlink:href="#linearGradient49756"
       id="linearGradient3318"
       gradientUnits="userSpaceOnUse"
       gradientTransform="translate(356.82507,-12.192235)"
       x1="-19.885185"
       y1="115.24645"
       x2="-18.733461"
       y2="115.24645" /><linearGradient
       inkscape:collect="always"
       xlink:href="#linearGradient50523"
       id="linearGradient3320"
       gradientUnits="userSpaceOnUse"
       gradientTransform="translate(356.82507,-12.192235)"
       x1="-20.133801"
       y1="115.66431"
       x2="-19.019243"
       y2="115.66431" /><linearGradient
       inkscape:collect="always"
       xlink:href="#linearGradient2826"
       id="linearGradient3321"
       gradientUnits="userSpaceOnUse"
       gradientTransform="translate(341.05224,-11.594545)"
       x1="-4.2689118"
       y1="117.49937"
       x2="-3.5319054"
       y2="117.43875" /><linearGradient
       inkscape:collect="always"
       xlink:href="#linearGradient2829"
       id="linearGradient3322"
       gradientUnits="userSpaceOnUse"
       gradientTransform="translate(341.05224,-11.594545)"
       x1="-3.2506504"
       y1="117.68571"
       x2="-3.1201954"
       y2="117.43311" /><linearGradient
       inkscape:collect="always"
       xlink:href="#linearGradient2829"
       id="linearGradient3323"
       gradientUnits="userSpaceOnUse"
       gradientTransform="rotate(16.694711,206.40908,1268.4624)"
       x1="-3.2506504"
       y1="117.68571"
       x2="-3.1201954"
       y2="117.43311" /><linearGradient
       inkscape:collect="always"
       xlink:href="#linearGradient3601"
       id="linearGradient3324"
       gradientUnits="userSpaceOnUse"
       gradientTransform="translate(341.05224,-11.594545)"
       x1="-3.981174"
       y1="119.84208"
       x2="-3.3923211"
       y2="120.05533" /><linearGradient
       inkscape:collect="always"
       xlink:href="#linearGradient2938"
       id="linearGradient3325"
       gradientUnits="userSpaceOnUse"
       gradientTransform="translate(327.3281,-115.8416)"
       x1="11.065674"
       y1="224.33505"
       x2="10.598401"
       y2="224.05357" /><linearGradient
       inkscape:collect="always"
       xlink:href="#linearGradient1968"
       id="linearGradient3326"
       gradientUnits="userSpaceOnUse"
       gradientTransform="rotate(0.09226223,72108.994,203484.54)"
       x1="6.8744588"
       y1="227.13672"
       x2="6.87082"
       y2="226.6924" /><linearGradient
       inkscape:collect="always"
       xlink:href="#linearGradient160"
       id="linearGradient3327"
       gradientUnits="userSpaceOnUse"
       gradientTransform="matrix(0.92958783,0.09213321,-0.09213321,0.92958783,201.36316,-114.85772)"
       x1="170.01953"
       y1="226.18333"
       x2="169.78227"
       y2="226.07788" /><linearGradient
       inkscape:collect="always"
       xlink:href="#linearGradient4552"
       id="linearGradient3328"
       gradientUnits="userSpaceOnUse"
       gradientTransform="translate(327.3281,-115.8416)"
       x1="11.022115"
       y1="225.79169"
       x2="10.868354"
       y2="225.88031" /><linearGradient
       inkscape:collect="always"
       xlink:href="#linearGradient160"
       id="linearGradient3329"
       gradientUnits="userSpaceOnUse"
       gradientTransform="matrix(0.92901019,-0.09778582,0.09778582,0.92901019,343.51554,-5.2144151)"
       x1="-18.292839"
       y1="123.2383"
       x2="-18.503868"
       y2="123.08704" /><linearGradient
       inkscape:collect="always"
       xlink:href="#linearGradient55368"
       id="linearGradient3330"
       gradientUnits="userSpaceOnUse"
       gradientTransform="translate(374.35258,-115.91941)"
       x1="-36.525917"
       y1="219.42464"
       x2="-36.882557"
       y2="220.2753" /><linearGradient
       inkscape:collect="always"
       xlink:href="#linearGradient4552"
       id="linearGradient3331"
       gradientUnits="userSpaceOnUse"
       gradientTransform="translate(327.3281,-115.8416)"
       x1="10.945812"
       y1="222.09999"
       x2="10.792505"
       y2="221.97464" /><marker
       style="overflow:visible"
       id="Triangle-3-7"
       refX="0"
       refY="0"
       orient="auto-start-reverse"
       inkscape:stockid="Triangle arrow"
       markerWidth="0.5"
       markerHeight="0.5"
       viewBox="0 0 1 1"
       inkscape:isstock="true"
       inkscape:collect="always"
       preserveAspectRatio="xMidYMid"><path
         transform="scale(0.5)"
         style="fill:context-stroke;fill-rule:evenodd;stroke:context-stroke;stroke-width:1pt"
         d="M 5.77,0 -2.88,5 V -5 Z"
         id="path135-4-3" /></marker></defs><g
     inkscape:label="Layer 1"
     inkscape:groupmode="layer"
     id="layer1"
     transform="translate(-332.69227,-102.67107)"><g
       id="tailwhip"
       inkscape:export-filename="pngs/pngs/pngs/tailwhip.png"
       inkscape:export-xdpi="50000"
       inkscape:export-ydpi="50000"><path
         style="fill:none;fill-opacity:0.631373;stroke:#ff8f00;stroke-width:0.2;stroke-linecap:square;stroke-miterlimit:63.1;stroke-dasharray:none;stroke-opacity:1;marker-start:url(#marker36);marker-end:url(#Triangle-3-7)"
         id="path5860-2-1"
         sodipodi:type="arc"
         sodipodi:cx="-57.06427"
         sodipodi:cy="-349.29474"
         sodipodi:rx="0.64428085"
         sodipodi:ry="0.76158744"
         sodipodi:start="2.6082306"
         sodipodi:end="4.7219426"
         sodipodi:arc-type="arc"
         d="m -57.619062,-348.90752 a 0.64428085,0.76158744 0 0 1 -0.0032,-0.76794 0.64428085,0.76158744 0 0 1 0.564152,-0.38083"
         transform="matrix(0.15706345,-0.98758851,-0.98758851,-0.15706345,0,0)"
         sodipodi:open="true" /><path
         style="fill:#000000;fill-opacity:1;stroke:none;stroke-width:0.1;stroke-miterlimit:13.8;stroke-dasharray:none;stroke-opacity:1"
         d="m 337.19294,108.85476 c 0,0 -0.0148,0.0347 0.0264,0.0539 0.0412,0.0192 0.7373,0.37985 0.7373,0.37985 0,0 0.0307,0.0231 0.0428,0.006 0.0121,-0.0168 0.0436,-0.21503 0.0436,-0.21503 0,0 -0.53227,-0.30489 -0.54674,-0.30489 -0.0145,0 -0.30333,0.0798 -0.30333,0.0798 z"
         id="path2821-2-7" /><path
         id="path5336-5-0"
         style="fill:url(#linearGradient3284);fill-opacity:1;stroke-width:0.485436"
         d="m 337.51775,102.90644 c -0.0111,-1.4e-4 -0.0235,2.6e-4 -0.0372,5.1e-4 v 5.2e-4 c -0.16467,0.003 -0.49749,0.0423 -0.52245,0.31213 -0.0111,0.29942 0.24953,0.61294 0.32295,0.89644 0.0128,0.005 -0.0459,0.13753 0.0398,0.15823 -0.15729,0.0512 -0.19886,0.0878 -0.38099,0.11843 -0.14606,0.0653 -0.28207,0.14816 -0.40425,0.35252 -0.0931,0.15578 0.0117,0.015 -0.10531,0.20714 0,0 -0.0611,0.23182 -0.32706,0.9722 -0.37283,0.21345 -0.26993,0.34585 -0.97457,0.79552 -0.1439,0.0918 0.0502,0.19266 0.28514,0.11256 0.63101,-0.21512 0.65395,-0.21989 1.07245,-0.51294 0.23797,-0.16664 0.4147,-0.70285 0.4147,-0.70285 0.11186,-0.0147 0.0967,-0.0973 -0.0177,-0.067 0.16014,0.55409 -0.0544,1.03851 0.14403,1.68784 -0.46656,0.53128 -0.84398,0.98139 -1.09474,1.45533 -0.0959,0.21045 -0.22117,0.74162 -0.26685,0.94814 -0.0667,0.3248 -0.0878,0.56124 -0.10977,0.76547 0.0149,0.11576 0.16082,0.12842 0.29337,0.0999 0.17872,-0.26878 0.44336,-0.7764 0.54361,-1.23379 0.27214,-0.47851 0.68897,-0.69009 1.08292,-1.06811 0,0 -0.35973,0.67254 -0.27027,1.11518 0.0544,0.26932 0.32852,0.53148 0.57465,0.80098 0.38294,0.41936 0.632,0.63614 0.632,0.63614 0,0 0.003,0.001 0.008,0.005 0.005,0.004 0.0125,0.007 0.0217,0.0109 0.005,0.001 0.01,0.004 0.015,0.007 0.005,10e-4 0.0117,0.004 0.0181,0.005 0.006,0.001 0.0131,0.004 0.0202,0.005 0.007,0.001 0.014,6.2e-4 0.0217,0.004 0.008,5.7e-4 0.0165,4.6e-4 0.0248,0 0.008,-4.1e-4 0.0164,-6.2e-4 0.0253,-0.004 0.009,-10e-4 0.0182,-0.004 0.0274,-0.007 0.005,-0.001 0.009,-0.004 0.0134,-0.005 0.005,-10e-4 0.01,-0.004 0.0145,-0.007 0.005,-0.001 0.009,-0.005 0.014,-0.007 0.005,-0.004 0.0105,-0.005 0.0155,-0.009 0.005,-0.004 0.01,-0.007 0.0145,-0.0109 0.005,-0.004 0.01,-0.007 0.015,-0.0129 0.005,-0.004 0.01,-0.009 0.0145,-0.0145 0.005,-0.005 0.01,-0.009 0.015,-0.015 0.005,-0.005 0.01,-0.0107 0.0145,-0.0181 0.005,-0.005 0.01,-0.013 0.015,-0.0202 -0.0917,-0.1732 -0.23457,-0.32405 -0.38964,-0.71314 -0.14834,-0.37218 -0.41496,-0.62942 -0.41496,-0.62942 0,0 0.17702,-0.26414 0.25321,-0.40359 0.14203,-0.2599 0.31958,-0.51378 0.37827,-0.80408 0.0778,-0.38493 -0.0549,-0.71293 -0.0496,-1.17668 0.0105,-0.38571 0.14317,-1.0412 0.16485,-1.57561 0.0217,-0.70353 -0.18859,-0.80672 -0.40071,-0.91044 -0.10338,-0.048 -0.0708,-0.0281 -0.15016,-0.058 l -5.2e-4,-5.1e-4 c -0.0557,-0.0335 -0.11057,-0.0751 -0.14004,-0.12609 -0.0438,-0.0758 -0.0447,-0.20317 -0.0269,-0.26097 0.32823,-1.06358 -0.39222,-1.09606 -0.39222,-1.09606 0,0 -0.0204,-0.002 -0.0537,-0.003 z"
         sodipodi:nodetypes="cccccccsscsssccccccccccccsccscccccccccccccccsccscccccscccc" /><path
         style="opacity:0.332052;fill:url(#linearGradient3286);fill-opacity:1;stroke:none;stroke-width:0;stroke-linecap:square;stroke-miterlimit:63.1;stroke-dasharray:none;stroke-opacity:1"
         d="m 336.84203,105.77254 c -0.12327,0.30565 -0.23482,0.4297 -0.29271,0.49349 -0.0533,0.0588 -0.32364,0.23049 -0.32364,0.23049 l -0.23724,-0.0607 0.48783,-0.98956 0.46922,0.0189 -0.0445,0.1517 c 0,0 -0.0382,0.10422 -0.0589,0.15568 z"
         id="path4573-6"
         sodipodi:nodetypes="sscccccs" /><path
         style="opacity:0.785745;fill:url(#linearGradient3288);fill-opacity:1;stroke:none;stroke-width:0.0499999;stroke-miterlimit:13.8;stroke-dasharray:none;stroke-opacity:1"
         d="m 337.21937,108.90866 c 0,0 -0.029,0.16311 -0.029,0.23327 0,0.0702 -0.003,0.20918 0.0819,0.35757 0.0643,0.11272 0.0483,0.0845 0.12374,0.18877 0.0806,0.11153 0.17375,0.20365 0.2664,0.30519 l 0.15444,0.16723 0.20429,0.21641 0.17449,0.17891 0.18459,0.17301 0.11133,0.0995 0.23565,-0.093 0.0127,-0.0723 -0.097,-0.15948 c -0.42052,-0.65449 -0.21579,-0.60626 -0.65228,-1.12444 l -0.0553,-0.0586 0.0395,-0.0596 0.0682,-0.22334 -0.59989,-0.25073 -0.19889,0.0139 z"
         id="path2842-7-9"
         sodipodi:nodetypes="cssscccccccccccccccc" /><path
         id="path5348-49-2"
         style="fill:url(#linearGradient3289);fill-opacity:1;stroke:none;stroke-width:0.485436"
         d="m 337.04176,107.18451 c 0,0 -0.015,-0.0161 -0.0281,-0.006 -0.0263,0.07 -0.19791,0.21829 -0.24154,0.2663 -0.0871,0.0958 -0.27339,0.30995 -0.34952,0.39911 -0.12149,0.13137 -0.26978,0.39398 -0.25974,0.43598 0.0278,0.21176 0.53209,0.56839 0.6382,0.60255 l 0.002,-5.2e-4 c 0.0511,0.0103 0.14054,-0.12651 0.26355,-0.25889 0.0315,-0.034 0.14194,-0.13882 0.20824,-0.20994 0.0902,-0.0823 0.1397,-0.14258 0.19742,-0.20244 -0.0783,0.11169 -0.20601,0.39368 -0.23129,0.47414 -0.0128,0.0406 -0.0533,0.16098 -0.0481,0.16996 0,0 0.59158,0.0102 0.80651,0.44007 0.14347,-0.28661 0.29861,-0.54163 0.44045,-0.82925 0,0 0.0814,-0.15945 0.11042,-0.28304 0.0905,-0.33142 0.0199,-0.6697 -0.0217,-0.97492 l -0.83657,0.21251 z"
         sodipodi:nodetypes="ccccccccccsccccccc" /><path
         style="opacity:0.848922;fill:url(#linearGradient3290);fill-opacity:1;stroke-width:0.025;stroke-linecap:square;stroke-miterlimit:63.1"
         d="m 337.21565,104.28055 c 0,0 0.80653,-0.49286 0.76281,-0.32217 0,0 -0.0862,0.24646 0.0808,0.38639 0.23932,0.20043 -0.70798,0.34501 -0.70798,0.34501 0,0 -0.22655,-0.39793 -0.15845,-0.44747 z"
         id="path3984-2-7-1"
         sodipodi:nodetypes="cssccc" /><path
         style="fill:url(#linearGradient3291);fill-opacity:1;stroke:none;stroke-width:3.96499;stroke-miterlimit:12.9"
         d="m 336.83725,105.55499 c 0,0 0.008,0.53721 0.0305,0.72525 0.0223,0.18805 0.0209,0.20627 0.0209,0.20627 0,0 0.0293,0.61912 0.0284,0.65915 -0.004,0.0393 0.0948,0.04 0.0948,0.04 0,0 0.18309,0.19733 0.40298,0.19757 0.0475,5e-5 0.23173,0.0435 0.27936,0.0402 0.17274,-0.0116 0.31884,-0.0272 0.38121,-0.0248 0.0796,0.003 0.26131,-0.0461 0.35813,-0.0976 0.0968,-0.0515 0.0949,-0.0912 0.0949,-0.0912 0,0 0.0388,-0.0248 0.0278,-0.11031 -0.0119,-0.076 -0.0206,-0.12197 -0.01,-0.22361 0.006,-0.0598 -0.007,-0.14802 -0.005,-0.18682 0.01,-0.14354 0.0683,-0.56525 0.0683,-0.56525 l 0.0645,-0.56451 c 0,0 0.0972,-0.813 -0.11892,-0.96317 -0.16842,-0.11703 -0.50049,-0.25656 -0.50049,-0.25656 0,0 -0.46378,0.51192 -0.86897,-0.0246 -0.4557,0.11646 -0.64392,0.21101 -0.88021,0.95381 -0.0413,0.12284 0.36043,0.27577 0.53082,0.28621 z"
         id="path5372-9-7"
         sodipodi:nodetypes="cccccsscsccssccscccc" /><path
         style="fill:url(#linearGradient3292);fill-opacity:1;stroke:none;stroke-width:3.96499;stroke-miterlimit:12.9"
         d="m 338.52474,105.56598 c 0,0 -0.14607,0.5718 -0.25082,0.69241 -0.36055,0.41511 -0.5558,0.44839 -1.22815,0.73687 l -0.40478,-0.0769 c 0.55423,-0.40883 0.7272,-0.61031 1.10061,-0.84526 0.0205,-0.28981 0.008,-0.49564 0.0905,-0.73825 0.0633,-0.18684 0.15514,-0.4295 0.15514,-0.4295 l 0.22765,-0.33236 c 0,0 -0.0333,-0.0503 0.20296,0.0452 0.0223,0.009 0.10691,0.94801 0.10691,0.94801 z"
         id="path5374-45-7"
         sodipodi:nodetypes="sscccsccsss" /><path
         style="fill:url(#linearGradient3293);fill-opacity:1;stroke-width:0.0934146;stroke-linecap:square;stroke-miterlimit:63.1"
         d="m 335.20436,110.61061 c 0,0 -0.0495,0.0508 -0.0532,0.11128 -0.002,0.0433 0.0629,0.1197 0.0629,0.1197 0,0 0.028,0.0429 0.0914,0.0714 0.062,0.03 0.31497,-0.0919 0.35973,-0.11202 0.0446,-0.0201 0.12797,-0.0541 0.14784,-0.068 0.0197,-0.0139 0.0761,-0.0599 0.0711,-0.2366 -0.002,-0.11342 -0.42971,0.0992 -0.42971,0.0992 z"
         id="path3148-8-2-3-6-0-9-1-6-97"
         sodipodi:nodetypes="ccccscscc" /><circle
         style="fill:url(#linearGradient4002-5);fill-opacity:1;stroke-width:0.436666"
         id="circle5358-57-6"
         cx="-281.96976"
         cy="-213.78532"
         r="0.27451432"
         transform="matrix(-0.56682321,-0.82383945,-0.82383945,0.56682321,0,0)" /><path
         style="fill:url(#linearGradient3294);fill-opacity:1;stroke:none;stroke-width:0.0499999;stroke-miterlimit:13.8;stroke-dasharray:none;stroke-opacity:1"
         d="m 336.16827,108.30402 c -0.0687,0.10406 -0.24703,0.36316 -0.24703,0.36316 0,0 -0.15683,0.50275 -0.25548,0.97398 -0.10178,0.48617 -0.10178,0.78921 -0.10178,0.78921 l 0.008,0.0635 0.10344,0.0959 0.17477,-0.084 0.25681,-0.45367 0.12809,-0.28525 0.0977,-0.26969 0.0604,-0.22446 0.0609,-0.0993 0.0817,-0.11364 0.0966,-0.11432 0.0605,-0.0638 0.0328,-0.0325 c 0,0 -0.43015,-0.26105 -0.55714,-0.54511 z"
         id="path2845-0-27"
         sodipodi:nodetypes="ccsccccccccccccccc" /><path
         style="opacity:0.441526;fill:url(#linearGradient3295);fill-opacity:1;stroke:none;stroke-width:0.0499999;stroke-miterlimit:13.8;stroke-dasharray:none;stroke-opacity:1"
         d="m 336.17069,108.30162 c -0.0687,0.10406 -0.24703,0.36316 -0.24703,0.36316 0,0 -0.13777,0.42025 -0.25548,0.97398 -0.1216,0.57199 -0.10178,0.78921 -0.10178,0.78921 l 0.008,0.0635 0.10345,0.0959 0.17476,-0.084 0.25681,-0.45367 0.12809,-0.28525 0.0977,-0.26969 0.0604,-0.22446 0.0609,-0.0993 0.0817,-0.11364 0.0966,-0.11432 0.0605,-0.0638 0.0328,-0.0325 c 0,0 -0.43015,-0.26105 -0.55713,-0.54511 z"
         id="path445-1"
         sodipodi:nodetypes="ccsccccccccccccccc" /><path
         id="path22517-4-81-45-3-73-7-3-1-3-7-2-5-9-7-1-6-3-4-4-5"
         style="fill:url(#linearGradient3296);fill-opacity:1;stroke-width:0.453465"
         d="m 335.88096,110.41505 c -0.12613,0.0739 -0.2453,0.0625 -0.32135,-0.0352 0,0 -0.28435,0.15961 -0.35527,0.23123 -0.0892,0.0901 0.081,0.22306 0.081,0.22306 0.0599,0.0556 0.22905,-0.0267 0.37187,-0.0886 0.10421,-0.0445 0.22283,-0.0713 0.22631,-0.24925 7.3e-4,-0.0243 -0.003,-0.0569 -0.003,-0.081 z"
         sodipodi:nodetypes="ccccccc" /><path
         style="fill:url(#linearGradient3297);fill-opacity:1;stroke-width:0.445092"
         d="m 336.067,109.91306 -0.046,-2.83367 1.26269,0.15983 c 0.0563,0.007 0.0942,-0.1567 0.007,-0.16376 -0.0874,-0.007 -2.24204,-0.32219 -2.68441,-0.34817 -0.0497,-0.003 -0.0737,0.13679 0.0117,0.14884 0.20673,0.0292 1.11256,0.15631 1.11256,0.15631 l 0.09,2.89063 z"
         id="path5360-81-88"
         sodipodi:nodetypes="ccszssccc" /><path
         id="path5362-9-4"
         style="fill:url(#linearGradient3298);fill-opacity:1;stroke-width:0.50133"
         d="m 335.78475,110.27198 0.006,0.0858 c -0.25977,0.16582 -0.53236,0.32888 -0.8217,0.43144 l -1.65198,-0.0305 c -0.23033,-0.005 -0.42287,0.004 -0.26148,0.18759 l 0.008,0.0708 c -0.004,-8e-5 -0.0191,-5.1e-4 -0.0191,-5.1e-4 0,0 -0.0326,0.21644 0.0413,0.21807 0.62479,0.0138 1.71729,0.0305 2.01268,0.0336 0.0983,-0.001 0.70987,-0.5117 0.72877,-0.52604 z"
         sodipodi:nodetypes="cccccccsccc" /><path
         id="path2838-9-5"
         style="fill:url(#linearGradient3300);fill-opacity:1;stroke-width:0.50133"
         d="m 335.91187,109.84513 c -0.0649,0.002 -0.12587,0.0252 -0.12609,0.0734 l -10e-4,0.35347 0.0186,0.45165 c 2.7e-4,-2.1e-4 0,0 0,0 0.002,0.13193 0.0118,0.17825 0.0196,0.2684 0.0248,0.1087 0.0805,0.23961 0.13901,0.23461 0.0593,-0.005 0.10456,-0.14714 0.12248,-0.25941 5.6e-4,-0.005 0.005,-0.0472 0.008,-0.0827 1.3e-4,-0.005 8e-5,-0.0105 0,-0.0145 -6e-5,-0.002 1e-4,-0.003 0,-0.005 -0.007,-0.22675 -0.0287,-0.89638 -0.0258,-0.95188 3.1e-4,-0.007 -7.3e-4,-0.0121 -0.004,-0.0181 h -5.2e-4 c -0.0172,-0.0336 -0.086,-0.0519 -0.1509,-0.0496 z"
         sodipodi:nodetypes="scccccccccccccss" /><circle
         style="fill:url(#linearGradient2874-2);fill-opacity:1;stroke-width:0.436666"
         id="circle5364-7-6"
         cx="-280.18204"
         cy="-211.39204"
         r="0.27451432"
         transform="matrix(-0.56682321,-0.82383945,-0.82383945,0.56682321,0,0)" /><path
         style="fill:url(#linearGradient3302);fill-opacity:1;stroke-width:0.273246"
         d="m 333.30181,111.03011 -0.39323,-0.002 c 0,0 0.12269,0.19951 0.17702,0.20613 0.0608,0.007 0.21134,0.005 0.21134,0.005 z"
         id="path5366-82-5"
         sodipodi:nodetypes="ccscc" /><path
         style="fill:url(#linearGradient3303);fill-opacity:1;stroke-width:0.501331"
         d="m 336.07652,110.272 c -0.0959,0.0246 -0.18199,0.0301 -0.29305,10e-5 0,-0.15817 10e-4,-0.36569 10e-4,-0.36569 0.0322,-0.0898 0.28062,-0.0808 0.28204,0.007 z"
         id="path5370-53-6"
         sodipodi:nodetypes="ccccc" /><path
         style="fill:url(#linearGradient3304);fill-opacity:1;stroke-width:0.531208"
         d="m 336.44193,107.13299 0.0154,-0.17405 c 0,0 0.4074,0.0584 0.84986,0.12021 0.0613,0.009 0.0721,0.16914 -0.0234,0.16006 -0.26294,-0.0258 -0.84197,-0.10625 -0.84197,-0.10625 z"
         id="path5378-49-8"
         sodipodi:nodetypes="ccsscc" /><path
         style="fill:url(#linearGradient3306);fill-opacity:1;stroke-width:0.484284"
         d="m 335.1972,106.95503 c 0,0 -0.0503,-0.0957 0.0169,-0.16134 -0.31842,-0.0395 -0.25477,-0.0347 -0.60792,-0.0664 -0.0544,-0.005 -0.0741,0.13641 0.0117,0.14886 0.28053,0.0407 0.57939,0.0789 0.57939,0.0789 z"
         id="path5380-0-4"
         sodipodi:nodetypes="ccsscc" /><path
         style="fill:url(#linearGradient3308);fill-opacity:1;stroke-width:0.635999"
         d="m 337.04577,106.99526 c 0,0 0.0874,-0.0371 0.14571,-0.0615 0.0667,-0.028 0.0691,-0.15571 0.0177,-0.24361 -0.0564,-0.0798 -0.1177,-0.0989 -0.15302,-0.0816 -0.0422,0.0207 -0.12774,0.10281 -0.20054,0.14502 -0.0425,0.0247 -0.10984,0.0445 -0.16752,0.0661 -0.0596,0.0223 -0.0879,0.0242 -0.14751,0.0545 -0.068,0.0345 -0.10406,0.10594 -0.1139,0.15627 -0.007,0.0445 -0.0202,0.0846 0.0312,0.13564 0.0358,0.0355 0.18598,0.044 0.22562,0.0466 0.0496,0.003 0.12178,0.0156 0.21322,-0.0679 0.0336,-0.0303 0.0561,-0.0632 0.0871,-0.0944 0.0413,-0.0416 0.062,-0.0551 0.062,-0.0551 z"
         id="path5384-2-8"
         sodipodi:nodetypes="cscsssscsssscc" /><path
         style="fill:url(#linearGradient3310);fill-opacity:1;stroke-width:0.635999"
         d="m 335.57241,106.7825 c 0,0 0.0874,-0.0371 0.14572,-0.0615 0.0667,-0.028 0.0691,-0.15571 0.0177,-0.24361 -0.0564,-0.0798 -0.0976,-0.14318 -0.12525,-0.11523 -0.0364,0.0368 -0.0938,0.0963 -0.19616,0.16402 -0.0164,0.0108 -0.0988,0.0694 -0.13244,0.0924 -0.0457,0.0312 -0.14123,0.0418 -0.21392,0.0924 -0.0513,0.0356 -0.0732,0.0726 -0.0923,0.12436 -0.0131,0.0429 0.001,0.1427 0.0696,0.16623 0.0472,0.0162 0.20908,0.0324 0.25164,0.0265 0.0492,-0.007 0.0501,-0.004 0.11808,-0.0753 0.0312,-0.0326 0.0644,-0.0839 0.0954,-0.11507 0.0413,-0.0416 0.062,-0.0551 0.062,-0.0551 z"
         id="path5384-38-0-8"
         sodipodi:nodetypes="cscsssscsssscc" /><path
         style="fill:url(#linearGradient3312);fill-opacity:1;stroke-width:0.665001;stroke-linecap:round"
         d="m 337.69483,105.56221 c 0,0 0.39998,0.12607 0.85359,0.0774 0.0407,-0.15356 0.0692,-0.27403 0.0849,-0.37635 0.036,-0.23364 0.049,-0.37389 0.049,-0.37389 -0.0134,-0.31839 -0.24301,-0.39008 -0.46153,-0.41032 -0.466,-0.0547 -0.52602,1.0832 -0.52602,1.0832 z"
         id="path479-1-3"
         sodipodi:nodetypes="ccscccc" /><path
         style="fill:url(#linearGradient3314);fill-opacity:1;stroke:none;stroke-width:1;stroke-miterlimit:13.8"
         d="m 336.7012,103.60862 c 0,0 0.0463,0.0768 0.26231,-0.13654 0.27802,-0.19058 -0.0641,-0.0407 -0.0641,-0.0407 l -0.16385,0.062 -0.0434,0.0654 z"
         id="path2640-6-8-9-8"
         sodipodi:nodetypes="cccccc" /><path
         style="fill:url(#linearGradient3316);fill-opacity:1;stroke:none;stroke-width:1;stroke-miterlimit:13.8"
         d="m 337.3072,104.3914 c 0.15644,0.0102 0.56123,-0.036 0.65651,-0.38668 0.0364,-0.13404 0.0408,-0.14155 0.0617,-0.25009 0.0453,-0.23575 0.0241,-0.41983 0.0241,-0.41983 l -1.10961,0.004 5.9e-4,0.31667 c -5.9e-4,0.1406 0.10369,0.72892 0.36673,0.73622 z"
         id="path2638-5-9-6-75"
         sodipodi:nodetypes="cssccccc" /><path
         style="fill:url(#linearGradient3318);fill-opacity:1;stroke-width:0.0381963"
         d="m 336.93989,103.33847 c 0,0 0.006,-0.26641 0.0613,-0.37586 0.0951,-0.189 0.31049,-0.28253 0.56388,-0.29154 0.14782,0.004 0.2743,0.0299 0.40412,0.18274 0.12981,0.15284 0.12232,0.32112 0.12232,0.32112 l -0.006,0.2253 c -0.11443,0.0545 -0.21266,0.0369 -0.284,0.0226 -0.11256,7.4e-4 -0.65032,-0.13796 -0.65032,-0.13796 z"
         id="path11206-13-6-2-2-2"
         sodipodi:nodetypes="cscsccccc" /><path
         style="fill:url(#linearGradient3320);fill-opacity:1;stroke-width:0.0381963"
         d="m 336.93785,103.33854 c 0,0 -0.11241,0.0844 -0.16697,0.12862 -0.0211,0.0165 -0.1088,0.0644 -0.0697,0.14146 -0.005,-0.0314 -0.007,-0.13449 0.21925,-0.12201 0.0392,0.004 0.16837,0.0694 0.29617,0.12604 0.0211,0.009 0.14217,0.0734 0.20861,0.0607 0.20691,-0.0396 0.33076,-0.17541 0.3806,-0.24977 -0.13005,-0.033 -0.3561,-0.0906 -0.51494,-0.131 -0.16498,-0.042 -0.25205,-0.028 -0.35303,0.0461 z"
         id="path11208-7-3-8-1-4"
         sodipodi:nodetypes="ccccsscsc" /><path
         style="fill:url(#linearGradient3321);fill-opacity:1;stroke:none;stroke-width:0.1;stroke-miterlimit:13.8;stroke-dasharray:none;stroke-opacity:1"
         d="m 336.84226,105.78151 -0.0112,-0.33326 c 0,-0.12285 0.0496,-0.22755 0.093,-0.30797 0.1291,-0.23902 0.47902,-0.0379 0.52567,0.2572 0.0263,0.16617 0.0295,0.2533 0.13289,0.77085 l -0.41922,0.32802 -0.26427,0.2156 c 0,0 -0.007,-0.2258 -0.0236,-0.36495 -0.0277,-0.23355 -0.031,-0.47817 -0.031,-0.47817 z"
         id="path2826-2-5"
         sodipodi:nodetypes="ccsscccscc" /><path
         style="fill:url(#linearGradient3322);fill-opacity:1;stroke:none;stroke-width:0.1;stroke-miterlimit:13.8;stroke-dasharray:none;stroke-opacity:1"
         d="m 337.75654,105.79449 -0.0149,0.27865 c 0,0 0.21458,-0.0415 0.39582,0.0272 0.1562,0.0592 -0.0955,-0.76689 -0.3476,-0.61691 z"
         id="path2829-0-0"
         sodipodi:nodetypes="ccscc" /><path
         style="fill:url(#linearGradient3323);fill-opacity:1;stroke:none;stroke-width:0.1;stroke-miterlimit:13.8;stroke-dasharray:none;stroke-opacity:1"
         d="m 336.23481,105.58398 -0.13155,0.34058 c 0,0 0.23468,0.0255 0.38855,0.14336 0.13261,0.10157 0.12882,-0.76201 -0.15573,-0.69077 z"
         id="path2829-8-7-5"
         sodipodi:nodetypes="ccscc" /><path
         style="opacity:0.78711;fill:url(#linearGradient3324);stroke:none;stroke-width:0.1;stroke-miterlimit:13.8;stroke-dasharray:none;stroke-opacity:1"
         d="m 337.18985,108.85336 c 0.0548,-0.19767 0.0838,-0.25449 0.1084,-0.31109 0.10357,-0.23793 0.26187,-0.50294 0.38192,-0.60362 0.0766,-0.0643 0.28576,-0.0912 0.28576,-0.0912 l -0.0789,0.72905 -0.4189,0.32286 -0.10272,-0.024 -0.12146,-0.0173 z"
         id="path2837-3-7"
         sodipodi:nodetypes="csscccccc" /><path
         style="opacity:0.284786;fill:url(#linearGradient3325);fill-opacity:1;stroke:none;stroke-width:0.1;stroke-linecap:square;stroke-miterlimit:63.1"
         d="m 337.99944,109.29483 c 0,0 0.0915,-0.18131 0.18824,-0.35456 0.0525,-0.0941 0.14462,-0.25896 0.22158,-0.41267 0.0808,-0.16132 0.11774,-0.25046 0.1407,-0.34377 0.0209,-0.0783 0.0398,-0.17675 0.0442,-0.30832 0.006,-0.19324 -0.0117,-0.29107 -0.0425,-0.50422 -0.014,-0.0971 -0.0232,-0.16362 -0.0232,-0.16362 l -0.86849,1.76392 c 0,0 0.21731,0.0868 0.33952,0.32324 z"
         id="path2937-3"
         sodipodi:nodetypes="csscssccc" /><path
         style="fill:url(#linearGradient3326);fill-opacity:1;stroke:none;stroke-width:0.1;stroke-linecap:square;stroke-miterlimit:63.1"
         d="m 333.37216,110.76004 0.0234,0.48265 1.62791,0.0256 -0.0826,-0.48054 z"
         id="path3366-5-9-2"
         sodipodi:nodetypes="ccccc" /><path
         style="fill:url(#linearGradient3327);fill-opacity:1;stroke-width:0.0934146;stroke-linecap:square;stroke-miterlimit:63.1"
         d="m 338.23732,111.14595 c 0,0 -0.0175,0.0687 0.01,0.12295 0.0202,0.0383 0.11434,0.0722 0.11434,0.0722 0,0 0.0457,0.0231 0.11485,0.0162 0.0687,-0.005 0.22683,-0.23706 0.25552,-0.27688 0.0285,-0.0397 0.0838,-0.11079 0.094,-0.13283 0.0101,-0.0219 0.0359,-0.0899 -0.0568,-0.24043 -0.0585,-0.0972 -0.32255,0.30075 -0.32255,0.30075 z"
         id="path3148-8-2-3-6-0-9-1-7"
         sodipodi:nodetypes="ccccscscc" /><path
         style="opacity:0.55;fill:url(#linearGradient3328);fill-opacity:1;stroke:none;stroke-width:0;stroke-linecap:square;stroke-miterlimit:63.1"
         d="m 337.93529,109.3207 c 0,0 0.24021,0.24774 0.36168,0.50988 0.0309,0.0667 0.0644,0.16857 0.16096,0.35953 0.0753,0.14886 0.18553,0.31452 0.26745,0.44853 0.0936,0.15318 -0.18324,0.23655 -0.18324,0.23655 l -0.0674,-0.0904 c 0,0 -0.79185,-1.0837 -0.53946,-1.46413 z"
         id="path439-2"
         sodipodi:nodetypes="cssscccc" /><path
         id="path22517-4-81-45-3-73-7-3-1-3-7-2-5-9-7-1-6-3-4-1"
         style="fill:url(#linearGradient3329);fill-opacity:1;stroke-width:0.453465"
         d="m 338.72549,110.63829 c -0.0723,0.12706 -0.1812,0.17674 -0.29592,0.13016 0,0 -0.16644,0.2804 -0.19205,0.37788 -0.0322,0.12261 0.18171,0.15266 0.18171,0.15266 0.0797,0.0182 0.18503,-0.13762 0.27775,-0.26264 0.068,-0.0906 0.15733,-0.17316 0.0714,-0.32901 -0.0115,-0.0214 -0.0307,-0.048 -0.043,-0.0687 z"
         sodipodi:nodetypes="ccccccc" /><path
         style="fill:url(#linearGradient3330);fill-opacity:1;stroke:#000000;stroke-width:0;stroke-linecap:square;stroke-miterlimit:63.1;stroke-dasharray:none;stroke-opacity:1"
         d="m 337.93175,103.66501 c 0,0 0.14593,-0.12336 0.16363,0 0.0258,0.17954 -0.21352,0.30257 -0.21352,0.30257"
         id="path4556-0-4-3"
         sodipodi:nodetypes="csc" /><path
         style="opacity:0.75;fill:url(#linearGradient3331);fill-opacity:1;stroke:none;stroke-width:0;stroke-linecap:square;stroke-miterlimit:63.1"
         d="m 338.42848,105.89886 c 0,0 -0.0872,0.28609 -0.15457,0.35953 -0.0242,0.0264 -0.0757,0.0897 -0.12649,0.13919 -0.0388,0.0378 -0.0795,0.0726 -0.10737,0.0974 -0.11445,0.10202 -0.25495,0.1748 -0.25495,0.1748 l -0.32492,-0.071 0.70694,-0.85748 z"
         id="path437-4"
         sodipodi:nodetypes="cssscccc" /><path
         style="fill:#f47a4c;fill-opacity:1;stroke-width:0.1;stroke-linecap:square;stroke-miterlimit:63.1"
         d="m 335.55736,106.78369 0.0222,0.0584 c 0,0 -0.0958,-1.5e-4 -0.0937,-0.0402"
         id="path1524-9"
         sodipodi:nodetypes="ccc" /><path
         style="fill:#f47a4c;fill-opacity:1;stroke-width:0.1;stroke-linecap:square;stroke-miterlimit:63.1"
         d="m 337.04288,106.98906 0.0266,0.0565 c 0,0 -0.0955,0.007 -0.0965,-0.0329"
         id="path1524-7-4"
         sodipodi:nodetypes="ccc" /></g></g></svg>
